<svg width="17" height="15" viewBox="0 0 17 15" fill="none" xmlns="http://www.w3.org/2000/svg">
<path d="M0 7.55176C0 7.17206 0.282154 6.85827 0.648229 6.8086L0.75 6.80176L15.75 6.80176C16.1642 6.80176 16.5 7.13754 16.5 7.55176C16.5 7.93145 16.2178 8.24525 15.8518 8.29491L15.75 8.30176L0.75 8.30176C0.335786 8.30176 0 7.96597 0 7.55176Z" fill="black"/>
<path d="M9.17101 2.05864C8.87749 1.76638 8.87646 1.29151 9.16872 0.997985C9.43442 0.731146 9.85103 0.706043 10.1451 0.923265L10.2294 0.995701L16.2794 7.0197C16.547 7.28619 16.5714 7.7043 16.3524 7.99837L16.2794 8.0826L10.2294 14.1076C9.93593 14.3999 9.46105 14.3989 9.16877 14.1054C8.90305 13.8386 8.87971 13.4219 9.09817 13.1287L9.17096 13.0447L14.687 7.55087L9.17101 2.05864Z" fill="black"/>
</svg>
