<svg width="128" height="96" viewBox="0 0 128 96" fill="none" xmlns="http://www.w3.org/2000/svg">
<rect width="128" height="96" rx="16" fill="#FFF9E9"/>
<ellipse cx="64.0001" cy="48.001" rx="34.6154" ry="34.6154" stroke="white" stroke-width="4"/>
<path d="M64.0001 13.3856C71.3182 13.3856 78.448 15.7049 84.3656 20.0103C90.2831 24.3158 94.6839 30.3859 96.9358 37.3489C99.1878 44.3119 99.1751 51.8094 96.8995 58.7647C94.6239 65.72 90.2026 71.7751 84.2705 76.0605" stroke="#FF9500" stroke-width="4" stroke-linecap="round"/>
<path d="M50.7263 53.001L50.1663 52.441L59.7073 42.921L60.2673 43.474L50.7263 53.001ZM58.1673 53.211C57.7053 53.211 57.2829 53.099 56.9003 52.875C56.5223 52.6463 56.2189 52.343 55.9903 51.965C55.7616 51.5823 55.6473 51.1576 55.6473 50.691C55.6473 50.2336 55.7639 49.8136 55.9973 49.431C56.2306 49.0483 56.5386 48.7426 56.9213 48.514C57.3039 48.2853 57.7193 48.171 58.1673 48.171C58.6293 48.171 59.0516 48.2853 59.4343 48.514C59.8169 48.738 60.1203 49.0413 60.3443 49.424C60.5729 49.802 60.6873 50.2243 60.6873 50.691C60.6873 51.1576 60.5729 51.5823 60.3443 51.965C60.1203 52.343 59.8169 52.6463 59.4343 52.875C59.0516 53.099 58.6293 53.211 58.1673 53.211ZM58.1673 52.455C58.4893 52.455 58.7833 52.3756 59.0493 52.217C59.3153 52.0536 59.5276 51.839 59.6863 51.573C59.8496 51.3023 59.9313 51.0083 59.9313 50.691C59.9313 50.3736 59.8496 50.082 59.6863 49.816C59.5276 49.5453 59.3153 49.3306 59.0493 49.172C58.7833 49.0086 58.4893 48.927 58.1673 48.927C57.8499 48.927 57.5583 49.0086 57.2923 49.172C57.0263 49.3306 56.8116 49.5453 56.6483 49.816C56.4896 50.082 56.4103 50.3736 56.4103 50.691C56.4103 51.0083 56.4896 51.3023 56.6483 51.573C56.8116 51.839 57.0263 52.0536 57.2923 52.217C57.5583 52.3756 57.8499 52.455 58.1673 52.455ZM52.2663 47.751C51.8043 47.751 51.3819 47.639 50.9993 47.415C50.6166 47.1863 50.3109 46.883 50.0823 46.505C49.8583 46.1223 49.7463 45.6976 49.7463 45.231C49.7463 44.7736 49.8629 44.3536 50.0963 43.971C50.3296 43.5883 50.6376 43.2826 51.0203 43.054C51.4029 42.8253 51.8183 42.711 52.2663 42.711C52.7283 42.711 53.1483 42.8253 53.5263 43.054C53.9089 43.278 54.2146 43.5813 54.4433 43.964C54.6719 44.342 54.7863 44.7643 54.7863 45.231C54.7863 45.6976 54.6719 46.1223 54.4433 46.505C54.2146 46.883 53.9089 47.1863 53.5263 47.415C53.1483 47.639 52.7283 47.751 52.2663 47.751ZM52.2663 46.995C52.5836 46.995 52.8753 46.9156 53.1413 46.757C53.4119 46.5936 53.6266 46.379 53.7853 46.113C53.9486 45.8423 54.0303 45.5483 54.0303 45.231C54.0303 44.9136 53.9486 44.622 53.7853 44.356C53.6266 44.0853 53.4119 43.8706 53.1413 43.712C52.8753 43.5486 52.5836 43.467 52.2663 43.467C51.9489 43.467 51.6573 43.5486 51.3913 43.712C51.1253 43.8706 50.9106 44.0853 50.7473 44.356C50.5839 44.622 50.5023 44.9136 50.5023 45.231C50.5023 45.5483 50.5839 45.8423 50.7473 46.113C50.9106 46.379 51.1253 46.5936 51.3913 46.757C51.6573 46.9156 51.9489 46.995 52.2663 46.995ZM67.0274 53.001V50.957H62.2254V50.166L65.6484 42.921H66.5514L63.1284 50.166H67.0274V47.121H67.8394V50.166H68.9944V50.957H67.8394V53.001H67.0274ZM73.8455 53.211C73.2528 53.211 72.7162 53.0686 72.2355 52.784C71.7595 52.4993 71.3792 52.119 71.0945 51.643C70.8098 51.1623 70.6675 50.6256 70.6675 50.033V45.889C70.6675 45.2963 70.8098 44.762 71.0945 44.286C71.3792 43.8053 71.7595 43.4226 72.2355 43.138C72.7162 42.8533 73.2528 42.711 73.8455 42.711C74.4382 42.711 74.9748 42.8533 75.4555 43.138C75.9362 43.4226 76.3165 43.8053 76.5965 44.286C76.8812 44.762 77.0235 45.2963 77.0235 45.889V50.033C77.0235 50.6256 76.8812 51.1623 76.5965 51.643C76.3165 52.119 75.9362 52.4993 75.4555 52.784C74.9748 53.0686 74.4382 53.211 73.8455 53.211ZM73.8455 52.42C74.2795 52.42 74.6738 52.315 75.0285 52.105C75.3878 51.8903 75.6748 51.6033 75.8895 51.244C76.1042 50.8846 76.2115 50.488 76.2115 50.054V45.861C76.2115 45.4316 76.1042 45.0373 75.8895 44.678C75.6748 44.3186 75.3878 44.034 75.0285 43.824C74.6738 43.6093 74.2795 43.502 73.8455 43.502C73.4115 43.502 73.0148 43.6093 72.6555 43.824C72.3008 44.034 72.0162 44.3186 71.8015 44.678C71.5868 45.0373 71.4795 45.4316 71.4795 45.861V50.054C71.4795 50.488 71.5868 50.8846 71.8015 51.244C72.0162 51.6033 72.3008 51.8903 72.6555 52.105C73.0148 52.315 73.4115 52.42 73.8455 52.42Z" fill="#636E72"/>
</svg>
