<svg width="128" height="96" viewBox="0 0 128 96" fill="none" xmlns="http://www.w3.org/2000/svg">
<rect width="128" height="96" rx="16" fill="#FDEFFC"/>
<circle cx="64.0002" cy="48" r="34.6154" stroke="white" stroke-width="4"/>
<path d="M64.0002 13.3846C71.0186 13.3846 77.8712 15.5181 83.6493 19.502C89.4274 23.486 93.858 29.1322 96.3535 35.692C98.849 42.2518 99.2915 49.4152 97.6224 56.2322C95.9533 63.0493 92.2514 69.198 87.0076 73.8628C81.7637 78.5277 75.2258 81.4883 68.2608 82.3522C61.2957 83.216 54.2326 81.9423 48.0081 78.6998C41.7835 75.4573 36.6917 70.3994 33.4077 64.1966C30.1238 57.9939 28.8029 50.9394 29.6203 43.9687" stroke="#AF52DE" stroke-width="4" stroke-linecap="round"/>
<path d="M51.6423 53L51.0823 52.44L60.6233 42.92L61.1833 43.473L51.6423 53ZM59.0833 53.21C58.6213 53.21 58.1989 53.098 57.8163 52.874C57.4383 52.6453 57.1349 52.342 56.9063 51.964C56.6776 51.5813 56.5633 51.1567 56.5633 50.69C56.5633 50.2327 56.6799 49.8127 56.9133 49.43C57.1466 49.0473 57.4546 48.7417 57.8373 48.513C58.2199 48.2843 58.6353 48.17 59.0833 48.17C59.5453 48.17 59.9676 48.2843 60.3503 48.513C60.7329 48.737 61.0363 49.0403 61.2603 49.423C61.4889 49.801 61.6033 50.2233 61.6033 50.69C61.6033 51.1567 61.4889 51.5813 61.2603 51.964C61.0363 52.342 60.7329 52.6453 60.3503 52.874C59.9676 53.098 59.5453 53.21 59.0833 53.21ZM59.0833 52.454C59.4053 52.454 59.6993 52.3747 59.9653 52.216C60.2313 52.0527 60.4436 51.838 60.6023 51.572C60.7656 51.3013 60.8473 51.0073 60.8473 50.69C60.8473 50.3727 60.7656 50.081 60.6023 49.815C60.4436 49.5443 60.2313 49.3297 59.9653 49.171C59.6993 49.0077 59.4053 48.926 59.0833 48.926C58.7659 48.926 58.4743 49.0077 58.2083 49.171C57.9423 49.3297 57.7276 49.5443 57.5643 49.815C57.4056 50.081 57.3263 50.3727 57.3263 50.69C57.3263 51.0073 57.4056 51.3013 57.5643 51.572C57.7276 51.838 57.9423 52.0527 58.2083 52.216C58.4743 52.3747 58.7659 52.454 59.0833 52.454ZM53.1823 47.75C52.7203 47.75 52.2979 47.638 51.9153 47.414C51.5326 47.1853 51.2269 46.882 50.9983 46.504C50.7743 46.1213 50.6623 45.6967 50.6623 45.23C50.6623 44.7727 50.7789 44.3527 51.0123 43.97C51.2456 43.5873 51.5536 43.2817 51.9363 43.053C52.3189 42.8243 52.7343 42.71 53.1823 42.71C53.6443 42.71 54.0643 42.8243 54.4423 43.053C54.8249 43.277 55.1306 43.5803 55.3593 43.963C55.5879 44.341 55.7023 44.7633 55.7023 45.23C55.7023 45.6967 55.5879 46.1213 55.3593 46.504C55.1306 46.882 54.8249 47.1853 54.4423 47.414C54.0643 47.638 53.6443 47.75 53.1823 47.75ZM53.1823 46.994C53.4996 46.994 53.7913 46.9147 54.0573 46.756C54.3279 46.5927 54.5426 46.378 54.7013 46.112C54.8646 45.8413 54.9463 45.5473 54.9463 45.23C54.9463 44.9127 54.8646 44.621 54.7013 44.355C54.5426 44.0843 54.3279 43.8697 54.0573 43.711C53.7913 43.5477 53.4996 43.466 53.1823 43.466C52.8649 43.466 52.5733 43.5477 52.3073 43.711C52.0413 43.8697 51.8266 44.0843 51.6633 44.355C51.4999 44.621 51.4183 44.9127 51.4183 45.23C51.4183 45.5473 51.4999 45.8413 51.6633 46.112C51.8266 46.378 52.0413 46.5927 52.3073 46.756C52.5733 46.9147 52.8649 46.994 53.1823 46.994ZM63.9744 53L67.7544 43.718H63.0014V42.92H68.6224V43.718L64.8424 53H63.9744ZM73.6864 53.21C73.061 53.21 72.4917 53.0583 71.9784 52.755C71.465 52.447 71.0567 52.0363 70.7534 51.523C70.45 51.005 70.2984 50.4287 70.2984 49.794V46.154C70.2984 45.51 70.45 44.929 70.7534 44.411C71.0567 43.8883 71.465 43.4753 71.9784 43.172C72.4964 42.864 73.0774 42.71 73.7214 42.71C74.3187 42.71 74.867 42.8523 75.3664 43.137C75.8704 43.417 76.2717 43.795 76.5704 44.271L75.9264 44.74C75.6977 44.3667 75.3897 44.068 75.0024 43.844C74.615 43.6153 74.188 43.501 73.7214 43.501C73.222 43.501 72.7764 43.6223 72.3844 43.865C71.9924 44.1077 71.682 44.4273 71.4534 44.824C71.2247 45.216 71.1104 45.643 71.1104 46.105V48.478L70.8724 48.198C71.1664 47.694 71.563 47.2857 72.0624 46.973C72.5664 46.6557 73.124 46.497 73.7354 46.497C74.3514 46.497 74.9114 46.6487 75.4154 46.952C75.924 47.2507 76.3254 47.6543 76.6194 48.163C76.918 48.667 77.0674 49.227 77.0674 49.843C77.0674 50.4637 76.9134 51.0283 76.6054 51.537C76.302 52.0457 75.8937 52.4517 75.3804 52.755C74.867 53.0583 74.3024 53.21 73.6864 53.21ZM73.6864 52.419C74.1624 52.419 74.594 52.3047 74.9814 52.076C75.3734 51.8427 75.6837 51.5323 75.9124 51.145C76.141 50.753 76.2554 50.319 76.2554 49.843C76.2554 49.367 76.141 48.9353 75.9124 48.548C75.6837 48.156 75.3734 47.8457 74.9814 47.617C74.594 47.3883 74.1624 47.274 73.6864 47.274C73.2104 47.274 72.7764 47.3883 72.3844 47.617C71.997 47.8457 71.6867 48.156 71.4534 48.548C71.2247 48.9353 71.1104 49.367 71.1104 49.843C71.1104 50.319 71.2247 50.753 71.4534 51.145C71.6867 51.5323 71.997 51.8427 72.3844 52.076C72.7764 52.3047 73.2104 52.419 73.6864 52.419Z" fill="#636E72"/>
</svg>
