<svg width="16" height="17" viewBox="0 0 16 17" fill="none" xmlns="http://www.w3.org/2000/svg">
<g clip-path="url(#clip0_1447_2356)">
<path d="M11.3335 2.65169H14.0002C14.177 2.65169 14.3465 2.72193 14.4716 2.84695C14.5966 2.97198 14.6668 3.14155 14.6668 3.31836V13.985C14.6668 14.1618 14.5966 14.3314 14.4716 14.4564C14.3465 14.5815 14.177 14.6517 14.0002 14.6517H2.00016C1.82335 14.6517 1.65378 14.5815 1.52876 14.4564C1.40373 14.3314 1.3335 14.1618 1.3335 13.985V3.31836C1.3335 3.14155 1.40373 2.97198 1.52876 2.84695C1.65378 2.72193 1.82335 2.65169 2.00016 2.65169H4.66683V1.31836H6.00016V2.65169H10.0002V1.31836H11.3335V2.65169ZM10.0002 3.98503H6.00016V5.31836H4.66683V3.98503H2.66683V6.65169H13.3335V3.98503H11.3335V5.31836H10.0002V3.98503ZM13.3335 7.98503H2.66683V13.3184H13.3335V7.98503Z" fill="#636E72"/>
</g>
<defs>
<clipPath id="clip0_1447_2356">
<rect width="16" height="16" fill="white" transform="translate(0 0.651855)"/>
</clipPath>
</defs>
</svg>
