<svg width="1072" height="282" viewBox="0 0 1072 282" fill="none" xmlns="http://www.w3.org/2000/svg">
<g clip-path="url(#clip0_58_35025)">
<line x1="52" y1="138.402" x2="1072" y2="138.402" stroke="#DFE6E9" stroke-width="0.5"/>
<line x1="52" y1="194.402" x2="1072" y2="194.402" stroke="#DFE6E9" stroke-width="0.5"/>
<line x1="52" y1="249.402" x2="1072" y2="249.402" stroke="#DFE6E9" stroke-width="0.5"/>
<line x1="52" y1="82.4019" x2="1072" y2="82.4019" stroke="#DFE6E9" stroke-width="0.5"/>
<line x1="52" y1="26.4019" x2="1072" y2="26.4019" stroke="#DFE6E9" stroke-width="0.5"/>
<path d="M5.418 32.6519H6.454V30.6989H7.553V29.7189H6.454V26.7789H5.418V29.7189H1.855L5.229 22.5719H4.074L0.7 29.7189V30.6989H5.418V32.6519ZM12.8078 32.8619C13.4331 32.8619 13.9931 32.7172 14.4878 32.4279C14.9825 32.1385 15.3745 31.7465 15.6638 31.2519C15.9531 30.7525 16.0978 30.1925 16.0978 29.5719V25.6519C16.0978 25.0265 15.9531 24.4665 15.6638 23.9719C15.3745 23.4772 14.9825 23.0852 14.4878 22.7959C13.9931 22.5065 13.4331 22.3619 12.8078 22.3619C12.1871 22.3619 11.6271 22.5065 11.1278 22.7959C10.6331 23.0852 10.2411 23.4772 9.95181 23.9719C9.66248 24.4665 9.51781 25.0265 9.51781 25.6519V29.5719C9.51781 30.1925 9.66248 30.7525 9.95181 31.2519C10.2411 31.7465 10.6331 32.1385 11.1278 32.4279C11.6271 32.7172 12.1871 32.8619 12.8078 32.8619ZM12.8078 31.8679C12.3971 31.8679 12.0215 31.7675 11.6808 31.5669C11.3401 31.3615 11.0671 31.0885 10.8618 30.7479C10.6611 30.4072 10.5608 30.0315 10.5608 29.6209V25.6029C10.5608 25.1875 10.6611 24.8095 10.8618 24.4689C11.0671 24.1282 11.3401 23.8575 11.6808 23.6569C12.0215 23.4515 12.3971 23.3489 12.8078 23.3489C13.2231 23.3489 13.5988 23.4515 13.9348 23.6569C14.2755 23.8575 14.5461 24.1282 14.7468 24.4689C14.9521 24.8095 15.0548 25.1875 15.0548 25.6029V29.6209C15.0548 30.0315 14.9521 30.4072 14.7468 30.7479C14.5461 31.0885 14.2755 31.3615 13.9348 31.5669C13.5988 31.7675 13.2231 31.8679 12.8078 31.8679ZM18.3427 32.6519H19.3717V27.6119L24.3277 32.6519H25.6717L20.5897 27.4369L25.2867 22.5719H23.9707L19.3717 27.3319V22.5719H18.3427V32.6519Z" fill="#636E72"/>
<path d="M0.7 88.3949H7.28V87.4079H2.268L5.852 84.1739C6.342 83.7352 6.70133 83.3105 6.93 82.8999C7.16333 82.4892 7.28 81.9665 7.28 81.3319C7.28 80.7299 7.13767 80.1862 6.853 79.7009C6.573 79.2155 6.188 78.8305 5.698 78.5459C5.21267 78.2565 4.66433 78.1119 4.053 78.1119C3.43233 78.1119 2.87233 78.2519 2.373 78.5319C1.87833 78.8072 1.48633 79.1875 1.197 79.6729C0.907667 80.1535 0.763 80.7019 0.763 81.3179H1.813C1.80833 80.9212 1.90167 80.5549 2.093 80.2189C2.289 79.8829 2.555 79.6122 2.891 79.4069C3.227 79.2015 3.60967 79.0989 4.039 79.0989C4.45433 79.0989 4.82767 79.1992 5.159 79.3999C5.49033 79.5959 5.75167 79.8619 5.943 80.1979C6.139 80.5339 6.237 80.9095 6.237 81.3249C6.237 81.6749 6.17167 82.0109 6.041 82.3329C5.91033 82.6549 5.65133 82.9909 5.264 83.3409L0.707 87.4569L0.7 88.3949ZM12.5344 88.6119C13.1597 88.6119 13.7197 88.4672 14.2144 88.1779C14.709 87.8885 15.101 87.4965 15.3904 87.0019C15.6797 86.5025 15.8244 85.9425 15.8244 85.3219V81.4019C15.8244 80.7765 15.6797 80.2165 15.3904 79.7219C15.101 79.2272 14.709 78.8352 14.2144 78.5459C13.7197 78.2565 13.1597 78.1119 12.5344 78.1119C11.9137 78.1119 11.3537 78.2565 10.8544 78.5459C10.3597 78.8352 9.96771 79.2272 9.67837 79.7219C9.38904 80.2165 9.24437 80.7765 9.24437 81.4019V85.3219C9.24437 85.9425 9.38904 86.5025 9.67837 87.0019C9.96771 87.4965 10.3597 87.8885 10.8544 88.1779C11.3537 88.4672 11.9137 88.6119 12.5344 88.6119ZM12.5344 87.6179C12.1237 87.6179 11.748 87.5175 11.4074 87.3169C11.0667 87.1115 10.7937 86.8385 10.5884 86.4979C10.3877 86.1572 10.2874 85.7815 10.2874 85.3709V81.3529C10.2874 80.9375 10.3877 80.5595 10.5884 80.2189C10.7937 79.8782 11.0667 79.6075 11.4074 79.4069C11.748 79.2015 12.1237 79.0989 12.5344 79.0989C12.9497 79.0989 13.3254 79.2015 13.6614 79.4069C14.002 79.6075 14.2727 79.8782 14.4734 80.2189C14.6787 80.5595 14.7814 80.9375 14.7814 81.3529V85.3709C14.7814 85.7815 14.6787 86.1572 14.4734 86.4979C14.2727 86.8385 14.002 87.1115 13.6614 87.3169C13.3254 87.5175 12.9497 87.6179 12.5344 87.6179ZM18.0693 88.4019H19.0983V83.3619L24.0543 88.4019H25.3983L20.3163 83.1869L25.0133 78.3219H23.6973L19.0983 83.0819V78.3219H18.0693V88.4019Z" fill="#636E72"/>
<path d="M2.737 144.152H3.78V134.072H2.737L0.84 135.206V136.361L2.737 135.22V144.152ZM10.0051 144.362C10.6304 144.362 11.1904 144.217 11.6851 143.928C12.1797 143.639 12.5717 143.247 12.8611 142.752C13.1504 142.253 13.2951 141.693 13.2951 141.072V137.152C13.2951 136.527 13.1504 135.967 12.8611 135.472C12.5717 134.977 12.1797 134.585 11.6851 134.296C11.1904 134.007 10.6304 133.862 10.0051 133.862C9.38441 133.862 8.82441 134.007 8.32508 134.296C7.83041 134.585 7.43841 134.977 7.14908 135.472C6.85975 135.967 6.71508 136.527 6.71508 137.152V141.072C6.71508 141.693 6.85975 142.253 7.14908 142.752C7.43841 143.247 7.83041 143.639 8.32508 143.928C8.82441 144.217 9.38441 144.362 10.0051 144.362ZM10.0051 143.368C9.59441 143.368 9.21875 143.268 8.87808 143.067C8.53741 142.862 8.26441 142.589 8.05908 142.248C7.85841 141.907 7.75808 141.532 7.75808 141.121V137.103C7.75808 136.688 7.85841 136.31 8.05908 135.969C8.26441 135.628 8.53741 135.358 8.87808 135.157C9.21875 134.952 9.59441 134.849 10.0051 134.849C10.4204 134.849 10.7961 134.952 11.1321 135.157C11.4727 135.358 11.7434 135.628 11.9441 135.969C12.1494 136.31 12.2521 136.688 12.2521 137.103V141.121C12.2521 141.532 12.1494 141.907 11.9441 142.248C11.7434 142.589 11.4727 142.862 11.1321 143.067C10.7961 143.268 10.4204 143.368 10.0051 143.368ZM15.54 144.152H16.569V139.112L21.525 144.152H22.869L17.787 138.937L22.484 134.072H21.168L16.569 138.832V134.072H15.54V144.152Z" fill="#636E72"/>
<path d="M3.955 200.112C4.58033 200.112 5.152 199.96 5.67 199.657C6.188 199.349 6.60333 198.938 6.916 198.425C7.22867 197.912 7.385 197.347 7.385 196.731C7.385 196.11 7.238 195.548 6.944 195.044C6.65 194.54 6.25333 194.141 5.754 193.847C5.25467 193.548 4.69467 193.399 4.074 193.399C3.696 193.399 3.32967 193.467 2.975 193.602C2.62033 193.733 2.30533 193.919 2.03 194.162L2.233 190.809H6.678V189.822H1.295L0.987 195.065L1.925 195.457C2.13033 195.14 2.40567 194.878 2.751 194.673C3.09633 194.468 3.507 194.365 3.983 194.365C4.40767 194.365 4.79967 194.47 5.159 194.68C5.51833 194.89 5.80767 195.175 6.027 195.534C6.24633 195.889 6.356 196.288 6.356 196.731C6.356 197.16 6.251 197.555 6.041 197.914C5.831 198.273 5.54633 198.563 5.187 198.782C4.83233 198.997 4.431 199.104 3.983 199.104C3.465 199.104 2.98667 198.945 2.548 198.628C2.10933 198.311 1.82233 197.879 1.687 197.333L0.7 197.599C0.835333 198.089 1.05933 198.523 1.372 198.901C1.68467 199.279 2.06267 199.575 2.506 199.79C2.94933 200.005 3.43233 200.112 3.955 200.112ZM9.34008 199.902H10.3691V194.862L15.3251 199.902H16.6691L11.5871 194.687L16.2841 189.822H14.9681L10.3691 194.582V189.822H9.34008V199.902Z" fill="#636E72"/>
<path d="M4.27 255.862C4.89533 255.862 5.45533 255.717 5.95 255.428C6.44467 255.139 6.83667 254.747 7.126 254.252C7.41533 253.753 7.56 253.193 7.56 252.572V248.652C7.56 248.027 7.41533 247.467 7.126 246.972C6.83667 246.477 6.44467 246.085 5.95 245.796C5.45533 245.507 4.89533 245.362 4.27 245.362C3.64933 245.362 3.08933 245.507 2.59 245.796C2.09533 246.085 1.70333 246.477 1.414 246.972C1.12467 247.467 0.98 248.027 0.98 248.652V252.572C0.98 253.193 1.12467 253.753 1.414 254.252C1.70333 254.747 2.09533 255.139 2.59 255.428C3.08933 255.717 3.64933 255.862 4.27 255.862ZM4.27 254.868C3.85933 254.868 3.48367 254.768 3.143 254.567C2.80233 254.362 2.52933 254.089 2.324 253.748C2.12333 253.407 2.023 253.032 2.023 252.621V248.603C2.023 248.188 2.12333 247.81 2.324 247.469C2.52933 247.128 2.80233 246.858 3.143 246.657C3.48367 246.452 3.85933 246.349 4.27 246.349C4.68533 246.349 5.061 246.452 5.397 246.657C5.73767 246.858 6.00833 247.128 6.209 247.469C6.41433 247.81 6.517 248.188 6.517 248.603V252.621C6.517 253.032 6.41433 253.407 6.209 253.748C6.00833 254.089 5.73767 254.362 5.397 254.567C5.061 254.768 4.68533 254.868 4.27 254.868Z" fill="#636E72"/>
<path d="M76.129 276.855C76.6237 276.855 77.074 276.75 77.48 276.54C77.8907 276.33 78.2174 276.013 78.46 275.588C78.642 275.271 78.7424 274.958 78.761 274.65C78.7797 274.337 78.789 273.971 78.789 273.551V266.572H77.753V273.551C77.753 273.878 77.7437 274.16 77.725 274.398C77.711 274.636 77.6527 274.855 77.55 275.056C77.396 275.345 77.1837 275.553 76.913 275.679C76.647 275.805 76.3834 275.868 76.122 275.868C75.7114 275.868 75.352 275.742 75.044 275.49C74.736 275.233 74.54 274.921 74.456 274.552L73.427 274.797C73.5904 275.418 73.9124 275.917 74.393 276.295C74.8737 276.668 75.4524 276.855 76.129 276.855ZM83.3442 276.862C84.6648 276.862 85.6238 276.374 86.2212 275.399V276.652H87.1382V271.955C87.1382 271.675 87.1242 271.4 87.0962 271.129C87.0682 270.858 87.0075 270.613 86.9142 270.394C86.7135 269.904 86.3705 269.531 85.8852 269.274C85.4045 269.013 84.8188 268.882 84.1282 268.882C83.2975 268.882 82.6208 269.069 82.0982 269.442C81.5755 269.815 81.2255 270.34 81.0482 271.017L82.0492 271.311C82.1938 270.807 82.4435 270.438 82.7982 270.205C83.1575 269.972 83.5962 269.855 84.1142 269.855C84.8328 269.855 85.3462 270.023 85.6542 270.359C85.9622 270.69 86.1208 271.197 86.1302 271.878C85.7942 271.925 85.4232 271.974 85.0172 272.025C84.6158 272.076 84.2122 272.135 83.8062 272.2C83.4002 272.265 83.0268 272.34 82.6862 272.424C82.1215 272.573 81.6595 272.823 81.3002 273.173C80.9408 273.518 80.7612 274.001 80.7612 274.622C80.7612 275.023 80.8568 275.394 81.0482 275.735C81.2395 276.076 81.5265 276.349 81.9092 276.554C82.2965 276.759 82.7748 276.862 83.3442 276.862ZM83.4632 275.973C83.0572 275.973 82.7305 275.908 82.4832 275.777C82.2405 275.642 82.0632 275.471 81.9512 275.266C81.8438 275.056 81.7902 274.841 81.7902 274.622C81.7902 274.211 81.9278 273.903 82.2032 273.698C82.4785 273.493 82.7772 273.343 83.0992 273.25C83.5145 273.138 83.9975 273.047 84.5482 272.977C85.0988 272.907 85.6215 272.842 86.1162 272.781C86.1162 272.954 86.1092 273.152 86.0952 273.376C86.0858 273.595 86.0602 273.798 86.0182 273.985C85.9202 274.554 85.6495 275.028 85.2062 275.406C84.7675 275.784 84.1865 275.973 83.4632 275.973ZM89.2335 276.652H90.2695V272.62C90.2695 271.766 90.4608 271.096 90.8435 270.611C91.2261 270.126 91.7815 269.883 92.5095 269.883C93.0368 269.883 93.4615 270.011 93.7835 270.268C94.1055 270.52 94.3388 270.865 94.4835 271.304C94.6281 271.743 94.7005 272.24 94.7005 272.795V276.652H95.7365V272.494C95.7365 272.069 95.6828 271.645 95.5755 271.22C95.4728 270.795 95.3048 270.408 95.0715 270.058C94.8381 269.708 94.5278 269.428 94.1405 269.218C93.7531 269.008 93.2748 268.903 92.7055 268.903C92.1641 268.903 91.6741 269.008 91.2355 269.218C90.8015 269.423 90.4445 269.731 90.1645 270.142V269.092H89.2335V276.652Z" fill="#636E72"/>
<path d="M160.902 276.652H161.931V272.123H165.851V271.101H161.931V267.601H166.691V266.572H160.902V276.652ZM171.23 276.862C171.963 276.862 172.619 276.682 173.197 276.323C173.781 275.964 174.222 275.453 174.52 274.79L173.561 274.419C173.081 275.39 172.29 275.875 171.188 275.875C170.432 275.875 169.84 275.639 169.41 275.168C168.986 274.697 168.752 274.027 168.71 273.159H174.667C174.705 271.824 174.413 270.779 173.792 270.023C173.176 269.262 172.308 268.882 171.188 268.882C170.46 268.882 169.828 269.045 169.291 269.372C168.759 269.699 168.346 270.163 168.052 270.765C167.758 271.367 167.611 272.081 167.611 272.907C167.611 273.705 167.758 274.4 168.052 274.993C168.351 275.586 168.771 276.045 169.312 276.372C169.858 276.699 170.498 276.862 171.23 276.862ZM171.216 269.827C172.64 269.827 173.431 270.651 173.589 272.298H168.731C168.811 271.5 169.063 270.889 169.487 270.464C169.912 270.039 170.488 269.827 171.216 269.827ZM176.494 276.652H177.418V275.595C177.688 275.987 178.031 276.297 178.447 276.526C178.862 276.75 179.345 276.862 179.896 276.862C180.605 276.862 181.209 276.687 181.709 276.337C182.208 275.982 182.588 275.504 182.85 274.902C183.116 274.3 183.249 273.621 183.249 272.865C183.249 272.114 183.116 271.437 182.85 270.835C182.588 270.233 182.21 269.757 181.716 269.407C181.221 269.057 180.628 268.882 179.938 268.882C179.415 268.882 178.951 268.98 178.545 269.176C178.143 269.367 177.805 269.636 177.53 269.981V266.572H176.494V276.652ZM179.791 275.903C179.254 275.903 178.811 275.772 178.461 275.511C178.111 275.245 177.849 274.883 177.677 274.426C177.504 273.969 177.418 273.448 177.418 272.865C177.418 271.974 177.611 271.248 177.999 270.688C178.391 270.123 178.981 269.841 179.77 269.841C180.311 269.841 180.757 269.974 181.107 270.24C181.461 270.506 181.725 270.868 181.898 271.325C182.07 271.782 182.157 272.296 182.157 272.865C182.157 273.439 182.068 273.955 181.891 274.412C181.718 274.869 181.457 275.233 181.107 275.504C180.757 275.77 180.318 275.903 179.791 275.903Z" fill="#636E72"/>
<path d="M247.129 276.652H248.116V268.868L251.7 276.652H252.365L255.956 268.868V276.645H256.936V266.572H255.977L252.036 275.049L248.074 266.572H247.129V276.652ZM261.344 276.862C262.664 276.862 263.623 276.374 264.221 275.399V276.652H265.138V271.955C265.138 271.675 265.124 271.4 265.096 271.129C265.068 270.858 265.007 270.613 264.914 270.394C264.713 269.904 264.37 269.531 263.885 269.274C263.404 269.013 262.818 268.882 262.128 268.882C261.297 268.882 260.62 269.069 260.098 269.442C259.575 269.815 259.225 270.34 259.048 271.017L260.049 271.311C260.193 270.807 260.443 270.438 260.798 270.205C261.157 269.972 261.596 269.855 262.114 269.855C262.832 269.855 263.346 270.023 263.654 270.359C263.962 270.69 264.12 271.197 264.13 271.878C263.794 271.925 263.423 271.974 263.017 272.025C262.615 272.076 262.212 272.135 261.806 272.2C261.4 272.265 261.026 272.34 260.686 272.424C260.121 272.573 259.659 272.823 259.3 273.173C258.94 273.518 258.761 274.001 258.761 274.622C258.761 275.023 258.856 275.394 259.048 275.735C259.239 276.076 259.526 276.349 259.909 276.554C260.296 276.759 260.774 276.862 261.344 276.862ZM261.463 275.973C261.057 275.973 260.73 275.908 260.483 275.777C260.24 275.642 260.063 275.471 259.951 275.266C259.843 275.056 259.79 274.841 259.79 274.622C259.79 274.211 259.927 273.903 260.203 273.698C260.478 273.493 260.777 273.343 261.099 273.25C261.514 273.138 261.997 273.047 262.548 272.977C263.098 272.907 263.621 272.842 264.116 272.781C264.116 272.954 264.109 273.152 264.095 273.376C264.085 273.595 264.06 273.798 264.018 273.985C263.92 274.554 263.649 275.028 263.206 275.406C262.767 275.784 262.186 275.973 261.463 275.973ZM267.24 276.652H268.269V272.879C268.269 272.426 268.32 271.976 268.423 271.528C268.53 271.075 268.773 270.7 269.151 270.401C269.426 270.177 269.725 270.049 270.047 270.016C270.374 269.979 270.677 269.993 270.957 270.058V269.092C270.626 269.008 270.25 269.006 269.83 269.085C269.41 269.16 269.051 269.328 268.752 269.589C268.528 269.757 268.332 269.99 268.164 270.289V269.092H267.24V276.652Z" fill="#636E72"/>
<path d="M334.489 276.652H335.56L336.4 274.209H340.88L341.727 276.652H342.798L339.326 266.572H337.961L334.489 276.652ZM336.736 273.243L338.633 267.734L340.544 273.243H336.736ZM344.335 280.012H345.371V275.749C345.642 276.094 345.976 276.367 346.372 276.568C346.769 276.764 347.224 276.862 347.737 276.862C348.447 276.862 349.051 276.687 349.55 276.337C350.05 275.982 350.43 275.504 350.691 274.902C350.957 274.3 351.09 273.621 351.09 272.865C351.09 272.114 350.957 271.437 350.691 270.835C350.43 270.233 350.052 269.757 349.557 269.407C349.063 269.057 348.47 268.882 347.779 268.882C347.219 268.882 346.727 268.994 346.302 269.218C345.882 269.437 345.535 269.743 345.259 270.135V269.092H344.335V280.012ZM347.632 275.903C347.096 275.903 346.652 275.772 346.302 275.511C345.952 275.245 345.691 274.883 345.518 274.426C345.346 273.969 345.259 273.448 345.259 272.865C345.259 271.974 345.453 271.248 345.84 270.688C346.232 270.123 346.823 269.841 347.611 269.841C348.153 269.841 348.598 269.974 348.948 270.24C349.303 270.506 349.567 270.868 349.739 271.325C349.912 271.782 349.998 272.296 349.998 272.865C349.998 273.439 349.91 273.955 349.732 274.412C349.56 274.869 349.298 275.233 348.948 275.504C348.598 275.77 348.16 275.903 347.632 275.903ZM352.907 276.652H353.936V272.879C353.936 272.426 353.988 271.976 354.09 271.528C354.198 271.075 354.44 270.7 354.818 270.401C355.094 270.177 355.392 270.049 355.714 270.016C356.041 269.979 356.344 269.993 356.624 270.058V269.092C356.293 269.008 355.917 269.006 355.497 269.085C355.077 269.16 354.718 269.328 354.419 269.589C354.195 269.757 353.999 269.99 353.831 270.289V269.092H352.907V276.652Z" fill="#636E72"/>
<path d="M419.9 276.652H420.887V268.868L424.471 276.652H425.136L428.727 268.868V276.645H429.707V266.572H428.748L424.807 275.049L420.845 266.572H419.9V276.652ZM434.114 276.862C435.435 276.862 436.394 276.374 436.991 275.399V276.652H437.908V271.955C437.908 271.675 437.894 271.4 437.866 271.129C437.838 270.858 437.778 270.613 437.684 270.394C437.484 269.904 437.141 269.531 436.655 269.274C436.175 269.013 435.589 268.882 434.898 268.882C434.068 268.882 433.391 269.069 432.868 269.442C432.346 269.815 431.996 270.34 431.818 271.017L432.819 271.311C432.964 270.807 433.214 270.438 433.568 270.205C433.928 269.972 434.366 269.855 434.884 269.855C435.603 269.855 436.116 270.023 436.424 270.359C436.732 270.69 436.891 271.197 436.9 271.878C436.564 271.925 436.193 271.974 435.787 272.025C435.386 272.076 434.982 272.135 434.576 272.2C434.17 272.265 433.797 272.34 433.456 272.424C432.892 272.573 432.43 272.823 432.07 273.173C431.711 273.518 431.531 274.001 431.531 274.622C431.531 275.023 431.627 275.394 431.818 275.735C432.01 276.076 432.297 276.349 432.679 276.554C433.067 276.759 433.545 276.862 434.114 276.862ZM434.233 275.973C433.827 275.973 433.501 275.908 433.253 275.777C433.011 275.642 432.833 275.471 432.721 275.266C432.614 275.056 432.56 274.841 432.56 274.622C432.56 274.211 432.698 273.903 432.973 273.698C433.249 273.493 433.547 273.343 433.869 273.25C434.285 273.138 434.768 273.047 435.318 272.977C435.869 272.907 436.392 272.842 436.886 272.781C436.886 272.954 436.879 273.152 436.865 273.376C436.856 273.595 436.83 273.798 436.788 273.985C436.69 274.554 436.42 275.028 435.976 275.406C435.538 275.784 434.957 275.973 434.233 275.973ZM440.665 280.012H441.694L445.754 269.092H444.704L442.415 275.308L439.93 269.092H438.838L441.911 276.631L440.665 280.012Z" fill="#636E72"/>
<path d="M505.473 276.855C505.968 276.855 506.418 276.75 506.824 276.54C507.235 276.33 507.562 276.013 507.804 275.588C507.986 275.271 508.087 274.958 508.105 274.65C508.124 274.337 508.133 273.971 508.133 273.551V266.572H507.097V273.551C507.097 273.878 507.088 274.16 507.069 274.398C507.055 274.636 506.997 274.855 506.894 275.056C506.74 275.345 506.528 275.553 506.257 275.679C505.991 275.805 505.728 275.868 505.466 275.868C505.056 275.868 504.696 275.742 504.388 275.49C504.08 275.233 503.884 274.921 503.8 274.552L502.771 274.797C502.935 275.418 503.257 275.917 503.737 276.295C504.218 276.668 504.797 276.855 505.473 276.855ZM513.417 276.841C513.958 276.841 514.446 276.738 514.88 276.533C515.318 276.323 515.678 276.013 515.958 275.602V276.652H516.882V269.092H515.853V273.124C515.853 273.978 515.661 274.648 515.279 275.133C514.896 275.618 514.341 275.861 513.613 275.861C513.085 275.861 512.661 275.735 512.339 275.483C512.017 275.226 511.783 274.879 511.639 274.44C511.494 274.001 511.422 273.504 511.422 272.949V269.092H510.386V273.25C510.386 273.675 510.437 274.099 510.54 274.524C510.647 274.949 510.817 275.336 511.051 275.686C511.284 276.036 511.594 276.316 511.982 276.526C512.374 276.736 512.852 276.841 513.417 276.841ZM519.111 276.652H520.147V272.62C520.147 271.766 520.338 271.096 520.721 270.611C521.104 270.126 521.659 269.883 522.387 269.883C522.914 269.883 523.339 270.011 523.661 270.268C523.983 270.52 524.216 270.865 524.361 271.304C524.506 271.743 524.578 272.24 524.578 272.795V276.652H525.614V272.494C525.614 272.069 525.56 271.645 525.453 271.22C525.35 270.795 525.182 270.408 524.949 270.058C524.716 269.708 524.405 269.428 524.018 269.218C523.631 269.008 523.152 268.903 522.583 268.903C522.042 268.903 521.552 269.008 521.113 269.218C520.679 269.423 520.322 269.731 520.042 270.142V269.092H519.111V276.652ZM530.855 276.862C531.588 276.862 532.243 276.682 532.822 276.323C533.405 275.964 533.846 275.453 534.145 274.79L533.186 274.419C532.705 275.39 531.914 275.875 530.813 275.875C530.057 275.875 529.464 275.639 529.035 275.168C528.61 274.697 528.377 274.027 528.335 273.159H534.292C534.329 271.824 534.038 270.779 533.417 270.023C532.801 269.262 531.933 268.882 530.813 268.882C530.085 268.882 529.453 269.045 528.916 269.372C528.384 269.699 527.971 270.163 527.677 270.765C527.383 271.367 527.236 272.081 527.236 272.907C527.236 273.705 527.383 274.4 527.677 274.993C527.976 275.586 528.396 276.045 528.937 276.372C529.483 276.699 530.122 276.862 530.855 276.862ZM530.841 269.827C532.264 269.827 533.055 270.651 533.214 272.298H528.356C528.435 271.5 528.687 270.889 529.112 270.464C529.537 270.039 530.113 269.827 530.841 269.827Z" fill="#636E72"/>
<path d="M594.735 276.855C595.23 276.855 595.68 276.75 596.086 276.54C596.497 276.33 596.823 276.013 597.066 275.588C597.248 275.271 597.348 274.958 597.367 274.65C597.386 274.337 597.395 273.971 597.395 273.551V266.572H596.359V273.551C596.359 273.878 596.35 274.16 596.331 274.398C596.317 274.636 596.259 274.855 596.156 275.056C596.002 275.345 595.79 275.553 595.519 275.679C595.253 275.805 594.989 275.868 594.728 275.868C594.317 275.868 593.958 275.742 593.65 275.49C593.342 275.233 593.146 274.921 593.062 274.552L592.033 274.797C592.196 275.418 592.518 275.917 592.999 276.295C593.48 276.668 594.058 276.855 594.735 276.855ZM602.678 276.841C603.22 276.841 603.707 276.738 604.141 276.533C604.58 276.323 604.939 276.013 605.219 275.602V276.652H606.143V269.092H605.114V273.124C605.114 273.978 604.923 274.648 604.54 275.133C604.158 275.618 603.602 275.861 602.874 275.861C602.347 275.861 601.922 275.735 601.6 275.483C601.278 275.226 601.045 274.879 600.9 274.44C600.756 274.001 600.683 273.504 600.683 272.949V269.092H599.647V273.25C599.647 273.675 599.699 274.099 599.801 274.524C599.909 274.949 600.079 275.336 600.312 275.686C600.546 276.036 600.856 276.316 601.243 276.526C601.635 276.736 602.114 276.841 602.678 276.841ZM608.52 276.652H609.549V266.362H608.52V276.652ZM613.005 280.012H614.034L618.094 269.092H617.044L614.755 275.308L612.27 269.092H611.178L614.251 276.631L613.005 280.012Z" fill="#636E72"/>
<path d="M678.81 276.652H679.881L680.721 274.209H685.201L686.048 276.652H687.119L683.647 266.572H682.282L678.81 276.652ZM681.057 273.243L682.954 267.734L684.865 273.243H681.057ZM691.554 276.841C692.095 276.841 692.583 276.738 693.017 276.533C693.456 276.323 693.815 276.013 694.095 275.602V276.652H695.019V269.092H693.99V273.124C693.99 273.978 693.799 274.648 693.416 275.133C693.033 275.618 692.478 275.861 691.75 275.861C691.223 275.861 690.798 275.735 690.476 275.483C690.154 275.226 689.921 274.879 689.776 274.44C689.631 274.001 689.559 273.504 689.559 272.949V269.092H688.523V273.25C688.523 273.675 688.574 274.099 688.677 274.524C688.784 274.949 688.955 275.336 689.188 275.686C689.421 276.036 689.732 276.316 690.119 276.526C690.511 276.736 690.989 276.841 691.554 276.841ZM700.189 276.862C700.697 276.862 701.15 276.764 701.547 276.568C701.943 276.372 702.277 276.101 702.548 275.756V276.533C702.552 277.42 702.377 278.089 702.023 278.542C701.668 278.995 701.08 279.221 700.259 279.221C699.862 279.221 699.472 279.128 699.09 278.941C698.707 278.759 698.413 278.458 698.208 278.038L697.277 278.556C697.599 279.144 698.03 279.569 698.572 279.83C699.118 280.091 699.68 280.222 700.259 280.222C701.183 280.222 701.92 280.021 702.471 279.62C703.021 279.219 703.364 278.596 703.5 277.751C703.532 277.56 703.553 277.364 703.563 277.163C703.577 276.967 703.584 276.762 703.584 276.547V269.092H702.667V270.135C702.391 269.743 702.041 269.437 701.617 269.218C701.197 268.994 700.707 268.882 700.147 268.882C699.456 268.882 698.863 269.057 698.369 269.407C697.874 269.757 697.494 270.233 697.228 270.835C696.966 271.437 696.836 272.114 696.836 272.865C696.836 273.621 696.966 274.3 697.228 274.902C697.494 275.504 697.876 275.982 698.376 276.337C698.88 276.687 699.484 276.862 700.189 276.862ZM700.294 275.903C699.771 275.903 699.332 275.77 698.978 275.504C698.628 275.233 698.364 274.869 698.187 274.412C698.014 273.955 697.928 273.439 697.928 272.865C697.928 272.296 698.014 271.782 698.187 271.325C698.359 270.868 698.621 270.506 698.971 270.24C699.325 269.974 699.773 269.841 700.315 269.841C701.103 269.841 701.691 270.123 702.079 270.688C702.471 271.248 702.667 271.974 702.667 272.865C702.667 273.448 702.58 273.969 702.408 274.426C702.235 274.883 701.974 275.245 701.624 275.511C701.274 275.772 700.83 275.903 700.294 275.903Z" fill="#636E72"/>
<path d="M770.161 276.862C770.866 276.862 771.493 276.745 772.044 276.512C772.599 276.279 773.038 275.943 773.36 275.504C773.682 275.061 773.843 274.526 773.843 273.901C773.843 273.425 773.754 273.031 773.577 272.718C773.404 272.401 773.185 272.146 772.919 271.955C772.658 271.759 772.389 271.61 772.114 271.507C771.839 271.4 771.598 271.318 771.393 271.262L769.419 270.681C769.158 270.606 768.887 270.511 768.607 270.394C768.332 270.277 768.098 270.116 767.907 269.911C767.72 269.706 767.627 269.433 767.627 269.092C767.627 268.756 767.73 268.457 767.935 268.196C768.14 267.93 768.42 267.722 768.775 267.573C769.13 267.419 769.531 267.344 769.979 267.349C770.684 267.354 771.288 267.552 771.792 267.944C772.301 268.331 772.606 268.852 772.709 269.505L773.787 269.309C773.624 268.404 773.201 267.69 772.52 267.167C771.839 266.64 770.994 266.374 769.986 266.369C769.323 266.364 768.733 266.476 768.215 266.705C767.697 266.929 767.289 267.249 766.99 267.664C766.691 268.075 766.542 268.565 766.542 269.134C766.542 269.811 766.745 270.338 767.151 270.716C767.562 271.089 768.075 271.367 768.691 271.549L771.246 272.312C771.479 272.382 771.715 272.478 771.953 272.599C772.191 272.72 772.389 272.888 772.548 273.103C772.711 273.318 772.793 273.598 772.793 273.943C772.793 274.34 772.681 274.683 772.457 274.972C772.233 275.261 771.925 275.485 771.533 275.644C771.146 275.798 770.702 275.875 770.203 275.875C769.452 275.875 768.805 275.691 768.264 275.322C767.723 274.949 767.368 274.435 767.2 273.782L766.15 273.957C766.267 274.554 766.507 275.07 766.871 275.504C767.235 275.938 767.697 276.274 768.257 276.512C768.822 276.745 769.456 276.862 770.161 276.862ZM778.767 276.862C779.5 276.862 780.155 276.682 780.734 276.323C781.317 275.964 781.758 275.453 782.057 274.79L781.098 274.419C780.617 275.39 779.826 275.875 778.725 275.875C777.969 275.875 777.376 275.639 776.947 275.168C776.522 274.697 776.289 274.027 776.247 273.159H782.204C782.241 271.824 781.95 270.779 781.329 270.023C780.713 269.262 779.845 268.882 778.725 268.882C777.997 268.882 777.365 269.045 776.828 269.372C776.296 269.699 775.883 270.163 775.589 270.765C775.295 271.367 775.148 272.081 775.148 272.907C775.148 273.705 775.295 274.4 775.589 274.993C775.888 275.586 776.308 276.045 776.849 276.372C777.395 276.699 778.034 276.862 778.767 276.862ZM778.753 269.827C780.176 269.827 780.967 270.651 781.126 272.298H776.268C776.347 271.5 776.599 270.889 777.024 270.464C777.449 270.039 778.025 269.827 778.753 269.827ZM783.825 280.012H784.861V275.749C785.132 276.094 785.466 276.367 785.862 276.568C786.259 276.764 786.714 276.862 787.227 276.862C787.937 276.862 788.541 276.687 789.04 276.337C789.54 275.982 789.92 275.504 790.181 274.902C790.447 274.3 790.58 273.621 790.58 272.865C790.58 272.114 790.447 271.437 790.181 270.835C789.92 270.233 789.542 269.757 789.047 269.407C788.553 269.057 787.96 268.882 787.269 268.882C786.709 268.882 786.217 268.994 785.792 269.218C785.372 269.437 785.025 269.743 784.749 270.135V269.092H783.825V280.012ZM787.122 275.903C786.586 275.903 786.142 275.772 785.792 275.511C785.442 275.245 785.181 274.883 785.008 274.426C784.836 273.969 784.749 273.448 784.749 272.865C784.749 271.974 784.943 271.248 785.33 270.688C785.722 270.123 786.313 269.841 787.101 269.841C787.643 269.841 788.088 269.974 788.438 270.24C788.793 270.506 789.057 270.868 789.229 271.325C789.402 271.782 789.488 272.296 789.488 272.865C789.488 273.439 789.4 273.955 789.222 274.412C789.05 274.869 788.788 275.233 788.438 275.504C788.088 275.77 787.65 275.903 787.122 275.903Z" fill="#636E72"/>
<path d="M858.31 276.862C859.318 276.862 860.167 276.64 860.858 276.197C861.548 275.754 862.071 275.138 862.426 274.349C862.78 273.556 862.958 272.643 862.958 271.612C862.958 270.576 862.78 269.664 862.426 268.875C862.071 268.086 861.548 267.47 860.858 267.027C860.167 266.584 859.318 266.362 858.31 266.362C857.306 266.362 856.459 266.584 855.769 267.027C855.078 267.47 854.555 268.086 854.201 268.875C853.846 269.664 853.669 270.576 853.669 271.612C853.669 272.643 853.846 273.556 854.201 274.349C854.555 275.138 855.078 275.754 855.769 276.197C856.459 276.64 857.306 276.862 858.31 276.862ZM858.31 275.875C857.521 275.87 856.861 275.688 856.329 275.329C855.801 274.97 855.407 274.47 855.146 273.831C854.884 273.192 854.756 272.452 854.761 271.612C854.77 270.772 854.905 270.032 855.167 269.393C855.428 268.749 855.82 268.247 856.343 267.888C856.865 267.524 857.521 267.344 858.31 267.349C859.098 267.354 859.756 267.536 860.284 267.895C860.811 268.254 861.205 268.754 861.467 269.393C861.733 270.032 861.866 270.772 861.866 271.612C861.866 272.452 861.733 273.194 861.467 273.838C861.205 274.477 860.811 274.977 860.284 275.336C859.756 275.695 859.098 275.875 858.31 275.875ZM867.776 276.862C868.527 276.862 869.171 276.687 869.708 276.337C870.249 275.982 870.662 275.469 870.947 274.797L869.911 274.489C869.528 275.413 868.816 275.875 867.776 275.875C866.964 275.875 866.352 275.602 865.942 275.056C865.531 274.505 865.321 273.777 865.312 272.872C865.321 271.99 865.524 271.269 865.921 270.709C866.322 270.149 866.94 269.869 867.776 269.869C868.27 269.869 868.709 269.995 869.092 270.247C869.479 270.494 869.761 270.844 869.939 271.297L870.947 270.975C870.737 270.326 870.347 269.815 869.778 269.442C869.213 269.069 868.548 268.882 867.783 268.882C867.031 268.882 866.392 269.05 865.865 269.386C865.337 269.717 864.934 270.184 864.654 270.786C864.374 271.383 864.229 272.079 864.22 272.872C864.229 273.647 864.369 274.335 864.64 274.937C864.915 275.539 865.316 276.01 865.844 276.351C866.371 276.692 867.015 276.862 867.776 276.862ZM876.788 276.652V275.749C876.246 275.838 875.791 275.852 875.423 275.791C875.059 275.73 874.793 275.544 874.625 275.231C874.536 275.068 874.487 274.881 874.478 274.671C874.473 274.456 874.471 274.19 874.471 273.873V269.974H876.788V269.092H874.471V266.992H873.449V269.092H871.832V269.974H873.449V273.915C873.449 274.284 873.453 274.613 873.463 274.902C873.477 275.191 873.551 275.474 873.687 275.749C873.855 276.085 874.1 276.332 874.422 276.491C874.748 276.65 875.117 276.738 875.528 276.757C875.943 276.776 876.363 276.741 876.788 276.652Z" fill="#636E72"/>
<path d="M940.484 276.652H941.52V268.385L947.071 276.652H948.107V266.572H947.071V274.832L941.52 266.572H940.484V276.652ZM953.505 276.862C954.251 276.862 954.891 276.694 955.423 276.358C955.959 276.022 956.37 275.555 956.655 274.958C956.944 274.356 957.089 273.658 957.089 272.865C957.089 272.086 956.946 271.397 956.662 270.8C956.382 270.198 955.973 269.729 955.437 269.393C954.905 269.052 954.261 268.882 953.505 268.882C952.767 268.882 952.13 269.05 951.594 269.386C951.062 269.717 950.651 270.182 950.362 270.779C950.072 271.376 949.928 272.072 949.928 272.865C949.928 273.644 950.068 274.335 950.348 274.937C950.632 275.539 951.041 276.01 951.573 276.351C952.109 276.692 952.753 276.862 953.505 276.862ZM953.505 275.875C952.688 275.875 952.07 275.602 951.65 275.056C951.23 274.505 951.02 273.775 951.02 272.865C951.02 271.983 951.223 271.264 951.629 270.709C952.035 270.149 952.66 269.869 953.505 269.869C954.34 269.869 954.963 270.142 955.374 270.688C955.789 271.229 955.997 271.955 955.997 272.865C955.997 273.756 955.791 274.482 955.381 275.042C954.97 275.597 954.345 275.875 953.505 275.875ZM960.683 276.652H961.747L964.491 269.092H963.434L961.215 275.308L958.982 269.092H957.939L960.683 276.652Z" fill="#636E72"/>
<path d="M1027.03 276.652H1030.09C1030.18 276.652 1030.37 276.65 1030.63 276.645C1030.9 276.64 1031.15 276.622 1031.38 276.589C1032.15 276.482 1032.78 276.199 1033.3 275.742C1033.81 275.28 1034.2 274.692 1034.45 273.978C1034.71 273.259 1034.84 272.471 1034.84 271.612C1034.84 270.753 1034.71 269.967 1034.45 269.253C1034.2 268.539 1033.81 267.951 1033.3 267.489C1032.78 267.022 1032.15 266.738 1031.38 266.635C1031.14 266.602 1030.89 266.584 1030.63 266.579C1030.37 266.574 1030.19 266.572 1030.09 266.572H1027.03V276.652ZM1028.09 275.665V267.559H1030.09C1030.27 267.559 1030.47 267.566 1030.69 267.58C1030.92 267.589 1031.12 267.61 1031.28 267.643C1031.86 267.746 1032.33 267.984 1032.7 268.357C1033.06 268.726 1033.33 269.19 1033.49 269.75C1033.66 270.31 1033.75 270.931 1033.75 271.612C1033.75 272.279 1033.66 272.895 1033.49 273.46C1033.33 274.025 1033.07 274.494 1032.7 274.867C1032.34 275.24 1031.86 275.478 1031.28 275.581C1031.12 275.614 1030.93 275.637 1030.7 275.651C1030.48 275.66 1030.28 275.665 1030.09 275.665H1028.09ZM1039.91 276.862C1040.64 276.862 1041.3 276.682 1041.88 276.323C1042.46 275.964 1042.9 275.453 1043.2 274.79L1042.24 274.419C1041.76 275.39 1040.97 275.875 1039.87 275.875C1039.11 275.875 1038.52 275.639 1038.09 275.168C1037.67 274.697 1037.43 274.027 1037.39 273.159H1043.35C1043.39 271.824 1043.09 270.779 1042.47 270.023C1041.86 269.262 1040.99 268.882 1039.87 268.882C1039.14 268.882 1038.51 269.045 1037.97 269.372C1037.44 269.699 1037.03 270.163 1036.73 270.765C1036.44 271.367 1036.29 272.081 1036.29 272.907C1036.29 273.705 1036.44 274.4 1036.73 274.993C1037.03 275.586 1037.45 276.045 1037.99 276.372C1038.54 276.699 1039.18 276.862 1039.91 276.862ZM1039.9 269.827C1041.32 269.827 1042.11 270.651 1042.27 272.298H1037.41C1037.49 271.5 1037.74 270.889 1038.17 270.464C1038.59 270.039 1039.17 269.827 1039.9 269.827ZM1048.32 276.862C1049.07 276.862 1049.71 276.687 1050.25 276.337C1050.79 275.982 1051.2 275.469 1051.49 274.797L1050.45 274.489C1050.07 275.413 1049.36 275.875 1048.32 275.875C1047.51 275.875 1046.89 275.602 1046.48 275.056C1046.07 274.505 1045.86 273.777 1045.85 272.872C1045.86 271.99 1046.07 271.269 1046.46 270.709C1046.86 270.149 1047.48 269.869 1048.32 269.869C1048.81 269.869 1049.25 269.995 1049.63 270.247C1050.02 270.494 1050.3 270.844 1050.48 271.297L1051.49 270.975C1051.28 270.326 1050.89 269.815 1050.32 269.442C1049.76 269.069 1049.09 268.882 1048.32 268.882C1047.57 268.882 1046.93 269.05 1046.41 269.386C1045.88 269.717 1045.48 270.184 1045.2 270.786C1044.92 271.383 1044.77 272.079 1044.76 272.872C1044.77 273.647 1044.91 274.335 1045.18 274.937C1045.46 275.539 1045.86 276.01 1046.39 276.351C1046.91 276.692 1047.56 276.862 1048.32 276.862Z" fill="#636E72"/>
<rect x="88" y="148.652" width="10" height="101" rx="2" fill="#FF2D55"/>
<rect x="74" y="42.6519" width="10" height="207" rx="2" fill="#08A730"/>
<rect x="174" y="184.652" width="10" height="65" rx="2" fill="#FF2D55"/>
<rect x="160" y="116.652" width="10" height="133" rx="2" fill="#08A730"/>
<rect x="262" y="205.652" width="10" height="44" rx="2" fill="#FF2D55"/>
<rect x="247" y="158.652" width="11" height="91" rx="2" fill="#08A730"/>
<rect x="348" y="148.652" width="10" height="101" rx="2" fill="#FF2D55"/>
<rect x="334" y="42.6519" width="10" height="207" rx="2" fill="#08A730"/>
<rect x="434" y="172.652" width="10" height="77" rx="2" fill="#FF2D55"/>
<rect x="420" y="91.6519" width="10" height="158" rx="2" fill="#08A730"/>
<rect x="521" y="200.652" width="10" height="49" rx="2" fill="#FF2D55"/>
<rect x="507" y="148.652" width="10" height="101" rx="2" fill="#08A730"/>
<rect x="607" y="176.652" width="10" height="73" rx="2" fill="#FF2D55"/>
<rect x="593" y="100.652" width="10" height="149" rx="2" fill="#08A730"/>
<rect x="694" y="153.652" width="10" height="96" rx="2" fill="#FF2D55"/>
<rect x="680" y="51.6519" width="10" height="198" rx="2" fill="#08A730"/>
<rect x="780" y="167.652" width="10" height="82" rx="2" fill="#FF2D55"/>
<rect x="766" y="81.6519" width="10" height="168" rx="2" fill="#08A730"/>
<rect x="869" y="176.652" width="10" height="73" rx="2" fill="#FF2D55"/>
<rect x="854" y="100.652" width="11" height="149" rx="2" fill="#08A730"/>
<rect x="954" y="154.652" width="10" height="95" rx="2" fill="#FF2D55"/>
<rect x="940" y="56.6519" width="10" height="193" rx="2" fill="#08A730"/>
<rect x="1041" y="148.652" width="10" height="101" rx="2" fill="#FF2D55"/>
<rect x="1027" y="43.6519" width="10" height="206" rx="2" fill="#08A730"/>
<rect x="921" y="3.65186" width="6" height="6" rx="3" fill="#FF2D55"/>
<path d="M931.84 11.6519V3.01186H932.974L936.106 9.50986L939.22 3.01186H940.366V11.6459H939.178V5.73586L936.388 11.6519H935.818L933.022 5.73586V11.6519H931.84ZM944.861 11.8319C944.213 11.8319 943.651 11.6859 943.175 11.3939C942.699 11.1019 942.331 10.6999 942.071 10.1879C941.815 9.67186 941.687 9.07786 941.687 8.40586C941.687 7.72986 941.819 7.13586 942.083 6.62386C942.347 6.10786 942.717 5.70785 943.193 5.42385C943.669 5.13586 944.225 4.99186 944.861 4.99186C945.509 4.99186 946.071 5.13786 946.547 5.42986C947.023 5.72186 947.391 6.12386 947.651 6.63586C947.911 7.14786 948.041 7.73786 948.041 8.40586C948.041 9.08186 947.909 9.67786 947.645 10.1939C947.385 10.7059 947.017 11.1079 946.541 11.3999C946.065 11.6879 945.505 11.8319 944.861 11.8319ZM944.861 10.6499C945.481 10.6499 945.943 10.4419 946.247 10.0259C946.555 9.60586 946.709 9.06586 946.709 8.40586C946.709 7.72986 946.553 7.18986 946.241 6.78586C945.933 6.37786 945.473 6.17386 944.861 6.17386C944.441 6.17386 944.095 6.26986 943.823 6.46186C943.551 6.64986 943.349 6.91186 943.217 7.24786C943.085 7.57986 943.019 7.96586 943.019 8.40586C943.019 9.08586 943.175 9.62986 943.487 10.0379C943.799 10.4459 944.257 10.6499 944.861 10.6499ZM953.908 11.6519V8.46586C953.908 8.21386 953.886 7.95586 953.842 7.69186C953.802 7.42386 953.722 7.17586 953.602 6.94786C953.486 6.71986 953.32 6.53586 953.104 6.39586C952.892 6.25586 952.614 6.18586 952.27 6.18586C952.046 6.18586 951.834 6.22386 951.634 6.29986C951.434 6.37186 951.258 6.48986 951.106 6.65386C950.958 6.81786 950.84 7.03386 950.752 7.30186C950.668 7.56986 950.626 7.89586 950.626 8.27986L949.846 7.98586C949.846 7.39786 949.956 6.87986 950.176 6.43186C950.396 5.97986 950.712 5.62786 951.124 5.37586C951.536 5.12386 952.034 4.99785 952.618 4.99785C953.066 4.99785 953.442 5.06985 953.746 5.21386C954.05 5.35786 954.296 5.54786 954.484 5.78386C954.676 6.01586 954.822 6.26986 954.922 6.54586C955.022 6.82186 955.09 7.09186 955.126 7.35586C955.162 7.61986 955.18 7.85186 955.18 8.05186V11.6519H953.908ZM949.354 11.6519V5.17186H950.476V7.04386H950.626V11.6519H949.354ZM959.534 11.8319C958.89 11.8319 958.324 11.6919 957.836 11.4119C957.352 11.1279 956.974 10.7339 956.702 10.2299C956.434 9.72186 956.3 9.13386 956.3 8.46586C956.3 7.75786 956.432 7.14386 956.696 6.62386C956.964 6.10386 957.336 5.70186 957.812 5.41786C958.288 5.13386 958.842 4.99186 959.474 4.99186C960.134 4.99186 960.696 5.14586 961.16 5.45386C961.624 5.75786 961.97 6.19186 962.198 6.75586C962.43 7.31986 962.522 7.98986 962.474 8.76586H961.22V8.30986C961.212 7.55786 961.068 7.00186 960.788 6.64186C960.512 6.28186 960.09 6.10186 959.522 6.10186C958.894 6.10186 958.422 6.29986 958.106 6.69586C957.79 7.09186 957.632 7.66386 957.632 8.41186C957.632 9.12386 957.79 9.67586 958.106 10.0679C958.422 10.4559 958.878 10.6499 959.474 10.6499C959.866 10.6499 960.204 10.5619 960.488 10.3859C960.776 10.2059 961 9.94986 961.16 9.61786L962.39 10.0079C962.138 10.5879 961.756 11.0379 961.244 11.3579C960.732 11.6739 960.162 11.8319 959.534 11.8319ZM957.224 8.76586V7.78786H961.85V8.76586H957.224ZM964.579 14.5319L965.833 11.1179L965.851 12.1259L963.025 5.17186H964.333L966.445 10.5419H966.061L968.077 5.17186H969.349L965.773 14.5319H964.579ZM976.298 11.8319C975.434 11.8319 974.698 11.6439 974.09 11.2679C973.482 10.8879 973.016 10.3599 972.692 9.68386C972.372 9.00786 972.212 8.22386 972.212 7.33186C972.212 6.43986 972.372 5.65586 972.692 4.97985C973.016 4.30386 973.482 3.77786 974.09 3.40185C974.698 3.02186 975.434 2.83186 976.298 2.83186C977.158 2.83186 977.892 3.02186 978.5 3.40185C979.112 3.77786 979.578 4.30386 979.898 4.97985C980.218 5.65586 980.378 6.43986 980.378 7.33186C980.378 8.22386 980.218 9.00786 979.898 9.68386C979.578 10.3599 979.112 10.8879 978.5 11.2679C977.892 11.6439 977.158 11.8319 976.298 11.8319ZM976.298 10.6379C976.91 10.6459 977.418 10.5119 977.822 10.2359C978.23 9.95586 978.536 9.56786 978.74 9.07186C978.944 8.57186 979.046 7.99186 979.046 7.33186C979.046 6.67186 978.944 6.09586 978.74 5.60386C978.536 5.10786 978.23 4.72185 977.822 4.44585C977.418 4.16985 976.91 4.02986 976.298 4.02586C975.686 4.01786 975.176 4.15186 974.768 4.42785C974.364 4.70385 974.06 5.09186 973.856 5.59186C973.652 6.09186 973.548 6.67186 973.544 7.33186C973.54 7.99186 973.64 8.56986 973.844 9.06586C974.048 9.55786 974.354 9.94186 974.762 10.2179C975.174 10.4939 975.686 10.6339 976.298 10.6379ZM984.016 11.8259C983.568 11.8259 983.192 11.7539 982.888 11.6099C982.584 11.4659 982.336 11.2779 982.144 11.0459C981.956 10.8099 981.812 10.5539 981.712 10.2779C981.612 10.0019 981.544 9.73186 981.508 9.46786C981.472 9.20386 981.454 8.97186 981.454 8.77186V5.17186H982.726V8.35786C982.726 8.60986 982.746 8.86986 982.786 9.13786C982.83 9.40186 982.91 9.64786 983.026 9.87586C983.146 10.1039 983.312 10.2879 983.524 10.4279C983.74 10.5679 984.02 10.6379 984.364 10.6379C984.588 10.6379 984.8 10.6019 985 10.5299C985.2 10.4539 985.374 10.3339 985.522 10.1699C985.674 10.0059 985.792 9.78986 985.876 9.52186C985.964 9.25386 986.008 8.92786 986.008 8.54386L986.788 8.83786C986.788 9.42586 986.678 9.94586 986.458 10.3979C986.238 10.8459 985.922 11.1959 985.51 11.4479C985.098 11.6999 984.6 11.8259 984.016 11.8259ZM986.158 11.6519V9.77986H986.008V5.17186H987.274V11.6519H986.158ZM992.665 11.6519C992.257 11.7319 991.857 11.7659 991.465 11.7539C991.073 11.7419 990.723 11.6659 990.415 11.5259C990.107 11.3859 989.875 11.1659 989.719 10.8659C989.579 10.5979 989.503 10.3259 989.491 10.0499C989.483 9.76986 989.479 9.45386 989.479 9.10186V3.37185H990.739V9.04186C990.739 9.30186 990.741 9.52786 990.745 9.71986C990.753 9.91186 990.795 10.0739 990.871 10.2059C991.015 10.4539 991.243 10.5959 991.555 10.6319C991.871 10.6639 992.241 10.6499 992.665 10.5899V11.6519ZM988.237 6.17986V5.17186H992.665V6.17986H988.237Z" fill="#636E72"/>
<rect x="1010" y="3.65186" width="6" height="6" rx="3" fill="#08A730"/>
<path d="M1020.84 11.6519V3.01186H1021.97L1025.11 9.50986L1028.22 3.01186H1029.37V11.6459H1028.18V5.73586L1025.39 11.6519H1024.82L1022.02 5.73586V11.6519H1020.84ZM1033.86 11.8319C1033.21 11.8319 1032.65 11.6859 1032.18 11.3939C1031.7 11.1019 1031.33 10.6999 1031.07 10.1879C1030.82 9.67186 1030.69 9.07786 1030.69 8.40586C1030.69 7.72986 1030.82 7.13586 1031.08 6.62386C1031.35 6.10786 1031.72 5.70785 1032.19 5.42385C1032.67 5.13586 1033.23 4.99186 1033.86 4.99186C1034.51 4.99186 1035.07 5.13786 1035.55 5.42986C1036.02 5.72186 1036.39 6.12386 1036.65 6.63586C1036.91 7.14786 1037.04 7.73786 1037.04 8.40586C1037.04 9.08186 1036.91 9.67786 1036.65 10.1939C1036.39 10.7059 1036.02 11.1079 1035.54 11.3999C1035.07 11.6879 1034.51 11.8319 1033.86 11.8319ZM1033.86 10.6499C1034.48 10.6499 1034.94 10.4419 1035.25 10.0259C1035.56 9.60586 1035.71 9.06586 1035.71 8.40586C1035.71 7.72986 1035.55 7.18986 1035.24 6.78586C1034.93 6.37786 1034.47 6.17386 1033.86 6.17386C1033.44 6.17386 1033.1 6.26986 1032.82 6.46186C1032.55 6.64986 1032.35 6.91186 1032.22 7.24786C1032.09 7.57986 1032.02 7.96586 1032.02 8.40586C1032.02 9.08586 1032.18 9.62986 1032.49 10.0379C1032.8 10.4459 1033.26 10.6499 1033.86 10.6499ZM1042.91 11.6519V8.46586C1042.91 8.21386 1042.89 7.95586 1042.84 7.69186C1042.8 7.42386 1042.72 7.17586 1042.6 6.94786C1042.49 6.71986 1042.32 6.53586 1042.1 6.39586C1041.89 6.25586 1041.61 6.18586 1041.27 6.18586C1041.05 6.18586 1040.83 6.22386 1040.63 6.29986C1040.43 6.37186 1040.26 6.48986 1040.11 6.65386C1039.96 6.81786 1039.84 7.03386 1039.75 7.30186C1039.67 7.56986 1039.63 7.89586 1039.63 8.27986L1038.85 7.98586C1038.85 7.39786 1038.96 6.87986 1039.18 6.43186C1039.4 5.97986 1039.71 5.62786 1040.12 5.37586C1040.54 5.12386 1041.03 4.99785 1041.62 4.99785C1042.07 4.99785 1042.44 5.06985 1042.75 5.21386C1043.05 5.35786 1043.3 5.54786 1043.48 5.78386C1043.68 6.01586 1043.82 6.26986 1043.92 6.54586C1044.02 6.82186 1044.09 7.09186 1044.13 7.35586C1044.16 7.61986 1044.18 7.85186 1044.18 8.05186V11.6519H1042.91ZM1038.35 11.6519V5.17186H1039.48V7.04386H1039.63V11.6519H1038.35ZM1048.53 11.8319C1047.89 11.8319 1047.32 11.6919 1046.84 11.4119C1046.35 11.1279 1045.97 10.7339 1045.7 10.2299C1045.43 9.72186 1045.3 9.13386 1045.3 8.46586C1045.3 7.75786 1045.43 7.14386 1045.7 6.62386C1045.96 6.10386 1046.34 5.70186 1046.81 5.41786C1047.29 5.13386 1047.84 4.99186 1048.47 4.99186C1049.13 4.99186 1049.7 5.14586 1050.16 5.45386C1050.62 5.75786 1050.97 6.19186 1051.2 6.75586C1051.43 7.31986 1051.52 7.98986 1051.47 8.76586H1050.22V8.30986C1050.21 7.55786 1050.07 7.00186 1049.79 6.64186C1049.51 6.28186 1049.09 6.10186 1048.52 6.10186C1047.89 6.10186 1047.42 6.29986 1047.11 6.69586C1046.79 7.09186 1046.63 7.66386 1046.63 8.41186C1046.63 9.12386 1046.79 9.67586 1047.11 10.0679C1047.42 10.4559 1047.88 10.6499 1048.47 10.6499C1048.87 10.6499 1049.2 10.5619 1049.49 10.3859C1049.78 10.2059 1050 9.94986 1050.16 9.61786L1051.39 10.0079C1051.14 10.5879 1050.76 11.0379 1050.24 11.3579C1049.73 11.6739 1049.16 11.8319 1048.53 11.8319ZM1046.22 8.76586V7.78786H1050.85V8.76586H1046.22ZM1053.58 14.5319L1054.83 11.1179L1054.85 12.1259L1052.03 5.17186H1053.33L1055.45 10.5419H1055.06L1057.08 5.17186H1058.35L1054.77 14.5319H1053.58ZM1061.81 11.6519V3.01186H1063.07V11.6519H1061.81ZM1069.42 11.6519V8.46586C1069.42 8.21386 1069.39 7.95586 1069.35 7.69186C1069.31 7.42386 1069.23 7.17586 1069.11 6.94786C1068.99 6.71986 1068.83 6.53586 1068.61 6.39586C1068.4 6.25586 1068.12 6.18586 1067.78 6.18586C1067.55 6.18586 1067.34 6.22386 1067.14 6.29986C1066.94 6.37186 1066.77 6.48986 1066.61 6.65386C1066.47 6.81786 1066.35 7.03386 1066.26 7.30186C1066.18 7.56986 1066.13 7.89586 1066.13 8.27986L1065.35 7.98586C1065.35 7.39786 1065.46 6.87986 1065.68 6.43186C1065.9 5.97986 1066.22 5.62786 1066.63 5.37586C1067.04 5.12386 1067.54 4.99785 1068.13 4.99785C1068.57 4.99785 1068.95 5.06985 1069.25 5.21386C1069.56 5.35786 1069.8 5.54786 1069.99 5.78386C1070.18 6.01586 1070.33 6.26986 1070.43 6.54586C1070.53 6.82186 1070.6 7.09186 1070.63 7.35586C1070.67 7.61986 1070.69 7.85186 1070.69 8.05186V11.6519H1069.42ZM1064.86 11.6519V5.17186H1065.98V7.04386H1066.13V11.6519H1064.86Z" fill="#636E72"/>
</g>
<defs>
<clipPath id="clip0_58_35025">
<rect width="1072" height="281" fill="white" transform="translate(0 0.651855)"/>
</clipPath>
</defs>
</svg>
