<svg width="211" height="211" viewBox="0 0 211 211" fill="none" xmlns="http://www.w3.org/2000/svg">
<path d="M83.0587 101.612V86.3605H77.1667V84.3325H91.0867V86.3605H85.1947V101.612H83.0587ZM97.0755 101.972C95.7875 101.972 94.6755 101.68 93.7395 101.096C92.8115 100.512 92.0955 99.7045 91.5915 98.6725C91.0875 97.6405 90.8355 96.4565 90.8355 95.1205C90.8355 93.7605 91.0915 92.5685 91.6035 91.5445C92.1155 90.5205 92.8395 89.7245 93.7755 89.1565C94.7115 88.5805 95.8115 88.2925 97.0755 88.2925C98.3715 88.2925 99.4875 88.5845 100.423 89.1685C101.359 89.7445 102.075 90.5485 102.571 91.5805C103.075 92.6045 103.327 93.7845 103.327 95.1205C103.327 96.4725 103.075 97.6645 102.571 98.6965C102.067 99.7205 101.347 100.524 100.411 101.108C99.4755 101.684 98.3635 101.972 97.0755 101.972ZM97.0755 99.9445C98.4195 99.9445 99.4195 99.4965 100.075 98.6005C100.731 97.7045 101.059 96.5445 101.059 95.1205C101.059 93.6565 100.727 92.4925 100.063 91.6285C99.3995 90.7565 98.4035 90.3205 97.0755 90.3205C96.1715 90.3205 95.4275 90.5245 94.8435 90.9325C94.2595 91.3405 93.8235 91.9045 93.5355 92.6245C93.2475 93.3445 93.1035 94.1765 93.1035 95.1205C93.1035 96.5765 93.4395 97.7445 94.1115 98.6245C94.7835 99.5045 95.7715 99.9445 97.0755 99.9445ZM113.686 101.612C112.918 101.764 112.158 101.824 111.406 101.792C110.662 101.768 109.998 101.62 109.414 101.348C108.83 101.068 108.386 100.636 108.082 100.052C107.826 99.5405 107.686 99.0245 107.662 98.5045C107.646 97.9765 107.638 97.3805 107.638 96.7165V85.0525H109.774V96.6205C109.774 97.1485 109.778 97.6005 109.786 97.9765C109.802 98.3525 109.886 98.6765 110.038 98.9485C110.326 99.4605 110.782 99.7605 111.406 99.8485C112.038 99.9365 112.798 99.9125 113.686 99.7765V101.612ZM105.01 90.4165V88.6525H113.686V90.4165H105.01ZM120.481 101.972C119.513 101.972 118.701 101.796 118.045 101.444C117.397 101.084 116.905 100.612 116.569 100.028C116.241 99.4445 116.077 98.8045 116.077 98.1085C116.077 97.4285 116.205 96.8405 116.461 96.3445C116.725 95.8405 117.093 95.4245 117.565 95.0965C118.037 94.7605 118.601 94.4965 119.257 94.3045C119.873 94.1365 120.561 93.9925 121.321 93.8725C122.089 93.7445 122.865 93.6285 123.649 93.5245C124.433 93.4205 125.165 93.3205 125.845 93.2245L125.077 93.6685C125.101 92.5165 124.869 91.6645 124.381 91.1125C123.901 90.5605 123.069 90.2845 121.885 90.2845C121.101 90.2845 120.413 90.4645 119.821 90.8245C119.237 91.1765 118.825 91.7525 118.585 92.5525L116.557 91.9405C116.869 90.8045 117.473 89.9125 118.369 89.2645C119.265 88.6165 120.445 88.2925 121.909 88.2925C123.085 88.2925 124.093 88.5045 124.933 88.9285C125.781 89.3445 126.389 89.9765 126.757 90.8245C126.941 91.2245 127.057 91.6605 127.105 92.1325C127.153 92.5965 127.177 93.0845 127.177 93.5965V101.612H125.281V98.5045L125.725 98.7925C125.237 99.8405 124.553 100.632 123.673 101.168C122.801 101.704 121.737 101.972 120.481 101.972ZM120.805 100.184C121.573 100.184 122.237 100.048 122.797 99.7765C123.365 99.4965 123.821 99.1325 124.165 98.6845C124.509 98.2285 124.733 97.7325 124.837 97.1965C124.957 96.7965 125.021 96.3525 125.029 95.8645C125.045 95.3685 125.053 94.9885 125.053 94.7245L125.797 95.0485C125.101 95.1445 124.417 95.2365 123.745 95.3245C123.073 95.4125 122.437 95.5085 121.837 95.6125C121.237 95.7085 120.697 95.8245 120.217 95.9605C119.865 96.0725 119.533 96.2165 119.221 96.3925C118.917 96.5685 118.669 96.7965 118.477 97.0765C118.293 97.3485 118.201 97.6885 118.201 98.0965C118.201 98.4485 118.289 98.7845 118.465 99.1045C118.649 99.4245 118.929 99.6845 119.305 99.8845C119.689 100.084 120.189 100.184 120.805 100.184ZM131.017 101.612V83.9725H133.153V101.612H131.017Z" fill="#636E72"/>
<path d="M82.5785 129.612V126.432H74.6345V124.404L80.3345 112.332H82.7585L77.0585 124.404H82.5785V119.544H84.7385V124.404H86.5385V126.432H84.7385V129.612H82.5785ZM89.1827 132.3L89.3147 131.304C89.6507 131.328 89.9027 131.264 90.0707 131.112C90.2387 130.96 90.3467 130.752 90.3947 130.488C90.4427 130.224 90.4507 129.932 90.4187 129.612H89.1827V126.9H91.5347V129.972C91.5347 130.812 91.3267 131.444 90.9107 131.868C90.5027 132.292 89.9267 132.436 89.1827 132.3ZM96.1023 129.6L96.1143 127.68L103.782 120.78C104.422 120.204 104.85 119.66 105.066 119.148C105.29 118.628 105.402 118.096 105.402 117.552C105.402 116.888 105.25 116.288 104.946 115.752C104.642 115.216 104.226 114.792 103.698 114.48C103.178 114.168 102.586 114.012 101.922 114.012C101.234 114.012 100.622 114.176 100.086 114.504C99.5503 114.824 99.1263 115.252 98.8143 115.788C98.5103 116.324 98.3623 116.908 98.3703 117.54H96.1863C96.1863 116.452 96.4383 115.492 96.9423 114.66C97.4463 113.82 98.1303 113.164 98.9943 112.692C99.8663 112.212 100.854 111.972 101.958 111.972C103.03 111.972 103.99 112.22 104.838 112.716C105.686 113.204 106.354 113.872 106.842 114.72C107.338 115.56 107.586 116.512 107.586 117.576C107.586 118.328 107.49 118.98 107.298 119.532C107.114 120.084 106.826 120.596 106.434 121.068C106.042 121.532 105.55 122.028 104.958 122.556L98.5863 128.28L98.3103 127.56H107.586V129.6H96.1023ZM116.049 129.972C115.161 129.972 114.333 129.788 113.565 129.42C112.805 129.052 112.153 128.548 111.609 127.908C111.073 127.26 110.689 126.516 110.457 125.676L112.509 125.124C112.653 125.692 112.909 126.184 113.277 126.6C113.645 127.008 114.073 127.328 114.561 127.56C115.057 127.784 115.573 127.896 116.109 127.896C116.813 127.896 117.445 127.728 118.005 127.392C118.573 127.048 119.021 126.596 119.349 126.036C119.677 125.468 119.841 124.848 119.841 124.176C119.841 123.48 119.669 122.852 119.325 122.292C118.989 121.724 118.537 121.276 117.969 120.948C117.401 120.62 116.781 120.456 116.109 120.456C115.349 120.456 114.697 120.616 114.153 120.936C113.617 121.248 113.193 121.632 112.881 122.088L110.985 121.368L111.513 112.332H120.789V114.36H112.545L113.493 113.472L113.049 120.708L112.581 120.096C113.061 119.584 113.633 119.188 114.297 118.908C114.969 118.628 115.653 118.488 116.349 118.488C117.421 118.488 118.381 118.74 119.229 119.244C120.077 119.74 120.749 120.42 121.245 121.284C121.741 122.14 121.989 123.104 121.989 124.176C121.989 125.24 121.717 126.212 121.173 127.092C120.629 127.964 119.905 128.664 119.001 129.192C118.105 129.712 117.121 129.972 116.049 129.972ZM131.231 129.972C130.135 129.972 129.139 129.708 128.243 129.18C127.355 128.652 126.647 127.932 126.119 127.02C125.599 126.1 125.339 125.064 125.339 123.912V118.164C125.339 116.956 125.599 115.888 126.119 114.96C126.647 114.024 127.367 113.296 128.279 112.776C129.199 112.248 130.247 111.984 131.423 111.984C132.375 111.984 133.259 112.18 134.075 112.572C134.899 112.956 135.591 113.512 136.151 114.24L134.555 115.656C134.211 115.152 133.763 114.752 133.211 114.456C132.659 114.16 132.063 114.012 131.423 114.012C130.663 114.012 129.987 114.196 129.395 114.564C128.811 114.924 128.351 115.404 128.015 116.004C127.679 116.596 127.511 117.236 127.511 117.924V121.392L127.043 120.864C127.547 120.144 128.187 119.568 128.963 119.136C129.739 118.704 130.579 118.488 131.483 118.488C132.555 118.488 133.515 118.74 134.363 119.244C135.219 119.748 135.891 120.432 136.379 121.296C136.875 122.152 137.123 123.116 137.123 124.188C137.123 125.26 136.855 126.232 136.319 127.104C135.783 127.976 135.067 128.672 134.171 129.192C133.283 129.712 132.303 129.972 131.231 129.972ZM131.231 127.908C131.919 127.908 132.547 127.744 133.115 127.416C133.683 127.08 134.131 126.632 134.459 126.072C134.795 125.504 134.963 124.876 134.963 124.188C134.963 123.5 134.795 122.872 134.459 122.304C134.131 121.736 133.683 121.288 133.115 120.96C132.555 120.624 131.931 120.456 131.243 120.456C130.555 120.456 129.927 120.624 129.359 120.96C128.799 121.288 128.351 121.736 128.015 122.304C127.679 122.872 127.511 123.5 127.511 124.188C127.511 124.868 127.675 125.492 128.003 126.06C128.339 126.62 128.787 127.068 129.347 127.404C129.915 127.74 130.543 127.908 131.231 127.908Z" fill="#2D3436"/>
<path d="M141.822 7.25849C164.913 15.6629 184.324 31.9007 196.676 53.1439C209.027 74.3871 213.535 99.2897 209.416 123.515L203.206 122.459C207.078 99.6872 202.84 76.2787 191.23 56.3101C179.62 36.3415 161.373 21.078 139.668 13.1778L141.822 7.25849Z" fill="#08A730"/>
<path d="M4.89259 77.3313C8.80534 63.5025 15.5157 50.6242 24.6079 39.4942C33.7002 28.3642 44.9808 19.2194 57.751 12.6264C70.5212 6.03329 84.509 2.13231 98.8482 1.16503C113.187 0.197753 127.572 2.18478 141.112 7.00304L139 12.9377C126.273 8.40856 112.751 6.54075 99.2721 7.44999C85.7933 8.35923 72.6448 12.0262 60.6408 18.2236C48.6368 24.4211 38.033 33.0172 29.4863 43.4794C20.9396 53.9416 14.6319 66.0472 10.9539 79.0463L4.89259 77.3313Z" fill="#007AFF"/>
<path d="M209.418 123.503C207.035 137.526 201.827 150.919 194.111 162.868C186.395 174.817 176.331 185.074 164.53 193.015C152.73 200.957 139.438 206.417 125.463 209.066C111.488 211.714 97.1202 211.496 83.2321 208.422C69.344 205.349 56.2252 199.486 44.6719 191.189C33.1186 182.892 23.3719 172.333 16.0233 160.155C8.67467 147.976 3.87744 134.431 1.92278 120.342C-0.0318791 106.253 0.896798 91.9133 4.65244 78.1941L10.7281 79.8573C7.19784 92.7534 6.32489 106.232 8.16227 119.476C9.99965 132.72 14.509 145.452 21.4167 156.9C28.3244 168.348 37.4864 178.273 48.3464 186.073C59.2065 193.872 71.5382 199.383 84.593 202.272C97.6479 205.161 111.154 205.366 124.29 202.877C137.427 200.387 149.921 195.254 161.014 187.789C172.106 180.324 181.566 170.683 188.819 159.451C196.073 148.218 200.968 135.629 203.208 122.448L209.418 123.503Z" fill="#08A730"/>
</svg>
