<svg width="20" height="20" viewBox="0 0 20 20" fill="none" xmlns="http://www.w3.org/2000/svg">
<path d="M16.6667 7.50032C16.0041 4.17912 12.9274 1.66699 9.23279 1.66699C5.05466 1.66699 1.66675 4.87967 1.66675 8.84203C1.66675 10.7458 2.44857 12.4756 3.72387 13.7593C4.00466 14.042 4.19213 14.4281 4.11647 14.8256C3.9916 15.4754 3.70863 16.0815 3.29429 16.5867C4.38444 16.7877 5.51797 16.6067 6.49009 16.0943C6.83374 15.9131 7.00556 15.8226 7.12681 15.8042C7.21168 15.7913 7.32224 15.8033 7.50008 15.8339" stroke="#43454C" stroke-linecap="round" stroke-linejoin="round"/>
<path d="M9.16675 13.5517C9.16675 15.9732 11.2191 17.9365 13.7501 17.9365C14.0477 17.9369 14.3444 17.9094 14.6368 17.8545C14.8472 17.8149 14.9524 17.7952 15.0258 17.8064C15.0993 17.8176 15.2034 17.873 15.4115 17.9837C16.0004 18.2968 16.6871 18.4074 17.3475 18.2846C17.0965 17.9759 16.9251 17.6055 16.8494 17.2083C16.8036 16.9655 16.9172 16.7295 17.0873 16.5567C17.8598 15.7723 18.3334 14.7152 18.3334 13.5517C18.3334 11.1303 16.2811 9.16699 13.7501 9.16699C11.2191 9.16699 9.16675 11.1303 9.16675 13.5517Z" stroke="#43454C" stroke-linejoin="round"/>
</svg>
