<svg width="20" height="20" viewBox="0 0 20 20" fill="none" xmlns="http://www.w3.org/2000/svg">
<path d="M11.6668 6.66699L8.3335 6.66699C6.26516 6.66699 5.8335 7.09866 5.8335 9.16699L5.8335 18.3337H14.1668L14.1668 9.16699C14.1668 7.09866 13.7352 6.66699 11.6668 6.66699Z" stroke="#43454C" stroke-linejoin="round"/>
<path d="M9.16675 10L10.8334 10M9.16675 12.5H10.8334M9.16675 15H10.8334" stroke="#43454C" stroke-linecap="round" stroke-linejoin="round"/>
<path d="M17.5002 18.3337L17.5002 6.82169C17.5002 5.79811 17.5002 5.28633 17.2512 4.87504C17.0023 4.46376 16.5541 4.23488 15.6575 3.77712L12.0395 1.92979C11.0725 1.43603 10.8335 1.61004 10.8335 2.69094L10.8335 6.41991" stroke="#43454C" stroke-linecap="round" stroke-linejoin="round"/>
<path d="M2.5 18.3333L2.5 10.8333C2.5 10.1439 2.64389 10 3.33333 10H5.83333" stroke="#43454C" stroke-linecap="round" stroke-linejoin="round"/>
<path d="M18.3334 18.3335L1.66675 18.3335" stroke="#43454C" stroke-linecap="round" stroke-linejoin="round"/>
</svg>
