<svg width="28" height="28" viewBox="0 0 28 28" fill="none" xmlns="http://www.w3.org/2000/svg">
<rect width="28" height="28" rx="7" fill="#EC221F"/>
<g clip-path="url(#clip0_1432_26413)">
<path d="M17.75 9.5H21.5V11H20V20.75C20 20.9489 19.921 21.1397 19.7803 21.2803C19.6397 21.421 19.4489 21.5 19.25 21.5H8.75C8.55109 21.5 8.36032 21.421 8.21967 21.2803C8.07902 21.1397 8 20.9489 8 20.75V11H6.5V9.5H10.25V7.25C10.25 7.05109 10.329 6.86032 10.4697 6.71967C10.6103 6.57902 10.8011 6.5 11 6.5H17C17.1989 6.5 17.3897 6.57902 17.5303 6.71967C17.671 6.86032 17.75 7.05109 17.75 7.25V9.5ZM11.75 13.25V17.75H13.25V13.25H11.75ZM14.75 13.25V17.75H16.25V13.25H14.75ZM11.75 8V9.5H16.25V8H11.75Z" fill="white"/>
</g>
<defs>
<clipPath id="clip0_1432_26413">
<rect width="18" height="18" fill="white" transform="translate(5 5)"/>
</clipPath>
</defs>
</svg>
