<svg width="16" height="16" viewBox="0 0 16 16" fill="none" xmlns="http://www.w3.org/2000/svg">
<g clip-path="url(#clip0_218_26630)">
<path d="M9.38263 2.589C9.87942 2.05075 10.1278 1.78163 10.3918 1.62465C11.0287 1.24587 11.8129 1.23409 12.4604 1.59358C12.7288 1.74256 12.9848 2.00411 13.4969 2.52721C14.0089 3.0503 14.265 3.31185 14.4108 3.58598C14.7627 4.24744 14.7512 5.04856 14.3804 5.69917C14.2267 5.9688 13.9633 6.22255 13.4364 6.73004L7.16725 12.7682C6.16875 13.7299 5.6695 14.2108 5.04554 14.4545C4.42158 14.6982 3.73563 14.6803 2.36374 14.6444L2.17708 14.6395C1.75943 14.6286 1.55061 14.6232 1.42922 14.4854C1.30783 14.3476 1.3244 14.1349 1.35755 13.7095L1.37555 13.4785C1.46883 12.2811 1.51548 11.6824 1.7493 11.1442C1.98312 10.606 2.38645 10.169 3.19311 9.29503L9.38263 2.589Z" stroke="#9EA0A9" stroke-linejoin="round"/>
<path d="M8.66699 2.66406L13.3337 7.33073" stroke="#9EA0A9" stroke-linejoin="round"/>
<path d="M9.3335 14.6641L14.6668 14.6641" stroke="#9EA0A9" stroke-linecap="round" stroke-linejoin="round"/>
</g>
<defs>
<clipPath id="clip0_218_26630">
<rect width="16" height="16" fill="white"/>
</clipPath>
</defs>
</svg>
