<svg width="16" height="12" viewBox="0 0 16 12" fill="none" xmlns="http://www.w3.org/2000/svg">
<path d="M14.3628 5.36324C14.5655 5.64746 14.6668 5.78956 14.6668 5.99992C14.6668 6.21028 14.5655 6.35238 14.3628 6.6366C13.4521 7.91362 11.1263 10.6666 8.00016 10.6666C4.87402 10.6666 2.54823 7.91363 1.63752 6.6366C1.43484 6.35238 1.3335 6.21028 1.3335 5.99992C1.3335 5.78956 1.43484 5.64746 1.63752 5.36324C2.54823 4.08621 4.87402 1.33325 8.00016 1.33325C11.1263 1.33325 13.4521 4.08621 14.3628 5.36324Z" stroke="#B6B8C0"/>
<path d="M10 6C10 4.89543 9.10457 4 8 4C6.89543 4 6 4.89543 6 6C6 7.10457 6.89543 8 8 8C9.10457 8 10 7.10457 10 6Z" stroke="#B6B8C0"/>
</svg>
