<svg width="16" height="16" viewBox="0 0 16 16" fill="none" xmlns="http://www.w3.org/2000/svg">
<path d="M1.33398 7.66732C1.33398 4.68176 1.33398 3.18897 2.26148 2.26148C3.18897 1.33398 4.68176 1.33398 7.66732 1.33398C10.6529 1.33398 12.1457 1.33398 13.0732 2.26148C14.0007 3.18897 14.0007 4.68176 14.0007 7.66732C14.0007 10.6529 14.0007 12.1457 13.0732 13.0732C12.1457 14.0007 10.6529 14.0007 7.66732 14.0007C4.68176 14.0007 3.18897 14.0007 2.26148 13.0732C1.33398 12.1457 1.33398 10.6529 1.33398 7.66732Z" stroke="#43454C"/>
<path d="M5.66797 7.66797L9.66801 7.66801" stroke="#43454C" stroke-linecap="round" stroke-linejoin="round"/>
<path d="M6.33398 10H9.00065" stroke="#43454C" stroke-linecap="round" stroke-linejoin="round"/>
<path d="M5 5.33398H10.3333" stroke="#43454C" stroke-linecap="round" stroke-linejoin="round"/>
</svg>
