<svg width="210" height="210" viewBox="0 0 210 210" fill="none" xmlns="http://www.w3.org/2000/svg">
<path d="M31.6378 62.6443L105 20.2887L178.362 62.6443V147.356L105 189.711L31.6378 147.356V62.6443Z" stroke="#DFE6E9" stroke-width="0.5"/>
<path d="M52.4225 74.6443L105 44.2887L157.578 74.6443V135.356L105 165.711L52.4225 135.356V74.6443Z" stroke="#DFE6E9" stroke-width="0.5"/>
<path d="M72.341 86.1443L105 67.2887L137.659 86.1443V123.856L105 142.711L72.341 123.856V86.1443Z" stroke="#DFE6E9" stroke-width="0.5"/>
<path d="M90.5276 96.6443L105 88.2887L119.472 96.6443V113.356L105 121.711L90.5276 113.356V96.6443Z" stroke="#DFE6E9" stroke-width="0.5"/>
<path d="M97.5057 15.145C96.9791 15.145 96.5357 15.005 96.1757 14.725C95.8191 14.445 95.5724 14.0683 95.4357 13.595L96.4707 13.35C96.5174 13.5733 96.6357 13.765 96.8257 13.925C97.0191 14.0817 97.2341 14.16 97.4707 14.16C97.6274 14.16 97.7907 14.12 97.9607 14.04C98.1307 13.96 98.2574 13.83 98.3407 13.65C98.3974 13.53 98.4307 13.3933 98.4407 13.24C98.4507 13.0833 98.4557 12.9017 98.4557 12.695V7.8H99.5157V12.695C99.5157 12.9083 99.5141 13.0983 99.5107 13.265C99.5107 13.4317 99.4941 13.5883 99.4607 13.735C99.4307 13.8817 99.3707 14.0333 99.2807 14.19C99.0907 14.52 98.8407 14.7617 98.5307 14.915C98.2207 15.0683 97.8791 15.145 97.5057 15.145ZM102.744 15.15C102.344 15.15 102.009 15.0767 101.739 14.93C101.469 14.78 101.264 14.5833 101.124 14.34C100.987 14.0933 100.919 13.8233 100.919 13.53C100.919 13.2567 100.967 13.0167 101.064 12.81C101.16 12.6033 101.304 12.4283 101.494 12.285C101.684 12.1383 101.917 12.02 102.194 11.93C102.434 11.86 102.705 11.7983 103.009 11.745C103.312 11.6917 103.63 11.6417 103.964 11.595C104.3 11.5483 104.634 11.5017 104.964 11.455L104.584 11.665C104.59 11.2417 104.5 10.9283 104.314 10.725C104.13 10.5183 103.814 10.415 103.364 10.415C103.08 10.415 102.82 10.4817 102.584 10.615C102.347 10.745 102.182 10.9617 102.089 11.265L101.114 10.965C101.247 10.5017 101.5 10.1333 101.874 9.86C102.25 9.58667 102.75 9.45 103.374 9.45C103.857 9.45 104.277 9.53333 104.634 9.7C104.994 9.86333 105.257 10.1233 105.424 10.48C105.51 10.6567 105.564 10.8433 105.584 11.04C105.604 11.2367 105.614 11.4483 105.614 11.675V15H104.689V13.765L104.869 13.925C104.645 14.3383 104.36 14.6467 104.014 14.85C103.67 15.05 103.247 15.15 102.744 15.15ZM102.929 14.295C103.225 14.295 103.48 14.2433 103.694 14.14C103.907 14.0333 104.079 13.8983 104.209 13.735C104.339 13.5717 104.424 13.4017 104.464 13.225C104.52 13.065 104.552 12.885 104.559 12.685C104.569 12.485 104.574 12.325 104.574 12.205L104.914 12.33C104.584 12.38 104.284 12.425 104.014 12.465C103.744 12.505 103.499 12.545 103.279 12.585C103.062 12.6217 102.869 12.6667 102.699 12.72C102.555 12.77 102.427 12.83 102.314 12.9C102.204 12.97 102.115 13.055 102.049 13.155C101.985 13.255 101.954 13.3767 101.954 13.52C101.954 13.66 101.989 13.79 102.059 13.91C102.129 14.0267 102.235 14.12 102.379 14.19C102.522 14.26 102.705 14.295 102.929 14.295ZM110.902 15V12.345C110.902 12.135 110.884 11.92 110.847 11.7C110.814 11.4767 110.747 11.27 110.647 11.08C110.55 10.89 110.412 10.7367 110.232 10.62C110.055 10.5033 109.824 10.445 109.537 10.445C109.35 10.445 109.174 10.4767 109.007 10.54C108.84 10.6 108.694 10.6983 108.567 10.835C108.444 10.9717 108.345 11.1517 108.272 11.375C108.202 11.5983 108.167 11.87 108.167 12.19L107.517 11.945C107.517 11.455 107.609 11.0233 107.792 10.65C107.975 10.2733 108.239 9.98 108.582 9.77C108.925 9.56 109.34 9.455 109.827 9.455C110.2 9.455 110.514 9.515 110.767 9.635C111.02 9.755 111.225 9.91333 111.382 10.11C111.542 10.3033 111.664 10.515 111.747 10.745C111.83 10.975 111.887 11.2 111.917 11.42C111.947 11.64 111.962 11.8333 111.962 12V15H110.902ZM107.107 15V9.6H108.042V11.16H108.167V15H107.107Z" fill="#636E72"/>
<path d="M183.7 66V58.8H187.965V59.845H184.745V61.875H187.365V62.925H184.745V66H183.7ZM191.315 66.15C190.778 66.15 190.306 66.0333 189.9 65.8C189.496 65.5633 189.181 65.235 188.955 64.815C188.731 64.3917 188.62 63.9017 188.62 63.345C188.62 62.755 188.73 62.2433 188.95 61.81C189.173 61.3767 189.483 61.0417 189.88 60.805C190.276 60.5683 190.738 60.45 191.265 60.45C191.815 60.45 192.283 60.5783 192.67 60.835C193.056 61.0883 193.345 61.45 193.535 61.92C193.728 62.39 193.805 62.9483 193.765 63.595H192.72V63.215C192.713 62.5883 192.593 62.125 192.36 61.825C192.13 61.525 191.778 61.375 191.305 61.375C190.781 61.375 190.388 61.54 190.125 61.87C189.861 62.2 189.73 62.6767 189.73 63.3C189.73 63.8933 189.861 64.3533 190.125 64.68C190.388 65.0033 190.768 65.165 191.265 65.165C191.591 65.165 191.873 65.0917 192.11 64.945C192.35 64.795 192.536 64.5817 192.67 64.305L193.695 64.63C193.485 65.1133 193.166 65.4883 192.74 65.755C192.313 66.0183 191.838 66.15 191.315 66.15ZM189.39 63.595V62.78H193.245V63.595H189.39ZM197.621 66.15C197.105 66.15 196.671 66.025 196.321 65.775C195.971 65.5217 195.706 65.18 195.526 64.75C195.346 64.32 195.256 63.835 195.256 63.295C195.256 62.755 195.345 62.27 195.521 61.84C195.701 61.41 195.965 61.0717 196.311 60.825C196.661 60.575 197.091 60.45 197.601 60.45C198.108 60.45 198.545 60.575 198.911 60.825C199.281 61.0717 199.566 61.41 199.766 61.84C199.966 62.2667 200.066 62.7517 200.066 63.295C200.066 63.835 199.966 64.3217 199.766 64.755C199.57 65.185 199.288 65.525 198.921 65.775C198.558 66.025 198.125 66.15 197.621 66.15ZM195.081 66V58.8H196.131V62.115H196.011V66H195.081ZM197.476 65.205C197.81 65.205 198.085 65.12 198.301 64.95C198.521 64.78 198.685 64.5517 198.791 64.265C198.901 63.975 198.956 63.6517 198.956 63.295C198.956 62.9417 198.901 62.6217 198.791 62.335C198.685 62.0483 198.52 61.82 198.296 61.65C198.073 61.48 197.788 61.395 197.441 61.395C197.115 61.395 196.845 61.475 196.631 61.635C196.421 61.795 196.265 62.0183 196.161 62.305C196.061 62.5917 196.011 62.9217 196.011 63.295C196.011 63.6683 196.061 63.9983 196.161 64.285C196.261 64.5717 196.42 64.7967 196.636 64.96C196.853 65.1233 197.133 65.205 197.476 65.205Z" fill="#636E72"/>
<path d="M183.7 151V143.8H184.645L187.255 149.215L189.85 143.8H190.805V150.995H189.815V146.07L187.49 151H187.015L184.685 146.07V151H183.7ZM193.931 151.15C193.531 151.15 193.196 151.077 192.926 150.93C192.656 150.78 192.451 150.583 192.311 150.34C192.174 150.093 192.106 149.823 192.106 149.53C192.106 149.257 192.154 149.017 192.251 148.81C192.348 148.603 192.491 148.428 192.681 148.285C192.871 148.138 193.104 148.02 193.381 147.93C193.621 147.86 193.893 147.798 194.196 147.745C194.499 147.692 194.818 147.642 195.151 147.595C195.488 147.548 195.821 147.502 196.151 147.455L195.771 147.665C195.778 147.242 195.688 146.928 195.501 146.725C195.318 146.518 195.001 146.415 194.551 146.415C194.268 146.415 194.008 146.482 193.771 146.615C193.534 146.745 193.369 146.962 193.276 147.265L192.301 146.965C192.434 146.502 192.688 146.133 193.061 145.86C193.438 145.587 193.938 145.45 194.561 145.45C195.044 145.45 195.464 145.533 195.821 145.7C196.181 145.863 196.444 146.123 196.611 146.48C196.698 146.657 196.751 146.843 196.771 147.04C196.791 147.237 196.801 147.448 196.801 147.675V151H195.876V149.765L196.056 149.925C195.833 150.338 195.548 150.647 195.201 150.85C194.858 151.05 194.434 151.15 193.931 151.15ZM194.116 150.295C194.413 150.295 194.668 150.243 194.881 150.14C195.094 150.033 195.266 149.898 195.396 149.735C195.526 149.572 195.611 149.402 195.651 149.225C195.708 149.065 195.739 148.885 195.746 148.685C195.756 148.485 195.761 148.325 195.761 148.205L196.101 148.33C195.771 148.38 195.471 148.425 195.201 148.465C194.931 148.505 194.686 148.545 194.466 148.585C194.249 148.622 194.056 148.667 193.886 148.72C193.743 148.77 193.614 148.83 193.501 148.9C193.391 148.97 193.303 149.055 193.236 149.155C193.173 149.255 193.141 149.377 193.141 149.52C193.141 149.66 193.176 149.79 193.246 149.91C193.316 150.027 193.423 150.12 193.566 150.19C193.709 150.26 193.893 150.295 194.116 150.295ZM198.299 151V145.6H199.229V146.91L199.099 146.74C199.166 146.567 199.253 146.408 199.359 146.265C199.466 146.118 199.589 145.998 199.729 145.905C199.866 145.805 200.018 145.728 200.184 145.675C200.354 145.618 200.528 145.585 200.704 145.575C200.881 145.562 201.051 145.57 201.214 145.6V146.58C201.038 146.533 200.841 146.52 200.624 146.54C200.411 146.56 200.214 146.628 200.034 146.745C199.864 146.855 199.729 146.988 199.629 147.145C199.533 147.302 199.463 147.477 199.419 147.67C199.376 147.86 199.354 148.062 199.354 148.275V151H198.299Z" fill="#636E72"/>
<path d="M96.2 203L98.54 195.8H100.045L102.385 203H101.3L99.145 196.43H99.415L97.285 203H96.2ZM97.415 201.375V200.395H101.175V201.375H97.415ZM106.017 203.15C105.5 203.15 105.067 203.025 104.717 202.775C104.367 202.522 104.102 202.18 103.922 201.75C103.742 201.32 103.652 200.835 103.652 200.295C103.652 199.755 103.74 199.27 103.917 198.84C104.097 198.41 104.36 198.072 104.707 197.825C105.057 197.575 105.487 197.45 105.997 197.45C106.504 197.45 106.94 197.575 107.307 197.825C107.677 198.072 107.962 198.41 108.162 198.84C108.362 199.267 108.462 199.752 108.462 200.295C108.462 200.835 108.362 201.322 108.162 201.755C107.965 202.185 107.684 202.525 107.317 202.775C106.954 203.025 106.52 203.15 106.017 203.15ZM103.477 205.4V197.6H104.407V201.485H104.527V205.4H103.477ZM105.872 202.205C106.205 202.205 106.48 202.12 106.697 201.95C106.917 201.78 107.08 201.552 107.187 201.265C107.297 200.975 107.352 200.652 107.352 200.295C107.352 199.942 107.297 199.622 107.187 199.335C107.08 199.048 106.915 198.82 106.692 198.65C106.469 198.48 106.184 198.395 105.837 198.395C105.51 198.395 105.24 198.475 105.027 198.635C104.817 198.795 104.66 199.018 104.557 199.305C104.457 199.592 104.407 199.922 104.407 200.295C104.407 200.668 104.457 200.998 104.557 201.285C104.657 201.572 104.815 201.797 105.032 201.96C105.249 202.123 105.529 202.205 105.872 202.205ZM109.766 203V197.6H110.696V198.91L110.566 198.74C110.633 198.567 110.719 198.408 110.826 198.265C110.933 198.118 111.056 197.998 111.196 197.905C111.333 197.805 111.484 197.728 111.651 197.675C111.821 197.618 111.994 197.585 112.171 197.575C112.348 197.562 112.518 197.57 112.681 197.6V198.58C112.504 198.533 112.308 198.52 112.091 198.54C111.878 198.56 111.681 198.628 111.501 198.745C111.331 198.855 111.196 198.988 111.096 199.145C110.999 199.302 110.929 199.477 110.886 199.67C110.843 199.86 110.821 200.062 110.821 200.275V203H109.766Z" fill="#636E72"/>
<path d="M6.91523 151V143.8H7.86023L10.4702 149.215L13.0652 143.8H14.0202V150.995H13.0302V146.07L10.7052 151H10.2302L7.90023 146.07V151H6.91523ZM17.1461 151.15C16.7461 151.15 16.4111 151.077 16.1411 150.93C15.8711 150.78 15.6661 150.583 15.5261 150.34C15.3894 150.093 15.3211 149.823 15.3211 149.53C15.3211 149.257 15.3694 149.017 15.4661 148.81C15.5628 148.603 15.7061 148.428 15.8961 148.285C16.0861 148.138 16.3194 148.02 16.5961 147.93C16.8361 147.86 17.1078 147.798 17.4111 147.745C17.7144 147.692 18.0328 147.642 18.3661 147.595C18.7028 147.548 19.0361 147.502 19.3661 147.455L18.9861 147.665C18.9928 147.242 18.9028 146.928 18.7161 146.725C18.5328 146.518 18.2161 146.415 17.7661 146.415C17.4828 146.415 17.2228 146.482 16.9861 146.615C16.7494 146.745 16.5844 146.962 16.4911 147.265L15.5161 146.965C15.6494 146.502 15.9028 146.133 16.2761 145.86C16.6528 145.587 17.1528 145.45 17.7761 145.45C18.2594 145.45 18.6794 145.533 19.0361 145.7C19.3961 145.863 19.6594 146.123 19.8261 146.48C19.9128 146.657 19.9661 146.843 19.9861 147.04C20.0061 147.237 20.0161 147.448 20.0161 147.675V151H19.0911V149.765L19.2711 149.925C19.0478 150.338 18.7628 150.647 18.4161 150.85C18.0728 151.05 17.6494 151.15 17.1461 151.15ZM17.3311 150.295C17.6278 150.295 17.8828 150.243 18.0961 150.14C18.3094 150.033 18.4811 149.898 18.6111 149.735C18.7411 149.572 18.8261 149.402 18.8661 149.225C18.9228 149.065 18.9544 148.885 18.9611 148.685C18.9711 148.485 18.9761 148.325 18.9761 148.205L19.3161 148.33C18.9861 148.38 18.6861 148.425 18.4161 148.465C18.1461 148.505 17.9011 148.545 17.6811 148.585C17.4644 148.622 17.2711 148.667 17.1011 148.72C16.9578 148.77 16.8294 148.83 16.7161 148.9C16.6061 148.97 16.5178 149.055 16.4511 149.155C16.3878 149.255 16.3561 149.377 16.3561 149.52C16.3561 149.66 16.3911 149.79 16.4611 149.91C16.5311 150.027 16.6378 150.12 16.7811 150.19C16.9244 150.26 17.1078 150.295 17.3311 150.295ZM21.9417 153.4L22.9867 150.555L23.0017 151.395L20.6467 145.6H21.7367L23.4967 150.075H23.1767L24.8567 145.6H25.9167L22.9367 153.4H21.9417Z" fill="#636E72"/>
<path d="M10.4825 66.145C9.95583 66.145 9.5125 66.005 9.1525 65.725C8.79583 65.445 8.54917 65.0683 8.4125 64.595L9.4475 64.35C9.49417 64.5733 9.6125 64.765 9.8025 64.925C9.99583 65.0817 10.2108 65.16 10.4475 65.16C10.6042 65.16 10.7675 65.12 10.9375 65.04C11.1075 64.96 11.2342 64.83 11.3175 64.65C11.3742 64.53 11.4075 64.3933 11.4175 64.24C11.4275 64.0833 11.4325 63.9017 11.4325 63.695V58.8H12.4925V63.695C12.4925 63.9083 12.4908 64.0983 12.4875 64.265C12.4875 64.4317 12.4708 64.5883 12.4375 64.735C12.4075 64.8817 12.3475 65.0333 12.2575 65.19C12.0675 65.52 11.8175 65.7617 11.5075 65.915C11.1975 66.0683 10.8558 66.145 10.4825 66.145ZM16.2303 66.145C15.857 66.145 15.5436 66.085 15.2903 65.965C15.037 65.845 14.8303 65.6883 14.6703 65.495C14.5136 65.2983 14.3936 65.085 14.3103 64.855C14.227 64.625 14.1703 64.4 14.1403 64.18C14.1103 63.96 14.0953 63.7667 14.0953 63.6V60.6H15.1553V63.255C15.1553 63.465 15.172 63.6817 15.2053 63.905C15.242 64.125 15.3086 64.33 15.4053 64.52C15.5053 64.71 15.6436 64.8633 15.8203 64.98C16.0003 65.0967 16.2336 65.155 16.5203 65.155C16.707 65.155 16.8836 65.125 17.0503 65.065C17.217 65.0017 17.362 64.9017 17.4853 64.765C17.612 64.6283 17.7103 64.4483 17.7803 64.225C17.8536 64.0017 17.8903 63.73 17.8903 63.41L18.5403 63.655C18.5403 64.145 18.4486 64.5783 18.2653 64.955C18.082 65.3283 17.8186 65.62 17.4753 65.83C17.132 66.04 16.717 66.145 16.2303 66.145ZM18.0153 66V64.44H17.8903V60.6H18.9453V66H18.0153ZM24.3377 66V63.345C24.3377 63.135 24.3193 62.92 24.2827 62.7C24.2493 62.4767 24.1827 62.27 24.0827 62.08C23.986 61.89 23.8477 61.7367 23.6677 61.62C23.491 61.5033 23.2593 61.445 22.9727 61.445C22.786 61.445 22.6093 61.4767 22.4427 61.54C22.276 61.6 22.1293 61.6983 22.0027 61.835C21.8793 61.9717 21.781 62.1517 21.7077 62.375C21.6377 62.5983 21.6027 62.87 21.6027 63.19L20.9527 62.945C20.9527 62.455 21.0443 62.0233 21.2277 61.65C21.411 61.2733 21.6743 60.98 22.0177 60.77C22.361 60.56 22.776 60.455 23.2627 60.455C23.636 60.455 23.9493 60.515 24.2027 60.635C24.456 60.755 24.661 60.9133 24.8177 61.11C24.9777 61.3033 25.0993 61.515 25.1827 61.745C25.266 61.975 25.3227 62.2 25.3527 62.42C25.3827 62.64 25.3977 62.8333 25.3977 63V66H24.3377ZM20.5427 66V60.6H21.4777V62.16H21.6027V66H20.5427Z" fill="#636E72"/>
<line x1="104.75" y1="190" x2="104.75" y2="20" stroke="#DFE6E9" stroke-width="0.5"/>
<line x1="31.2627" y1="147.283" x2="178.487" y2="62.2835" stroke="#DFE6E9" stroke-width="0.5"/>
<line x1="31.5127" y1="62.2835" x2="178.737" y2="147.283" stroke="#DFE6E9" stroke-width="0.5"/>
<g style="mix-blend-mode:multiply" opacity="0.8">
<path d="M130.5 90.5L105 47.5L64.5 82L84 117.5L105 125L146 129L130.5 90.5Z" fill="#08A730"/>
</g>
<path opacity="0.8" d="M134.5 88L105 76.5L65.5 82.5L91.5 112.5L105 137.5L127 118L134.5 88Z" fill="#FF2D55"/>
</svg>
