<svg width="187" height="43" viewBox="0 0 187 43" fill="none" xmlns="http://www.w3.org/2000/svg">
<path d="M-3.00001 41C2.04311 40.8397 7.39616 37.5547 12.3235 34.5309C13.1144 34.0455 13.8963 33.5601 14.6714 33.0789C20.0437 29.7438 25.0903 26.6109 30.5724 25.0817C33.235 24.2647 36.0219 23.8292 38.875 23.3833C42.1329 22.8741 45.4771 22.3515 48.8214 21.232C50.7611 20.6369 52.7668 19.7987 54.7936 18.9518C58.7256 17.3088 62.737 15.6325 66.5001 15.6325C70.4912 15.6325 74.2515 17.1909 78.0747 18.7753C80.2606 19.6811 82.4671 20.5955 84.749 21.232C90.4518 23.3319 96.7249 23.3319 102.428 18.4323C105.066 16.5186 107.705 13.7379 110.301 11.002C113.877 7.23372 117.373 3.55028 120.677 2.33373C124.867 1.16491 128.802 3.27509 132.824 5.43109C134.823 6.50286 136.843 7.58596 138.926 8.2832C141.777 9.15812 144.771 9.15812 147.765 9.15812C150.759 9.15812 153.753 9.15812 156.604 10.033C159.246 10.7698 161.887 12.1891 164.486 13.5856C168.059 15.5056 171.552 17.3824 174.853 17.3824C177.99 17.3824 180.984 15.9825 183.978 14.5826C184.318 14.4233 184.659 14.264 185 14.1068" stroke="#FF0022" stroke-width="3" stroke-linecap="round"/>
</svg>
