<svg width="20" height="20" viewBox="0 0 20 20" fill="none" xmlns="http://www.w3.org/2000/svg">
<path d="M2.5 9.16602L2.5 12.916C2.5 15.273 2.5 16.4515 3.23223 17.1838C3.96447 17.916 5.14298 17.916 7.5 17.916H12.5C14.857 17.916 16.0355 17.916 16.7678 17.1838C17.5 16.4515 17.5 15.273 17.5 12.916V9.16602" stroke="#43454C"/>
<path d="M12.5 14.166C11.9299 14.672 11.0223 14.9993 10 14.9993C8.97771 14.9993 8.07008 14.672 7.5 14.166" stroke="#43454C" stroke-linecap="round"/>
<path d="M6.64234 7.49967L7.12534 7.37038C7.06045 7.12797 6.82593 6.97122 6.57714 7.00394C6.32834 7.03667 6.14234 7.24874 6.14234 7.49967H6.64234ZM1.76131 8.36672L2.22986 8.19219H2.22986L1.76131 8.36672ZM18.2389 8.36672L17.7703 8.19218V8.19219L18.2389 8.36672ZM13.3578 7.49967H13.8578C13.8578 7.24874 13.6718 7.03667 13.423 7.00394C13.1742 6.97122 12.9397 7.12797 12.8748 7.37038L13.3578 7.49967ZM2.04814 6.73109L2.48148 6.98053L2.48148 6.98053L2.04814 6.73109ZM2.85119 5.33596L2.41786 5.08653L2.41786 5.08653L2.85119 5.33596ZM17.952 6.73109L17.5187 6.98053L17.952 6.73109ZM17.149 5.33596L17.5823 5.08653L17.5823 5.08653L17.149 5.33596ZM18.3228 7.69045L17.8245 7.73194V7.73194L18.3228 7.69045ZM1.67737 7.69045L1.17909 7.64896L1.67737 7.69045ZM6.14234 7.49967C6.14234 8.60081 5.24216 9.49967 4.12404 9.49967V10.4997C5.78756 10.4997 7.14234 9.15996 7.14234 7.49967L6.14234 7.49967ZM4.12404 9.49967C3.254 9.49967 2.5138 8.95446 2.22986 8.19219L1.29276 8.54125C1.71905 9.68566 2.82657 10.4997 4.12404 10.4997V9.49967ZM17.7703 8.19219C17.4864 8.95446 16.7462 9.49967 15.8761 9.49967V10.4997C17.1736 10.4997 18.2811 9.68566 18.7074 8.54125L17.7703 8.19219ZM15.8761 9.49967C14.758 9.49967 13.8578 8.60081 13.8578 7.49967H12.8578C12.8578 9.15996 14.2126 10.4997 15.8761 10.4997V9.49967ZM10.0001 9.49967C8.60454 9.49967 7.45003 8.58328 7.12534 7.37038L6.15935 7.62897C6.6044 9.29145 8.16469 10.4997 10.0001 10.4997V9.49967ZM12.8748 7.37038C12.5501 8.58328 11.3956 9.49967 10.0001 9.49967V10.4997C11.8355 10.4997 13.3958 9.29145 13.8408 7.62897L12.8748 7.37038ZM2.48148 6.98053L3.28453 5.5854L2.41786 5.08653L1.6148 6.48166L2.48148 6.98053ZM18.3854 6.48166L17.5823 5.08653L16.7156 5.5854L17.5187 6.98053L18.3854 6.48166ZM4.92934 2.58301L15.0708 2.58301V1.58301L4.92934 1.58301V2.58301ZM17.2156 3.71579C17.2156 2.53445 16.2519 1.58301 15.0708 1.58301V2.58301C15.7065 2.58301 16.2156 3.0936 16.2156 3.71579H17.2156ZM17.5823 5.08653C17.3419 4.66884 17.2156 4.19637 17.2156 3.71579H16.2156C16.2156 4.3718 16.388 5.01625 16.7156 5.5854L17.5823 5.08653ZM3.78461 3.71579C3.78461 3.0936 4.29368 2.58301 4.92934 2.58301V1.58301C3.74828 1.58301 2.78461 2.53445 2.78461 3.71579L3.78461 3.71579ZM18.7074 8.54125C18.7436 8.444 18.7907 8.32179 18.815 8.16732C18.8391 8.01365 18.8379 7.85106 18.8211 7.64896L17.8245 7.73194C17.8384 7.89837 17.8335 7.97133 17.827 8.01237C17.8207 8.05261 17.8105 8.08427 17.7703 8.19218L18.7074 8.54125ZM17.5187 6.98053C17.7474 7.37785 17.8041 7.48702 17.8245 7.73194L18.8211 7.64896C18.7801 7.15682 18.6101 6.87211 18.3854 6.48166L17.5187 6.98053ZM3.28453 5.5854C3.61214 5.01625 3.78461 4.3718 3.78461 3.71579L2.78461 3.71579C2.78461 4.19637 2.65828 4.66884 2.41786 5.08653L3.28453 5.5854ZM2.22986 8.19219C2.18966 8.08427 2.17945 8.05261 2.17313 8.01237C2.1667 7.97132 2.16178 7.89836 2.17564 7.73194L1.17909 7.64896C1.16226 7.85106 1.16111 8.01365 1.18521 8.16732C1.20944 8.32179 1.25654 8.444 1.29276 8.54125L2.22986 8.19219ZM1.6148 6.48166C1.39006 6.87211 1.22007 7.15682 1.17909 7.64896L2.17564 7.73194C2.19604 7.48702 2.25278 7.37785 2.48148 6.98053L1.6148 6.48166Z" fill="#43454C"/>
</svg>
