<svg width="1077" height="284" viewBox="0 0 1077 284" fill="none" xmlns="http://www.w3.org/2000/svg">
<line x1="52" y1="140.402" x2="1072" y2="140.402" stroke="#DFE6E9" stroke-width="0.5"/>
<line x1="52" y1="196.402" x2="1072" y2="196.402" stroke="#DFE6E9" stroke-width="0.5"/>
<line x1="52" y1="251.402" x2="1072" y2="251.402" stroke="#DFE6E9" stroke-width="0.5"/>
<line x1="52" y1="84.4019" x2="1072" y2="84.4019" stroke="#DFE6E9" stroke-width="0.5"/>
<line x1="52" y1="28.4019" x2="1072" y2="28.4019" stroke="#DFE6E9" stroke-width="0.5"/>
<path d="M5.418 34.6519H6.454V32.6989H7.553V31.7189H6.454V28.7789H5.418V31.7189H1.855L5.229 24.5719H4.074L0.7 31.7189V32.6989H5.418V34.6519ZM12.8078 34.8619C13.4331 34.8619 13.9931 34.7172 14.4878 34.4279C14.9825 34.1385 15.3745 33.7465 15.6638 33.2519C15.9531 32.7525 16.0978 32.1925 16.0978 31.5719V27.6519C16.0978 27.0265 15.9531 26.4665 15.6638 25.9719C15.3745 25.4772 14.9825 25.0852 14.4878 24.7959C13.9931 24.5065 13.4331 24.3619 12.8078 24.3619C12.1871 24.3619 11.6271 24.5065 11.1278 24.7959C10.6331 25.0852 10.2411 25.4772 9.95181 25.9719C9.66248 26.4665 9.51781 27.0265 9.51781 27.6519V31.5719C9.51781 32.1925 9.66248 32.7525 9.95181 33.2519C10.2411 33.7465 10.6331 34.1385 11.1278 34.4279C11.6271 34.7172 12.1871 34.8619 12.8078 34.8619ZM12.8078 33.8679C12.3971 33.8679 12.0215 33.7675 11.6808 33.5669C11.3401 33.3615 11.0671 33.0885 10.8618 32.7479C10.6611 32.4072 10.5608 32.0315 10.5608 31.6209V27.6029C10.5608 27.1875 10.6611 26.8095 10.8618 26.4689C11.0671 26.1282 11.3401 25.8575 11.6808 25.6569C12.0215 25.4515 12.3971 25.3489 12.8078 25.3489C13.2231 25.3489 13.5988 25.4515 13.9348 25.6569C14.2755 25.8575 14.5461 26.1282 14.7468 26.4689C14.9521 26.8095 15.0548 27.1875 15.0548 27.6029V31.6209C15.0548 32.0315 14.9521 32.4072 14.7468 32.7479C14.5461 33.0885 14.2755 33.3615 13.9348 33.5669C13.5988 33.7675 13.2231 33.8679 12.8078 33.8679ZM18.3427 34.6519H19.3717V29.6119L24.3277 34.6519H25.6717L20.5897 29.4369L25.2867 24.5719H23.9707L19.3717 29.3319V24.5719H18.3427V34.6519Z" fill="#636E72"/>
<path d="M0.7 90.3949H7.28V89.4079H2.268L5.852 86.1739C6.342 85.7352 6.70133 85.3105 6.93 84.8999C7.16333 84.4892 7.28 83.9665 7.28 83.3319C7.28 82.7299 7.13767 82.1862 6.853 81.7009C6.573 81.2155 6.188 80.8305 5.698 80.5459C5.21267 80.2565 4.66433 80.1119 4.053 80.1119C3.43233 80.1119 2.87233 80.2519 2.373 80.5319C1.87833 80.8072 1.48633 81.1875 1.197 81.6729C0.907667 82.1535 0.763 82.7019 0.763 83.3179H1.813C1.80833 82.9212 1.90167 82.5549 2.093 82.2189C2.289 81.8829 2.555 81.6122 2.891 81.4069C3.227 81.2015 3.60967 81.0989 4.039 81.0989C4.45433 81.0989 4.82767 81.1992 5.159 81.3999C5.49033 81.5959 5.75167 81.8619 5.943 82.1979C6.139 82.5339 6.237 82.9095 6.237 83.3249C6.237 83.6749 6.17167 84.0109 6.041 84.3329C5.91033 84.6549 5.65133 84.9909 5.264 85.3409L0.707 89.4569L0.7 90.3949ZM12.5344 90.6119C13.1597 90.6119 13.7197 90.4672 14.2144 90.1779C14.709 89.8885 15.101 89.4965 15.3904 89.0019C15.6797 88.5025 15.8244 87.9425 15.8244 87.3219V83.4019C15.8244 82.7765 15.6797 82.2165 15.3904 81.7219C15.101 81.2272 14.709 80.8352 14.2144 80.5459C13.7197 80.2565 13.1597 80.1119 12.5344 80.1119C11.9137 80.1119 11.3537 80.2565 10.8544 80.5459C10.3597 80.8352 9.96771 81.2272 9.67837 81.7219C9.38904 82.2165 9.24437 82.7765 9.24437 83.4019V87.3219C9.24437 87.9425 9.38904 88.5025 9.67837 89.0019C9.96771 89.4965 10.3597 89.8885 10.8544 90.1779C11.3537 90.4672 11.9137 90.6119 12.5344 90.6119ZM12.5344 89.6179C12.1237 89.6179 11.748 89.5175 11.4074 89.3169C11.0667 89.1115 10.7937 88.8385 10.5884 88.4979C10.3877 88.1572 10.2874 87.7815 10.2874 87.3709V83.3529C10.2874 82.9375 10.3877 82.5595 10.5884 82.2189C10.7937 81.8782 11.0667 81.6075 11.4074 81.4069C11.748 81.2015 12.1237 81.0989 12.5344 81.0989C12.9497 81.0989 13.3254 81.2015 13.6614 81.4069C14.002 81.6075 14.2727 81.8782 14.4734 82.2189C14.6787 82.5595 14.7814 82.9375 14.7814 83.3529V87.3709C14.7814 87.7815 14.6787 88.1572 14.4734 88.4979C14.2727 88.8385 14.002 89.1115 13.6614 89.3169C13.3254 89.5175 12.9497 89.6179 12.5344 89.6179ZM18.0693 90.4019H19.0983V85.3619L24.0543 90.4019H25.3983L20.3163 85.1869L25.0133 80.3219H23.6973L19.0983 85.0819V80.3219H18.0693V90.4019Z" fill="#636E72"/>
<path d="M2.737 146.152H3.78V136.072H2.737L0.84 137.206V138.361L2.737 137.22V146.152ZM10.0051 146.362C10.6304 146.362 11.1904 146.217 11.6851 145.928C12.1797 145.639 12.5717 145.247 12.8611 144.752C13.1504 144.253 13.2951 143.693 13.2951 143.072V139.152C13.2951 138.527 13.1504 137.967 12.8611 137.472C12.5717 136.977 12.1797 136.585 11.6851 136.296C11.1904 136.007 10.6304 135.862 10.0051 135.862C9.38441 135.862 8.82441 136.007 8.32508 136.296C7.83041 136.585 7.43841 136.977 7.14908 137.472C6.85975 137.967 6.71508 138.527 6.71508 139.152V143.072C6.71508 143.693 6.85975 144.253 7.14908 144.752C7.43841 145.247 7.83041 145.639 8.32508 145.928C8.82441 146.217 9.38441 146.362 10.0051 146.362ZM10.0051 145.368C9.59441 145.368 9.21875 145.268 8.87808 145.067C8.53741 144.862 8.26441 144.589 8.05908 144.248C7.85841 143.907 7.75808 143.532 7.75808 143.121V139.103C7.75808 138.688 7.85841 138.31 8.05908 137.969C8.26441 137.628 8.53741 137.358 8.87808 137.157C9.21875 136.952 9.59441 136.849 10.0051 136.849C10.4204 136.849 10.7961 136.952 11.1321 137.157C11.4727 137.358 11.7434 137.628 11.9441 137.969C12.1494 138.31 12.2521 138.688 12.2521 139.103V143.121C12.2521 143.532 12.1494 143.907 11.9441 144.248C11.7434 144.589 11.4727 144.862 11.1321 145.067C10.7961 145.268 10.4204 145.368 10.0051 145.368ZM15.54 146.152H16.569V141.112L21.525 146.152H22.869L17.787 140.937L22.484 136.072H21.168L16.569 140.832V136.072H15.54V146.152Z" fill="#636E72"/>
<path d="M3.955 202.112C4.58033 202.112 5.152 201.96 5.67 201.657C6.188 201.349 6.60333 200.938 6.916 200.425C7.22867 199.912 7.385 199.347 7.385 198.731C7.385 198.11 7.238 197.548 6.944 197.044C6.65 196.54 6.25333 196.141 5.754 195.847C5.25467 195.548 4.69467 195.399 4.074 195.399C3.696 195.399 3.32967 195.467 2.975 195.602C2.62033 195.733 2.30533 195.919 2.03 196.162L2.233 192.809H6.678V191.822H1.295L0.987 197.065L1.925 197.457C2.13033 197.14 2.40567 196.878 2.751 196.673C3.09633 196.468 3.507 196.365 3.983 196.365C4.40767 196.365 4.79967 196.47 5.159 196.68C5.51833 196.89 5.80767 197.175 6.027 197.534C6.24633 197.889 6.356 198.288 6.356 198.731C6.356 199.16 6.251 199.555 6.041 199.914C5.831 200.273 5.54633 200.563 5.187 200.782C4.83233 200.997 4.431 201.104 3.983 201.104C3.465 201.104 2.98667 200.945 2.548 200.628C2.10933 200.311 1.82233 199.879 1.687 199.333L0.7 199.599C0.835333 200.089 1.05933 200.523 1.372 200.901C1.68467 201.279 2.06267 201.575 2.506 201.79C2.94933 202.005 3.43233 202.112 3.955 202.112ZM9.34008 201.902H10.3691V196.862L15.3251 201.902H16.6691L11.5871 196.687L16.2841 191.822H14.9681L10.3691 196.582V191.822H9.34008V201.902Z" fill="#636E72"/>
<path d="M4.27 257.862C4.89533 257.862 5.45533 257.717 5.95 257.428C6.44467 257.139 6.83667 256.747 7.126 256.252C7.41533 255.753 7.56 255.193 7.56 254.572V250.652C7.56 250.027 7.41533 249.467 7.126 248.972C6.83667 248.477 6.44467 248.085 5.95 247.796C5.45533 247.507 4.89533 247.362 4.27 247.362C3.64933 247.362 3.08933 247.507 2.59 247.796C2.09533 248.085 1.70333 248.477 1.414 248.972C1.12467 249.467 0.98 250.027 0.98 250.652V254.572C0.98 255.193 1.12467 255.753 1.414 256.252C1.70333 256.747 2.09533 257.139 2.59 257.428C3.08933 257.717 3.64933 257.862 4.27 257.862ZM4.27 256.868C3.85933 256.868 3.48367 256.768 3.143 256.567C2.80233 256.362 2.52933 256.089 2.324 255.748C2.12333 255.407 2.023 255.032 2.023 254.621V250.603C2.023 250.188 2.12333 249.81 2.324 249.469C2.52933 249.128 2.80233 248.858 3.143 248.657C3.48367 248.452 3.85933 248.349 4.27 248.349C4.68533 248.349 5.061 248.452 5.397 248.657C5.73767 248.858 6.00833 249.128 6.209 249.469C6.41433 249.81 6.517 250.188 6.517 250.603V254.621C6.517 255.032 6.41433 255.407 6.209 255.748C6.00833 256.089 5.73767 256.362 5.397 256.567C5.061 256.768 4.68533 256.868 4.27 256.868Z" fill="#636E72"/>
<path d="M76.129 278.855C76.6237 278.855 77.074 278.75 77.48 278.54C77.8907 278.33 78.2174 278.013 78.46 277.588C78.642 277.271 78.7424 276.958 78.761 276.65C78.7797 276.337 78.789 275.971 78.789 275.551V268.572H77.753V275.551C77.753 275.878 77.7437 276.16 77.725 276.398C77.711 276.636 77.6527 276.855 77.55 277.056C77.396 277.345 77.1837 277.553 76.913 277.679C76.647 277.805 76.3834 277.868 76.122 277.868C75.7114 277.868 75.352 277.742 75.044 277.49C74.736 277.233 74.54 276.921 74.456 276.552L73.427 276.797C73.5904 277.418 73.9124 277.917 74.393 278.295C74.8737 278.668 75.4524 278.855 76.129 278.855ZM83.3442 278.862C84.6648 278.862 85.6238 278.374 86.2212 277.399V278.652H87.1382V273.955C87.1382 273.675 87.1242 273.4 87.0962 273.129C87.0682 272.858 87.0075 272.613 86.9142 272.394C86.7135 271.904 86.3705 271.531 85.8852 271.274C85.4045 271.013 84.8188 270.882 84.1282 270.882C83.2975 270.882 82.6208 271.069 82.0982 271.442C81.5755 271.815 81.2255 272.34 81.0482 273.017L82.0492 273.311C82.1938 272.807 82.4435 272.438 82.7982 272.205C83.1575 271.972 83.5962 271.855 84.1142 271.855C84.8328 271.855 85.3462 272.023 85.6542 272.359C85.9622 272.69 86.1208 273.197 86.1302 273.878C85.7942 273.925 85.4232 273.974 85.0172 274.025C84.6158 274.076 84.2122 274.135 83.8062 274.2C83.4002 274.265 83.0268 274.34 82.6862 274.424C82.1215 274.573 81.6595 274.823 81.3002 275.173C80.9408 275.518 80.7612 276.001 80.7612 276.622C80.7612 277.023 80.8568 277.394 81.0482 277.735C81.2395 278.076 81.5265 278.349 81.9092 278.554C82.2965 278.759 82.7748 278.862 83.3442 278.862ZM83.4632 277.973C83.0572 277.973 82.7305 277.908 82.4832 277.777C82.2405 277.642 82.0632 277.471 81.9512 277.266C81.8438 277.056 81.7902 276.841 81.7902 276.622C81.7902 276.211 81.9278 275.903 82.2032 275.698C82.4785 275.493 82.7772 275.343 83.0992 275.25C83.5145 275.138 83.9975 275.047 84.5482 274.977C85.0988 274.907 85.6215 274.842 86.1162 274.781C86.1162 274.954 86.1092 275.152 86.0952 275.376C86.0858 275.595 86.0602 275.798 86.0182 275.985C85.9202 276.554 85.6495 277.028 85.2062 277.406C84.7675 277.784 84.1865 277.973 83.4632 277.973ZM89.2335 278.652H90.2695V274.62C90.2695 273.766 90.4608 273.096 90.8435 272.611C91.2261 272.126 91.7815 271.883 92.5095 271.883C93.0368 271.883 93.4615 272.011 93.7835 272.268C94.1055 272.52 94.3388 272.865 94.4835 273.304C94.6281 273.743 94.7005 274.24 94.7005 274.795V278.652H95.7365V274.494C95.7365 274.069 95.6828 273.645 95.5755 273.22C95.4728 272.795 95.3048 272.408 95.0715 272.058C94.8381 271.708 94.5278 271.428 94.1405 271.218C93.7531 271.008 93.2748 270.903 92.7055 270.903C92.1641 270.903 91.6741 271.008 91.2355 271.218C90.8015 271.423 90.4445 271.731 90.1645 272.142V271.092H89.2335V278.652Z" fill="#636E72"/>
<path d="M160.72 278.652H161.749V274.123H165.669V273.101H161.749V269.601H166.509V268.572H160.72V278.652ZM171.048 278.862C171.781 278.862 172.436 278.682 173.015 278.323C173.598 277.964 174.039 277.453 174.338 276.79L173.379 276.419C172.898 277.39 172.107 277.875 171.006 277.875C170.25 277.875 169.657 277.639 169.228 277.168C168.803 276.697 168.57 276.027 168.528 275.159H174.485C174.522 273.824 174.231 272.779 173.61 272.023C172.994 271.262 172.126 270.882 171.006 270.882C170.278 270.882 169.646 271.045 169.109 271.372C168.577 271.699 168.164 272.163 167.87 272.765C167.576 273.367 167.429 274.081 167.429 274.907C167.429 275.705 167.576 276.4 167.87 276.993C168.169 277.586 168.589 278.045 169.13 278.372C169.676 278.699 170.315 278.862 171.048 278.862ZM171.034 271.827C172.457 271.827 173.248 272.651 173.407 274.298H168.549C168.628 273.5 168.88 272.889 169.305 272.464C169.73 272.039 170.306 271.827 171.034 271.827ZM176.312 278.652H177.236V277.595C177.506 277.987 177.849 278.297 178.265 278.526C178.68 278.75 179.163 278.862 179.714 278.862C180.423 278.862 181.027 278.687 181.527 278.337C182.026 277.982 182.406 277.504 182.668 276.902C182.934 276.3 183.067 275.621 183.067 274.865C183.067 274.114 182.934 273.437 182.668 272.835C182.406 272.233 182.028 271.757 181.534 271.407C181.039 271.057 180.446 270.882 179.756 270.882C179.233 270.882 178.769 270.98 178.363 271.176C177.961 271.367 177.623 271.636 177.348 271.981V268.572H176.312V278.652ZM179.609 277.903C179.072 277.903 178.629 277.772 178.279 277.511C177.929 277.245 177.667 276.883 177.495 276.426C177.322 275.969 177.236 275.448 177.236 274.865C177.236 273.974 177.429 273.248 177.817 272.688C178.209 272.123 178.799 271.841 179.588 271.841C180.129 271.841 180.575 271.974 180.925 272.24C181.279 272.506 181.543 272.868 181.716 273.325C181.888 273.782 181.975 274.296 181.975 274.865C181.975 275.439 181.886 275.955 181.709 276.412C181.536 276.869 181.275 277.233 180.925 277.504C180.575 277.77 180.136 277.903 179.609 277.903Z" fill="#636E72"/>
<path d="M246.766 278.652H247.753V270.868L251.337 278.652H252.002L255.593 270.868V278.645H256.573V268.572H255.614L251.673 277.049L247.711 268.572H246.766V278.652ZM260.98 278.862C262.301 278.862 263.26 278.374 263.857 277.399V278.652H264.774V273.955C264.774 273.675 264.76 273.4 264.732 273.129C264.704 272.858 264.644 272.613 264.55 272.394C264.35 271.904 264.007 271.531 263.521 271.274C263.041 271.013 262.455 270.882 261.764 270.882C260.934 270.882 260.257 271.069 259.734 271.442C259.212 271.815 258.862 272.34 258.684 273.017L259.685 273.311C259.83 272.807 260.08 272.438 260.434 272.205C260.794 271.972 261.232 271.855 261.75 271.855C262.469 271.855 262.982 272.023 263.29 272.359C263.598 272.69 263.757 273.197 263.766 273.878C263.43 273.925 263.059 273.974 262.653 274.025C262.252 274.076 261.848 274.135 261.442 274.2C261.036 274.265 260.663 274.34 260.322 274.424C259.758 274.573 259.296 274.823 258.936 275.173C258.577 275.518 258.397 276.001 258.397 276.622C258.397 277.023 258.493 277.394 258.684 277.735C258.876 278.076 259.163 278.349 259.545 278.554C259.933 278.759 260.411 278.862 260.98 278.862ZM261.099 277.973C260.693 277.973 260.367 277.908 260.119 277.777C259.877 277.642 259.699 277.471 259.587 277.266C259.48 277.056 259.426 276.841 259.426 276.622C259.426 276.211 259.564 275.903 259.839 275.698C260.115 275.493 260.413 275.343 260.735 275.25C261.151 275.138 261.634 275.047 262.184 274.977C262.735 274.907 263.258 274.842 263.752 274.781C263.752 274.954 263.745 275.152 263.731 275.376C263.722 275.595 263.696 275.798 263.654 275.985C263.556 276.554 263.286 277.028 262.842 277.406C262.404 277.784 261.823 277.973 261.099 277.973ZM266.877 278.652H267.906V274.879C267.906 274.426 267.957 273.976 268.06 273.528C268.167 273.075 268.41 272.7 268.788 272.401C269.063 272.177 269.362 272.049 269.684 272.016C270.01 271.979 270.314 271.993 270.594 272.058V271.092C270.262 271.008 269.887 271.006 269.467 271.085C269.047 271.16 268.687 271.328 268.389 271.589C268.165 271.757 267.969 271.99 267.801 272.289V271.092H266.877V278.652Z" fill="#636E72"/>
<path d="M333.944 278.652H335.015L335.855 276.209H340.335L341.182 278.652H342.253L338.781 268.572H337.416L333.944 278.652ZM336.191 275.243L338.088 269.734L339.999 275.243H336.191ZM343.79 282.012H344.826V277.749C345.097 278.094 345.43 278.367 345.827 278.568C346.224 278.764 346.679 278.862 347.192 278.862C347.901 278.862 348.506 278.687 349.005 278.337C349.504 277.982 349.885 277.504 350.146 276.902C350.412 276.3 350.545 275.621 350.545 274.865C350.545 274.114 350.412 273.437 350.146 272.835C349.885 272.233 349.507 271.757 349.012 271.407C348.517 271.057 347.925 270.882 347.234 270.882C346.674 270.882 346.182 270.994 345.757 271.218C345.337 271.437 344.989 271.743 344.714 272.135V271.092H343.79V282.012ZM347.087 277.903C346.55 277.903 346.107 277.772 345.757 277.511C345.407 277.245 345.146 276.883 344.973 276.426C344.8 275.969 344.714 275.448 344.714 274.865C344.714 273.974 344.908 273.248 345.295 272.688C345.687 272.123 346.277 271.841 347.066 271.841C347.607 271.841 348.053 271.974 348.403 272.24C348.758 272.506 349.021 272.868 349.194 273.325C349.367 273.782 349.453 274.296 349.453 274.865C349.453 275.439 349.364 275.955 349.187 276.412C349.014 276.869 348.753 277.233 348.403 277.504C348.053 277.77 347.614 277.903 347.087 277.903ZM352.362 278.652H353.391V274.879C353.391 274.426 353.442 273.976 353.545 273.528C353.652 273.075 353.895 272.7 354.273 272.401C354.548 272.177 354.847 272.049 355.169 272.016C355.496 271.979 355.799 271.993 356.079 272.058V271.092C355.748 271.008 355.372 271.006 354.952 271.085C354.532 271.16 354.173 271.328 353.874 271.589C353.65 271.757 353.454 271.99 353.286 272.289V271.092H352.362V278.652Z" fill="#636E72"/>
<path d="M419.173 278.652H420.16V270.868L423.744 278.652H424.409L428 270.868V278.645H428.98V268.572H428.021L424.08 277.049L420.118 268.572H419.173V278.652ZM433.387 278.862C434.708 278.862 435.667 278.374 436.264 277.399V278.652H437.181V273.955C437.181 273.675 437.167 273.4 437.139 273.129C437.111 272.858 437.05 272.613 436.957 272.394C436.756 271.904 436.413 271.531 435.928 271.274C435.447 271.013 434.862 270.882 434.171 270.882C433.34 270.882 432.664 271.069 432.141 271.442C431.618 271.815 431.268 272.34 431.091 273.017L432.092 273.311C432.237 272.807 432.486 272.438 432.841 272.205C433.2 271.972 433.639 271.855 434.157 271.855C434.876 271.855 435.389 272.023 435.697 272.359C436.005 272.69 436.164 273.197 436.173 273.878C435.837 273.925 435.466 273.974 435.06 274.025C434.659 274.076 434.255 274.135 433.849 274.2C433.443 274.265 433.07 274.34 432.729 274.424C432.164 274.573 431.702 274.823 431.343 275.173C430.984 275.518 430.804 276.001 430.804 276.622C430.804 277.023 430.9 277.394 431.091 277.735C431.282 278.076 431.569 278.349 431.952 278.554C432.339 278.759 432.818 278.862 433.387 278.862ZM433.506 277.973C433.1 277.973 432.773 277.908 432.526 277.777C432.283 277.642 432.106 277.471 431.994 277.266C431.887 277.056 431.833 276.841 431.833 276.622C431.833 276.211 431.971 275.903 432.246 275.698C432.521 275.493 432.82 275.343 433.142 275.25C433.557 275.138 434.04 275.047 434.591 274.977C435.142 274.907 435.664 274.842 436.159 274.781C436.159 274.954 436.152 275.152 436.138 275.376C436.129 275.595 436.103 275.798 436.061 275.985C435.963 276.554 435.692 277.028 435.249 277.406C434.81 277.784 434.229 277.973 433.506 277.973ZM439.938 282.012H440.967L445.027 271.092H443.977L441.688 277.308L439.203 271.092H438.111L441.184 278.631L439.938 282.012Z" fill="#636E72"/>
<path d="M504.564 278.855C505.059 278.855 505.509 278.75 505.915 278.54C506.326 278.33 506.653 278.013 506.895 277.588C507.077 277.271 507.178 276.958 507.196 276.65C507.215 276.337 507.224 275.971 507.224 275.551V268.572H506.188V275.551C506.188 275.878 506.179 276.16 506.16 276.398C506.146 276.636 506.088 276.855 505.985 277.056C505.831 277.345 505.619 277.553 505.348 277.679C505.082 277.805 504.819 277.868 504.557 277.868C504.147 277.868 503.787 277.742 503.479 277.49C503.171 277.233 502.975 276.921 502.891 276.552L501.862 276.797C502.026 277.418 502.348 277.917 502.828 278.295C503.309 278.668 503.888 278.855 504.564 278.855ZM512.507 278.841C513.049 278.841 513.536 278.738 513.97 278.533C514.409 278.323 514.768 278.013 515.048 277.602V278.652H515.972V271.092H514.943V275.124C514.943 275.978 514.752 276.648 514.369 277.133C513.987 277.618 513.431 277.861 512.703 277.861C512.176 277.861 511.751 277.735 511.429 277.483C511.107 277.226 510.874 276.879 510.729 276.44C510.585 276.001 510.512 275.504 510.512 274.949V271.092H509.476V275.25C509.476 275.675 509.528 276.099 509.63 276.524C509.738 276.949 509.908 277.336 510.141 277.686C510.375 278.036 510.685 278.316 511.072 278.526C511.464 278.736 511.943 278.841 512.507 278.841ZM518.202 278.652H519.238V274.62C519.238 273.766 519.429 273.096 519.812 272.611C520.195 272.126 520.75 271.883 521.478 271.883C522.005 271.883 522.43 272.011 522.752 272.268C523.074 272.52 523.307 272.865 523.452 273.304C523.597 273.743 523.669 274.24 523.669 274.795V278.652H524.705V274.494C524.705 274.069 524.651 273.645 524.544 273.22C524.441 272.795 524.273 272.408 524.04 272.058C523.807 271.708 523.496 271.428 523.109 271.218C522.722 271.008 522.243 270.903 521.674 270.903C521.133 270.903 520.643 271.008 520.204 271.218C519.77 271.423 519.413 271.731 519.133 272.142V271.092H518.202V278.652ZM529.946 278.862C530.678 278.862 531.334 278.682 531.913 278.323C532.496 277.964 532.937 277.453 533.236 276.79L532.277 276.419C531.796 277.39 531.005 277.875 529.904 277.875C529.148 277.875 528.555 277.639 528.126 277.168C527.701 276.697 527.468 276.027 527.426 275.159H533.383C533.42 273.824 533.128 272.779 532.508 272.023C531.892 271.262 531.024 270.882 529.904 270.882C529.176 270.882 528.543 271.045 528.007 271.372C527.475 271.699 527.062 272.163 526.768 272.765C526.474 273.367 526.327 274.081 526.327 274.907C526.327 275.705 526.474 276.4 526.768 276.993C527.066 277.586 527.486 278.045 528.028 278.372C528.574 278.699 529.213 278.862 529.946 278.862ZM529.932 271.827C531.355 271.827 532.146 272.651 532.305 274.298H527.447C527.526 273.5 527.778 272.889 528.203 272.464C528.627 272.039 529.204 271.827 529.932 271.827Z" fill="#636E72"/>
<path d="M593.644 278.855C594.139 278.855 594.589 278.75 594.995 278.54C595.406 278.33 595.733 278.013 595.975 277.588C596.157 277.271 596.258 276.958 596.276 276.65C596.295 276.337 596.304 275.971 596.304 275.551V268.572H595.268V275.551C595.268 275.878 595.259 276.16 595.24 276.398C595.226 276.636 595.168 276.855 595.065 277.056C594.911 277.345 594.699 277.553 594.428 277.679C594.162 277.805 593.899 277.868 593.637 277.868C593.227 277.868 592.867 277.742 592.559 277.49C592.251 277.233 592.055 276.921 591.971 276.552L590.942 276.797C591.106 277.418 591.428 277.917 591.908 278.295C592.389 278.668 592.968 278.855 593.644 278.855ZM601.587 278.841C602.129 278.841 602.616 278.738 603.05 278.533C603.489 278.323 603.848 278.013 604.128 277.602V278.652H605.052V271.092H604.023V275.124C604.023 275.978 603.832 276.648 603.449 277.133C603.067 277.618 602.511 277.861 601.783 277.861C601.256 277.861 600.831 277.735 600.509 277.483C600.187 277.226 599.954 276.879 599.809 276.44C599.665 276.001 599.592 275.504 599.592 274.949V271.092H598.556V275.25C598.556 275.675 598.608 276.099 598.71 276.524C598.818 276.949 598.988 277.336 599.221 277.686C599.455 278.036 599.765 278.316 600.152 278.526C600.544 278.736 601.023 278.841 601.587 278.841ZM607.429 278.652H608.458V268.362H607.429V278.652ZM611.915 282.012H612.944L617.004 271.092H615.954L613.665 277.308L611.18 271.092H610.088L613.161 278.631L611.915 282.012Z" fill="#636E72"/>
<path d="M677.538 278.652H678.609L679.449 276.209H683.929L684.776 278.652H685.847L682.375 268.572H681.01L677.538 278.652ZM679.785 275.243L681.682 269.734L683.593 275.243H679.785ZM690.282 278.841C690.823 278.841 691.311 278.738 691.745 278.533C692.183 278.323 692.543 278.013 692.823 277.602V278.652H693.747V271.092H692.718V275.124C692.718 275.978 692.526 276.648 692.144 277.133C691.761 277.618 691.206 277.861 690.478 277.861C689.95 277.861 689.526 277.735 689.204 277.483C688.882 277.226 688.648 276.879 688.504 276.44C688.359 276.001 688.287 275.504 688.287 274.949V271.092H687.251V275.25C687.251 275.675 687.302 276.099 687.405 276.524C687.512 276.949 687.682 277.336 687.916 277.686C688.149 278.036 688.459 278.316 688.847 278.526C689.239 278.736 689.717 278.841 690.282 278.841ZM698.916 278.862C699.425 278.862 699.877 278.764 700.274 278.568C700.671 278.372 701.004 278.101 701.275 277.756V278.533C701.28 279.42 701.105 280.089 700.75 280.542C700.395 280.995 699.807 281.221 698.986 281.221C698.589 281.221 698.2 281.128 697.817 280.941C697.434 280.759 697.14 280.458 696.935 280.038L696.004 280.556C696.326 281.144 696.758 281.569 697.299 281.83C697.845 282.091 698.407 282.222 698.986 282.222C699.91 282.222 700.647 282.021 701.198 281.62C701.749 281.219 702.092 280.596 702.227 279.751C702.26 279.56 702.281 279.364 702.29 279.163C702.304 278.967 702.311 278.762 702.311 278.547V271.092H701.394V272.135C701.119 271.743 700.769 271.437 700.344 271.218C699.924 270.994 699.434 270.882 698.874 270.882C698.183 270.882 697.591 271.057 697.096 271.407C696.601 271.757 696.221 272.233 695.955 272.835C695.694 273.437 695.563 274.114 695.563 274.865C695.563 275.621 695.694 276.3 695.955 276.902C696.221 277.504 696.604 277.982 697.103 278.337C697.607 278.687 698.211 278.862 698.916 278.862ZM699.021 277.903C698.498 277.903 698.06 277.77 697.705 277.504C697.355 277.233 697.091 276.869 696.914 276.412C696.741 275.955 696.655 275.439 696.655 274.865C696.655 274.296 696.741 273.782 696.914 273.325C697.087 272.868 697.348 272.506 697.698 272.24C698.053 271.974 698.501 271.841 699.042 271.841C699.831 271.841 700.419 272.123 700.806 272.688C701.198 273.248 701.394 273.974 701.394 274.865C701.394 275.448 701.308 275.969 701.135 276.426C700.962 276.883 700.701 277.245 700.351 277.511C700.001 277.772 699.558 277.903 699.021 277.903Z" fill="#636E72"/>
<path d="M768.706 278.862C769.411 278.862 770.039 278.745 770.589 278.512C771.145 278.279 771.583 277.943 771.905 277.504C772.227 277.061 772.388 276.526 772.388 275.901C772.388 275.425 772.3 275.031 772.122 274.718C771.95 274.401 771.73 274.146 771.464 273.955C771.203 273.759 770.935 273.61 770.659 273.507C770.384 273.4 770.144 273.318 769.938 273.262L767.964 272.681C767.703 272.606 767.432 272.511 767.152 272.394C766.877 272.277 766.644 272.116 766.452 271.911C766.266 271.706 766.172 271.433 766.172 271.092C766.172 270.756 766.275 270.457 766.48 270.196C766.686 269.93 766.966 269.722 767.32 269.573C767.675 269.419 768.076 269.344 768.524 269.349C769.229 269.354 769.833 269.552 770.337 269.944C770.846 270.331 771.152 270.852 771.254 271.505L772.332 271.309C772.169 270.404 771.747 269.69 771.065 269.167C770.384 268.64 769.539 268.374 768.531 268.369C767.869 268.364 767.278 268.476 766.76 268.705C766.242 268.929 765.834 269.249 765.535 269.664C765.237 270.075 765.087 270.565 765.087 271.134C765.087 271.811 765.29 272.338 765.696 272.716C766.107 273.089 766.62 273.367 767.236 273.549L769.791 274.312C770.025 274.382 770.26 274.478 770.498 274.599C770.736 274.72 770.935 274.888 771.093 275.103C771.257 275.318 771.338 275.598 771.338 275.943C771.338 276.34 771.226 276.683 771.002 276.972C770.778 277.261 770.47 277.485 770.078 277.644C769.691 277.798 769.248 277.875 768.748 277.875C767.997 277.875 767.351 277.691 766.809 277.322C766.268 276.949 765.913 276.435 765.745 275.782L764.695 275.957C764.812 276.554 765.052 277.07 765.416 277.504C765.78 277.938 766.242 278.274 766.802 278.512C767.367 278.745 768.002 278.862 768.706 278.862ZM777.312 278.862C778.045 278.862 778.701 278.682 779.279 278.323C779.863 277.964 780.304 277.453 780.602 276.79L779.643 276.419C779.163 277.39 778.372 277.875 777.27 277.875C776.514 277.875 775.922 277.639 775.492 277.168C775.068 276.697 774.834 276.027 774.792 275.159H780.749C780.787 273.824 780.495 272.779 779.874 272.023C779.258 271.262 778.39 270.882 777.27 270.882C776.542 270.882 775.91 271.045 775.373 271.372C774.841 271.699 774.428 272.163 774.134 272.765C773.84 273.367 773.693 274.081 773.693 274.907C773.693 275.705 773.84 276.4 774.134 276.993C774.433 277.586 774.853 278.045 775.394 278.372C775.94 278.699 776.58 278.862 777.312 278.862ZM777.298 271.827C778.722 271.827 779.513 272.651 779.671 274.298H774.813C774.893 273.5 775.145 272.889 775.569 272.464C775.994 272.039 776.57 271.827 777.298 271.827ZM782.371 282.012H783.407V277.749C783.677 278.094 784.011 278.367 784.408 278.568C784.804 278.764 785.259 278.862 785.773 278.862C786.482 278.862 787.086 278.687 787.586 278.337C788.085 277.982 788.465 277.504 788.727 276.902C788.993 276.3 789.126 275.621 789.126 274.865C789.126 274.114 788.993 273.437 788.727 272.835C788.465 272.233 788.087 271.757 787.593 271.407C787.098 271.057 786.505 270.882 785.815 270.882C785.255 270.882 784.762 270.994 784.338 271.218C783.918 271.437 783.57 271.743 783.295 272.135V271.092H782.371V282.012ZM785.668 277.903C785.131 277.903 784.688 277.772 784.338 277.511C783.988 277.245 783.726 276.883 783.554 276.426C783.381 275.969 783.295 275.448 783.295 274.865C783.295 273.974 783.488 273.248 783.876 272.688C784.268 272.123 784.858 271.841 785.647 271.841C786.188 271.841 786.634 271.974 786.984 272.24C787.338 272.506 787.602 272.868 787.775 273.325C787.947 273.782 788.034 274.296 788.034 274.865C788.034 275.439 787.945 275.955 787.768 276.412C787.595 276.869 787.334 277.233 786.984 277.504C786.634 277.77 786.195 277.903 785.668 277.903Z" fill="#636E72"/>
<path d="M856.673 278.862C857.681 278.862 858.53 278.64 859.221 278.197C859.912 277.754 860.434 277.138 860.789 276.349C861.144 275.556 861.321 274.643 861.321 273.612C861.321 272.576 861.144 271.664 860.789 270.875C860.434 270.086 859.912 269.47 859.221 269.027C858.53 268.584 857.681 268.362 856.673 268.362C855.67 268.362 854.823 268.584 854.132 269.027C853.441 269.47 852.919 270.086 852.564 270.875C852.209 271.664 852.032 272.576 852.032 273.612C852.032 274.643 852.209 275.556 852.564 276.349C852.919 277.138 853.441 277.754 854.132 278.197C854.823 278.64 855.67 278.862 856.673 278.862ZM856.673 277.875C855.884 277.87 855.224 277.688 854.692 277.329C854.165 276.97 853.77 276.47 853.509 275.831C853.248 275.192 853.119 274.452 853.124 273.612C853.133 272.772 853.269 272.032 853.53 271.393C853.791 270.749 854.183 270.247 854.706 269.888C855.229 269.524 855.884 269.344 856.673 269.349C857.462 269.354 858.12 269.536 858.647 269.895C859.174 270.254 859.569 270.754 859.83 271.393C860.096 272.032 860.229 272.772 860.229 273.612C860.229 274.452 860.096 275.194 859.83 275.838C859.569 276.477 859.174 276.977 858.647 277.336C858.12 277.695 857.462 277.875 856.673 277.875ZM866.139 278.862C866.89 278.862 867.534 278.687 868.071 278.337C868.612 277.982 869.025 277.469 869.31 276.797L868.274 276.489C867.891 277.413 867.18 277.875 866.139 277.875C865.327 277.875 864.716 277.602 864.305 277.056C863.894 276.505 863.684 275.777 863.675 274.872C863.684 273.99 863.887 273.269 864.284 272.709C864.685 272.149 865.304 271.869 866.139 271.869C866.634 271.869 867.072 271.995 867.455 272.247C867.842 272.494 868.125 272.844 868.302 273.297L869.31 272.975C869.1 272.326 868.71 271.815 868.141 271.442C867.576 271.069 866.911 270.882 866.146 270.882C865.395 270.882 864.755 271.05 864.228 271.386C863.701 271.717 863.297 272.184 863.017 272.786C862.737 273.383 862.592 274.079 862.583 274.872C862.592 275.647 862.732 276.335 863.003 276.937C863.278 277.539 863.68 278.01 864.207 278.351C864.734 278.692 865.378 278.862 866.139 278.862ZM875.151 278.652V277.749C874.61 277.838 874.155 277.852 873.786 277.791C873.422 277.73 873.156 277.544 872.988 277.231C872.899 277.068 872.85 276.881 872.841 276.671C872.836 276.456 872.834 276.19 872.834 275.873V271.974H875.151V271.092H872.834V268.992H871.812V271.092H870.195V271.974H871.812V275.915C871.812 276.284 871.817 276.613 871.826 276.902C871.84 277.191 871.915 277.474 872.05 277.749C872.218 278.085 872.463 278.332 872.785 278.491C873.112 278.65 873.48 278.738 873.891 278.757C874.306 278.776 874.726 278.741 875.151 278.652Z" fill="#636E72"/>
<path d="M938.666 278.652H939.702V270.385L945.253 278.652H946.289V268.572H945.253V276.832L939.702 268.572H938.666V278.652ZM951.687 278.862C952.433 278.862 953.073 278.694 953.605 278.358C954.141 278.022 954.552 277.555 954.837 276.958C955.126 276.356 955.271 275.658 955.271 274.865C955.271 274.086 955.128 273.397 954.844 272.8C954.564 272.198 954.155 271.729 953.619 271.393C953.087 271.052 952.443 270.882 951.687 270.882C950.949 270.882 950.312 271.05 949.776 271.386C949.244 271.717 948.833 272.182 948.544 272.779C948.254 273.376 948.11 274.072 948.11 274.865C948.11 275.644 948.25 276.335 948.53 276.937C948.814 277.539 949.223 278.01 949.755 278.351C950.291 278.692 950.935 278.862 951.687 278.862ZM951.687 277.875C950.87 277.875 950.252 277.602 949.832 277.056C949.412 276.505 949.202 275.775 949.202 274.865C949.202 273.983 949.405 273.264 949.811 272.709C950.217 272.149 950.842 271.869 951.687 271.869C952.522 271.869 953.145 272.142 953.556 272.688C953.971 273.229 954.179 273.955 954.179 274.865C954.179 275.756 953.973 276.482 953.563 277.042C953.152 277.597 952.527 277.875 951.687 277.875ZM958.866 278.652H959.93L962.674 271.092H961.617L959.398 277.308L957.165 271.092H956.122L958.866 278.652Z" fill="#636E72"/>
<path d="M1025.03 278.652H1028.09C1028.18 278.652 1028.37 278.65 1028.63 278.645C1028.9 278.64 1029.15 278.622 1029.38 278.589C1030.15 278.482 1030.78 278.199 1031.3 277.742C1031.81 277.28 1032.2 276.692 1032.45 275.978C1032.71 275.259 1032.84 274.471 1032.84 273.612C1032.84 272.753 1032.71 271.967 1032.45 271.253C1032.2 270.539 1031.81 269.951 1031.3 269.489C1030.78 269.022 1030.15 268.738 1029.38 268.635C1029.14 268.602 1028.89 268.584 1028.63 268.579C1028.37 268.574 1028.19 268.572 1028.09 268.572H1025.03V278.652ZM1026.09 277.665V269.559H1028.09C1028.27 269.559 1028.47 269.566 1028.69 269.58C1028.92 269.589 1029.12 269.61 1029.28 269.643C1029.86 269.746 1030.33 269.984 1030.7 270.357C1031.06 270.726 1031.33 271.19 1031.49 271.75C1031.66 272.31 1031.75 272.931 1031.75 273.612C1031.75 274.279 1031.66 274.895 1031.49 275.46C1031.33 276.025 1031.07 276.494 1030.7 276.867C1030.34 277.24 1029.86 277.478 1029.28 277.581C1029.12 277.614 1028.93 277.637 1028.7 277.651C1028.48 277.66 1028.28 277.665 1028.09 277.665H1026.09ZM1037.91 278.862C1038.64 278.862 1039.3 278.682 1039.88 278.323C1040.46 277.964 1040.9 277.453 1041.2 276.79L1040.24 276.419C1039.76 277.39 1038.97 277.875 1037.87 277.875C1037.11 277.875 1036.52 277.639 1036.09 277.168C1035.67 276.697 1035.43 276.027 1035.39 275.159H1041.35C1041.39 273.824 1041.09 272.779 1040.47 272.023C1039.86 271.262 1038.99 270.882 1037.87 270.882C1037.14 270.882 1036.51 271.045 1035.97 271.372C1035.44 271.699 1035.03 272.163 1034.73 272.765C1034.44 273.367 1034.29 274.081 1034.29 274.907C1034.29 275.705 1034.44 276.4 1034.73 276.993C1035.03 277.586 1035.45 278.045 1035.99 278.372C1036.54 278.699 1037.18 278.862 1037.91 278.862ZM1037.9 271.827C1039.32 271.827 1040.11 272.651 1040.27 274.298H1035.41C1035.49 273.5 1035.74 272.889 1036.17 272.464C1036.59 272.039 1037.17 271.827 1037.9 271.827ZM1046.32 278.862C1047.07 278.862 1047.71 278.687 1048.25 278.337C1048.79 277.982 1049.2 277.469 1049.49 276.797L1048.45 276.489C1048.07 277.413 1047.36 277.875 1046.32 277.875C1045.51 277.875 1044.89 277.602 1044.48 277.056C1044.07 276.505 1043.86 275.777 1043.85 274.872C1043.86 273.99 1044.07 273.269 1044.46 272.709C1044.86 272.149 1045.48 271.869 1046.32 271.869C1046.81 271.869 1047.25 271.995 1047.63 272.247C1048.02 272.494 1048.3 272.844 1048.48 273.297L1049.49 272.975C1049.28 272.326 1048.89 271.815 1048.32 271.442C1047.76 271.069 1047.09 270.882 1046.32 270.882C1045.57 270.882 1044.93 271.05 1044.41 271.386C1043.88 271.717 1043.48 272.184 1043.2 272.786C1042.92 273.383 1042.77 274.079 1042.76 274.872C1042.77 275.647 1042.91 276.335 1043.18 276.937C1043.46 277.539 1043.86 278.01 1044.39 278.351C1044.91 278.692 1045.56 278.862 1046.32 278.862Z" fill="#636E72"/>
<path d="M82 133.152L164.429 168.152L252.643 161.652L339.411 133.152L422.564 157.652L511.501 120.652L588.869 102.152L682.144 120.652L766.743 168.652L860.018 148.652L958.355 111.652L1035 65.6519" stroke="#AF52DE" stroke-width="3" stroke-linecap="round"/>
<path d="M82 120.652L164.429 85.6519L252.643 92.1519L339.411 120.652L422.564 96.1519L511.501 133.152L588.869 151.652L682.144 133.152L766.743 85.1519L860.018 105.152L958.355 142.152L1035 188.152" stroke="#FF9500" stroke-width="3" stroke-linecap="round"/>
<path d="M82 212.22L164.381 218.652L252.544 212.22L340.707 199.357L424.533 188.473L511.973 199.357L599.413 171.652L682.518 206.283H767.067L859.565 199.357L955.677 171.652H1033" stroke="#007AFF" stroke-width="3" stroke-linecap="round"/>
<path d="M82 48.5834L164.381 42.1519L252.544 48.5834L340.707 61.4466L424.533 72.3308L511.973 61.4466L590.61 86.3034L682.518 54.5203H767.067L859.565 61.4466L955.677 89.1519H1033" stroke="#08A730" stroke-width="3" stroke-linecap="round"/>
<path d="M1029.08 65.6519C1029.08 61.7859 1032.21 58.6519 1036.08 58.6519C1039.94 58.6519 1043.08 61.7859 1043.08 65.6519C1043.08 69.5178 1039.94 72.6519 1036.08 72.6519C1032.21 72.6519 1029.08 69.5178 1029.08 65.6519Z" fill="white" stroke="#AF52DE" stroke-width="2"/>
<rect x="1032.08" y="61.6519" width="8" height="8" rx="4" fill="#AF52DE"/>
<path d="M1029.08 88.6519C1029.08 84.7859 1032.21 81.6519 1036.08 81.6519C1039.94 81.6519 1043.08 84.7859 1043.08 88.6519C1043.08 92.5178 1039.94 95.6519 1036.08 95.6519C1032.21 95.6519 1029.08 92.5178 1029.08 88.6519Z" fill="white" stroke="#08A730" stroke-width="2"/>
<rect x="1032.08" y="84.6519" width="8" height="8" rx="4" fill="#08A730"/>
<path d="M1029.62 171.652C1029.62 167.786 1032.75 164.652 1036.62 164.652C1040.48 164.652 1043.62 167.786 1043.62 171.652C1043.62 175.518 1040.48 178.652 1036.62 178.652C1032.75 178.652 1029.62 175.518 1029.62 171.652Z" fill="white" stroke="#007AFF" stroke-width="2"/>
<rect x="1032.62" y="167.652" width="8" height="8" rx="4" fill="#007AFF"/>
<path d="M1029.62 187.652C1029.62 183.786 1032.75 180.652 1036.62 180.652C1040.48 180.652 1043.62 183.786 1043.62 187.652C1043.62 191.518 1040.48 194.652 1036.62 194.652C1032.75 194.652 1029.62 191.518 1029.62 187.652Z" fill="white" stroke="#FF9500" stroke-width="2"/>
<rect x="1032.62" y="183.652" width="8" height="8" rx="4" fill="#FF9500"/>
<rect x="161" y="163.652" width="8" height="8" rx="4" fill="#AF52DE"/>
<rect x="161" y="82.4019" width="8" height="8" rx="4" fill="#FF9500"/>
<rect x="161" y="37.6519" width="8" height="8" rx="4" fill="#08A730"/>
<rect x="78" y="128.652" width="8" height="8" rx="4" fill="#AF52DE"/>
<rect x="78" y="116.652" width="8" height="8" rx="4" fill="#FF9500"/>
<rect x="78" y="45.6519" width="8" height="8" rx="4" fill="#08A730"/>
<rect x="80" y="208.652" width="8" height="8" rx="4" fill="#007AFF"/>
<rect x="161" y="214.652" width="8" height="8" rx="4" fill="#007AFF"/>
<rect x="250" y="207.652" width="8" height="8" rx="4" fill="#007AFF"/>
<rect x="337" y="195.652" width="8" height="8" rx="4" fill="#007AFF"/>
<rect x="422" y="184.652" width="8" height="8" rx="4" fill="#007AFF"/>
<rect x="510" y="195.652" width="8" height="8" rx="4" fill="#007AFF"/>
<rect x="596" y="167.652" width="8" height="8" rx="4" fill="#007AFF"/>
<rect x="680" y="202.652" width="8" height="8" rx="4" fill="#007AFF"/>
<rect x="765" y="202.652" width="8" height="8" rx="4" fill="#007AFF"/>
<rect x="859" y="194.652" width="8" height="8" rx="4" fill="#007AFF"/>
<rect x="953" y="167.652" width="8" height="8" rx="4" fill="#007AFF"/>
<rect x="250" y="157.652" width="8" height="8" rx="4" fill="#AF52DE"/>
<rect x="250" y="88.1519" width="8" height="8" rx="4" fill="#FF9500"/>
<rect x="250" y="43.6519" width="8" height="8" rx="4" fill="#08A730"/>
<rect x="337" y="129.652" width="8" height="8" rx="4" fill="#AF52DE"/>
<rect x="337" y="115.652" width="8" height="8" rx="4" fill="#FF9500"/>
<rect x="337" y="57.1519" width="8" height="8" rx="4" fill="#08A730"/>
<rect x="510" y="116.652" width="8" height="8" rx="4" fill="#AF52DE"/>
<rect x="510" y="57.6519" width="8" height="8" rx="4" fill="#08A730"/>
<rect x="510" y="128.652" width="8" height="8" rx="4" fill="#FF9500"/>
<rect x="680" y="117.652" width="8" height="8" rx="4" fill="#AF52DE"/>
<rect x="680" y="51.6519" width="8" height="8" rx="4" fill="#08A730"/>
<rect x="680" y="128.652" width="8" height="8" rx="4" fill="#FF9500"/>
<rect x="765" y="164.652" width="8" height="8" rx="4" fill="#AF52DE"/>
<rect x="765" y="81.1519" width="8" height="8" rx="4" fill="#FF9500"/>
<rect x="765" y="49.6519" width="8" height="8" rx="4" fill="#08A730"/>
<rect x="859" y="143.652" width="8" height="8" rx="4" fill="#AF52DE"/>
<rect x="859" y="101.652" width="8" height="8" rx="4" fill="#FF9500"/>
<rect x="859" y="57.6519" width="8" height="8" rx="4" fill="#08A730"/>
<rect x="957" y="106.652" width="8" height="8" rx="4" fill="#AF52DE"/>
<rect x="957" y="139.152" width="8" height="8" rx="4" fill="#FF9500"/>
<rect x="957" y="84.6519" width="8" height="8" rx="4" fill="#08A730"/>
<rect x="420" y="153.652" width="8" height="8" rx="4" fill="#AF52DE"/>
<rect x="420" y="92.6519" width="8" height="8" rx="4" fill="#FF9500"/>
<rect x="420" y="67.6519" width="8" height="8" rx="4" fill="#08A730"/>
<rect x="587" y="98.6519" width="8" height="8" rx="4" fill="#AF52DE"/>
<rect x="587" y="147.652" width="8" height="8" rx="4" fill="#FF9500"/>
<rect x="587" y="81.1519" width="8" height="8" rx="4" fill="#08A730"/>
<rect x="713" y="3.65186" width="6" height="6" rx="3" fill="#08A730"/>
<path d="M723.84 11.6519V3.01186H724.974L728.106 9.50986L731.22 3.01186H732.366V11.6459H731.178V5.73586L728.388 11.6519H727.818L725.022 5.73586V11.6519H723.84ZM736.861 11.8319C736.213 11.8319 735.651 11.6859 735.175 11.3939C734.699 11.1019 734.331 10.6999 734.071 10.1879C733.815 9.67186 733.687 9.07786 733.687 8.40586C733.687 7.72986 733.819 7.13586 734.083 6.62386C734.347 6.10786 734.717 5.70785 735.193 5.42385C735.669 5.13586 736.225 4.99186 736.861 4.99186C737.509 4.99186 738.071 5.13786 738.547 5.42986C739.023 5.72186 739.391 6.12386 739.651 6.63586C739.911 7.14786 740.041 7.73786 740.041 8.40586C740.041 9.08186 739.909 9.67786 739.645 10.1939C739.385 10.7059 739.017 11.1079 738.541 11.3999C738.065 11.6879 737.505 11.8319 736.861 11.8319ZM736.861 10.6499C737.481 10.6499 737.943 10.4419 738.247 10.0259C738.555 9.60586 738.709 9.06586 738.709 8.40586C738.709 7.72986 738.553 7.18986 738.241 6.78586C737.933 6.37786 737.473 6.17386 736.861 6.17386C736.441 6.17386 736.095 6.26986 735.823 6.46186C735.551 6.64986 735.349 6.91186 735.217 7.24786C735.085 7.57986 735.019 7.96586 735.019 8.40586C735.019 9.08586 735.175 9.62986 735.487 10.0379C735.799 10.4459 736.257 10.6499 736.861 10.6499ZM745.908 11.6519V8.46586C745.908 8.21386 745.886 7.95586 745.842 7.69186C745.802 7.42386 745.722 7.17586 745.602 6.94786C745.486 6.71986 745.32 6.53586 745.104 6.39586C744.892 6.25586 744.614 6.18586 744.27 6.18586C744.046 6.18586 743.834 6.22386 743.634 6.29986C743.434 6.37186 743.258 6.48986 743.106 6.65386C742.958 6.81786 742.84 7.03386 742.752 7.30186C742.668 7.56986 742.626 7.89586 742.626 8.27986L741.846 7.98586C741.846 7.39786 741.956 6.87986 742.176 6.43186C742.396 5.97986 742.712 5.62786 743.124 5.37586C743.536 5.12386 744.034 4.99785 744.618 4.99785C745.066 4.99785 745.442 5.06985 745.746 5.21386C746.05 5.35786 746.296 5.54786 746.484 5.78386C746.676 6.01586 746.822 6.26986 746.922 6.54586C747.022 6.82186 747.09 7.09186 747.126 7.35586C747.162 7.61986 747.18 7.85186 747.18 8.05186V11.6519H745.908ZM741.354 11.6519V5.17186H742.476V7.04386H742.626V11.6519H741.354ZM751.534 11.8319C750.89 11.8319 750.324 11.6919 749.836 11.4119C749.352 11.1279 748.974 10.7339 748.702 10.2299C748.434 9.72186 748.3 9.13386 748.3 8.46586C748.3 7.75786 748.432 7.14386 748.696 6.62386C748.964 6.10386 749.336 5.70186 749.812 5.41786C750.288 5.13386 750.842 4.99186 751.474 4.99186C752.134 4.99186 752.696 5.14586 753.16 5.45386C753.624 5.75786 753.97 6.19186 754.198 6.75586C754.43 7.31986 754.522 7.98986 754.474 8.76586H753.22V8.30986C753.212 7.55786 753.068 7.00186 752.788 6.64186C752.512 6.28186 752.09 6.10186 751.522 6.10186C750.894 6.10186 750.422 6.29986 750.106 6.69586C749.79 7.09186 749.632 7.66386 749.632 8.41186C749.632 9.12386 749.79 9.67586 750.106 10.0679C750.422 10.4559 750.878 10.6499 751.474 10.6499C751.866 10.6499 752.204 10.5619 752.488 10.3859C752.776 10.2059 753 9.94986 753.16 9.61786L754.39 10.0079C754.138 10.5879 753.756 11.0379 753.244 11.3579C752.732 11.6739 752.162 11.8319 751.534 11.8319ZM749.224 8.76586V7.78786H753.85V8.76586H749.224ZM756.579 14.5319L757.833 11.1179L757.851 12.1259L755.025 5.17186H756.333L758.445 10.5419H758.061L760.077 5.17186H761.349L757.773 14.5319H756.579ZM764.812 11.6519V3.01186H766.066V11.6519H764.812ZM772.415 11.6519V8.46586C772.415 8.21386 772.393 7.95586 772.349 7.69186C772.309 7.42386 772.229 7.17586 772.109 6.94786C771.993 6.71986 771.827 6.53586 771.611 6.39586C771.399 6.25586 771.121 6.18586 770.777 6.18586C770.553 6.18586 770.341 6.22386 770.141 6.29986C769.941 6.37186 769.765 6.48986 769.613 6.65386C769.465 6.81786 769.347 7.03386 769.259 7.30186C769.175 7.56986 769.133 7.89586 769.133 8.27986L768.353 7.98586C768.353 7.39786 768.463 6.87986 768.683 6.43186C768.903 5.97986 769.219 5.62786 769.631 5.37586C770.043 5.12386 770.541 4.99785 771.125 4.99785C771.573 4.99785 771.949 5.06985 772.253 5.21386C772.557 5.35786 772.803 5.54786 772.991 5.78386C773.183 6.01586 773.329 6.26986 773.429 6.54586C773.529 6.82186 773.597 7.09186 773.633 7.35586C773.669 7.61986 773.687 7.85186 773.687 8.05186V11.6519H772.415ZM767.861 11.6519V5.17186H768.983V7.04386H769.133V11.6519H767.861Z" fill="#636E72"/>
<rect x="791" y="3.65186" width="6" height="6" rx="3" fill="#AF52DE"/>
<path d="M801.84 11.6519V3.01186H804.546C804.626 3.01186 804.774 3.01386 804.99 3.01786C805.21 3.02186 805.42 3.03785 805.62 3.06585C806.296 3.14985 806.864 3.39186 807.324 3.79186C807.788 4.19186 808.138 4.69986 808.374 5.31586C808.61 5.92786 808.728 6.59986 808.728 7.33186C808.728 8.06786 808.61 8.74386 808.374 9.35986C808.138 9.97186 807.788 10.4779 807.324 10.8779C806.864 11.2739 806.296 11.5139 805.62 11.5979C805.42 11.6259 805.21 11.6419 804.99 11.6459C804.774 11.6499 804.626 11.6519 804.546 11.6519H801.84ZM803.124 10.4579H804.546C804.682 10.4579 804.844 10.4539 805.032 10.4459C805.22 10.4379 805.386 10.4219 805.53 10.3979C805.97 10.3139 806.326 10.1239 806.598 9.82786C806.874 9.52786 807.076 9.15986 807.204 8.72386C807.332 8.28786 807.396 7.82386 807.396 7.33186C807.396 6.82386 807.33 6.35386 807.198 5.92186C807.066 5.48586 806.862 5.12186 806.586 4.82985C806.314 4.53385 805.962 4.34585 805.53 4.26586C805.386 4.23786 805.218 4.22186 805.026 4.21785C804.838 4.20986 804.678 4.20586 804.546 4.20586H803.124V10.4579ZM810.245 4.10985V2.89186H811.499V4.10985H810.245ZM810.245 11.6519V5.17186H811.499V11.6519H810.245ZM813.301 11.6519V5.17186H814.417V6.74386L814.261 6.53986C814.341 6.33186 814.445 6.14186 814.573 5.96986C814.701 5.79386 814.849 5.64986 815.017 5.53786C815.181 5.41786 815.363 5.32586 815.563 5.26186C815.767 5.19386 815.975 5.15386 816.187 5.14186C816.399 5.12585 816.603 5.13585 816.799 5.17186V6.34786C816.587 6.29186 816.351 6.27586 816.091 6.29986C815.835 6.32386 815.599 6.40586 815.383 6.54586C815.179 6.67786 815.017 6.83786 814.897 7.02586C814.781 7.21386 814.697 7.42386 814.645 7.65586C814.593 7.88386 814.567 8.12586 814.567 8.38186V11.6519H813.301ZM820.698 11.8319C820.054 11.8319 819.488 11.6919 819 11.4119C818.516 11.1279 818.138 10.7339 817.866 10.2299C817.598 9.72186 817.464 9.13386 817.464 8.46586C817.464 7.75786 817.596 7.14386 817.86 6.62386C818.128 6.10386 818.5 5.70186 818.976 5.41786C819.452 5.13386 820.006 4.99186 820.638 4.99186C821.298 4.99186 821.86 5.14586 822.324 5.45386C822.788 5.75786 823.134 6.19186 823.362 6.75586C823.594 7.31986 823.686 7.98986 823.638 8.76586H822.384V8.30986C822.376 7.55786 822.232 7.00186 821.952 6.64186C821.676 6.28186 821.254 6.10186 820.686 6.10186C820.058 6.10186 819.586 6.29986 819.27 6.69586C818.954 7.09186 818.796 7.66386 818.796 8.41186C818.796 9.12386 818.954 9.67586 819.27 10.0679C819.586 10.4559 820.042 10.6499 820.638 10.6499C821.03 10.6499 821.368 10.5619 821.652 10.3859C821.94 10.2059 822.164 9.94986 822.324 9.61786L823.554 10.0079C823.302 10.5879 822.92 11.0379 822.408 11.3579C821.896 11.6739 821.326 11.8319 820.698 11.8319ZM818.388 8.76586V7.78786H823.014V8.76586H818.388ZM827.757 11.8319C827.093 11.8319 826.529 11.6839 826.065 11.3879C825.601 11.0919 825.245 10.6859 824.997 10.1699C824.753 9.65386 824.629 9.06786 824.625 8.41186C824.629 7.74386 824.757 7.15386 825.009 6.64186C825.261 6.12586 825.621 5.72186 826.089 5.42986C826.557 5.13786 827.119 4.99186 827.775 4.99186C828.483 4.99186 829.087 5.16786 829.587 5.51986C830.091 5.87186 830.423 6.35386 830.583 6.96586L829.335 7.32586C829.211 6.96186 829.007 6.67986 828.723 6.47986C828.443 6.27586 828.121 6.17386 827.757 6.17386C827.345 6.17386 827.007 6.27186 826.743 6.46786C826.479 6.65986 826.283 6.92386 826.155 7.25986C826.027 7.59586 825.961 7.97986 825.957 8.41186C825.961 9.07986 826.113 9.61986 826.413 10.0319C826.717 10.4439 827.165 10.6499 827.757 10.6499C828.161 10.6499 828.487 10.5579 828.735 10.3739C828.987 10.1859 829.179 9.91786 829.311 9.56986L830.583 9.86986C830.371 10.5019 830.021 10.9879 829.533 11.3279C829.045 11.6639 828.453 11.8319 827.757 11.8319ZM835.513 11.6519C835.105 11.7319 834.705 11.7659 834.313 11.7539C833.921 11.7419 833.571 11.6659 833.263 11.5259C832.955 11.3859 832.723 11.1659 832.567 10.8659C832.427 10.5979 832.351 10.3259 832.339 10.0499C832.331 9.76986 832.327 9.45386 832.327 9.10186V3.37185H833.587V9.04186C833.587 9.30186 833.589 9.52786 833.593 9.71986C833.601 9.91186 833.643 10.0739 833.719 10.2059C833.863 10.4539 834.091 10.5959 834.403 10.6319C834.719 10.6639 835.089 10.6499 835.513 10.5899V11.6519ZM831.085 6.17986V5.17186H835.513V6.17986H831.085ZM839.401 11.6519V3.01186H840.655V10.4699H844.567V11.6519H839.401ZM847.416 11.8319C846.936 11.8319 846.534 11.7439 846.21 11.5679C845.886 11.3879 845.64 11.1519 845.472 10.8599C845.308 10.5639 845.226 10.2399 845.226 9.88786C845.226 9.55986 845.284 9.27186 845.4 9.02386C845.516 8.77586 845.688 8.56586 845.916 8.39386C846.144 8.21786 846.424 8.07586 846.756 7.96786C847.044 7.88386 847.37 7.80986 847.734 7.74586C848.098 7.68186 848.48 7.62186 848.88 7.56586C849.284 7.50986 849.684 7.45386 850.08 7.39786L849.624 7.64986C849.632 7.14186 849.524 6.76586 849.3 6.52186C849.08 6.27386 848.7 6.14986 848.16 6.14986C847.82 6.14986 847.508 6.22986 847.224 6.38986C846.94 6.54586 846.742 6.80586 846.63 7.16986L845.46 6.80986C845.62 6.25386 845.924 5.81186 846.372 5.48386C846.824 5.15586 847.424 4.99186 848.172 4.99186C848.752 4.99186 849.256 5.09186 849.684 5.29186C850.116 5.48786 850.432 5.79986 850.632 6.22786C850.736 6.43986 850.8 6.66386 850.824 6.89986C850.848 7.13586 850.86 7.38986 850.86 7.66186V11.6519H849.75V10.1699L849.966 10.3619C849.698 10.8579 849.356 11.2279 848.94 11.4719C848.528 11.7119 848.02 11.8319 847.416 11.8319ZM847.638 10.8059C847.994 10.8059 848.3 10.7439 848.556 10.6199C848.812 10.4919 849.018 10.3299 849.174 10.1339C849.33 9.93786 849.432 9.73386 849.48 9.52186C849.548 9.32986 849.586 9.11386 849.594 8.87386C849.606 8.63386 849.612 8.44186 849.612 8.29786L850.02 8.44786C849.624 8.50786 849.264 8.56186 848.94 8.60986C848.616 8.65786 848.322 8.70586 848.058 8.75386C847.798 8.79786 847.566 8.85186 847.362 8.91586C847.19 8.97586 847.036 9.04786 846.9 9.13186C846.768 9.21586 846.662 9.31786 846.582 9.43786C846.506 9.55786 846.468 9.70386 846.468 9.87586C846.468 10.0439 846.51 10.1999 846.594 10.3439C846.678 10.4839 846.806 10.5959 846.978 10.6799C847.15 10.7639 847.37 10.8059 847.638 10.8059ZM855.46 11.8319C854.84 11.8319 854.32 11.6819 853.9 11.3819C853.48 11.0779 853.162 10.6679 852.946 10.1519C852.73 9.63586 852.622 9.05386 852.622 8.40586C852.622 7.75786 852.728 7.17586 852.94 6.65986C853.156 6.14386 853.472 5.73786 853.888 5.44185C854.308 5.14186 854.824 4.99186 855.436 4.99186C856.044 4.99186 856.568 5.14186 857.008 5.44185C857.452 5.73786 857.794 6.14386 858.034 6.65986C858.274 7.17186 858.394 7.75386 858.394 8.40586C858.394 9.05386 858.274 9.63786 858.034 10.1579C857.798 10.6739 857.46 11.0819 857.02 11.3819C856.584 11.6819 856.064 11.8319 855.46 11.8319ZM852.412 11.6519V3.01186H853.672V6.98986H853.528V11.6519H852.412ZM855.286 10.6979C855.686 10.6979 856.016 10.5959 856.276 10.3919C856.54 10.1879 856.736 9.91386 856.864 9.56986C856.996 9.22186 857.062 8.83386 857.062 8.40586C857.062 7.98186 856.996 7.59786 856.864 7.25386C856.736 6.90986 856.538 6.63586 856.27 6.43186C856.002 6.22786 855.66 6.12586 855.244 6.12586C854.852 6.12586 854.528 6.22186 854.272 6.41386C854.02 6.60586 853.832 6.87386 853.708 7.21786C853.588 7.56186 853.528 7.95786 853.528 8.40586C853.528 8.85386 853.588 9.24986 853.708 9.59386C853.828 9.93786 854.018 10.2079 854.278 10.4039C854.538 10.5999 854.874 10.6979 855.286 10.6979ZM862.533 11.8319C861.885 11.8319 861.323 11.6859 860.847 11.3939C860.371 11.1019 860.003 10.6999 859.743 10.1879C859.487 9.67186 859.359 9.07786 859.359 8.40586C859.359 7.72986 859.491 7.13586 859.755 6.62386C860.019 6.10786 860.389 5.70785 860.865 5.42385C861.341 5.13586 861.897 4.99186 862.533 4.99186C863.181 4.99186 863.743 5.13786 864.219 5.42986C864.695 5.72186 865.063 6.12386 865.323 6.63586C865.583 7.14786 865.713 7.73786 865.713 8.40586C865.713 9.08186 865.581 9.67786 865.317 10.1939C865.057 10.7059 864.689 11.1079 864.213 11.3999C863.737 11.6879 863.177 11.8319 862.533 11.8319ZM862.533 10.6499C863.153 10.6499 863.615 10.4419 863.919 10.0259C864.227 9.60586 864.381 9.06586 864.381 8.40586C864.381 7.72986 864.225 7.18986 863.913 6.78586C863.605 6.37786 863.145 6.17386 862.533 6.17386C862.113 6.17386 861.767 6.26986 861.495 6.46186C861.223 6.64986 861.021 6.91186 860.889 7.24786C860.757 7.57986 860.691 7.96586 860.691 8.40586C860.691 9.08586 860.847 9.62986 861.159 10.0379C861.471 10.4459 861.929 10.6499 862.533 10.6499ZM869.473 11.8259C869.025 11.8259 868.649 11.7539 868.345 11.6099C868.041 11.4659 867.793 11.2779 867.601 11.0459C867.413 10.8099 867.269 10.5539 867.169 10.2779C867.069 10.0019 867.001 9.73186 866.965 9.46786C866.929 9.20386 866.911 8.97186 866.911 8.77186V5.17186H868.183V8.35786C868.183 8.60986 868.203 8.86986 868.243 9.13786C868.287 9.40186 868.367 9.64786 868.483 9.87586C868.603 10.1039 868.769 10.2879 868.981 10.4279C869.197 10.5679 869.477 10.6379 869.821 10.6379C870.045 10.6379 870.257 10.6019 870.457 10.5299C870.657 10.4539 870.831 10.3339 870.979 10.1699C871.131 10.0059 871.249 9.78986 871.333 9.52186C871.421 9.25386 871.465 8.92786 871.465 8.54386L872.245 8.83786C872.245 9.42586 872.135 9.94586 871.915 10.3979C871.695 10.8459 871.379 11.1959 870.967 11.4479C870.555 11.6999 870.057 11.8259 869.473 11.8259ZM871.615 11.6519V9.77986H871.465V5.17186H872.731V11.6519H871.615ZM874.414 11.6519V5.17186H875.53V6.74386L875.374 6.53986C875.454 6.33186 875.558 6.14186 875.686 5.96986C875.814 5.79386 875.962 5.64986 876.13 5.53786C876.294 5.41786 876.476 5.32586 876.676 5.26186C876.88 5.19386 877.088 5.15386 877.3 5.14186C877.512 5.12585 877.716 5.13585 877.912 5.17186V6.34786C877.7 6.29186 877.464 6.27586 877.204 6.29986C876.948 6.32386 876.712 6.40586 876.496 6.54586C876.292 6.67786 876.13 6.83786 876.01 7.02586C875.894 7.21386 875.81 7.42386 875.758 7.65586C875.706 7.88386 875.68 8.12586 875.68 8.38186V11.6519H874.414Z" fill="#636E72"/>
<rect x="895" y="3.65186" width="6" height="6" rx="3" fill="#FF9500"/>
<path d="M905.84 11.6519V3.01186H908.546C908.626 3.01186 908.774 3.01386 908.99 3.01786C909.21 3.02186 909.42 3.03785 909.62 3.06585C910.296 3.14985 910.864 3.39186 911.324 3.79186C911.788 4.19186 912.138 4.69986 912.374 5.31586C912.61 5.92786 912.728 6.59986 912.728 7.33186C912.728 8.06786 912.61 8.74386 912.374 9.35986C912.138 9.97186 911.788 10.4779 911.324 10.8779C910.864 11.2739 910.296 11.5139 909.62 11.5979C909.42 11.6259 909.21 11.6419 908.99 11.6459C908.774 11.6499 908.626 11.6519 908.546 11.6519H905.84ZM907.124 10.4579H908.546C908.682 10.4579 908.844 10.4539 909.032 10.4459C909.22 10.4379 909.386 10.4219 909.53 10.3979C909.97 10.3139 910.326 10.1239 910.598 9.82786C910.874 9.52786 911.076 9.15986 911.204 8.72386C911.332 8.28786 911.396 7.82386 911.396 7.33186C911.396 6.82386 911.33 6.35386 911.198 5.92186C911.066 5.48586 910.862 5.12186 910.586 4.82985C910.314 4.53385 909.962 4.34585 909.53 4.26586C909.386 4.23786 909.218 4.22186 909.026 4.21785C908.838 4.20986 908.678 4.20586 908.546 4.20586H907.124V10.4579ZM914.245 4.10985V2.89186H915.499V4.10985H914.245ZM914.245 11.6519V5.17186H915.499V11.6519H914.245ZM917.301 11.6519V5.17186H918.417V6.74386L918.261 6.53986C918.341 6.33186 918.445 6.14186 918.573 5.96986C918.701 5.79386 918.849 5.64986 919.017 5.53786C919.181 5.41786 919.363 5.32586 919.563 5.26186C919.767 5.19386 919.975 5.15386 920.187 5.14186C920.399 5.12585 920.603 5.13585 920.799 5.17186V6.34786C920.587 6.29186 920.351 6.27586 920.091 6.29986C919.835 6.32386 919.599 6.40586 919.383 6.54586C919.179 6.67786 919.017 6.83786 918.897 7.02586C918.781 7.21386 918.697 7.42386 918.645 7.65586C918.593 7.88386 918.567 8.12586 918.567 8.38186V11.6519H917.301ZM924.698 11.8319C924.054 11.8319 923.488 11.6919 923 11.4119C922.516 11.1279 922.138 10.7339 921.866 10.2299C921.598 9.72186 921.464 9.13386 921.464 8.46586C921.464 7.75786 921.596 7.14386 921.86 6.62386C922.128 6.10386 922.5 5.70186 922.976 5.41786C923.452 5.13386 924.006 4.99186 924.638 4.99186C925.298 4.99186 925.86 5.14586 926.324 5.45386C926.788 5.75786 927.134 6.19186 927.362 6.75586C927.594 7.31986 927.686 7.98986 927.638 8.76586H926.384V8.30986C926.376 7.55786 926.232 7.00186 925.952 6.64186C925.676 6.28186 925.254 6.10186 924.686 6.10186C924.058 6.10186 923.586 6.29986 923.27 6.69586C922.954 7.09186 922.796 7.66386 922.796 8.41186C922.796 9.12386 922.954 9.67586 923.27 10.0679C923.586 10.4559 924.042 10.6499 924.638 10.6499C925.03 10.6499 925.368 10.5619 925.652 10.3859C925.94 10.2059 926.164 9.94986 926.324 9.61786L927.554 10.0079C927.302 10.5879 926.92 11.0379 926.408 11.3579C925.896 11.6739 925.326 11.8319 924.698 11.8319ZM922.388 8.76586V7.78786H927.014V8.76586H922.388ZM931.757 11.8319C931.093 11.8319 930.529 11.6839 930.065 11.3879C929.601 11.0919 929.245 10.6859 928.997 10.1699C928.753 9.65386 928.629 9.06786 928.625 8.41186C928.629 7.74386 928.757 7.15386 929.009 6.64186C929.261 6.12586 929.621 5.72186 930.089 5.42986C930.557 5.13786 931.119 4.99186 931.775 4.99186C932.483 4.99186 933.087 5.16786 933.587 5.51986C934.091 5.87186 934.423 6.35386 934.583 6.96586L933.335 7.32586C933.211 6.96186 933.007 6.67986 932.723 6.47986C932.443 6.27586 932.121 6.17386 931.757 6.17386C931.345 6.17386 931.007 6.27186 930.743 6.46786C930.479 6.65986 930.283 6.92386 930.155 7.25986C930.027 7.59586 929.961 7.97986 929.957 8.41186C929.961 9.07986 930.113 9.61986 930.413 10.0319C930.717 10.4439 931.165 10.6499 931.757 10.6499C932.161 10.6499 932.487 10.5579 932.735 10.3739C932.987 10.1859 933.179 9.91786 933.311 9.56986L934.583 9.86986C934.371 10.5019 934.021 10.9879 933.533 11.3279C933.045 11.6639 932.453 11.8319 931.757 11.8319ZM939.513 11.6519C939.105 11.7319 938.705 11.7659 938.313 11.7539C937.921 11.7419 937.571 11.6659 937.263 11.5259C936.955 11.3859 936.723 11.1659 936.567 10.8659C936.427 10.5979 936.351 10.3259 936.339 10.0499C936.331 9.76986 936.327 9.45386 936.327 9.10186V3.37185H937.587V9.04186C937.587 9.30186 937.589 9.52786 937.593 9.71986C937.601 9.91186 937.643 10.0739 937.719 10.2059C937.863 10.4539 938.091 10.5959 938.403 10.6319C938.719 10.6639 939.089 10.6499 939.513 10.5899V11.6519ZM935.085 6.17986V5.17186H939.513V6.17986H935.085ZM943.281 11.6519V3.01186H944.415L947.547 9.50986L950.661 3.01186H951.807V11.6459H950.619V5.73586L947.829 11.6519H947.259L944.463 5.73586V11.6519H943.281ZM955.318 11.8319C954.838 11.8319 954.436 11.7439 954.112 11.5679C953.788 11.3879 953.542 11.1519 953.374 10.8599C953.21 10.5639 953.128 10.2399 953.128 9.88786C953.128 9.55986 953.186 9.27186 953.302 9.02386C953.418 8.77586 953.59 8.56586 953.818 8.39386C954.046 8.21786 954.326 8.07586 954.658 7.96786C954.946 7.88386 955.272 7.80986 955.636 7.74586C956 7.68186 956.382 7.62186 956.782 7.56586C957.186 7.50986 957.586 7.45386 957.982 7.39786L957.526 7.64986C957.534 7.14186 957.426 6.76586 957.202 6.52186C956.982 6.27386 956.602 6.14986 956.062 6.14986C955.722 6.14986 955.41 6.22986 955.126 6.38986C954.842 6.54586 954.644 6.80586 954.532 7.16986L953.362 6.80986C953.522 6.25386 953.826 5.81186 954.274 5.48386C954.726 5.15586 955.326 4.99186 956.074 4.99186C956.654 4.99186 957.158 5.09186 957.586 5.29186C958.018 5.48786 958.334 5.79986 958.534 6.22786C958.638 6.43986 958.702 6.66386 958.726 6.89986C958.75 7.13586 958.762 7.38986 958.762 7.66186V11.6519H957.652V10.1699L957.868 10.3619C957.6 10.8579 957.258 11.2279 956.842 11.4719C956.43 11.7119 955.922 11.8319 955.318 11.8319ZM955.54 10.8059C955.896 10.8059 956.202 10.7439 956.458 10.6199C956.714 10.4919 956.92 10.3299 957.076 10.1339C957.232 9.93786 957.334 9.73386 957.382 9.52186C957.45 9.32986 957.488 9.11386 957.496 8.87386C957.508 8.63386 957.514 8.44186 957.514 8.29786L957.922 8.44786C957.526 8.50786 957.166 8.56186 956.842 8.60986C956.518 8.65786 956.224 8.70586 955.96 8.75386C955.7 8.79786 955.468 8.85186 955.264 8.91586C955.092 8.97586 954.938 9.04786 954.802 9.13186C954.67 9.21586 954.564 9.31786 954.484 9.43786C954.408 9.55786 954.37 9.70386 954.37 9.87586C954.37 10.0439 954.412 10.1999 954.496 10.3439C954.58 10.4839 954.708 10.5959 954.88 10.6799C955.052 10.7639 955.272 10.8059 955.54 10.8059ZM964.028 11.6519C963.62 11.7319 963.22 11.7659 962.828 11.7539C962.436 11.7419 962.086 11.6659 961.778 11.5259C961.47 11.3859 961.238 11.1659 961.082 10.8659C960.942 10.5979 960.866 10.3259 960.854 10.0499C960.846 9.76986 960.842 9.45386 960.842 9.10186V3.37185H962.102V9.04186C962.102 9.30186 962.104 9.52786 962.108 9.71986C962.116 9.91186 962.158 10.0739 962.234 10.2059C962.378 10.4539 962.606 10.5959 962.918 10.6319C963.234 10.6639 963.604 10.6499 964.028 10.5899V11.6519ZM959.6 6.17986V5.17186H964.028V6.17986H959.6ZM967.976 11.8319C967.332 11.8319 966.766 11.6919 966.278 11.4119C965.794 11.1279 965.416 10.7339 965.144 10.2299C964.876 9.72186 964.742 9.13386 964.742 8.46586C964.742 7.75786 964.874 7.14386 965.138 6.62386C965.406 6.10386 965.778 5.70186 966.254 5.41786C966.73 5.13386 967.284 4.99186 967.916 4.99186C968.576 4.99186 969.138 5.14586 969.602 5.45386C970.066 5.75786 970.412 6.19186 970.64 6.75586C970.872 7.31986 970.964 7.98986 970.916 8.76586H969.662V8.30986C969.654 7.55786 969.51 7.00186 969.23 6.64186C968.954 6.28186 968.532 6.10186 967.964 6.10186C967.336 6.10186 966.864 6.29986 966.548 6.69586C966.232 7.09186 966.074 7.66386 966.074 8.41186C966.074 9.12386 966.232 9.67586 966.548 10.0679C966.864 10.4559 967.32 10.6499 967.916 10.6499C968.308 10.6499 968.646 10.5619 968.93 10.3859C969.218 10.2059 969.442 9.94986 969.602 9.61786L970.832 10.0079C970.58 10.5879 970.198 11.0379 969.686 11.3579C969.174 11.6739 968.604 11.8319 967.976 11.8319ZM965.666 8.76586V7.78786H970.292V8.76586H965.666ZM972.262 11.6519V5.17186H973.378V6.74386L973.222 6.53986C973.302 6.33186 973.406 6.14186 973.534 5.96986C973.662 5.79386 973.81 5.64986 973.978 5.53786C974.142 5.41786 974.324 5.32586 974.524 5.26186C974.728 5.19386 974.936 5.15386 975.148 5.14186C975.36 5.12585 975.564 5.13585 975.76 5.17186V6.34786C975.548 6.29186 975.312 6.27586 975.052 6.29986C974.796 6.32386 974.56 6.40586 974.344 6.54586C974.14 6.67786 973.978 6.83786 973.858 7.02586C973.742 7.21386 973.658 7.42386 973.606 7.65586C973.554 7.88386 973.528 8.12586 973.528 8.38186V11.6519H972.262ZM977.023 4.10985V2.89186H978.277V4.10985H977.023ZM977.023 11.6519V5.17186H978.277V11.6519H977.023ZM981.908 11.8319C981.428 11.8319 981.026 11.7439 980.702 11.5679C980.378 11.3879 980.132 11.1519 979.964 10.8599C979.8 10.5639 979.718 10.2399 979.718 9.88786C979.718 9.55986 979.776 9.27186 979.892 9.02386C980.008 8.77586 980.18 8.56586 980.408 8.39386C980.636 8.21786 980.916 8.07586 981.248 7.96786C981.536 7.88386 981.862 7.80986 982.226 7.74586C982.59 7.68186 982.972 7.62186 983.372 7.56586C983.776 7.50986 984.176 7.45386 984.572 7.39786L984.116 7.64986C984.124 7.14186 984.016 6.76586 983.792 6.52186C983.572 6.27386 983.192 6.14986 982.652 6.14986C982.312 6.14986 982 6.22986 981.716 6.38986C981.432 6.54586 981.234 6.80586 981.122 7.16986L979.952 6.80986C980.112 6.25386 980.416 5.81186 980.864 5.48386C981.316 5.15586 981.916 4.99186 982.664 4.99186C983.244 4.99186 983.748 5.09186 984.176 5.29186C984.608 5.48786 984.924 5.79986 985.124 6.22786C985.228 6.43986 985.292 6.66386 985.316 6.89986C985.34 7.13586 985.352 7.38986 985.352 7.66186V11.6519H984.242V10.1699L984.458 10.3619C984.19 10.8579 983.848 11.2279 983.432 11.4719C983.02 11.7119 982.512 11.8319 981.908 11.8319ZM982.13 10.8059C982.486 10.8059 982.792 10.7439 983.048 10.6199C983.304 10.4919 983.51 10.3299 983.666 10.1339C983.822 9.93786 983.924 9.73386 983.972 9.52186C984.04 9.32986 984.078 9.11386 984.086 8.87386C984.098 8.63386 984.104 8.44186 984.104 8.29786L984.512 8.44786C984.116 8.50786 983.756 8.56186 983.432 8.60986C983.108 8.65786 982.814 8.70586 982.55 8.75386C982.29 8.79786 982.058 8.85186 981.854 8.91586C981.682 8.97586 981.528 9.04786 981.392 9.13186C981.26 9.21586 981.154 9.31786 981.074 9.43786C980.998 9.55786 980.96 9.70386 980.96 9.87586C980.96 10.0439 981.002 10.1999 981.086 10.3439C981.17 10.4839 981.298 10.5959 981.47 10.6799C981.642 10.7639 981.862 10.8059 982.13 10.8059ZM987.03 11.6519V2.83186H988.284V11.6519H987.03Z" fill="#636E72"/>
<rect x="1006" y="3.65186" width="6" height="6" rx="3" fill="#007AFF"/>
<path d="M1020.45 11.8319C1019.58 11.8319 1018.85 11.6439 1018.24 11.2679C1017.63 10.8879 1017.16 10.3599 1016.84 9.68386C1016.52 9.00786 1016.36 8.22386 1016.36 7.33186C1016.36 6.43986 1016.52 5.65586 1016.84 4.97985C1017.16 4.30386 1017.63 3.77786 1018.24 3.40185C1018.85 3.02186 1019.58 2.83186 1020.45 2.83186C1021.31 2.83186 1022.04 3.02186 1022.65 3.40185C1023.26 3.77786 1023.73 4.30386 1024.05 4.97985C1024.37 5.65586 1024.53 6.43986 1024.53 7.33186C1024.53 8.22386 1024.37 9.00786 1024.05 9.68386C1023.73 10.3599 1023.26 10.8879 1022.65 11.2679C1022.04 11.6439 1021.31 11.8319 1020.45 11.8319ZM1020.45 10.6379C1021.06 10.6459 1021.57 10.5119 1021.97 10.2359C1022.38 9.95586 1022.68 9.56786 1022.89 9.07186C1023.09 8.57186 1023.19 7.99186 1023.19 7.33186C1023.19 6.67186 1023.09 6.09586 1022.89 5.60386C1022.68 5.10786 1022.38 4.72185 1021.97 4.44585C1021.57 4.16985 1021.06 4.02986 1020.45 4.02586C1019.83 4.01786 1019.32 4.15186 1018.92 4.42785C1018.51 4.70385 1018.21 5.09186 1018 5.59186C1017.8 6.09186 1017.7 6.67186 1017.69 7.33186C1017.69 7.99186 1017.79 8.56986 1017.99 9.06586C1018.2 9.55786 1018.5 9.94186 1018.91 10.2179C1019.32 10.4939 1019.83 10.6339 1020.45 10.6379ZM1027.47 11.6519L1025.12 5.17186H1026.39L1028.11 10.0799L1029.83 5.17186H1031.1L1028.75 11.6519H1027.47ZM1034.82 11.8319C1034.18 11.8319 1033.61 11.6919 1033.12 11.4119C1032.64 11.1279 1032.26 10.7339 1031.99 10.2299C1031.72 9.72186 1031.59 9.13386 1031.59 8.46586C1031.59 7.75786 1031.72 7.14386 1031.98 6.62386C1032.25 6.10386 1032.62 5.70186 1033.1 5.41786C1033.57 5.13386 1034.13 4.99186 1034.76 4.99186C1035.42 4.99186 1035.98 5.14586 1036.45 5.45386C1036.91 5.75786 1037.26 6.19186 1037.48 6.75586C1037.72 7.31986 1037.81 7.98986 1037.76 8.76586H1036.51V8.30986C1036.5 7.55786 1036.35 7.00186 1036.07 6.64186C1035.8 6.28186 1035.38 6.10186 1034.81 6.10186C1034.18 6.10186 1033.71 6.29986 1033.39 6.69586C1033.08 7.09186 1032.92 7.66386 1032.92 8.41186C1032.92 9.12386 1033.08 9.67586 1033.39 10.0679C1033.71 10.4559 1034.16 10.6499 1034.76 10.6499C1035.15 10.6499 1035.49 10.5619 1035.77 10.3859C1036.06 10.2059 1036.29 9.94986 1036.45 9.61786L1037.68 10.0079C1037.42 10.5879 1037.04 11.0379 1036.53 11.3579C1036.02 11.6739 1035.45 11.8319 1034.82 11.8319ZM1032.51 8.76586V7.78786H1037.14V8.76586H1032.51ZM1039.11 11.6519V5.17186H1040.22V6.74386L1040.07 6.53986C1040.15 6.33186 1040.25 6.14186 1040.38 5.96986C1040.51 5.79386 1040.65 5.64986 1040.82 5.53786C1040.99 5.41786 1041.17 5.32586 1041.37 5.26186C1041.57 5.19386 1041.78 5.15386 1041.99 5.14186C1042.2 5.12585 1042.41 5.13585 1042.6 5.17186V6.34786C1042.39 6.29186 1042.16 6.27586 1041.9 6.29986C1041.64 6.32386 1041.4 6.40586 1041.19 6.54586C1040.98 6.67786 1040.82 6.83786 1040.7 7.02586C1040.59 7.21386 1040.5 7.42386 1040.45 7.65586C1040.4 7.88386 1040.37 8.12586 1040.37 8.38186V11.6519H1039.11ZM1048.29 11.6519V8.46586C1048.29 8.21386 1048.27 7.95586 1048.23 7.69186C1048.19 7.42386 1048.11 7.17586 1047.99 6.94786C1047.87 6.71986 1047.71 6.53586 1047.49 6.39586C1047.28 6.25586 1047 6.18586 1046.66 6.18586C1046.43 6.18586 1046.22 6.22386 1046.02 6.29986C1045.82 6.37186 1045.64 6.48986 1045.49 6.65386C1045.34 6.81786 1045.23 7.03386 1045.14 7.30186C1045.05 7.56986 1045.01 7.89586 1045.01 8.27986L1044.23 7.98586C1044.23 7.39786 1044.34 6.87986 1044.56 6.43186C1044.78 5.97986 1045.1 5.62786 1045.51 5.37586C1045.92 5.12386 1046.42 4.99785 1047 4.99785C1047.45 4.99785 1047.83 5.06985 1048.13 5.21386C1048.44 5.35786 1048.68 5.54786 1048.87 5.78386C1049.06 6.01586 1049.21 6.26986 1049.31 6.54586C1049.41 6.82186 1049.48 7.09186 1049.51 7.35586C1049.55 7.61986 1049.57 7.85186 1049.57 8.05186V11.6519H1048.29ZM1043.74 11.6519V3.01186H1044.86V7.67386H1045.01V11.6519H1043.74ZM1054 11.8319C1053.36 11.8319 1052.79 11.6919 1052.31 11.4119C1051.82 11.1279 1051.44 10.7339 1051.17 10.2299C1050.9 9.72186 1050.77 9.13386 1050.77 8.46586C1050.77 7.75786 1050.9 7.14386 1051.17 6.62386C1051.43 6.10386 1051.81 5.70186 1052.28 5.41786C1052.76 5.13386 1053.31 4.99186 1053.94 4.99186C1054.6 4.99186 1055.17 5.14586 1055.63 5.45386C1056.09 5.75786 1056.44 6.19186 1056.67 6.75586C1056.9 7.31986 1056.99 7.98986 1056.94 8.76586H1055.69V8.30986C1055.68 7.55786 1055.54 7.00186 1055.26 6.64186C1054.98 6.28186 1054.56 6.10186 1053.99 6.10186C1053.36 6.10186 1052.89 6.29986 1052.58 6.69586C1052.26 7.09186 1052.1 7.66386 1052.1 8.41186C1052.1 9.12386 1052.26 9.67586 1052.58 10.0679C1052.89 10.4559 1053.35 10.6499 1053.94 10.6499C1054.34 10.6499 1054.67 10.5619 1054.96 10.3859C1055.25 10.2059 1055.47 9.94986 1055.63 9.61786L1056.86 10.0079C1056.61 10.5879 1056.23 11.0379 1055.71 11.3579C1055.2 11.6739 1054.63 11.8319 1054 11.8319ZM1051.69 8.76586V7.78786H1056.32V8.76586H1051.69ZM1060 11.8319C1059.52 11.8319 1059.12 11.7439 1058.8 11.5679C1058.47 11.3879 1058.23 11.1519 1058.06 10.8599C1057.89 10.5639 1057.81 10.2399 1057.81 9.88786C1057.81 9.55986 1057.87 9.27186 1057.99 9.02386C1058.1 8.77586 1058.27 8.56586 1058.5 8.39386C1058.73 8.21786 1059.01 8.07586 1059.34 7.96786C1059.63 7.88386 1059.96 7.80986 1060.32 7.74586C1060.68 7.68186 1061.07 7.62186 1061.47 7.56586C1061.87 7.50986 1062.27 7.45386 1062.67 7.39786L1062.21 7.64986C1062.22 7.14186 1062.11 6.76586 1061.89 6.52186C1061.67 6.27386 1061.29 6.14986 1060.75 6.14986C1060.41 6.14986 1060.09 6.22986 1059.81 6.38986C1059.53 6.54586 1059.33 6.80586 1059.22 7.16986L1058.05 6.80986C1058.21 6.25386 1058.51 5.81186 1058.96 5.48386C1059.41 5.15586 1060.01 4.99186 1060.76 4.99186C1061.34 4.99186 1061.84 5.09186 1062.27 5.29186C1062.7 5.48786 1063.02 5.79986 1063.22 6.22786C1063.32 6.43986 1063.39 6.66386 1063.41 6.89986C1063.43 7.13586 1063.45 7.38986 1063.45 7.66186V11.6519H1062.34V10.1699L1062.55 10.3619C1062.28 10.8579 1061.94 11.2279 1061.53 11.4719C1061.11 11.7119 1060.61 11.8319 1060 11.8319ZM1060.22 10.8059C1060.58 10.8059 1060.89 10.7439 1061.14 10.6199C1061.4 10.4919 1061.6 10.3299 1061.76 10.1339C1061.92 9.93786 1062.02 9.73386 1062.07 9.52186C1062.13 9.32986 1062.17 9.11386 1062.18 8.87386C1062.19 8.63386 1062.2 8.44186 1062.2 8.29786L1062.61 8.44786C1062.21 8.50786 1061.85 8.56186 1061.53 8.60986C1061.2 8.65786 1060.91 8.70586 1060.64 8.75386C1060.38 8.79786 1060.15 8.85186 1059.95 8.91586C1059.78 8.97586 1059.62 9.04786 1059.49 9.13186C1059.35 9.21586 1059.25 9.31786 1059.17 9.43786C1059.09 9.55786 1059.05 9.70386 1059.05 9.87586C1059.05 10.0439 1059.1 10.1999 1059.18 10.3439C1059.26 10.4839 1059.39 10.5959 1059.56 10.6799C1059.74 10.7639 1059.96 10.8059 1060.22 10.8059ZM1067.58 11.8319C1066.97 11.8319 1066.45 11.6819 1066.01 11.3819C1065.58 11.0819 1065.24 10.6739 1065 10.1579C1064.76 9.63786 1064.64 9.05386 1064.64 8.40586C1064.64 7.75386 1064.76 7.17186 1065 6.65986C1065.24 6.14386 1065.58 5.73786 1066.02 5.44185C1066.47 5.14186 1066.99 4.99186 1067.6 4.99186C1068.21 4.99186 1068.73 5.14186 1069.14 5.44185C1069.56 5.73786 1069.88 6.14386 1070.09 6.65986C1070.31 7.17586 1070.42 7.75786 1070.42 8.40586C1070.42 9.05386 1070.31 9.63586 1070.09 10.1519C1069.88 10.6679 1069.56 11.0779 1069.14 11.3819C1068.72 11.6819 1068.2 11.8319 1067.58 11.8319ZM1067.75 10.6979C1068.16 10.6979 1068.5 10.5999 1068.76 10.4039C1069.02 10.2079 1069.21 9.93786 1069.33 9.59386C1069.45 9.24986 1069.51 8.85386 1069.51 8.40586C1069.51 7.95786 1069.45 7.56186 1069.32 7.21786C1069.2 6.87386 1069.02 6.60586 1068.76 6.41386C1068.51 6.22186 1068.19 6.12586 1067.79 6.12586C1067.38 6.12586 1067.04 6.22786 1066.77 6.43186C1066.5 6.63586 1066.3 6.90986 1066.17 7.25386C1066.04 7.59786 1065.98 7.98186 1065.98 8.40586C1065.98 8.83386 1066.04 9.22186 1066.17 9.56986C1066.3 9.91386 1066.5 10.1879 1066.76 10.3919C1067.02 10.5959 1067.35 10.6979 1067.75 10.6979ZM1069.51 11.6519V6.98986H1069.37V3.01186H1070.63V11.6519H1069.51Z" fill="#636E72"/>
</svg>
