<svg width="1056" height="314" viewBox="0 0 1056 314" fill="none" xmlns="http://www.w3.org/2000/svg">
<path d="M4.2157 14.182V12.814H5.0977V14.182H4.2157ZM4.2157 4.54V3.166H5.0977V4.54H4.2157ZM4.7617 13.18C4.1897 13.18 3.6737 13.078 3.2137 12.874C2.7577 12.67 2.3797 12.382 2.0797 12.01C1.7837 11.638 1.5897 11.198 1.4977 10.69L2.3557 10.54C2.4877 11.092 2.7717 11.53 3.2077 11.854C3.6477 12.174 4.1777 12.334 4.7977 12.334C5.4257 12.334 5.9337 12.182 6.3217 11.878C6.7097 11.57 6.9037 11.168 6.9037 10.672C6.9037 10.304 6.7957 10.01 6.5797 9.79C6.3637 9.57 5.9977 9.382 5.4817 9.226L3.5617 8.626C2.4017 8.262 1.8217 7.574 1.8217 6.562C1.8217 6.09 1.9377 5.676 2.1697 5.32C2.4057 4.96 2.7317 4.68 3.1477 4.48C3.5677 4.28 4.0577 4.182 4.6177 4.186C5.1657 4.186 5.6557 4.29 6.0877 4.498C6.5237 4.702 6.8817 4.992 7.1617 5.368C7.4417 5.744 7.6277 6.19 7.7197 6.706L6.8377 6.874C6.7817 6.506 6.6517 6.184 6.4477 5.908C6.2477 5.632 5.9897 5.418 5.6737 5.266C5.3577 5.11 5.0057 5.03 4.6177 5.026C4.2497 5.026 3.9217 5.09 3.6337 5.218C3.3457 5.346 3.1177 5.524 2.9497 5.752C2.7857 5.976 2.7037 6.234 2.7037 6.526C2.7037 6.846 2.8177 7.118 3.0457 7.342C3.2777 7.562 3.6437 7.748 4.1437 7.9L5.7937 8.398C6.4897 8.606 6.9917 8.886 7.2997 9.238C7.6077 9.59 7.7617 10.06 7.7617 10.648C7.7617 11.156 7.6377 11.6 7.3897 11.98C7.1417 12.36 6.7917 12.656 6.3397 12.868C5.8917 13.076 5.3657 13.18 4.7617 13.18ZM8.76211 12.994L8.76811 12.19L12.6741 8.662C13.0101 8.358 13.2321 8.07 13.3401 7.798C13.4521 7.522 13.5081 7.234 13.5081 6.934C13.5081 6.578 13.4241 6.256 13.2561 5.968C13.0881 5.68 12.8621 5.452 12.5781 5.284C12.2941 5.112 11.9761 5.026 11.6241 5.026C11.2561 5.026 10.9281 5.114 10.6401 5.29C10.3521 5.466 10.1241 5.698 9.95611 5.986C9.79211 6.274 9.71211 6.588 9.71611 6.928H8.81611C8.81611 6.404 8.94011 5.934 9.18811 5.518C9.43611 5.102 9.77211 4.776 10.1961 4.54C10.6201 4.3 11.1001 4.18 11.6361 4.18C12.1601 4.18 12.6301 4.304 13.0461 4.552C13.4661 4.796 13.7961 5.128 14.0361 5.548C14.2801 5.964 14.4021 6.428 14.4021 6.94C14.4021 7.3 14.3581 7.618 14.2701 7.894C14.1861 8.166 14.0521 8.42 13.8681 8.656C13.6881 8.888 13.4581 9.128 13.1781 9.376L9.71011 12.508L9.57211 12.148H14.4021V12.994H8.76211ZM18.3959 13.18C17.9479 13.18 17.5339 13.088 17.1539 12.904C16.7739 12.72 16.4499 12.466 16.1819 12.142C15.9139 11.818 15.7219 11.446 15.6059 11.026L16.4519 10.798C16.5279 11.11 16.6659 11.38 16.8659 11.608C17.0659 11.832 17.2999 12.006 17.5679 12.13C17.8399 12.254 18.1239 12.316 18.4199 12.316C18.8039 12.316 19.1479 12.224 19.4519 12.04C19.7599 11.852 20.0039 11.604 20.1839 11.296C20.3639 10.988 20.4539 10.65 20.4539 10.282C20.4539 9.902 20.3599 9.56 20.1719 9.256C19.9839 8.948 19.7359 8.704 19.4279 8.524C19.1199 8.344 18.7839 8.254 18.4199 8.254C18.0119 8.254 17.6599 8.344 17.3639 8.524C17.0679 8.7 16.8319 8.922 16.6559 9.19L15.8519 8.854L16.1159 4.36H20.7299V5.206H16.5059L16.9439 4.792L16.7099 8.626L16.4879 8.332C16.7359 8.048 17.0359 7.826 17.3879 7.666C17.7399 7.506 18.1099 7.426 18.4979 7.426C19.0299 7.426 19.5099 7.554 19.9379 7.81C20.3659 8.062 20.7059 8.404 20.9579 8.836C21.2099 9.268 21.3359 9.75 21.3359 10.282C21.3359 10.81 21.2019 11.294 20.9339 11.734C20.6659 12.17 20.3099 12.52 19.8659 12.784C19.4219 13.048 18.9319 13.18 18.3959 13.18ZM25.5916 13.18C25.0596 13.18 24.5796 13.056 24.1516 12.808C23.7276 12.56 23.3916 12.224 23.1436 11.8C22.8956 11.372 22.7716 10.892 22.7716 10.36V7C22.7716 6.468 22.8956 5.99 23.1436 5.566C23.3916 5.138 23.7276 4.8 24.1516 4.552C24.5796 4.304 25.0596 4.18 25.5916 4.18C26.1236 4.18 26.6016 4.304 27.0256 4.552C27.4536 4.8 27.7916 5.138 28.0396 5.566C28.2876 5.99 28.4116 6.468 28.4116 7V10.36C28.4116 10.892 28.2876 11.372 28.0396 11.8C27.7916 12.224 27.4536 12.56 27.0256 12.808C26.6016 13.056 26.1236 13.18 25.5916 13.18ZM25.5916 12.328C25.9476 12.328 26.2716 12.242 26.5636 12.07C26.8556 11.894 27.0876 11.66 27.2596 11.368C27.4316 11.076 27.5176 10.754 27.5176 10.402V6.958C27.5176 6.602 27.4316 6.278 27.2596 5.986C27.0876 5.694 26.8556 5.462 26.5636 5.29C26.2716 5.114 25.9476 5.026 25.5916 5.026C25.2356 5.026 24.9116 5.114 24.6196 5.29C24.3276 5.462 24.0956 5.694 23.9236 5.986C23.7516 6.278 23.6656 6.602 23.6656 6.958V10.402C23.6656 10.754 23.7516 11.076 23.9236 11.368C24.0956 11.66 24.3276 11.894 24.6196 12.07C24.9116 12.242 25.2356 12.328 25.5916 12.328ZM32.9159 13.18C32.3839 13.18 31.9039 13.056 31.4759 12.808C31.0519 12.56 30.7159 12.224 30.4679 11.8C30.2199 11.372 30.0959 10.892 30.0959 10.36V7C30.0959 6.468 30.2199 5.99 30.4679 5.566C30.7159 5.138 31.0519 4.8 31.4759 4.552C31.9039 4.304 32.3839 4.18 32.9159 4.18C33.4479 4.18 33.9259 4.304 34.3499 4.552C34.7779 4.8 35.1159 5.138 35.3639 5.566C35.6119 5.99 35.7359 6.468 35.7359 7V10.36C35.7359 10.892 35.6119 11.372 35.3639 11.8C35.1159 12.224 34.7779 12.56 34.3499 12.808C33.9259 13.056 33.4479 13.18 32.9159 13.18ZM32.9159 12.328C33.2719 12.328 33.5959 12.242 33.8879 12.07C34.1799 11.894 34.4119 11.66 34.5839 11.368C34.7559 11.076 34.8419 10.754 34.8419 10.402V6.958C34.8419 6.602 34.7559 6.278 34.5839 5.986C34.4119 5.694 34.1799 5.462 33.8879 5.29C33.5959 5.114 33.2719 5.026 32.9159 5.026C32.5599 5.026 32.2359 5.114 31.9439 5.29C31.6519 5.462 31.4199 5.694 31.2479 5.986C31.0759 6.278 30.9899 6.602 30.9899 6.958V10.402C30.9899 10.754 31.0759 11.076 31.2479 11.368C31.4199 11.66 31.6519 11.894 31.9439 12.07C32.2359 12.242 32.5599 12.328 32.9159 12.328ZM40.2401 13.18C39.7081 13.18 39.2281 13.056 38.8001 12.808C38.3761 12.56 38.0401 12.224 37.7921 11.8C37.5441 11.372 37.4201 10.892 37.4201 10.36V7C37.4201 6.468 37.5441 5.99 37.7921 5.566C38.0401 5.138 38.3761 4.8 38.8001 4.552C39.2281 4.304 39.7081 4.18 40.2401 4.18C40.7721 4.18 41.2501 4.304 41.6741 4.552C42.1021 4.8 42.4401 5.138 42.6881 5.566C42.9361 5.99 43.0601 6.468 43.0601 7V10.36C43.0601 10.892 42.9361 11.372 42.6881 11.8C42.4401 12.224 42.1021 12.56 41.6741 12.808C41.2501 13.056 40.7721 13.18 40.2401 13.18ZM40.2401 12.328C40.5961 12.328 40.9201 12.242 41.2121 12.07C41.5041 11.894 41.7361 11.66 41.9081 11.368C42.0801 11.076 42.1661 10.754 42.1661 10.402V6.958C42.1661 6.602 42.0801 6.278 41.9081 5.986C41.7361 5.694 41.5041 5.462 41.2121 5.29C40.9201 5.114 40.5961 5.026 40.2401 5.026C39.8841 5.026 39.5601 5.114 39.2681 5.29C38.9761 5.462 38.7441 5.694 38.5721 5.986C38.4001 6.278 38.3141 6.602 38.3141 6.958V10.402C38.3141 10.754 38.4001 11.076 38.5721 11.368C38.7441 11.66 38.9761 11.894 39.2681 12.07C39.5601 12.242 39.8841 12.328 40.2401 12.328Z" fill="#43454C"/>
<path d="M3.51648 68.9828V67.6148H4.39848V68.9828H3.51648ZM3.51648 59.3408V57.9668H4.39848V59.3408H3.51648ZM4.06248 67.9808C3.49048 67.9808 2.97448 67.8788 2.51448 67.6748C2.05848 67.4708 1.68048 67.1828 1.38048 66.8108C1.08448 66.4388 0.890484 65.9988 0.798484 65.4908L1.65648 65.3408C1.78848 65.8928 2.07248 66.3308 2.50848 66.6548C2.94848 66.9748 3.47848 67.1348 4.09848 67.1348C4.72648 67.1348 5.23448 66.9828 5.62248 66.6788C6.01048 66.3708 6.20448 65.9688 6.20448 65.4728C6.20448 65.1048 6.09648 64.8108 5.88048 64.5908C5.66448 64.3708 5.29848 64.1828 4.78248 64.0268L2.86248 63.4268C1.70248 63.0628 1.12248 62.3748 1.12248 61.3628C1.12248 60.8908 1.23848 60.4768 1.47048 60.1208C1.70648 59.7608 2.03248 59.4808 2.44848 59.2808C2.86848 59.0808 3.35848 58.9828 3.91848 58.9868C4.46648 58.9868 4.95648 59.0908 5.38848 59.2988C5.82448 59.5028 6.18248 59.7928 6.46248 60.1688C6.74248 60.5448 6.92848 60.9908 7.02048 61.5068L6.13848 61.6748C6.08248 61.3068 5.95248 60.9848 5.74848 60.7088C5.54848 60.4328 5.29048 60.2188 4.97448 60.0668C4.65848 59.9108 4.30648 59.8308 3.91848 59.8268C3.55048 59.8268 3.22248 59.8908 2.93448 60.0188C2.64648 60.1468 2.41848 60.3248 2.25048 60.5528C2.08648 60.7768 2.00448 61.0348 2.00448 61.3268C2.00448 61.6468 2.11848 61.9188 2.34648 62.1428C2.57848 62.3628 2.94448 62.5488 3.44448 62.7008L5.09448 63.1988C5.79048 63.4068 6.29248 63.6868 6.60048 64.0388C6.90848 64.3908 7.06248 64.8608 7.06248 65.4488C7.06248 65.9568 6.93848 66.4008 6.69048 66.7808C6.44248 67.1608 6.09248 67.4568 5.64048 67.6688C5.19248 67.8768 4.66648 67.9808 4.06248 67.9808ZM8.06289 67.7948L8.06889 66.9908L11.9749 63.4628C12.3109 63.1588 12.5329 62.8708 12.6409 62.5988C12.7529 62.3228 12.8089 62.0348 12.8089 61.7348C12.8089 61.3788 12.7249 61.0568 12.5569 60.7688C12.3889 60.4808 12.1629 60.2528 11.8789 60.0848C11.5949 59.9128 11.2769 59.8268 10.9249 59.8268C10.5569 59.8268 10.2289 59.9148 9.94089 60.0908C9.65289 60.2668 9.42489 60.4988 9.25689 60.7868C9.09289 61.0748 9.01289 61.3888 9.01689 61.7288H8.11689C8.11689 61.2048 8.24089 60.7348 8.48889 60.3188C8.73689 59.9028 9.07289 59.5768 9.49689 59.3408C9.92089 59.1008 10.4009 58.9808 10.9369 58.9808C11.4609 58.9808 11.9309 59.1048 12.3469 59.3528C12.7669 59.5968 13.0969 59.9288 13.3369 60.3488C13.5809 60.7648 13.7029 61.2288 13.7029 61.7408C13.7029 62.1008 13.6589 62.4188 13.5709 62.6948C13.4869 62.9668 13.3529 63.2208 13.1689 63.4568C12.9889 63.6888 12.7589 63.9288 12.4789 64.1768L9.01089 67.3088L8.87289 66.9488H13.7029V67.7948H8.06289ZM17.9666 67.9808C17.4346 67.9808 16.9546 67.8568 16.5266 67.6088C16.1026 67.3608 15.7666 67.0248 15.5186 66.6008C15.2706 66.1728 15.1466 65.6928 15.1466 65.1608V61.8008C15.1466 61.2688 15.2706 60.7908 15.5186 60.3668C15.7666 59.9388 16.1026 59.6008 16.5266 59.3528C16.9546 59.1048 17.4346 58.9808 17.9666 58.9808C18.4986 58.9808 18.9766 59.1048 19.4006 59.3528C19.8286 59.6008 20.1666 59.9388 20.4146 60.3668C20.6626 60.7908 20.7866 61.2688 20.7866 61.8008V65.1608C20.7866 65.6928 20.6626 66.1728 20.4146 66.6008C20.1666 67.0248 19.8286 67.3608 19.4006 67.6088C18.9766 67.8568 18.4986 67.9808 17.9666 67.9808ZM17.9666 67.1288C18.3226 67.1288 18.6466 67.0428 18.9386 66.8708C19.2306 66.6948 19.4626 66.4608 19.6346 66.1688C19.8066 65.8768 19.8926 65.5548 19.8926 65.2028V61.7588C19.8926 61.4028 19.8066 61.0788 19.6346 60.7868C19.4626 60.4948 19.2306 60.2628 18.9386 60.0908C18.6466 59.9148 18.3226 59.8268 17.9666 59.8268C17.6106 59.8268 17.2866 59.9148 16.9946 60.0908C16.7026 60.2628 16.4706 60.4948 16.2986 60.7868C16.1266 61.0788 16.0406 61.4028 16.0406 61.7588V65.2028C16.0406 65.5548 16.1266 65.8768 16.2986 66.1688C16.4706 66.4608 16.7026 66.6948 16.9946 66.8708C17.2866 67.0428 17.6106 67.1288 17.9666 67.1288ZM25.2909 67.9808C24.7589 67.9808 24.2789 67.8568 23.8509 67.6088C23.4269 67.3608 23.0909 67.0248 22.8429 66.6008C22.5949 66.1728 22.4709 65.6928 22.4709 65.1608V61.8008C22.4709 61.2688 22.5949 60.7908 22.8429 60.3668C23.0909 59.9388 23.4269 59.6008 23.8509 59.3528C24.2789 59.1048 24.7589 58.9808 25.2909 58.9808C25.8229 58.9808 26.3009 59.1048 26.7249 59.3528C27.1529 59.6008 27.4909 59.9388 27.7389 60.3668C27.9869 60.7908 28.1109 61.2688 28.1109 61.8008V65.1608C28.1109 65.6928 27.9869 66.1728 27.7389 66.6008C27.4909 67.0248 27.1529 67.3608 26.7249 67.6088C26.3009 67.8568 25.8229 67.9808 25.2909 67.9808ZM25.2909 67.1288C25.6469 67.1288 25.9709 67.0428 26.2629 66.8708C26.5549 66.6948 26.7869 66.4608 26.9589 66.1688C27.1309 65.8768 27.2169 65.5548 27.2169 65.2028V61.7588C27.2169 61.4028 27.1309 61.0788 26.9589 60.7868C26.7869 60.4948 26.5549 60.2628 26.2629 60.0908C25.9709 59.9148 25.6469 59.8268 25.2909 59.8268C24.9349 59.8268 24.6109 59.9148 24.3189 60.0908C24.0269 60.2628 23.7949 60.4948 23.6229 60.7868C23.4509 61.0788 23.3649 61.4028 23.3649 61.7588V65.2028C23.3649 65.5548 23.4509 65.8768 23.6229 66.1688C23.7949 66.4608 24.0269 66.6948 24.3189 66.8708C24.6109 67.0428 24.9349 67.1288 25.2909 67.1288ZM32.6151 67.9808C32.0831 67.9808 31.6031 67.8568 31.1751 67.6088C30.7511 67.3608 30.4151 67.0248 30.1671 66.6008C29.9191 66.1728 29.7951 65.6928 29.7951 65.1608V61.8008C29.7951 61.2688 29.9191 60.7908 30.1671 60.3668C30.4151 59.9388 30.7511 59.6008 31.1751 59.3528C31.6031 59.1048 32.0831 58.9808 32.6151 58.9808C33.1471 58.9808 33.6251 59.1048 34.0491 59.3528C34.4771 59.6008 34.8151 59.9388 35.0631 60.3668C35.3111 60.7908 35.4351 61.2688 35.4351 61.8008V65.1608C35.4351 65.6928 35.3111 66.1728 35.0631 66.6008C34.8151 67.0248 34.4771 67.3608 34.0491 67.6088C33.6251 67.8568 33.1471 67.9808 32.6151 67.9808ZM32.6151 67.1288C32.9711 67.1288 33.2951 67.0428 33.5871 66.8708C33.8791 66.6948 34.1111 66.4608 34.2831 66.1688C34.4551 65.8768 34.5411 65.5548 34.5411 65.2028V61.7588C34.5411 61.4028 34.4551 61.0788 34.2831 60.7868C34.1111 60.4948 33.8791 60.2628 33.5871 60.0908C33.2951 59.9148 32.9711 59.8268 32.6151 59.8268C32.2591 59.8268 31.9351 59.9148 31.6431 60.0908C31.3511 60.2628 31.1191 60.4948 30.9471 60.7868C30.7751 61.0788 30.6891 61.4028 30.6891 61.7588V65.2028C30.6891 65.5548 30.7751 65.8768 30.9471 66.1688C31.1191 66.4608 31.3511 66.6948 31.6431 66.8708C31.9351 67.0428 32.2591 67.1288 32.6151 67.1288ZM39.9393 67.9808C39.4073 67.9808 38.9273 67.8568 38.4993 67.6088C38.0753 67.3608 37.7393 67.0248 37.4913 66.6008C37.2433 66.1728 37.1193 65.6928 37.1193 65.1608V61.8008C37.1193 61.2688 37.2433 60.7908 37.4913 60.3668C37.7393 59.9388 38.0753 59.6008 38.4993 59.3528C38.9273 59.1048 39.4073 58.9808 39.9393 58.9808C40.4713 58.9808 40.9493 59.1048 41.3733 59.3528C41.8013 59.6008 42.1393 59.9388 42.3873 60.3668C42.6353 60.7908 42.7593 61.2688 42.7593 61.8008V65.1608C42.7593 65.6928 42.6353 66.1728 42.3873 66.6008C42.1393 67.0248 41.8013 67.3608 41.3733 67.6088C40.9493 67.8568 40.4713 67.9808 39.9393 67.9808ZM39.9393 67.1288C40.2953 67.1288 40.6193 67.0428 40.9113 66.8708C41.2033 66.6948 41.4353 66.4608 41.6073 66.1688C41.7793 65.8768 41.8653 65.5548 41.8653 65.2028V61.7588C41.8653 61.4028 41.7793 61.0788 41.6073 60.7868C41.4353 60.4948 41.2033 60.2628 40.9113 60.0908C40.6193 59.9148 40.2953 59.8268 39.9393 59.8268C39.5833 59.8268 39.2593 59.9148 38.9673 60.0908C38.6753 60.2628 38.4433 60.4948 38.2713 60.7868C38.0993 61.0788 38.0133 61.4028 38.0133 61.7588V65.2028C38.0133 65.5548 38.0993 65.8768 38.2713 66.1688C38.4433 66.4608 38.6753 66.6948 38.9673 66.8708C39.2593 67.0428 39.5833 67.1288 39.9393 67.1288Z" fill="#43454C"/>
<path d="M6.29969 123.782V122.414H7.18169V123.782H6.29969ZM6.29969 114.14V112.766H7.18169V114.14H6.29969ZM6.84569 122.78C6.27369 122.78 5.75769 122.678 5.29769 122.474C4.84169 122.27 4.46369 121.982 4.16369 121.61C3.86769 121.238 3.67369 120.798 3.58169 120.29L4.43969 120.14C4.57169 120.692 4.85569 121.13 5.29169 121.454C5.73169 121.774 6.26169 121.934 6.88169 121.934C7.50969 121.934 8.01769 121.782 8.40569 121.478C8.79369 121.17 8.98769 120.768 8.98769 120.272C8.98769 119.904 8.87969 119.61 8.66369 119.39C8.44769 119.17 8.08169 118.982 7.56569 118.826L5.64569 118.226C4.48569 117.862 3.90569 117.174 3.90569 116.162C3.90569 115.69 4.02169 115.276 4.25369 114.92C4.48969 114.56 4.81569 114.28 5.23169 114.08C5.65169 113.88 6.14169 113.782 6.70169 113.786C7.24969 113.786 7.73969 113.89 8.17169 114.098C8.60769 114.302 8.96569 114.592 9.24569 114.968C9.52569 115.344 9.71169 115.79 9.80369 116.306L8.92169 116.474C8.86569 116.106 8.73569 115.784 8.53169 115.508C8.33169 115.232 8.07369 115.018 7.75769 114.866C7.44169 114.71 7.08969 114.63 6.70169 114.626C6.33369 114.626 6.00569 114.69 5.71769 114.818C5.42969 114.946 5.20169 115.124 5.03369 115.352C4.86969 115.576 4.78769 115.834 4.78769 116.126C4.78769 116.446 4.90169 116.718 5.12969 116.942C5.36169 117.162 5.72769 117.348 6.22769 117.5L7.87769 117.998C8.57369 118.206 9.07569 118.486 9.38369 118.838C9.69169 119.19 9.84569 119.66 9.84569 120.248C9.84569 120.756 9.72169 121.2 9.47369 121.58C9.22569 121.96 8.87569 122.256 8.42369 122.468C7.97569 122.676 7.44969 122.78 6.84569 122.78ZM12.5921 122.6V114.944L10.9661 115.922V114.932L12.5921 113.96H13.4861V122.6H12.5921ZM18.3119 122.78C17.8639 122.78 17.4499 122.688 17.0699 122.504C16.6899 122.32 16.3659 122.066 16.0979 121.742C15.8299 121.418 15.6379 121.046 15.5219 120.626L16.3679 120.398C16.4439 120.71 16.5819 120.98 16.7819 121.208C16.9819 121.432 17.2159 121.606 17.4839 121.73C17.7559 121.854 18.0399 121.916 18.3359 121.916C18.7199 121.916 19.0639 121.824 19.3679 121.64C19.6759 121.452 19.9199 121.204 20.0999 120.896C20.2799 120.588 20.3699 120.25 20.3699 119.882C20.3699 119.502 20.2759 119.16 20.0879 118.856C19.8999 118.548 19.6519 118.304 19.3439 118.124C19.0359 117.944 18.6999 117.854 18.3359 117.854C17.9279 117.854 17.5759 117.944 17.2799 118.124C16.9839 118.3 16.7479 118.522 16.5719 118.79L15.7679 118.454L16.0319 113.96H20.6459V114.806H16.4219L16.8599 114.392L16.6259 118.226L16.4039 117.932C16.6519 117.648 16.9519 117.426 17.3039 117.266C17.6559 117.106 18.0259 117.026 18.4139 117.026C18.9459 117.026 19.4259 117.154 19.8539 117.41C20.2819 117.662 20.6219 118.004 20.8739 118.436C21.1259 118.868 21.2519 119.35 21.2519 119.882C21.2519 120.41 21.1179 120.894 20.8499 121.334C20.5819 121.77 20.2259 122.12 19.7819 122.384C19.3379 122.648 18.8479 122.78 18.3119 122.78ZM25.5077 122.78C24.9757 122.78 24.4957 122.656 24.0677 122.408C23.6437 122.16 23.3077 121.824 23.0597 121.4C22.8117 120.972 22.6877 120.492 22.6877 119.96V116.6C22.6877 116.068 22.8117 115.59 23.0597 115.166C23.3077 114.738 23.6437 114.4 24.0677 114.152C24.4957 113.904 24.9757 113.78 25.5077 113.78C26.0397 113.78 26.5177 113.904 26.9417 114.152C27.3697 114.4 27.7077 114.738 27.9557 115.166C28.2037 115.59 28.3277 116.068 28.3277 116.6V119.96C28.3277 120.492 28.2037 120.972 27.9557 121.4C27.7077 121.824 27.3697 122.16 26.9417 122.408C26.5177 122.656 26.0397 122.78 25.5077 122.78ZM25.5077 121.928C25.8637 121.928 26.1877 121.842 26.4797 121.67C26.7717 121.494 27.0037 121.26 27.1757 120.968C27.3477 120.676 27.4337 120.354 27.4337 120.002V116.558C27.4337 116.202 27.3477 115.878 27.1757 115.586C27.0037 115.294 26.7717 115.062 26.4797 114.89C26.1877 114.714 25.8637 114.626 25.5077 114.626C25.1517 114.626 24.8277 114.714 24.5357 114.89C24.2437 115.062 24.0117 115.294 23.8397 115.586C23.6677 115.878 23.5817 116.202 23.5817 116.558V120.002C23.5817 120.354 23.6677 120.676 23.8397 120.968C24.0117 121.26 24.2437 121.494 24.5357 121.67C24.8277 121.842 25.1517 121.928 25.5077 121.928ZM32.8319 122.78C32.2999 122.78 31.8199 122.656 31.3919 122.408C30.9679 122.16 30.6319 121.824 30.3839 121.4C30.1359 120.972 30.0119 120.492 30.0119 119.96V116.6C30.0119 116.068 30.1359 115.59 30.3839 115.166C30.6319 114.738 30.9679 114.4 31.3919 114.152C31.8199 113.904 32.2999 113.78 32.8319 113.78C33.3639 113.78 33.8419 113.904 34.2659 114.152C34.6939 114.4 35.0319 114.738 35.2799 115.166C35.5279 115.59 35.6519 116.068 35.6519 116.6V119.96C35.6519 120.492 35.5279 120.972 35.2799 121.4C35.0319 121.824 34.6939 122.16 34.2659 122.408C33.8419 122.656 33.3639 122.78 32.8319 122.78ZM32.8319 121.928C33.1879 121.928 33.5119 121.842 33.8039 121.67C34.0959 121.494 34.3279 121.26 34.4999 120.968C34.6719 120.676 34.7579 120.354 34.7579 120.002V116.558C34.7579 116.202 34.6719 115.878 34.4999 115.586C34.3279 115.294 34.0959 115.062 33.8039 114.89C33.5119 114.714 33.1879 114.626 32.8319 114.626C32.4759 114.626 32.1519 114.714 31.8599 114.89C31.5679 115.062 31.3359 115.294 31.1639 115.586C30.9919 115.878 30.9059 116.202 30.9059 116.558V120.002C30.9059 120.354 30.9919 120.676 31.1639 120.968C31.3359 121.26 31.5679 121.494 31.8599 121.67C32.1519 121.842 32.4759 121.928 32.8319 121.928ZM40.1561 122.78C39.6241 122.78 39.1441 122.656 38.7161 122.408C38.2921 122.16 37.9561 121.824 37.7081 121.4C37.4601 120.972 37.3361 120.492 37.3361 119.96V116.6C37.3361 116.068 37.4601 115.59 37.7081 115.166C37.9561 114.738 38.2921 114.4 38.7161 114.152C39.1441 113.904 39.6241 113.78 40.1561 113.78C40.6881 113.78 41.1661 113.904 41.5901 114.152C42.0181 114.4 42.3561 114.738 42.6041 115.166C42.8521 115.59 42.9761 116.068 42.9761 116.6V119.96C42.9761 120.492 42.8521 120.972 42.6041 121.4C42.3561 121.824 42.0181 122.16 41.5901 122.408C41.1661 122.656 40.6881 122.78 40.1561 122.78ZM40.1561 121.928C40.5121 121.928 40.8361 121.842 41.1281 121.67C41.4201 121.494 41.6521 121.26 41.8241 120.968C41.9961 120.676 42.0821 120.354 42.0821 120.002V116.558C42.0821 116.202 41.9961 115.878 41.8241 115.586C41.6521 115.294 41.4201 115.062 41.1281 114.89C40.8361 114.714 40.5121 114.626 40.1561 114.626C39.8001 114.626 39.4761 114.714 39.1841 114.89C38.8921 115.062 38.6601 115.294 38.4881 115.586C38.3161 115.878 38.2301 116.202 38.2301 116.558V120.002C38.2301 120.354 38.3161 120.676 38.4881 120.968C38.6601 121.26 38.8921 121.494 39.1841 121.67C39.4761 121.842 39.8001 121.928 40.1561 121.928Z" fill="#43454C"/>
<path d="M5.60047 178.582V177.214H6.48247V178.582H5.60047ZM5.60047 168.94V167.566H6.48247V168.94H5.60047ZM6.14647 177.58C5.57447 177.58 5.05847 177.478 4.59847 177.274C4.14247 177.07 3.76447 176.782 3.46447 176.41C3.16847 176.038 2.97447 175.598 2.88247 175.09L3.74047 174.94C3.87247 175.492 4.15647 175.93 4.59247 176.254C5.03247 176.574 5.56247 176.734 6.18247 176.734C6.81047 176.734 7.31847 176.582 7.70647 176.278C8.09447 175.97 8.28847 175.568 8.28847 175.072C8.28847 174.704 8.18047 174.41 7.96447 174.19C7.74847 173.97 7.38247 173.782 6.86647 173.626L4.94647 173.026C3.78647 172.662 3.20647 171.974 3.20647 170.962C3.20647 170.49 3.32247 170.076 3.55447 169.72C3.79047 169.36 4.11647 169.08 4.53247 168.88C4.95247 168.68 5.44247 168.582 6.00247 168.586C6.55047 168.586 7.04047 168.69 7.47247 168.898C7.90847 169.102 8.26647 169.392 8.54647 169.768C8.82647 170.144 9.01247 170.59 9.10447 171.106L8.22247 171.274C8.16647 170.906 8.03647 170.584 7.83247 170.308C7.63247 170.032 7.37447 169.818 7.05847 169.666C6.74247 169.51 6.39047 169.43 6.00247 169.426C5.63447 169.426 5.30647 169.49 5.01847 169.618C4.73047 169.746 4.50247 169.924 4.33447 170.152C4.17047 170.376 4.08847 170.634 4.08847 170.926C4.08847 171.246 4.20247 171.518 4.43047 171.742C4.66247 171.962 5.02847 172.148 5.52847 172.3L7.17847 172.798C7.87447 173.006 8.37647 173.286 8.68447 173.638C8.99247 173.99 9.14647 174.46 9.14647 175.048C9.14647 175.556 9.02247 176 8.77447 176.38C8.52647 176.76 8.17647 177.056 7.72447 177.268C7.27647 177.476 6.75047 177.58 6.14647 177.58ZM11.8929 177.4V169.744L10.2669 170.722V169.732L11.8929 168.76H12.7869V177.4H11.8929ZM17.8827 177.58C17.3507 177.58 16.8707 177.456 16.4427 177.208C16.0187 176.96 15.6827 176.624 15.4347 176.2C15.1867 175.772 15.0627 175.292 15.0627 174.76V171.4C15.0627 170.868 15.1867 170.39 15.4347 169.966C15.6827 169.538 16.0187 169.2 16.4427 168.952C16.8707 168.704 17.3507 168.58 17.8827 168.58C18.4147 168.58 18.8927 168.704 19.3167 168.952C19.7447 169.2 20.0827 169.538 20.3307 169.966C20.5787 170.39 20.7027 170.868 20.7027 171.4V174.76C20.7027 175.292 20.5787 175.772 20.3307 176.2C20.0827 176.624 19.7447 176.96 19.3167 177.208C18.8927 177.456 18.4147 177.58 17.8827 177.58ZM17.8827 176.728C18.2387 176.728 18.5627 176.642 18.8547 176.47C19.1467 176.294 19.3787 176.06 19.5507 175.768C19.7227 175.476 19.8087 175.154 19.8087 174.802V171.358C19.8087 171.002 19.7227 170.678 19.5507 170.386C19.3787 170.094 19.1467 169.862 18.8547 169.69C18.5627 169.514 18.2387 169.426 17.8827 169.426C17.5267 169.426 17.2027 169.514 16.9107 169.69C16.6187 169.862 16.3867 170.094 16.2147 170.386C16.0427 170.678 15.9567 171.002 15.9567 171.358V174.802C15.9567 175.154 16.0427 175.476 16.2147 175.768C16.3867 176.06 16.6187 176.294 16.9107 176.47C17.2027 176.642 17.5267 176.728 17.8827 176.728ZM25.2069 177.58C24.6749 177.58 24.1949 177.456 23.7669 177.208C23.3429 176.96 23.0069 176.624 22.7589 176.2C22.5109 175.772 22.3869 175.292 22.3869 174.76V171.4C22.3869 170.868 22.5109 170.39 22.7589 169.966C23.0069 169.538 23.3429 169.2 23.7669 168.952C24.1949 168.704 24.6749 168.58 25.2069 168.58C25.7389 168.58 26.2169 168.704 26.6409 168.952C27.0689 169.2 27.4069 169.538 27.6549 169.966C27.9029 170.39 28.0269 170.868 28.0269 171.4V174.76C28.0269 175.292 27.9029 175.772 27.6549 176.2C27.4069 176.624 27.0689 176.96 26.6409 177.208C26.2169 177.456 25.7389 177.58 25.2069 177.58ZM25.2069 176.728C25.5629 176.728 25.8869 176.642 26.1789 176.47C26.4709 176.294 26.7029 176.06 26.8749 175.768C27.0469 175.476 27.1329 175.154 27.1329 174.802V171.358C27.1329 171.002 27.0469 170.678 26.8749 170.386C26.7029 170.094 26.4709 169.862 26.1789 169.69C25.8869 169.514 25.5629 169.426 25.2069 169.426C24.8509 169.426 24.5269 169.514 24.2349 169.69C23.9429 169.862 23.7109 170.094 23.5389 170.386C23.3669 170.678 23.2809 171.002 23.2809 171.358V174.802C23.2809 175.154 23.3669 175.476 23.5389 175.768C23.7109 176.06 23.9429 176.294 24.2349 176.47C24.5269 176.642 24.8509 176.728 25.2069 176.728ZM32.5311 177.58C31.9991 177.58 31.5191 177.456 31.0911 177.208C30.6671 176.96 30.3311 176.624 30.0831 176.2C29.8351 175.772 29.7111 175.292 29.7111 174.76V171.4C29.7111 170.868 29.8351 170.39 30.0831 169.966C30.3311 169.538 30.6671 169.2 31.0911 168.952C31.5191 168.704 31.9991 168.58 32.5311 168.58C33.0631 168.58 33.5411 168.704 33.9651 168.952C34.3931 169.2 34.7311 169.538 34.9791 169.966C35.2271 170.39 35.3511 170.868 35.3511 171.4V174.76C35.3511 175.292 35.2271 175.772 34.9791 176.2C34.7311 176.624 34.3931 176.96 33.9651 177.208C33.5411 177.456 33.0631 177.58 32.5311 177.58ZM32.5311 176.728C32.8871 176.728 33.2111 176.642 33.5031 176.47C33.7951 176.294 34.0271 176.06 34.1991 175.768C34.3711 175.476 34.4571 175.154 34.4571 174.802V171.358C34.4571 171.002 34.3711 170.678 34.1991 170.386C34.0271 170.094 33.7951 169.862 33.5031 169.69C33.2111 169.514 32.8871 169.426 32.5311 169.426C32.1751 169.426 31.8511 169.514 31.5591 169.69C31.2671 169.862 31.0351 170.094 30.8631 170.386C30.6911 170.678 30.6051 171.002 30.6051 171.358V174.802C30.6051 175.154 30.6911 175.476 30.8631 175.768C31.0351 176.06 31.2671 176.294 31.5591 176.47C31.8511 176.642 32.1751 176.728 32.5311 176.728ZM39.8553 177.58C39.3233 177.58 38.8433 177.456 38.4153 177.208C37.9913 176.96 37.6553 176.624 37.4073 176.2C37.1593 175.772 37.0353 175.292 37.0353 174.76V171.4C37.0353 170.868 37.1593 170.39 37.4073 169.966C37.6553 169.538 37.9913 169.2 38.4153 168.952C38.8433 168.704 39.3233 168.58 39.8553 168.58C40.3873 168.58 40.8653 168.704 41.2893 168.952C41.7173 169.2 42.0553 169.538 42.3033 169.966C42.5513 170.39 42.6753 170.868 42.6753 171.4V174.76C42.6753 175.292 42.5513 175.772 42.3033 176.2C42.0553 176.624 41.7173 176.96 41.2893 177.208C40.8653 177.456 40.3873 177.58 39.8553 177.58ZM39.8553 176.728C40.2113 176.728 40.5353 176.642 40.8273 176.47C41.1193 176.294 41.3513 176.06 41.5233 175.768C41.6953 175.476 41.7813 175.154 41.7813 174.802V171.358C41.7813 171.002 41.6953 170.678 41.5233 170.386C41.3513 170.094 41.1193 169.862 40.8273 169.69C40.5353 169.514 40.2113 169.426 39.8553 169.426C39.4993 169.426 39.1753 169.514 38.8833 169.69C38.5913 169.862 38.3593 170.094 38.1873 170.386C38.0153 170.678 37.9293 171.002 37.9293 171.358V174.802C37.9293 175.154 38.0153 175.476 38.1873 175.768C38.3593 176.06 38.5913 176.294 38.8833 176.47C39.1753 176.642 39.4993 176.728 39.8553 176.728Z" fill="#43454C"/>
<path d="M11.1376 233.381V232.013H12.0196V233.381H11.1376ZM11.1376 223.739V222.365H12.0196V223.739H11.1376ZM11.6836 232.379C11.1116 232.379 10.5956 232.277 10.1356 232.073C9.67958 231.869 9.30158 231.581 9.00158 231.209C8.70558 230.837 8.51158 230.397 8.41958 229.889L9.27758 229.739C9.40958 230.291 9.69358 230.729 10.1296 231.053C10.5696 231.373 11.0996 231.533 11.7196 231.533C12.3476 231.533 12.8556 231.381 13.2436 231.077C13.6316 230.769 13.8256 230.367 13.8256 229.871C13.8256 229.503 13.7176 229.209 13.5016 228.989C13.2856 228.769 12.9196 228.581 12.4036 228.425L10.4836 227.825C9.32358 227.461 8.74358 226.773 8.74358 225.761C8.74358 225.289 8.85958 224.875 9.09158 224.519C9.32758 224.159 9.65358 223.879 10.0696 223.679C10.4896 223.479 10.9796 223.381 11.5396 223.385C12.0876 223.385 12.5776 223.489 13.0096 223.697C13.4456 223.901 13.8036 224.191 14.0836 224.567C14.3636 224.943 14.5496 225.389 14.6416 225.905L13.7596 226.073C13.7036 225.705 13.5736 225.383 13.3696 225.107C13.1696 224.831 12.9116 224.617 12.5956 224.465C12.2796 224.309 11.9276 224.229 11.5396 224.225C11.1716 224.225 10.8436 224.289 10.5556 224.417C10.2676 224.545 10.0396 224.723 9.87158 224.951C9.70758 225.175 9.62558 225.433 9.62558 225.725C9.62558 226.045 9.73958 226.317 9.96758 226.541C10.1996 226.761 10.5656 226.947 11.0656 227.099L12.7156 227.597C13.4116 227.805 13.9136 228.085 14.2216 228.437C14.5296 228.789 14.6836 229.259 14.6836 229.847C14.6836 230.355 14.5596 230.799 14.3116 231.179C14.0636 231.559 13.7136 231.855 13.2616 232.067C12.8136 232.275 12.2876 232.379 11.6836 232.379ZM18.474 232.379C18.026 232.379 17.612 232.287 17.232 232.103C16.852 231.919 16.528 231.665 16.26 231.341C15.992 231.017 15.8 230.645 15.684 230.225L16.53 229.997C16.606 230.309 16.744 230.579 16.944 230.807C17.144 231.031 17.378 231.205 17.646 231.329C17.918 231.453 18.202 231.515 18.498 231.515C18.882 231.515 19.226 231.423 19.53 231.239C19.838 231.051 20.082 230.803 20.262 230.495C20.442 230.187 20.532 229.849 20.532 229.481C20.532 229.101 20.438 228.759 20.25 228.455C20.062 228.147 19.814 227.903 19.506 227.723C19.198 227.543 18.862 227.453 18.498 227.453C18.09 227.453 17.738 227.543 17.442 227.723C17.146 227.899 16.91 228.121 16.734 228.389L15.93 228.053L16.194 223.559H20.808V224.405H16.584L17.022 223.991L16.788 227.825L16.566 227.531C16.814 227.247 17.114 227.025 17.466 226.865C17.818 226.705 18.188 226.625 18.576 226.625C19.108 226.625 19.588 226.753 20.016 227.009C20.444 227.261 20.784 227.603 21.036 228.035C21.288 228.467 21.414 228.949 21.414 229.481C21.414 230.009 21.28 230.493 21.012 230.933C20.744 231.369 20.388 231.719 19.944 231.983C19.5 232.247 19.01 232.379 18.474 232.379ZM25.6698 232.379C25.1378 232.379 24.6578 232.255 24.2298 232.007C23.8058 231.759 23.4698 231.423 23.2218 230.999C22.9738 230.571 22.8498 230.091 22.8498 229.559V226.199C22.8498 225.667 22.9738 225.189 23.2218 224.765C23.4698 224.337 23.8058 223.999 24.2298 223.751C24.6578 223.503 25.1378 223.379 25.6698 223.379C26.2018 223.379 26.6798 223.503 27.1038 223.751C27.5318 223.999 27.8698 224.337 28.1178 224.765C28.3658 225.189 28.4898 225.667 28.4898 226.199V229.559C28.4898 230.091 28.3658 230.571 28.1178 230.999C27.8698 231.423 27.5318 231.759 27.1038 232.007C26.6798 232.255 26.2018 232.379 25.6698 232.379ZM25.6698 231.527C26.0258 231.527 26.3498 231.441 26.6418 231.269C26.9338 231.093 27.1658 230.859 27.3378 230.567C27.5098 230.275 27.5958 229.953 27.5958 229.601V226.157C27.5958 225.801 27.5098 225.477 27.3378 225.185C27.1658 224.893 26.9338 224.661 26.6418 224.489C26.3498 224.313 26.0258 224.225 25.6698 224.225C25.3138 224.225 24.9898 224.313 24.6978 224.489C24.4058 224.661 24.1738 224.893 24.0018 225.185C23.8298 225.477 23.7438 225.801 23.7438 226.157V229.601C23.7438 229.953 23.8298 230.275 24.0018 230.567C24.1738 230.859 24.4058 231.093 24.6978 231.269C24.9898 231.441 25.3138 231.527 25.6698 231.527ZM32.994 232.379C32.462 232.379 31.982 232.255 31.554 232.007C31.13 231.759 30.794 231.423 30.546 230.999C30.298 230.571 30.174 230.091 30.174 229.559V226.199C30.174 225.667 30.298 225.189 30.546 224.765C30.794 224.337 31.13 223.999 31.554 223.751C31.982 223.503 32.462 223.379 32.994 223.379C33.526 223.379 34.004 223.503 34.428 223.751C34.856 223.999 35.194 224.337 35.442 224.765C35.69 225.189 35.814 225.667 35.814 226.199V229.559C35.814 230.091 35.69 230.571 35.442 230.999C35.194 231.423 34.856 231.759 34.428 232.007C34.004 232.255 33.526 232.379 32.994 232.379ZM32.994 231.527C33.35 231.527 33.674 231.441 33.966 231.269C34.258 231.093 34.49 230.859 34.662 230.567C34.834 230.275 34.92 229.953 34.92 229.601V226.157C34.92 225.801 34.834 225.477 34.662 225.185C34.49 224.893 34.258 224.661 33.966 224.489C33.674 224.313 33.35 224.225 32.994 224.225C32.638 224.225 32.314 224.313 32.022 224.489C31.73 224.661 31.498 224.893 31.326 225.185C31.154 225.477 31.068 225.801 31.068 226.157V229.601C31.068 229.953 31.154 230.275 31.326 230.567C31.498 230.859 31.73 231.093 32.022 231.269C32.314 231.441 32.638 231.527 32.994 231.527ZM40.3182 232.379C39.7862 232.379 39.3062 232.255 38.8782 232.007C38.4542 231.759 38.1182 231.423 37.8702 230.999C37.6222 230.571 37.4982 230.091 37.4982 229.559V226.199C37.4982 225.667 37.6222 225.189 37.8702 224.765C38.1182 224.337 38.4542 223.999 38.8782 223.751C39.3062 223.503 39.7862 223.379 40.3182 223.379C40.8502 223.379 41.3282 223.503 41.7522 223.751C42.1802 223.999 42.5182 224.337 42.7662 224.765C43.0142 225.189 43.1382 225.667 43.1382 226.199V229.559C43.1382 230.091 43.0142 230.571 42.7662 230.999C42.5182 231.423 42.1802 231.759 41.7522 232.007C41.3282 232.255 40.8502 232.379 40.3182 232.379ZM40.3182 231.527C40.6742 231.527 40.9982 231.441 41.2902 231.269C41.5822 231.093 41.8142 230.859 41.9862 230.567C42.1582 230.275 42.2442 229.953 42.2442 229.601V226.157C42.2442 225.801 42.1582 225.477 41.9862 225.185C41.8142 224.893 41.5822 224.661 41.2902 224.489C40.9982 224.313 40.6742 224.225 40.3182 224.225C39.9622 224.225 39.6382 224.313 39.3462 224.489C39.0542 224.661 38.8222 224.893 38.6502 225.185C38.4782 225.477 38.3922 225.801 38.3922 226.157V229.601C38.3922 229.953 38.4782 230.275 38.6502 230.567C38.8222 230.859 39.0542 231.093 39.3462 231.269C39.6382 231.441 39.9622 231.527 40.3182 231.527Z" fill="#43454C"/>
<path d="M39.9979 287.18C39.4659 287.18 38.9859 287.056 38.5579 286.808C38.1339 286.56 37.7979 286.224 37.5499 285.8C37.3019 285.372 37.1779 284.892 37.1779 284.36V281C37.1779 280.468 37.3019 279.99 37.5499 279.566C37.7979 279.138 38.1339 278.8 38.5579 278.552C38.9859 278.304 39.4659 278.18 39.9979 278.18C40.5299 278.18 41.0079 278.304 41.4319 278.552C41.8599 278.8 42.1979 279.138 42.4459 279.566C42.6939 279.99 42.8179 280.468 42.8179 281V284.36C42.8179 284.892 42.6939 285.372 42.4459 285.8C42.1979 286.224 41.8599 286.56 41.4319 286.808C41.0079 287.056 40.5299 287.18 39.9979 287.18ZM39.9979 286.328C40.3539 286.328 40.6779 286.242 40.9699 286.07C41.2619 285.894 41.4939 285.66 41.6659 285.368C41.8379 285.076 41.9239 284.754 41.9239 284.402V280.958C41.9239 280.602 41.8379 280.278 41.6659 279.986C41.4939 279.694 41.2619 279.462 40.9699 279.29C40.6779 279.114 40.3539 279.026 39.9979 279.026C39.6419 279.026 39.3179 279.114 39.0259 279.29C38.7339 279.462 38.5019 279.694 38.3299 279.986C38.1579 280.278 38.0719 280.602 38.0719 280.958V284.402C38.0719 284.754 38.1579 285.076 38.3299 285.368C38.5019 285.66 38.7339 285.894 39.0259 286.07C39.3179 286.242 39.6419 286.328 39.9979 286.328Z" fill="#43454C"/>
<path d="M60 7H1056" stroke="#E4E5E8"/>
<path d="M60 62.4004H1056" stroke="#E4E5E8"/>
<path d="M60 117.801H1056" stroke="#E4E5E8"/>
<path d="M60 173.199H1056" stroke="#E4E5E8"/>
<path d="M60 228.6H1056" stroke="#E4E5E8"/>
<path d="M60 284H1056" stroke="#E4E5E8"/>
<path d="M64 79C64 76.7909 65.7909 75 68 75H97.5C99.7091 75 101.5 76.7909 101.5 79V284H64V79Z" fill="#39B959"/>
<path d="M101.5 192C101.5 189.791 103.291 188 105.5 188H135C137.209 188 139 189.791 139 192V284H101.5V192Z" fill="#EE5149"/>
<path d="M147 40C147 37.7909 148.791 36 151 36H180.5C182.709 36 184.5 37.7909 184.5 40V284H147V40Z" fill="#39B959"/>
<path d="M184.5 185C184.5 182.791 186.291 181 188.5 181H218C220.209 181 222 182.791 222 185V284H184.5V185Z" fill="#EE5149"/>
<path d="M230 139C230 136.791 231.791 135 234 135H263.5C265.709 135 267.5 136.791 267.5 139V284H230V139Z" fill="#39B959"/>
<path d="M267.5 153C267.5 150.791 269.291 149 271.5 149H301C303.209 149 305 150.791 305 153V284H267.5V153Z" fill="#EE5149"/>
<path d="M313 50C313 47.7909 314.791 46 317 46H346.5C348.709 46 350.5 47.7909 350.5 50V284H313V50Z" fill="#39B959"/>
<path d="M350.5 165C350.5 162.791 352.291 161 354.5 161H384C386.209 161 388 162.791 388 165V284H350.5V165Z" fill="#EE5149"/>
<path d="M396 88C396 85.7909 397.791 84 400 84H429.5C431.709 84 433.5 85.7909 433.5 88V284H396V88Z" fill="#39B959"/>
<path d="M433.5 165C433.5 162.791 435.291 161 437.5 161H467C469.209 161 471 162.791 471 165V284H433.5V165Z" fill="#EE5149"/>
<path d="M479 37C479 34.7909 480.791 33 483 33H512.5C514.709 33 516.5 34.7909 516.5 37V284H479V37Z" fill="#39B959"/>
<path d="M516.5 165C516.5 162.791 518.291 161 520.5 161H550C552.209 161 554 162.791 554 165V284H516.5V165Z" fill="#EE5149"/>
<path d="M562 121C562 118.791 563.791 117 566 117H595.5C597.709 117 599.5 118.791 599.5 121V284H562V121Z" fill="#39B959"/>
<path d="M599.5 165C599.5 162.791 601.291 161 603.5 161H633C635.209 161 637 162.791 637 165V284H599.5V165Z" fill="#EE5149"/>
<path d="M645 27C645 24.7909 646.791 23 649 23H678.5C680.709 23 682.5 24.7909 682.5 27V284H645V27Z" fill="#39B959"/>
<path d="M682.5 165C682.5 162.791 684.291 161 686.5 161H716C718.209 161 720 162.791 720 165V284H682.5V165Z" fill="#EE5149"/>
<path d="M728 81C728 78.7909 729.791 77 732 77H761.5C763.709 77 765.5 78.7909 765.5 81V284H728V81Z" fill="#39B959"/>
<path d="M765.5 165C765.5 162.791 767.291 161 769.5 161H799C801.209 161 803 162.791 803 165V284H765.5V165Z" fill="#EE5149"/>
<path d="M811 50C811 47.7909 812.791 46 815 46H844.5C846.709 46 848.5 47.7909 848.5 50V284H811V50Z" fill="#39B959"/>
<path d="M848.5 165C848.5 162.791 850.291 161 852.5 161H882C884.209 161 886 162.791 886 165V284H848.5V165Z" fill="#EE5149"/>
<path d="M894 132C894 129.791 895.791 128 898 128H927.5C929.709 128 931.5 129.791 931.5 132V284H894V132Z" fill="#39B959"/>
<path d="M931.5 165C931.5 162.791 933.291 161 935.5 161H965C967.209 161 969 162.791 969 165V284H931.5V165Z" fill="#EE5149"/>
<path d="M977 92C977 89.7909 978.791 88 981 88H1010.5C1012.71 88 1014.5 89.7909 1014.5 92V284H977V92Z" fill="#39B959"/>
<path d="M1014.5 165C1014.5 162.791 1016.29 161 1018.5 161H1048C1050.21 161 1052 162.791 1052 165V284H1014.5V165Z" fill="#EE5149"/>
<g clip-path="url(#clip0_397_97647)">
<path d="M94.1363 311.174C93.5603 311.174 93.0663 311.014 92.6543 310.694C92.2423 310.374 91.9643 309.946 91.8203 309.41L92.7023 309.2C92.7743 309.516 92.9403 309.784 93.2003 310.004C93.4643 310.22 93.7743 310.328 94.1303 310.328C94.3543 310.328 94.5803 310.274 94.8083 310.166C95.0403 310.058 95.2223 309.88 95.3543 309.632C95.4423 309.46 95.4923 309.274 95.5043 309.074C95.5203 308.87 95.5283 308.626 95.5283 308.342V302.36H96.4163V308.342C96.4163 308.582 96.4143 308.8 96.4103 308.996C96.4063 309.188 96.3843 309.374 96.3443 309.554C96.3083 309.73 96.2383 309.908 96.1343 310.088C95.9263 310.452 95.6463 310.724 95.2943 310.904C94.9463 311.084 94.5603 311.174 94.1363 311.174ZM100.081 311.18C99.5927 311.18 99.1827 311.092 98.8507 310.916C98.5227 310.74 98.2767 310.506 98.1127 310.214C97.9487 309.922 97.8667 309.604 97.8667 309.26C97.8667 308.908 97.9367 308.608 98.0767 308.36C98.2207 308.108 98.4147 307.902 98.6587 307.742C98.9067 307.582 99.1927 307.46 99.5167 307.376C99.8447 307.296 100.207 307.226 100.603 307.166C101.003 307.102 101.393 307.048 101.773 307.004C102.157 306.956 102.493 306.91 102.781 306.866L102.469 307.058C102.481 306.418 102.357 305.944 102.097 305.636C101.837 305.328 101.385 305.174 100.741 305.174C100.297 305.174 99.9207 305.274 99.6127 305.474C99.3087 305.674 99.0947 305.99 98.9707 306.422L98.1127 306.17C98.2607 305.59 98.5587 305.14 99.0067 304.82C99.4547 304.5 100.037 304.34 100.753 304.34C101.345 304.34 101.847 304.452 102.259 304.676C102.675 304.896 102.969 305.216 103.141 305.636C103.221 305.824 103.273 306.034 103.297 306.266C103.321 306.498 103.333 306.734 103.333 306.974V311H102.547V309.374L102.775 309.47C102.555 310.026 102.213 310.45 101.749 310.742C101.285 311.034 100.729 311.18 100.081 311.18ZM100.183 310.418C100.595 310.418 100.955 310.344 101.263 310.196C101.571 310.048 101.819 309.846 102.007 309.59C102.195 309.33 102.317 309.038 102.373 308.714C102.421 308.506 102.447 308.278 102.451 308.03C102.455 307.778 102.457 307.59 102.457 307.466L102.793 307.64C102.493 307.68 102.167 307.72 101.815 307.76C101.467 307.8 101.123 307.846 100.783 307.898C100.447 307.95 100.143 308.012 99.8707 308.084C99.6867 308.136 99.5087 308.21 99.3367 308.306C99.1647 308.398 99.0227 308.522 98.9107 308.678C98.8027 308.834 98.7487 309.028 98.7487 309.26C98.7487 309.448 98.7947 309.63 98.8867 309.806C98.9827 309.982 99.1347 310.128 99.3427 310.244C99.5547 310.36 99.8347 310.418 100.183 310.418ZM109.575 311V307.694C109.575 307.334 109.541 307.004 109.473 306.704C109.405 306.4 109.295 306.136 109.143 305.912C108.995 305.684 108.801 305.508 108.561 305.384C108.325 305.26 108.037 305.198 107.697 305.198C107.385 305.198 107.109 305.252 106.869 305.36C106.633 305.468 106.433 305.624 106.269 305.828C106.109 306.028 105.987 306.272 105.903 306.56C105.819 306.848 105.777 307.176 105.777 307.544L105.153 307.406C105.153 306.742 105.269 306.184 105.501 305.732C105.733 305.28 106.053 304.938 106.461 304.706C106.869 304.474 107.337 304.358 107.865 304.358C108.253 304.358 108.591 304.418 108.879 304.538C109.171 304.658 109.417 304.82 109.617 305.024C109.821 305.228 109.985 305.462 110.109 305.726C110.233 305.986 110.323 306.264 110.379 306.56C110.435 306.852 110.463 307.144 110.463 307.436V311H109.575ZM104.889 311V304.52H105.687V306.116H105.777V311H104.889Z" fill="#43454C"/>
<path d="M175.344 311V302.36H180.306V303.242H176.226V306.242H179.586V307.118H176.226V311H175.344ZM183.957 311.18C183.325 311.18 182.777 311.04 182.313 310.76C181.853 310.48 181.495 310.086 181.239 309.578C180.983 309.07 180.855 308.474 180.855 307.79C180.855 307.082 180.981 306.47 181.233 305.954C181.485 305.438 181.839 305.04 182.295 304.76C182.755 304.48 183.297 304.34 183.921 304.34C184.561 304.34 185.107 304.488 185.559 304.784C186.011 305.076 186.353 305.496 186.585 306.044C186.817 306.592 186.923 307.246 186.903 308.006H186.003V307.694C185.987 306.854 185.805 306.22 185.457 305.792C185.113 305.364 184.609 305.15 183.945 305.15C183.249 305.15 182.715 305.376 182.343 305.828C181.975 306.28 181.791 306.924 181.791 307.76C181.791 308.576 181.975 309.21 182.343 309.662C182.715 310.11 183.241 310.334 183.921 310.334C184.385 310.334 184.789 310.228 185.133 310.016C185.481 309.8 185.755 309.49 185.955 309.086L186.777 309.404C186.521 309.968 186.143 310.406 185.643 310.718C185.147 311.026 184.585 311.18 183.957 311.18ZM181.479 308.006V307.268H186.429V308.006H181.479ZM191.145 311.18C190.549 311.18 190.045 311.03 189.633 310.73C189.221 310.426 188.909 310.016 188.697 309.5C188.485 308.98 188.379 308.398 188.379 307.754C188.379 307.098 188.485 306.514 188.697 306.002C188.913 305.486 189.229 305.08 189.645 304.784C190.061 304.488 190.573 304.34 191.181 304.34C191.773 304.34 192.281 304.49 192.705 304.79C193.129 305.09 193.453 305.498 193.677 306.014C193.905 306.53 194.019 307.11 194.019 307.754C194.019 308.402 193.905 308.984 193.677 309.5C193.449 310.016 193.121 310.426 192.693 310.73C192.265 311.03 191.749 311.18 191.145 311.18ZM188.229 311V302.36H189.117V306.122H189.021V311H188.229ZM191.055 310.358C191.507 310.358 191.883 310.244 192.183 310.016C192.483 309.788 192.707 309.478 192.855 309.086C193.007 308.69 193.083 308.246 193.083 307.754C193.083 307.266 193.009 306.826 192.861 306.434C192.713 306.042 192.487 305.732 192.183 305.504C191.883 305.276 191.501 305.162 191.037 305.162C190.585 305.162 190.209 305.272 189.909 305.492C189.613 305.712 189.391 306.018 189.243 306.41C189.095 306.798 189.021 307.246 189.021 307.754C189.021 308.254 189.095 308.702 189.243 309.098C189.391 309.49 189.615 309.798 189.915 310.022C190.215 310.246 190.595 310.358 191.055 310.358Z" fill="#43454C"/>
<path d="M257.799 311V302.36H258.609L262.005 309.626L265.383 302.36H266.205V310.994H265.365V304.328L262.287 311H261.717L258.645 304.328V311H257.799ZM269.743 311.18C269.255 311.18 268.845 311.092 268.513 310.916C268.185 310.74 267.939 310.506 267.775 310.214C267.611 309.922 267.529 309.604 267.529 309.26C267.529 308.908 267.599 308.608 267.739 308.36C267.883 308.108 268.077 307.902 268.321 307.742C268.569 307.582 268.855 307.46 269.179 307.376C269.507 307.296 269.869 307.226 270.265 307.166C270.665 307.102 271.055 307.048 271.435 307.004C271.819 306.956 272.155 306.91 272.443 306.866L272.131 307.058C272.143 306.418 272.019 305.944 271.759 305.636C271.499 305.328 271.047 305.174 270.403 305.174C269.959 305.174 269.583 305.274 269.275 305.474C268.971 305.674 268.757 305.99 268.633 306.422L267.775 306.17C267.923 305.59 268.221 305.14 268.669 304.82C269.117 304.5 269.699 304.34 270.415 304.34C271.007 304.34 271.509 304.452 271.921 304.676C272.337 304.896 272.631 305.216 272.803 305.636C272.883 305.824 272.935 306.034 272.959 306.266C272.983 306.498 272.995 306.734 272.995 306.974V311H272.209V309.374L272.437 309.47C272.217 310.026 271.875 310.45 271.411 310.742C270.947 311.034 270.391 311.18 269.743 311.18ZM269.845 310.418C270.257 310.418 270.617 310.344 270.925 310.196C271.233 310.048 271.481 309.846 271.669 309.59C271.857 309.33 271.979 309.038 272.035 308.714C272.083 308.506 272.109 308.278 272.113 308.03C272.117 307.778 272.119 307.59 272.119 307.466L272.455 307.64C272.155 307.68 271.829 307.72 271.477 307.76C271.129 307.8 270.785 307.846 270.445 307.898C270.109 307.95 269.805 308.012 269.533 308.084C269.349 308.136 269.171 308.21 268.999 308.306C268.827 308.398 268.685 308.522 268.573 308.678C268.465 308.834 268.411 309.028 268.411 309.26C268.411 309.448 268.457 309.63 268.549 309.806C268.645 309.982 268.797 310.128 269.005 310.244C269.217 310.36 269.497 310.418 269.845 310.418ZM274.557 311V304.52H275.349V306.08L275.193 305.876C275.265 305.684 275.359 305.508 275.475 305.348C275.591 305.184 275.717 305.05 275.853 304.946C276.021 304.798 276.217 304.686 276.441 304.61C276.665 304.53 276.891 304.484 277.119 304.472C277.347 304.456 277.555 304.472 277.743 304.52V305.348C277.507 305.288 277.249 305.274 276.969 305.306C276.689 305.338 276.431 305.45 276.195 305.642C275.979 305.81 275.817 306.012 275.709 306.248C275.601 306.48 275.529 306.728 275.493 306.992C275.457 307.252 275.439 307.51 275.439 307.766V311H274.557Z" fill="#43454C"/>
<path d="M341.224 311L344.2 302.36H345.37L348.346 311H347.428L344.602 302.852H344.95L342.142 311H341.224ZM342.55 308.906V308.078H347.014V308.906H342.55ZM352.34 311.18C351.744 311.18 351.24 311.03 350.828 310.73C350.416 310.426 350.104 310.016 349.892 309.5C349.68 308.98 349.574 308.398 349.574 307.754C349.574 307.098 349.68 306.514 349.892 306.002C350.108 305.486 350.424 305.08 350.84 304.784C351.256 304.488 351.768 304.34 352.376 304.34C352.968 304.34 353.476 304.49 353.9 304.79C354.324 305.09 354.648 305.498 354.872 306.014C355.1 306.53 355.214 307.11 355.214 307.754C355.214 308.402 355.1 308.984 354.872 309.5C354.644 310.016 354.316 310.426 353.888 310.73C353.46 311.03 352.944 311.18 352.34 311.18ZM349.424 313.88V304.52H350.216V309.398H350.312V313.88H349.424ZM352.25 310.358C352.702 310.358 353.078 310.244 353.378 310.016C353.678 309.788 353.902 309.478 354.05 309.086C354.202 308.69 354.278 308.246 354.278 307.754C354.278 307.266 354.204 306.826 354.056 306.434C353.908 306.042 353.682 305.732 353.378 305.504C353.078 305.276 352.696 305.162 352.232 305.162C351.78 305.162 351.404 305.272 351.104 305.492C350.808 305.712 350.586 306.018 350.438 306.41C350.29 306.798 350.216 307.246 350.216 307.754C350.216 308.254 350.29 308.702 350.438 309.098C350.586 309.49 350.81 309.798 351.11 310.022C351.41 310.246 351.79 310.358 352.25 310.358ZM356.531 311V304.52H357.323V306.08L357.167 305.876C357.239 305.684 357.333 305.508 357.449 305.348C357.565 305.184 357.691 305.05 357.827 304.946C357.995 304.798 358.191 304.686 358.415 304.61C358.639 304.53 358.865 304.484 359.093 304.472C359.321 304.456 359.529 304.472 359.717 304.52V305.348C359.481 305.288 359.223 305.274 358.943 305.306C358.663 305.338 358.405 305.45 358.169 305.642C357.953 305.81 357.791 306.012 357.683 306.248C357.575 306.48 357.503 306.728 357.467 306.992C357.431 307.252 357.413 307.51 357.413 307.766V311H356.531Z" fill="#43454C"/>
<path d="M422.979 311V302.36H423.789L427.185 309.626L430.563 302.36H431.385V310.994H430.545V304.328L427.467 311H426.897L423.825 304.328V311H422.979ZM434.923 311.18C434.435 311.18 434.025 311.092 433.693 310.916C433.365 310.74 433.119 310.506 432.955 310.214C432.791 309.922 432.709 309.604 432.709 309.26C432.709 308.908 432.779 308.608 432.919 308.36C433.063 308.108 433.257 307.902 433.501 307.742C433.749 307.582 434.035 307.46 434.359 307.376C434.687 307.296 435.049 307.226 435.445 307.166C435.845 307.102 436.235 307.048 436.615 307.004C436.999 306.956 437.335 306.91 437.623 306.866L437.311 307.058C437.323 306.418 437.199 305.944 436.939 305.636C436.679 305.328 436.227 305.174 435.583 305.174C435.139 305.174 434.763 305.274 434.455 305.474C434.151 305.674 433.937 305.99 433.813 306.422L432.955 306.17C433.103 305.59 433.401 305.14 433.849 304.82C434.297 304.5 434.879 304.34 435.595 304.34C436.187 304.34 436.689 304.452 437.101 304.676C437.517 304.896 437.811 305.216 437.983 305.636C438.063 305.824 438.115 306.034 438.139 306.266C438.163 306.498 438.175 306.734 438.175 306.974V311H437.389V309.374L437.617 309.47C437.397 310.026 437.055 310.45 436.591 310.742C436.127 311.034 435.571 311.18 434.923 311.18ZM435.025 310.418C435.437 310.418 435.797 310.344 436.105 310.196C436.413 310.048 436.661 309.846 436.849 309.59C437.037 309.33 437.159 309.038 437.215 308.714C437.263 308.506 437.289 308.278 437.293 308.03C437.297 307.778 437.299 307.59 437.299 307.466L437.635 307.64C437.335 307.68 437.009 307.72 436.657 307.76C436.309 307.8 435.965 307.846 435.625 307.898C435.289 307.95 434.985 308.012 434.713 308.084C434.529 308.136 434.351 308.21 434.179 308.306C434.007 308.398 433.865 308.522 433.753 308.678C433.645 308.834 433.591 309.028 433.591 309.26C433.591 309.448 433.637 309.63 433.729 309.806C433.825 309.982 433.977 310.128 434.185 310.244C434.397 310.36 434.677 310.418 435.025 310.418ZM440.297 313.88L441.551 310.478L441.569 311.486L438.731 304.52H439.667L441.995 310.346H441.611L443.759 304.52H444.659L441.179 313.88H440.297Z" fill="#43454C"/>
<path d="M508.908 311.174C508.332 311.174 507.838 311.014 507.426 310.694C507.014 310.374 506.736 309.946 506.592 309.41L507.474 309.2C507.546 309.516 507.712 309.784 507.972 310.004C508.236 310.22 508.546 310.328 508.902 310.328C509.126 310.328 509.352 310.274 509.58 310.166C509.812 310.058 509.994 309.88 510.126 309.632C510.214 309.46 510.264 309.274 510.276 309.074C510.292 308.87 510.3 308.626 510.3 308.342V302.36H511.188V308.342C511.188 308.582 511.186 308.8 511.182 308.996C511.178 309.188 511.156 309.374 511.116 309.554C511.08 309.73 511.01 309.908 510.906 310.088C510.698 310.452 510.418 310.724 510.066 310.904C509.718 311.084 509.332 311.174 508.908 311.174ZM515.476 311.162C515.088 311.162 514.748 311.102 514.456 310.982C514.168 310.862 513.922 310.7 513.718 310.496C513.518 310.292 513.356 310.06 513.232 309.8C513.108 309.536 513.018 309.258 512.962 308.966C512.906 308.67 512.878 308.376 512.878 308.084V304.52H513.766V307.826C513.766 308.182 513.8 308.512 513.868 308.816C513.936 309.12 514.044 309.386 514.192 309.614C514.344 309.838 514.538 310.012 514.774 310.136C515.014 310.26 515.304 310.322 515.644 310.322C515.956 310.322 516.23 310.268 516.466 310.16C516.706 310.052 516.906 309.898 517.066 309.698C517.23 309.494 517.354 309.248 517.438 308.96C517.522 308.668 517.564 308.34 517.564 307.976L518.188 308.114C518.188 308.778 518.072 309.336 517.84 309.788C517.608 310.24 517.288 310.582 516.88 310.814C516.472 311.046 516.004 311.162 515.476 311.162ZM517.654 311V309.404H517.564V304.52H518.446V311H517.654ZM524.803 311V307.694C524.803 307.334 524.769 307.004 524.701 306.704C524.633 306.4 524.523 306.136 524.371 305.912C524.223 305.684 524.029 305.508 523.789 305.384C523.553 305.26 523.265 305.198 522.925 305.198C522.613 305.198 522.337 305.252 522.097 305.36C521.861 305.468 521.661 305.624 521.497 305.828C521.337 306.028 521.215 306.272 521.131 306.56C521.047 306.848 521.005 307.176 521.005 307.544L520.381 307.406C520.381 306.742 520.497 306.184 520.729 305.732C520.961 305.28 521.281 304.938 521.689 304.706C522.097 304.474 522.565 304.358 523.093 304.358C523.481 304.358 523.819 304.418 524.107 304.538C524.399 304.658 524.645 304.82 524.845 305.024C525.049 305.228 525.213 305.462 525.337 305.726C525.461 305.986 525.551 306.264 525.607 306.56C525.663 306.852 525.691 307.144 525.691 307.436V311H524.803ZM520.117 311V304.52H520.915V306.116H521.005V311H520.117Z" fill="#43454C"/>
<path d="M594.07 311.174C593.494 311.174 593 311.014 592.588 310.694C592.176 310.374 591.898 309.946 591.754 309.41L592.636 309.2C592.708 309.516 592.874 309.784 593.134 310.004C593.398 310.22 593.708 310.328 594.064 310.328C594.288 310.328 594.514 310.274 594.742 310.166C594.974 310.058 595.156 309.88 595.288 309.632C595.376 309.46 595.426 309.274 595.438 309.074C595.454 308.87 595.462 308.626 595.462 308.342V302.36H596.35V308.342C596.35 308.582 596.348 308.8 596.344 308.996C596.34 309.188 596.318 309.374 596.278 309.554C596.242 309.73 596.172 309.908 596.068 310.088C595.86 310.452 595.58 310.724 595.228 310.904C594.88 311.084 594.494 311.174 594.07 311.174ZM600.638 311.162C600.25 311.162 599.91 311.102 599.618 310.982C599.33 310.862 599.084 310.7 598.88 310.496C598.68 310.292 598.518 310.06 598.394 309.8C598.27 309.536 598.18 309.258 598.124 308.966C598.068 308.67 598.04 308.376 598.04 308.084V304.52H598.928V307.826C598.928 308.182 598.962 308.512 599.03 308.816C599.098 309.12 599.206 309.386 599.354 309.614C599.506 309.838 599.7 310.012 599.936 310.136C600.176 310.26 600.466 310.322 600.806 310.322C601.118 310.322 601.392 310.268 601.628 310.16C601.868 310.052 602.068 309.898 602.228 309.698C602.392 309.494 602.516 309.248 602.6 308.96C602.684 308.668 602.726 308.34 602.726 307.976L603.35 308.114C603.35 308.778 603.234 309.336 603.002 309.788C602.77 310.24 602.45 310.582 602.042 310.814C601.634 311.046 601.166 311.162 600.638 311.162ZM602.816 311V309.404H602.726V304.52H603.608V311H602.816ZM605.405 311V302.18H606.287V311H605.405Z" fill="#43454C"/>
<path d="M671.824 311L674.8 302.36H675.97L678.946 311H678.028L675.202 302.852H675.55L672.742 311H671.824ZM673.15 308.906V308.078H677.614V308.906H673.15ZM682.507 311.162C682.119 311.162 681.779 311.102 681.487 310.982C681.199 310.862 680.953 310.7 680.749 310.496C680.549 310.292 680.387 310.06 680.263 309.8C680.139 309.536 680.049 309.258 679.993 308.966C679.937 308.67 679.909 308.376 679.909 308.084V304.52H680.797V307.826C680.797 308.182 680.831 308.512 680.899 308.816C680.967 309.12 681.075 309.386 681.223 309.614C681.375 309.838 681.569 310.012 681.805 310.136C682.045 310.26 682.335 310.322 682.675 310.322C682.987 310.322 683.261 310.268 683.497 310.16C683.737 310.052 683.937 309.898 684.097 309.698C684.261 309.494 684.385 309.248 684.469 308.96C684.553 308.668 684.595 308.34 684.595 307.976L685.219 308.114C685.219 308.778 685.103 309.336 684.871 309.788C684.639 310.24 684.319 310.582 683.911 310.814C683.503 311.046 683.035 311.162 682.507 311.162ZM684.685 311V309.404H684.595V304.52H685.477V311H684.685ZM689.728 314.06C689.396 314.06 689.068 314.01 688.744 313.91C688.424 313.814 688.128 313.66 687.856 313.448C687.584 313.24 687.356 312.968 687.172 312.632L687.97 312.188C688.15 312.548 688.402 312.806 688.726 312.962C689.054 313.122 689.388 313.202 689.728 313.202C690.196 313.202 690.574 313.114 690.862 312.938C691.154 312.766 691.366 312.51 691.498 312.17C691.63 311.83 691.694 311.406 691.69 310.898V309.17H691.792V304.52H692.578V310.91C692.578 311.094 692.572 311.27 692.56 311.438C692.552 311.61 692.534 311.778 692.506 311.942C692.43 312.426 692.272 312.824 692.032 313.136C691.796 313.448 691.484 313.68 691.096 313.832C690.712 313.984 690.256 314.06 689.728 314.06ZM689.668 311.18C689.064 311.18 688.548 311.03 688.12 310.73C687.692 310.426 687.364 310.016 687.136 309.5C686.908 308.984 686.794 308.402 686.794 307.754C686.794 307.11 686.906 306.53 687.13 306.014C687.358 305.498 687.684 305.09 688.108 304.79C688.532 304.49 689.04 304.34 689.632 304.34C690.24 304.34 690.752 304.488 691.168 304.784C691.584 305.08 691.898 305.486 692.11 306.002C692.326 306.514 692.434 307.098 692.434 307.754C692.434 308.398 692.328 308.98 692.116 309.5C691.904 310.016 691.592 310.426 691.18 310.73C690.768 311.03 690.264 311.18 689.668 311.18ZM689.758 310.358C690.218 310.358 690.598 310.246 690.898 310.022C691.198 309.798 691.422 309.49 691.57 309.098C691.718 308.702 691.792 308.254 691.792 307.754C691.792 307.246 691.718 306.798 691.57 306.41C691.422 306.018 691.198 305.712 690.898 305.492C690.602 305.272 690.228 305.162 689.776 305.162C689.312 305.162 688.928 305.276 688.624 305.504C688.32 305.732 688.094 306.042 687.946 306.434C687.802 306.826 687.73 307.266 687.73 307.754C687.73 308.246 687.804 308.69 687.952 309.086C688.104 309.478 688.33 309.788 688.63 310.016C688.93 310.244 689.306 310.358 689.758 310.358Z" fill="#43454C"/>
<path d="M758.67 311.18C758.066 311.18 757.522 311.08 757.038 310.88C756.558 310.676 756.16 310.388 755.844 310.016C755.532 309.644 755.328 309.202 755.232 308.69L756.132 308.54C756.276 309.1 756.58 309.54 757.044 309.86C757.508 310.176 758.062 310.334 758.706 310.334C759.13 310.334 759.51 310.268 759.846 310.136C760.182 310 760.446 309.808 760.638 309.56C760.83 309.312 760.926 309.018 760.926 308.678C760.926 308.454 760.886 308.264 760.806 308.108C760.726 307.948 760.62 307.816 760.488 307.712C760.356 307.608 760.212 307.522 760.056 307.454C759.9 307.382 759.748 307.324 759.6 307.28L757.41 306.626C757.146 306.55 756.902 306.454 756.678 306.338C756.454 306.218 756.258 306.076 756.09 305.912C755.926 305.744 755.798 305.548 755.706 305.324C755.614 305.1 755.568 304.844 755.568 304.556C755.568 304.068 755.696 303.646 755.952 303.29C756.208 302.934 756.558 302.66 757.002 302.468C757.446 302.276 757.952 302.182 758.52 302.186C759.096 302.186 759.61 302.288 760.062 302.492C760.518 302.696 760.894 302.988 761.19 303.368C761.486 303.744 761.682 304.19 761.778 304.706L760.854 304.874C760.794 304.498 760.656 304.172 760.44 303.896C760.224 303.62 759.948 303.408 759.612 303.26C759.28 303.108 758.914 303.03 758.514 303.026C758.126 303.026 757.78 303.092 757.476 303.224C757.176 303.352 756.938 303.528 756.762 303.752C756.586 303.976 756.498 304.232 756.498 304.52C756.498 304.812 756.578 305.046 756.738 305.222C756.902 305.398 757.102 305.536 757.338 305.636C757.578 305.736 757.81 305.818 758.034 305.882L759.726 306.38C759.902 306.428 760.108 306.498 760.344 306.59C760.584 306.678 760.816 306.806 761.04 306.974C761.268 307.138 761.456 307.354 761.604 307.622C761.752 307.89 761.826 308.23 761.826 308.642C761.826 309.042 761.746 309.4 761.586 309.716C761.43 310.032 761.208 310.298 760.92 310.514C760.636 310.73 760.302 310.894 759.918 311.006C759.538 311.122 759.122 311.18 758.67 311.18ZM765.807 311.18C765.175 311.18 764.627 311.04 764.163 310.76C763.703 310.48 763.345 310.086 763.089 309.578C762.833 309.07 762.705 308.474 762.705 307.79C762.705 307.082 762.831 306.47 763.083 305.954C763.335 305.438 763.689 305.04 764.145 304.76C764.605 304.48 765.147 304.34 765.771 304.34C766.411 304.34 766.957 304.488 767.409 304.784C767.861 305.076 768.203 305.496 768.435 306.044C768.667 306.592 768.773 307.246 768.753 308.006H767.853V307.694C767.837 306.854 767.655 306.22 767.307 305.792C766.963 305.364 766.459 305.15 765.795 305.15C765.099 305.15 764.565 305.376 764.193 305.828C763.825 306.28 763.641 306.924 763.641 307.76C763.641 308.576 763.825 309.21 764.193 309.662C764.565 310.11 765.091 310.334 765.771 310.334C766.235 310.334 766.639 310.228 766.983 310.016C767.331 309.8 767.605 309.49 767.805 309.086L768.627 309.404C768.371 309.968 767.993 310.406 767.493 310.718C766.997 311.026 766.435 311.18 765.807 311.18ZM763.329 308.006V307.268H768.279V308.006H763.329ZM772.818 311.18C772.222 311.18 771.718 311.03 771.306 310.73C770.894 310.426 770.582 310.016 770.37 309.5C770.158 308.98 770.052 308.398 770.052 307.754C770.052 307.098 770.158 306.514 770.37 306.002C770.586 305.486 770.902 305.08 771.318 304.784C771.734 304.488 772.246 304.34 772.854 304.34C773.446 304.34 773.954 304.49 774.378 304.79C774.802 305.09 775.126 305.498 775.35 306.014C775.578 306.53 775.692 307.11 775.692 307.754C775.692 308.402 775.578 308.984 775.35 309.5C775.122 310.016 774.794 310.426 774.366 310.73C773.938 311.03 773.422 311.18 772.818 311.18ZM769.902 313.88V304.52H770.694V309.398H770.79V313.88H769.902ZM772.728 310.358C773.18 310.358 773.556 310.244 773.856 310.016C774.156 309.788 774.38 309.478 774.528 309.086C774.68 308.69 774.756 308.246 774.756 307.754C774.756 307.266 774.682 306.826 774.534 306.434C774.386 306.042 774.16 305.732 773.856 305.504C773.556 305.276 773.174 305.162 772.71 305.162C772.258 305.162 771.882 305.272 771.582 305.492C771.286 305.712 771.064 306.018 770.916 306.41C770.768 306.798 770.694 307.246 770.694 307.754C770.694 308.254 770.768 308.702 770.916 309.098C771.064 309.49 771.288 309.798 771.588 310.022C771.888 310.246 772.268 310.358 772.728 310.358Z" fill="#43454C"/>
<path d="M842.772 311.18C841.912 311.18 841.186 310.99 840.594 310.61C840.002 310.226 839.554 309.696 839.25 309.02C838.946 308.344 838.794 307.564 838.794 306.68C838.794 305.796 838.946 305.016 839.25 304.34C839.554 303.664 840.002 303.136 840.594 302.756C841.186 302.372 841.912 302.18 842.772 302.18C843.636 302.18 844.362 302.372 844.95 302.756C845.542 303.136 845.99 303.664 846.294 304.34C846.602 305.016 846.756 305.796 846.756 306.68C846.756 307.564 846.602 308.344 846.294 309.02C845.99 309.696 845.542 310.226 844.95 310.61C844.362 310.99 843.636 311.18 842.772 311.18ZM842.772 310.334C843.448 310.334 844.012 310.18 844.464 309.872C844.916 309.564 845.254 309.136 845.478 308.588C845.706 308.036 845.82 307.4 845.82 306.68C845.82 305.96 845.706 305.326 845.478 304.778C845.254 304.23 844.916 303.802 844.464 303.494C844.012 303.186 843.448 303.03 842.772 303.026C842.096 303.026 841.534 303.18 841.086 303.488C840.638 303.796 840.3 304.226 840.072 304.778C839.848 305.326 839.734 305.96 839.73 306.68C839.726 307.4 839.836 308.034 840.06 308.582C840.288 309.126 840.628 309.554 841.08 309.866C841.532 310.174 842.096 310.33 842.772 310.334ZM850.645 311.18C849.993 311.18 849.441 311.034 848.989 310.742C848.537 310.45 848.193 310.048 847.957 309.536C847.725 309.02 847.605 308.428 847.597 307.76C847.605 307.08 847.729 306.484 847.969 305.972C848.209 305.456 848.555 305.056 849.007 304.772C849.459 304.484 850.007 304.34 850.651 304.34C851.307 304.34 851.877 304.5 852.361 304.82C852.849 305.14 853.183 305.578 853.363 306.134L852.499 306.41C852.347 306.022 852.105 305.722 851.773 305.51C851.445 305.294 851.069 305.186 850.645 305.186C850.169 305.186 849.775 305.296 849.463 305.516C849.151 305.732 848.919 306.034 848.767 306.422C848.615 306.81 848.537 307.256 848.533 307.76C848.541 308.536 848.721 309.16 849.073 309.632C849.425 310.1 849.949 310.334 850.645 310.334C851.085 310.334 851.459 310.234 851.767 310.034C852.079 309.83 852.315 309.534 852.475 309.146L853.363 309.41C853.123 309.986 852.771 310.426 852.307 310.73C851.843 311.03 851.289 311.18 850.645 311.18ZM858.13 311C857.766 311.076 857.406 311.106 857.05 311.09C856.698 311.074 856.382 310.998 856.102 310.862C855.826 310.726 855.616 310.514 855.472 310.226C855.356 309.986 855.292 309.744 855.28 309.5C855.272 309.252 855.268 308.97 855.268 308.654V302.72H856.144V308.618C856.144 308.89 856.146 309.118 856.15 309.302C856.158 309.482 856.2 309.642 856.276 309.782C856.42 310.05 856.648 310.21 856.96 310.262C857.276 310.314 857.666 310.302 858.13 310.226V311ZM853.882 305.276V304.52H858.13V305.276H853.882Z" fill="#43454C"/>
<path d="M921.752 311V302.36H922.64L927.398 309.44V302.36H928.286V311H927.398L922.64 303.914V311H921.752ZM932.673 311.18C932.029 311.18 931.479 311.034 931.023 310.742C930.567 310.45 930.217 310.046 929.973 309.53C929.729 309.014 929.607 308.422 929.607 307.754C929.607 307.074 929.731 306.478 929.979 305.966C930.227 305.454 930.579 305.056 931.035 304.772C931.495 304.484 932.041 304.34 932.673 304.34C933.321 304.34 933.873 304.486 934.329 304.778C934.789 305.066 935.139 305.468 935.379 305.984C935.623 306.496 935.745 307.086 935.745 307.754C935.745 308.434 935.623 309.032 935.379 309.548C935.135 310.06 934.783 310.46 934.323 310.748C933.863 311.036 933.313 311.18 932.673 311.18ZM932.673 310.334C933.393 310.334 933.929 310.096 934.281 309.62C934.633 309.14 934.809 308.518 934.809 307.754C934.809 306.97 934.631 306.346 934.275 305.882C933.923 305.418 933.389 305.186 932.673 305.186C932.189 305.186 931.789 305.296 931.473 305.516C931.161 305.732 930.927 306.034 930.771 306.422C930.619 306.806 930.543 307.25 930.543 307.754C930.543 308.534 930.723 309.16 931.083 309.632C931.443 310.1 931.973 310.334 932.673 310.334ZM938.586 311L936.234 304.52H937.128L939.042 309.848L940.944 304.52H941.85L939.498 311H938.586Z" fill="#43454C"/>
<path d="M1004.48 311V302.36H1007.1C1007.19 302.36 1007.35 302.362 1007.57 302.366C1007.79 302.37 1008 302.386 1008.21 302.414C1008.86 302.506 1009.41 302.75 1009.85 303.146C1010.29 303.542 1010.62 304.046 1010.84 304.658C1011.06 305.27 1011.17 305.944 1011.17 306.68C1011.17 307.416 1011.06 308.09 1010.84 308.702C1010.62 309.314 1010.29 309.818 1009.85 310.214C1009.41 310.61 1008.86 310.854 1008.21 310.946C1008.01 310.97 1007.79 310.986 1007.57 310.994C1007.34 310.998 1007.18 311 1007.1 311H1004.48ZM1005.39 310.154H1007.1C1007.26 310.154 1007.44 310.15 1007.63 310.142C1007.82 310.13 1007.98 310.11 1008.12 310.082C1008.62 309.994 1009.03 309.79 1009.34 309.47C1009.65 309.15 1009.88 308.75 1010.02 308.27C1010.16 307.786 1010.24 307.256 1010.24 306.68C1010.24 306.1 1010.16 305.568 1010.02 305.084C1009.88 304.6 1009.65 304.2 1009.34 303.884C1009.02 303.568 1008.62 303.366 1008.12 303.278C1007.98 303.25 1007.82 303.232 1007.62 303.224C1007.43 303.212 1007.25 303.206 1007.1 303.206H1005.39V310.154ZM1015.28 311.18C1014.65 311.18 1014.1 311.04 1013.64 310.76C1013.18 310.48 1012.82 310.086 1012.56 309.578C1012.31 309.07 1012.18 308.474 1012.18 307.79C1012.18 307.082 1012.31 306.47 1012.56 305.954C1012.81 305.438 1013.16 305.04 1013.62 304.76C1014.08 304.48 1014.62 304.34 1015.25 304.34C1015.89 304.34 1016.43 304.488 1016.88 304.784C1017.34 305.076 1017.68 305.496 1017.91 306.044C1018.14 306.592 1018.25 307.246 1018.23 308.006H1017.33V307.694C1017.31 306.854 1017.13 306.22 1016.78 305.792C1016.44 305.364 1015.93 305.15 1015.27 305.15C1014.57 305.15 1014.04 305.376 1013.67 305.828C1013.3 306.28 1013.12 306.924 1013.12 307.76C1013.12 308.576 1013.3 309.21 1013.67 309.662C1014.04 310.11 1014.57 310.334 1015.25 310.334C1015.71 310.334 1016.11 310.228 1016.46 310.016C1016.81 309.8 1017.08 309.49 1017.28 309.086L1018.1 309.404C1017.85 309.968 1017.47 310.406 1016.97 310.718C1016.47 311.026 1015.91 311.18 1015.28 311.18ZM1012.8 308.006V307.268H1017.75V308.006H1012.8ZM1022.25 311.18C1021.59 311.18 1021.04 311.034 1020.59 310.742C1020.14 310.45 1019.79 310.048 1019.56 309.536C1019.33 309.02 1019.21 308.428 1019.2 307.76C1019.21 307.08 1019.33 306.484 1019.57 305.972C1019.81 305.456 1020.16 305.056 1020.61 304.772C1021.06 304.484 1021.61 304.34 1022.25 304.34C1022.91 304.34 1023.48 304.5 1023.96 304.82C1024.45 305.14 1024.78 305.578 1024.96 306.134L1024.1 306.41C1023.95 306.022 1023.71 305.722 1023.37 305.51C1023.05 305.294 1022.67 305.186 1022.25 305.186C1021.77 305.186 1021.38 305.296 1021.06 305.516C1020.75 305.732 1020.52 306.034 1020.37 306.422C1020.22 306.81 1020.14 307.256 1020.13 307.76C1020.14 308.536 1020.32 309.16 1020.67 309.632C1021.03 310.1 1021.55 310.334 1022.25 310.334C1022.69 310.334 1023.06 310.234 1023.37 310.034C1023.68 309.83 1023.92 309.534 1024.08 309.146L1024.96 309.41C1024.72 309.986 1024.37 310.426 1023.91 310.73C1023.44 311.03 1022.89 311.18 1022.25 311.18Z" fill="#43454C"/>
</g>
<defs>
<clipPath id="clip0_397_97647">
<rect width="996" height="16" fill="white" transform="translate(60 298)"/>
</clipPath>
</defs>
</svg>
