<svg width="161" height="156" viewBox="0 0 161 156" fill="none" xmlns="http://www.w3.org/2000/svg">
<path d="M161 69.6519C161 108.036 129.884 139.152 91.5 139.152C53.1162 139.152 22 108.036 22 69.6519C22 31.2681 53.1162 0.151855 91.5 0.151855C129.884 0.151855 161 31.2681 161 69.6519ZM35.9 69.6519C35.9 100.359 60.793 125.252 91.5 125.252C122.207 125.252 147.1 100.359 147.1 69.6519C147.1 38.9448 122.207 14.0519 91.5 14.0519C60.793 14.0519 35.9 38.9448 35.9 69.6519Z" fill="#1BE7FF"/>
<g filter="url(#filter0_d_58_35233)">
<path d="M51.9776 140.928C42.6175 135.737 34.3714 128.754 27.71 120.377C21.0486 112 16.1024 102.393 13.1539 92.1048C10.2053 81.8163 9.3121 71.0477 10.5252 60.4139C11.7384 49.7802 15.0341 39.4895 20.2243 30.1294L42.5166 42.4905C38.9497 48.9231 36.6847 55.9953 35.851 63.3032C35.0173 70.6111 35.6311 78.0117 37.6575 85.0824C39.6839 92.1531 43.0831 98.7554 47.661 104.512C52.239 110.269 57.9061 115.068 64.3387 118.635L51.9776 140.928Z" fill="#00F7BF"/>
</g>
<path d="M91.5 0.151855C102.092 0.151856 112.543 2.57265 122.056 7.22931C131.569 11.886 139.892 18.6553 146.389 27.0202C152.886 35.3851 157.385 45.1243 159.543 55.4938C161.7 65.8633 161.459 76.5888 158.838 86.851C156.217 97.1131 151.285 106.64 144.419 114.705C137.553 122.77 128.935 129.159 119.222 133.384C109.51 137.608 98.9601 139.557 88.3792 139.082C77.7983 138.606 67.466 135.718 58.1717 130.639L64.8374 118.442C72.2728 122.505 80.5386 124.815 89.0033 125.196C97.4681 125.576 105.908 124.017 113.678 120.637C121.448 117.257 128.343 112.146 133.835 105.695C139.328 99.2427 143.274 91.6209 145.371 83.4111C147.467 75.2014 147.66 66.621 145.934 58.3254C144.208 50.0298 140.609 42.2385 135.411 35.5466C130.214 28.8546 123.555 23.4391 115.945 19.7138C108.334 15.9885 99.9733 14.0519 91.5 14.0519V0.151855Z" fill="#0063F7"/>
<path d="M66.4655 69.3319C65.6015 69.3319 64.8655 69.1439 64.2575 68.7679C63.6495 68.3879 63.1835 67.8599 62.8595 67.1839C62.5395 66.5079 62.3795 65.7239 62.3795 64.8319C62.3795 63.9399 62.5395 63.1559 62.8595 62.4799C63.1835 61.8039 63.6495 61.2779 64.2575 60.9019C64.8655 60.5219 65.6015 60.3319 66.4655 60.3319C67.3255 60.3319 68.0595 60.5219 68.6675 60.9019C69.2795 61.2779 69.7455 61.8039 70.0655 62.4799C70.3855 63.1559 70.5455 63.9399 70.5455 64.8319C70.5455 65.7239 70.3855 66.5079 70.0655 67.1839C69.7455 67.8599 69.2795 68.3879 68.6675 68.7679C68.0595 69.1439 67.3255 69.3319 66.4655 69.3319ZM66.4655 68.1379C67.0775 68.1459 67.5855 68.0119 67.9895 67.7359C68.3975 67.4559 68.7035 67.0679 68.9075 66.5719C69.1115 66.0719 69.2135 65.4919 69.2135 64.8319C69.2135 64.1719 69.1115 63.5959 68.9075 63.1039C68.7035 62.6079 68.3975 62.2219 67.9895 61.9459C67.5855 61.6699 67.0775 61.5299 66.4655 61.5259C65.8535 61.5179 65.3435 61.6519 64.9355 61.9279C64.5315 62.2039 64.2275 62.5919 64.0235 63.0919C63.8195 63.5919 63.7155 64.1719 63.7115 64.8319C63.7075 65.4919 63.8075 66.0699 64.0115 66.5659C64.2155 67.0579 64.5215 67.4419 64.9295 67.7179C65.3415 67.9939 65.8535 68.1339 66.4655 68.1379ZM71.8623 69.1519V60.3319H73.1163V69.1519H71.8623ZM77.3601 69.3259C76.9121 69.3259 76.5361 69.2539 76.2321 69.1099C75.9281 68.9659 75.6801 68.7779 75.4881 68.5459C75.3001 68.3099 75.1561 68.0539 75.0561 67.7779C74.9561 67.5019 74.8881 67.2319 74.8521 66.9679C74.8161 66.7039 74.7981 66.4719 74.7981 66.2719V62.6719H76.0701V65.8579C76.0701 66.1099 76.0901 66.3699 76.1301 66.6379C76.1741 66.9019 76.2541 67.1479 76.3701 67.3759C76.4901 67.6039 76.6561 67.7879 76.8681 67.9279C77.0841 68.0679 77.3641 68.1379 77.7081 68.1379C77.9321 68.1379 78.1441 68.1019 78.3441 68.0299C78.5441 67.9539 78.7181 67.8339 78.8661 67.6699C79.0181 67.5059 79.1361 67.2899 79.2201 67.0219C79.3081 66.7539 79.3521 66.4279 79.3521 66.0439L80.1321 66.3379C80.1321 66.9259 80.0221 67.4459 79.8021 67.8979C79.5821 68.3459 79.2661 68.6959 78.8541 68.9479C78.4421 69.1999 77.9441 69.3259 77.3601 69.3259ZM79.5021 69.1519V67.2799H79.3521V62.6719H80.6181V69.1519H79.5021ZM83.6809 69.1519L81.7009 62.6659L82.9429 62.6719L84.2989 67.1179L85.6669 62.6719H86.7469L88.1149 67.1179L89.4709 62.6719H90.7069L88.7269 69.1519H87.7189L86.2069 64.4599L84.6889 69.1519H83.6809ZM93.2481 69.3319C92.7681 69.3319 92.3661 69.2439 92.0421 69.0679C91.7181 68.8879 91.4721 68.6519 91.3041 68.3599C91.1401 68.0639 91.0581 67.7399 91.0581 67.3879C91.0581 67.0599 91.1161 66.7719 91.2321 66.5239C91.3481 66.2759 91.5201 66.0659 91.7481 65.8939C91.9761 65.7179 92.2561 65.5759 92.5881 65.4679C92.8761 65.3839 93.2021 65.3099 93.5661 65.2459C93.9301 65.1819 94.3121 65.1219 94.7121 65.0659C95.1161 65.0099 95.5161 64.9539 95.9121 64.8979L95.4561 65.1499C95.4641 64.6419 95.3561 64.2659 95.1321 64.0219C94.9121 63.7739 94.5321 63.6499 93.9921 63.6499C93.6521 63.6499 93.3401 63.7299 93.0561 63.8899C92.7721 64.0459 92.5741 64.3059 92.4621 64.6699L91.2921 64.3099C91.4521 63.7539 91.7561 63.3119 92.2041 62.9839C92.6561 62.6559 93.2561 62.4919 94.0041 62.4919C94.5841 62.4919 95.0881 62.5919 95.5161 62.7919C95.9481 62.9879 96.2641 63.2999 96.4641 63.7279C96.5681 63.9399 96.6321 64.1639 96.6561 64.3999C96.6801 64.6359 96.6921 64.8899 96.6921 65.1619V69.1519H95.5821V67.6699L95.7981 67.8619C95.5301 68.3579 95.1881 68.7279 94.7721 68.9719C94.3601 69.2119 93.8521 69.3319 93.2481 69.3319ZM93.4701 68.3059C93.8261 68.3059 94.1321 68.2439 94.3881 68.1199C94.6441 67.9919 94.8501 67.8299 95.0061 67.6339C95.1621 67.4379 95.2641 67.2339 95.3121 67.0219C95.3801 66.8299 95.4181 66.6139 95.4261 66.3739C95.4381 66.1339 95.4441 65.9419 95.4441 65.7979L95.8521 65.9479C95.4561 66.0079 95.0961 66.0619 94.7721 66.1099C94.4481 66.1579 94.1541 66.2059 93.8901 66.2539C93.6301 66.2979 93.3981 66.3519 93.1941 66.4159C93.0221 66.4759 92.8681 66.5479 92.7321 66.6319C92.6001 66.7159 92.4941 66.8179 92.4141 66.9379C92.3381 67.0579 92.3001 67.2039 92.3001 67.3759C92.3001 67.5439 92.3421 67.6999 92.4261 67.8439C92.5101 67.9839 92.6381 68.0959 92.8101 68.1799C92.9821 68.2639 93.2021 68.3059 93.4701 68.3059ZM101.958 69.1519C101.55 69.2319 101.15 69.2659 100.758 69.2539C100.366 69.2419 100.016 69.1659 99.7082 69.0259C99.4002 68.8859 99.1682 68.6659 99.0122 68.3659C98.8722 68.0979 98.7962 67.8259 98.7842 67.5499C98.7762 67.2699 98.7722 66.9539 98.7722 66.6019V60.8719H100.032V66.5419C100.032 66.8019 100.034 67.0279 100.038 67.2199C100.046 67.4119 100.088 67.5739 100.164 67.7059C100.308 67.9539 100.536 68.0959 100.848 68.1319C101.164 68.1639 101.534 68.1499 101.958 68.0899V69.1519ZM97.5302 63.6799V62.6719H101.958V63.6799H97.5302ZM105.845 69.3319C105.197 69.3319 104.635 69.1859 104.159 68.8939C103.683 68.6019 103.315 68.1999 103.055 67.6879C102.799 67.1719 102.671 66.5779 102.671 65.9059C102.671 65.2299 102.803 64.6359 103.067 64.1239C103.331 63.6079 103.701 63.2079 104.177 62.9239C104.653 62.6359 105.209 62.4919 105.845 62.4919C106.493 62.4919 107.055 62.6379 107.531 62.9299C108.007 63.2219 108.375 63.6239 108.635 64.1359C108.895 64.6479 109.025 65.2379 109.025 65.9059C109.025 66.5819 108.893 67.1779 108.629 67.6939C108.369 68.2059 108.001 68.6079 107.525 68.8999C107.049 69.1879 106.489 69.3319 105.845 69.3319ZM105.845 68.1499C106.465 68.1499 106.927 67.9419 107.231 67.5259C107.539 67.1059 107.693 66.5659 107.693 65.9059C107.693 65.2299 107.537 64.6899 107.225 64.2859C106.917 63.8779 106.457 63.6739 105.845 63.6739C105.425 63.6739 105.079 63.7699 104.807 63.9619C104.535 64.1499 104.333 64.4119 104.201 64.7479C104.069 65.0799 104.003 65.4659 104.003 65.9059C104.003 66.5859 104.159 67.1299 104.471 67.5379C104.783 67.9459 105.241 68.1499 105.845 68.1499ZM113.386 69.3319C112.766 69.3319 112.246 69.1819 111.826 68.8819C111.406 68.5779 111.088 68.1679 110.872 67.6519C110.656 67.1359 110.548 66.5539 110.548 65.9059C110.548 65.2579 110.654 64.6759 110.866 64.1599C111.082 63.6439 111.398 63.2379 111.814 62.9419C112.234 62.6419 112.75 62.4919 113.362 62.4919C113.97 62.4919 114.494 62.6419 114.934 62.9419C115.378 63.2379 115.72 63.6439 115.96 64.1599C116.2 64.6719 116.32 65.2539 116.32 65.9059C116.32 66.5539 116.2 67.1379 115.96 67.6579C115.724 68.1739 115.386 68.5819 114.946 68.8819C114.51 69.1819 113.99 69.3319 113.386 69.3319ZM110.338 69.1519V60.5119H111.598V64.4899H111.454V69.1519H110.338ZM113.212 68.1979C113.612 68.1979 113.942 68.0959 114.202 67.8919C114.466 67.6879 114.662 67.4139 114.79 67.0699C114.922 66.7219 114.988 66.3339 114.988 65.9059C114.988 65.4819 114.922 65.0979 114.79 64.7539C114.662 64.4099 114.464 64.1359 114.196 63.9319C113.928 63.7279 113.586 63.6259 113.17 63.6259C112.778 63.6259 112.454 63.7219 112.198 63.9139C111.946 64.1059 111.758 64.3739 111.634 64.7179C111.514 65.0619 111.454 65.4579 111.454 65.9059C111.454 66.3539 111.514 66.7499 111.634 67.0939C111.754 67.4379 111.944 67.7079 112.204 67.9039C112.464 68.0999 112.8 68.1979 113.212 68.1979ZM117.765 61.6099V60.3919H119.019V61.6099H117.765ZM117.765 69.1519V62.6719H119.019V69.1519H117.765ZM80.4044 81.1519L79.5644 80.3119L87.3704 72.5119L88.2104 73.3579L80.4044 81.1519ZM86.4104 81.3319C86.0144 81.3319 85.6524 81.2359 85.3244 81.0439C85.0004 80.8479 84.7404 80.5879 84.5444 80.2639C84.3484 79.9359 84.2504 79.5719 84.2504 79.1719C84.2504 78.7799 84.3504 78.4199 84.5504 78.0919C84.7504 77.7639 85.0144 77.5019 85.3424 77.3059C85.6704 77.1099 86.0264 77.0119 86.4104 77.0119C86.8064 77.0119 87.1684 77.1099 87.4964 77.3059C87.8244 77.4979 88.0844 77.7579 88.2764 78.0859C88.4724 78.4099 88.5704 78.7719 88.5704 79.1719C88.5704 79.5719 88.4724 79.9359 88.2764 80.2639C88.0844 80.5879 87.8244 80.8479 87.4964 81.0439C87.1684 81.2359 86.8064 81.3319 86.4104 81.3319ZM86.4104 80.2459C86.6064 80.2459 86.7844 80.1979 86.9444 80.1019C87.1084 80.0019 87.2384 79.8699 87.3344 79.7059C87.4344 79.5419 87.4844 79.3639 87.4844 79.1719C87.4844 78.9799 87.4344 78.8019 87.3344 78.6379C87.2384 78.4739 87.1084 78.3439 86.9444 78.2479C86.7844 78.1479 86.6064 78.0979 86.4104 78.0979C86.2184 78.0979 86.0404 78.1479 85.8764 78.2479C85.7164 78.3439 85.5864 78.4739 85.4864 78.6379C85.3904 78.8019 85.3424 78.9799 85.3424 79.1719C85.3424 79.3639 85.3904 79.5419 85.4864 79.7059C85.5864 79.8699 85.7164 80.0019 85.8764 80.1019C86.0404 80.1979 86.2184 80.2459 86.4104 80.2459ZM81.3644 76.6519C80.9684 76.6519 80.6064 76.5559 80.2784 76.3639C79.9504 76.1679 79.6884 75.9079 79.4924 75.5839C79.3004 75.2559 79.2044 74.8919 79.2044 74.4919C79.2044 74.0999 79.3044 73.7399 79.5044 73.4119C79.7044 73.0839 79.9684 72.8219 80.2964 72.6259C80.6244 72.4299 80.9804 72.3319 81.3644 72.3319C81.7604 72.3319 82.1204 72.4299 82.4444 72.6259C82.7724 72.8179 83.0344 73.0779 83.2304 73.4059C83.4264 73.7299 83.5244 74.0919 83.5244 74.4919C83.5244 74.8919 83.4264 75.2559 83.2304 75.5839C83.0344 75.9079 82.7724 76.1679 82.4444 76.3639C82.1204 76.5559 81.7604 76.6519 81.3644 76.6519ZM81.3644 75.5659C81.5564 75.5659 81.7344 75.5179 81.8984 75.4219C82.0624 75.3219 82.1924 75.1899 82.2884 75.0259C82.3884 74.8619 82.4384 74.6839 82.4384 74.4919C82.4384 74.2999 82.3884 74.1219 82.2884 73.9579C82.1924 73.7939 82.0624 73.6639 81.8984 73.5679C81.7344 73.4679 81.5564 73.4179 81.3644 73.4179C81.1724 73.4179 80.9944 73.4679 80.8304 73.5679C80.6704 73.6639 80.5404 73.7939 80.4404 73.9579C80.3404 74.1219 80.2904 74.2999 80.2904 74.4919C80.2904 74.6839 80.3404 74.8619 80.4404 75.0259C80.5404 75.1899 80.6704 75.3219 80.8304 75.4219C80.9904 75.5179 81.1684 75.5659 81.3644 75.5659ZM93.7891 81.1519V79.6459H89.8891V78.4579L92.6971 72.5119H94.1311L91.3231 78.4579H93.7891V76.1179H95.0611V78.4579H95.9191V79.6459H95.0611V81.1519H93.7891ZM99.9215 81.3319C99.4775 81.3319 99.0635 81.2419 98.6795 81.0619C98.2995 80.8779 97.9735 80.6259 97.7015 80.3059C97.4295 79.9819 97.2355 79.6099 97.1195 79.1899L98.3255 78.8659C98.3935 79.1219 98.5095 79.3439 98.6735 79.5319C98.8415 79.7199 99.0375 79.8659 99.2615 79.9699C99.4855 80.0699 99.7175 80.1199 99.9575 80.1199C100.274 80.1199 100.56 80.0439 100.816 79.8919C101.076 79.7399 101.28 79.5359 101.428 79.2799C101.58 79.0239 101.656 78.7419 101.656 78.4339C101.656 78.1179 101.578 77.8319 101.422 77.5759C101.27 77.3199 101.064 77.1179 100.804 76.9699C100.548 76.8179 100.266 76.7419 99.9575 76.7419C99.6055 76.7419 99.3075 76.8119 99.0635 76.9519C98.8195 77.0919 98.6295 77.2539 98.4935 77.4379L97.4015 77.0539L97.6655 72.5119H102.328V73.6939H98.3075L98.8175 73.2199L98.6075 76.6219L98.3615 76.3039C98.5895 76.0759 98.8615 75.9019 99.1775 75.7819C99.4935 75.6619 99.8075 75.6019 100.12 75.6019C100.656 75.6019 101.134 75.7259 101.554 75.9739C101.978 76.2219 102.312 76.5599 102.556 76.9879C102.8 77.4119 102.922 77.8939 102.922 78.4339C102.922 78.9699 102.784 79.4579 102.508 79.8979C102.232 80.3339 101.866 80.6819 101.41 80.9419C100.954 81.2019 100.458 81.3319 99.9215 81.3319Z" fill="#636E72"/>
<defs>
<filter id="filter0_d_58_35233" x="0" y="25.1294" width="74.3389" height="130.798" filterUnits="userSpaceOnUse" color-interpolation-filters="sRGB">
<feFlood flood-opacity="0" result="BackgroundImageFix"/>
<feColorMatrix in="SourceAlpha" type="matrix" values="0 0 0 0 0 0 0 0 0 0 0 0 0 0 0 0 0 0 127 0" result="hardAlpha"/>
<feOffset dy="5"/>
<feGaussianBlur stdDeviation="5"/>
<feColorMatrix type="matrix" values="0 0 0 0 0 0 0 0 0 0 0 0 0 0 0 0 0 0 0.15 0"/>
<feBlend mode="normal" in2="BackgroundImageFix" result="effect1_dropShadow_58_35233"/>
<feBlend mode="normal" in="SourceGraphic" in2="effect1_dropShadow_58_35233" result="shape"/>
</filter>
</defs>
</svg>
