<svg width="197" height="195" viewBox="0 0 197 195" fill="none" xmlns="http://www.w3.org/2000/svg">
<path d="M117.744 171.104C153.813 157.976 172.411 118.094 159.283 82.0252C146.155 45.9562 106.273 27.3589 70.2037 40.4869C34.1347 53.615 15.5374 93.497 28.6654 129.566C41.7934 165.635 81.6755 184.232 117.744 171.104ZM74.9577 53.5486C103.813 43.0462 135.719 57.9241 146.221 86.7792C156.723 115.634 141.846 147.54 112.99 158.042C84.1352 168.545 52.2296 153.667 41.7271 124.812C31.2247 95.9567 46.1026 64.0511 74.9577 53.5486Z" fill="#1BE7FF"/>
<g filter="url(#filter0_d_58_35259)">
<path d="M147.434 44.2786C139.356 37.2582 129.973 31.8976 119.823 28.5031C109.673 25.1086 98.9537 23.7465 88.2772 24.4946C77.6006 25.2428 67.176 28.0865 57.5984 32.8635C48.0209 37.6404 39.478 44.257 32.4576 52.3355L51.6976 69.0556C56.5223 63.5038 62.3933 58.9566 68.9754 55.6737C75.5574 52.3908 82.7216 50.4365 90.059 49.9223C97.3963 49.4082 104.763 50.3442 111.739 52.6771C118.714 55.0099 125.162 58.6939 130.714 63.5186L147.434 44.2786Z" fill="#00F7BF"/>
</g>
<path d="M28.6654 129.566C32.288 139.519 38.1374 148.512 45.7669 155.859C53.3963 163.205 62.604 168.711 72.6865 171.955C82.7691 175.199 93.4597 176.096 103.942 174.577C114.424 173.058 124.42 169.163 133.167 163.19C141.914 157.217 149.18 149.324 154.41 140.114C159.64 130.904 162.696 120.62 163.344 110.048C163.992 99.4767 162.215 88.8967 158.149 79.1165C154.084 69.3364 147.836 60.6149 139.885 53.6183L130.703 64.0537C137.064 69.651 142.062 76.6282 145.314 84.4523C148.567 92.2765 149.988 100.74 149.47 109.198C148.951 117.655 146.507 125.882 142.323 133.25C138.139 140.619 132.326 146.933 125.328 151.711C118.331 156.49 110.334 159.606 101.948 160.821C93.5626 162.036 85.0101 161.319 76.944 158.723C68.878 156.128 61.5119 151.723 55.4083 145.846C49.3047 139.969 44.6252 132.774 41.7271 124.812L28.6654 129.566Z" fill="#0063F7"/>
<path d="M64.1535 104.625V95.9845H65.4255L69.6795 102.405V95.9845H70.9515V104.625H69.6795L65.4255 98.1985V104.625H64.1535ZM75.4401 104.805C74.7921 104.805 74.2301 104.659 73.7541 104.367C73.2781 104.075 72.9101 103.673 72.6501 103.161C72.3941 102.645 72.2661 102.051 72.2661 101.379C72.2661 100.703 72.3981 100.109 72.6621 99.5965C72.9261 99.0805 73.2961 98.6805 73.7721 98.3965C74.2481 98.1085 74.8041 97.9645 75.4401 97.9645C76.0881 97.9645 76.6501 98.1105 77.1261 98.4025C77.6021 98.6945 77.9701 99.0965 78.2301 99.6085C78.4901 100.121 78.6201 100.711 78.6201 101.379C78.6201 102.055 78.4881 102.651 78.2241 103.167C77.9641 103.679 77.5961 104.081 77.1201 104.373C76.6441 104.661 76.0841 104.805 75.4401 104.805ZM75.4401 103.623C76.0601 103.623 76.5221 103.415 76.8261 102.999C77.1341 102.579 77.2881 102.039 77.2881 101.379C77.2881 100.703 77.1321 100.163 76.8201 99.7585C76.5121 99.3505 76.0521 99.1465 75.4401 99.1465C75.0201 99.1465 74.6741 99.2425 74.4021 99.4345C74.1301 99.6225 73.9281 99.8845 73.7961 100.221C73.6641 100.553 73.5981 100.939 73.5981 101.379C73.5981 102.059 73.7541 102.603 74.0661 103.011C74.3781 103.419 74.8361 103.623 75.4401 103.623ZM83.6466 104.625C83.2386 104.705 82.8386 104.739 82.4466 104.727C82.0546 104.715 81.7046 104.639 81.3966 104.499C81.0886 104.359 80.8566 104.139 80.7006 103.839C80.5606 103.571 80.4846 103.299 80.4726 103.023C80.4646 102.743 80.4606 102.427 80.4606 102.075V96.3445H81.7206V102.015C81.7206 102.275 81.7226 102.501 81.7266 102.693C81.7346 102.885 81.7766 103.047 81.8526 103.179C81.9966 103.427 82.2246 103.569 82.5366 103.605C82.8526 103.637 83.2226 103.623 83.6466 103.563V104.625ZM79.2186 99.1525V98.1445H83.6466V99.1525H79.2186ZM87.5939 104.805C86.9499 104.805 86.3839 104.665 85.8959 104.385C85.4119 104.101 85.0339 103.707 84.7619 103.203C84.4939 102.695 84.3599 102.107 84.3599 101.439C84.3599 100.731 84.4919 100.117 84.7559 99.5965C85.0239 99.0765 85.3959 98.6745 85.8719 98.3905C86.3479 98.1065 86.9019 97.9645 87.5339 97.9645C88.1939 97.9645 88.7559 98.1185 89.2199 98.4265C89.6839 98.7305 90.0299 99.1645 90.2579 99.7285C90.4899 100.293 90.5819 100.963 90.5339 101.739H89.2799V101.283C89.2719 100.531 89.1279 99.9745 88.8479 99.6145C88.5719 99.2545 88.1499 99.0745 87.5819 99.0745C86.9539 99.0745 86.4819 99.2725 86.1659 99.6685C85.8499 100.065 85.6919 100.637 85.6919 101.385C85.6919 102.097 85.8499 102.649 86.1659 103.041C86.4819 103.429 86.9379 103.623 87.5339 103.623C87.9259 103.623 88.2639 103.535 88.5479 103.359C88.8359 103.179 89.0599 102.923 89.2199 102.591L90.4499 102.981C90.1979 103.561 89.8159 104.011 89.3039 104.331C88.7919 104.647 88.2219 104.805 87.5939 104.805ZM85.2839 101.739V100.761H89.9099V101.739H85.2839ZM94.922 104.805C94.302 104.805 93.782 104.655 93.362 104.355C92.942 104.051 92.624 103.641 92.408 103.125C92.192 102.609 92.084 102.027 92.084 101.379C92.084 100.731 92.19 100.149 92.402 99.6325C92.618 99.1165 92.934 98.7105 93.35 98.4145C93.77 98.1145 94.286 97.9645 94.898 97.9645C95.506 97.9645 96.03 98.1145 96.47 98.4145C96.914 98.7105 97.256 99.1165 97.496 99.6325C97.736 100.145 97.856 100.727 97.856 101.379C97.856 102.027 97.736 102.611 97.496 103.131C97.26 103.647 96.922 104.055 96.482 104.355C96.046 104.655 95.526 104.805 94.922 104.805ZM91.874 104.625V95.9845H93.134V99.9625H92.99V104.625H91.874ZM94.748 103.671C95.148 103.671 95.478 103.569 95.738 103.365C96.002 103.161 96.198 102.887 96.326 102.543C96.458 102.195 96.524 101.807 96.524 101.379C96.524 100.955 96.458 100.571 96.326 100.227C96.198 99.8825 96 99.6085 95.732 99.4045C95.464 99.2005 95.122 99.0985 94.706 99.0985C94.314 99.0985 93.99 99.1945 93.734 99.3865C93.482 99.5785 93.294 99.8465 93.17 100.191C93.05 100.535 92.99 100.931 92.99 101.379C92.99 101.827 93.05 102.223 93.17 102.567C93.29 102.911 93.48 103.181 93.74 103.377C94 103.573 94.336 103.671 94.748 103.671ZM101.995 104.805C101.347 104.805 100.785 104.659 100.309 104.367C99.8328 104.075 99.4648 103.673 99.2048 103.161C98.9488 102.645 98.8208 102.051 98.8208 101.379C98.8208 100.703 98.9528 100.109 99.2168 99.5965C99.4808 99.0805 99.8508 98.6805 100.327 98.3965C100.803 98.1085 101.359 97.9645 101.995 97.9645C102.643 97.9645 103.205 98.1105 103.681 98.4025C104.157 98.6945 104.525 99.0965 104.785 99.6085C105.045 100.121 105.175 100.711 105.175 101.379C105.175 102.055 105.043 102.651 104.779 103.167C104.519 103.679 104.151 104.081 103.675 104.373C103.199 104.661 102.639 104.805 101.995 104.805ZM101.995 103.623C102.615 103.623 103.077 103.415 103.381 102.999C103.689 102.579 103.843 102.039 103.843 101.379C103.843 100.703 103.687 100.163 103.375 99.7585C103.067 99.3505 102.607 99.1465 101.995 99.1465C101.575 99.1465 101.229 99.2425 100.957 99.4345C100.685 99.6225 100.483 99.8845 100.351 100.221C100.219 100.553 100.153 100.939 100.153 101.379C100.153 102.059 100.309 102.603 100.621 103.011C100.933 103.419 101.391 103.623 101.995 103.623ZM109.307 104.805C108.659 104.805 108.097 104.659 107.621 104.367C107.145 104.075 106.777 103.673 106.517 103.161C106.261 102.645 106.133 102.051 106.133 101.379C106.133 100.703 106.265 100.109 106.529 99.5965C106.793 99.0805 107.163 98.6805 107.639 98.3965C108.115 98.1085 108.671 97.9645 109.307 97.9645C109.955 97.9645 110.517 98.1105 110.993 98.4025C111.469 98.6945 111.837 99.0965 112.097 99.6085C112.357 100.121 112.487 100.711 112.487 101.379C112.487 102.055 112.355 102.651 112.091 103.167C111.831 103.679 111.463 104.081 110.987 104.373C110.511 104.661 109.951 104.805 109.307 104.805ZM109.307 103.623C109.927 103.623 110.389 103.415 110.693 102.999C111.001 102.579 111.155 102.039 111.155 101.379C111.155 100.703 110.999 100.163 110.687 99.7585C110.379 99.3505 109.919 99.1465 109.307 99.1465C108.887 99.1465 108.541 99.2425 108.269 99.4345C107.997 99.6225 107.795 99.8845 107.663 100.221C107.531 100.553 107.465 100.939 107.465 101.379C107.465 102.059 107.621 102.603 107.933 103.011C108.245 103.419 108.703 103.623 109.307 103.623ZM113.8 104.625L113.806 95.9845H115.078V101.265L117.622 98.1445H119.218L116.53 101.385L119.494 104.625H117.79L115.078 101.505V104.625H113.8ZM122.46 104.799C121.672 104.799 121.03 104.625 120.534 104.277C120.038 103.929 119.734 103.439 119.622 102.807L120.906 102.609C120.986 102.945 121.17 103.211 121.458 103.407C121.75 103.599 122.112 103.695 122.544 103.695C122.936 103.695 123.242 103.615 123.462 103.455C123.686 103.295 123.798 103.075 123.798 102.795C123.798 102.631 123.758 102.499 123.678 102.399C123.602 102.295 123.44 102.197 123.192 102.105C122.944 102.013 122.566 101.899 122.058 101.763C121.502 101.619 121.06 101.465 120.732 101.301C120.408 101.133 120.176 100.939 120.036 100.719C119.9 100.495 119.832 100.225 119.832 99.9085C119.832 99.5165 119.936 99.1745 120.144 98.8825C120.352 98.5905 120.644 98.3645 121.02 98.2045C121.4 98.0445 121.844 97.9645 122.352 97.9645C122.848 97.9645 123.29 98.0425 123.678 98.1985C124.066 98.3545 124.38 98.5765 124.62 98.8645C124.86 99.1485 125.004 99.4825 125.052 99.8665L123.768 100.101C123.724 99.7885 123.578 99.5425 123.33 99.3625C123.082 99.1825 122.76 99.0845 122.364 99.0685C121.984 99.0525 121.676 99.1165 121.44 99.2605C121.204 99.4005 121.086 99.5945 121.086 99.8425C121.086 99.9865 121.13 100.109 121.218 100.209C121.31 100.309 121.486 100.405 121.746 100.497C122.006 100.589 122.39 100.699 122.898 100.827C123.442 100.967 123.874 101.123 124.194 101.295C124.514 101.463 124.742 101.665 124.878 101.901C125.018 102.133 125.088 102.415 125.088 102.747C125.088 103.387 124.854 103.889 124.386 104.253C123.922 104.617 123.28 104.799 122.46 104.799ZM83.8487 116.625L83.0087 115.785L90.8147 107.985L91.6547 108.831L83.8487 116.625ZM89.8547 116.805C89.4587 116.805 89.0967 116.709 88.7687 116.517C88.4447 116.321 88.1847 116.061 87.9887 115.737C87.7927 115.409 87.6947 115.045 87.6947 114.645C87.6947 114.253 87.7947 113.893 87.9947 113.565C88.1947 113.237 88.4587 112.975 88.7867 112.779C89.1147 112.583 89.4707 112.485 89.8547 112.485C90.2507 112.485 90.6127 112.583 90.9407 112.779C91.2687 112.971 91.5287 113.231 91.7207 113.559C91.9167 113.883 92.0147 114.245 92.0147 114.645C92.0147 115.045 91.9167 115.409 91.7207 115.737C91.5287 116.061 91.2687 116.321 90.9407 116.517C90.6127 116.709 90.2507 116.805 89.8547 116.805ZM89.8547 115.719C90.0507 115.719 90.2287 115.671 90.3887 115.575C90.5527 115.475 90.6827 115.343 90.7787 115.179C90.8787 115.015 90.9287 114.837 90.9287 114.645C90.9287 114.453 90.8787 114.275 90.7787 114.111C90.6827 113.947 90.5527 113.817 90.3887 113.721C90.2287 113.621 90.0507 113.571 89.8547 113.571C89.6627 113.571 89.4847 113.621 89.3207 113.721C89.1607 113.817 89.0307 113.947 88.9307 114.111C88.8347 114.275 88.7867 114.453 88.7867 114.645C88.7867 114.837 88.8347 115.015 88.9307 115.179C89.0307 115.343 89.1607 115.475 89.3207 115.575C89.4847 115.671 89.6627 115.719 89.8547 115.719ZM84.8087 112.125C84.4127 112.125 84.0507 112.029 83.7227 111.837C83.3947 111.641 83.1327 111.381 82.9367 111.057C82.7447 110.729 82.6487 110.365 82.6487 109.965C82.6487 109.573 82.7487 109.213 82.9487 108.885C83.1487 108.557 83.4127 108.295 83.7407 108.099C84.0687 107.903 84.4247 107.805 84.8087 107.805C85.2047 107.805 85.5647 107.903 85.8887 108.099C86.2167 108.291 86.4787 108.551 86.6747 108.879C86.8707 109.203 86.9687 109.565 86.9687 109.965C86.9687 110.365 86.8707 110.729 86.6747 111.057C86.4787 111.381 86.2167 111.641 85.8887 111.837C85.5647 112.029 85.2047 112.125 84.8087 112.125ZM84.8087 111.039C85.0007 111.039 85.1787 110.991 85.3427 110.895C85.5067 110.795 85.6367 110.663 85.7327 110.499C85.8327 110.335 85.8827 110.157 85.8827 109.965C85.8827 109.773 85.8327 109.595 85.7327 109.431C85.6367 109.267 85.5067 109.137 85.3427 109.041C85.1787 108.941 85.0007 108.891 84.8087 108.891C84.6167 108.891 84.4387 108.941 84.2747 109.041C84.1147 109.137 83.9847 109.267 83.8847 109.431C83.7847 109.595 83.7347 109.773 83.7347 109.965C83.7347 110.157 83.7847 110.335 83.8847 110.499C83.9847 110.663 84.1147 110.795 84.2747 110.895C84.4347 110.991 84.6127 111.039 84.8087 111.039ZM97.2334 116.625V115.119H93.3334V113.931L96.1414 107.985H97.5754L94.7674 113.931H97.2334V111.591H98.5054V113.931H99.3634V115.119H98.5054V116.625H97.2334ZM103.366 116.805C102.922 116.805 102.508 116.715 102.124 116.535C101.744 116.351 101.418 116.099 101.146 115.779C100.874 115.455 100.68 115.083 100.564 114.663L101.77 114.339C101.838 114.595 101.954 114.817 102.118 115.005C102.286 115.193 102.482 115.339 102.706 115.443C102.93 115.543 103.162 115.593 103.402 115.593C103.718 115.593 104.004 115.517 104.26 115.365C104.52 115.213 104.724 115.009 104.872 114.753C105.024 114.497 105.1 114.215 105.1 113.907C105.1 113.591 105.022 113.305 104.866 113.049C104.714 112.793 104.508 112.591 104.248 112.443C103.992 112.291 103.71 112.215 103.402 112.215C103.05 112.215 102.752 112.285 102.508 112.425C102.264 112.565 102.074 112.727 101.938 112.911L100.846 112.527L101.11 107.985H105.772V109.167H101.752L102.262 108.693L102.052 112.095L101.806 111.777C102.034 111.549 102.306 111.375 102.622 111.255C102.938 111.135 103.252 111.075 103.564 111.075C104.1 111.075 104.578 111.199 104.998 111.447C105.422 111.695 105.756 112.033 106 112.461C106.244 112.885 106.366 113.367 106.366 113.907C106.366 114.443 106.228 114.931 105.952 115.371C105.676 115.807 105.31 116.155 104.854 116.415C104.398 116.675 103.902 116.805 103.366 116.805Z" fill="#636E72"/>
<defs>
<filter id="filter0_d_58_35259" x="22.4575" y="19.2954" width="134.977" height="64.7603" filterUnits="userSpaceOnUse" color-interpolation-filters="sRGB">
<feFlood flood-opacity="0" result="BackgroundImageFix"/>
<feColorMatrix in="SourceAlpha" type="matrix" values="0 0 0 0 0 0 0 0 0 0 0 0 0 0 0 0 0 0 127 0" result="hardAlpha"/>
<feOffset dy="5"/>
<feGaussianBlur stdDeviation="5"/>
<feColorMatrix type="matrix" values="0 0 0 0 0 0 0 0 0 0 0 0 0 0 0 0 0 0 0.15 0"/>
<feBlend mode="normal" in2="BackgroundImageFix" result="effect1_dropShadow_58_35259"/>
<feBlend mode="normal" in="SourceGraphic" in2="effect1_dropShadow_58_35259" result="shape"/>
</filter>
</defs>
</svg>
