<svg width="20" height="20" viewBox="0 0 20 20" fill="none" xmlns="http://www.w3.org/2000/svg">
<path d="M4.29864 9.57519C4.23741 10.7385 4.3078 11.9768 3.26844 12.7563C2.7847 13.1192 2.5 13.6886 2.5 14.2932C2.5 15.125 3.1515 15.8327 4 15.8327H16C16.8485 15.8327 17.5 15.125 17.5 14.2932C17.5 13.6886 17.2153 13.1192 16.7316 12.7563C15.6922 11.9768 15.7626 10.7385 15.7014 9.5752C15.5418 6.54287 13.0365 4.16602 10 4.16602C6.96348 4.16602 4.45824 6.54287 4.29864 9.57519Z" stroke="#43454C" stroke-linecap="round" stroke-linejoin="round"/>
<path d="M8.75 2.60352C8.75 3.29387 9.30964 4.16602 10 4.16602C10.6904 4.16602 11.25 3.29387 11.25 2.60352C11.25 1.91316 10.6904 1.66602 10 1.66602C9.30964 1.66602 8.75 1.91316 8.75 2.60352Z" stroke="#43454C"/>
<path d="M12.5 15.832C12.5 17.2127 11.3807 18.332 10 18.332C8.61929 18.332 7.5 17.2127 7.5 15.832" stroke="#43454C" stroke-linecap="round" stroke-linejoin="round"/>
</svg>
