<svg width="1057" height="314" viewBox="0 0 1057 314" fill="none" xmlns="http://www.w3.org/2000/svg">
<path d="M3.765 13.18C3.317 13.18 2.903 13.088 2.523 12.904C2.143 12.72 1.819 12.466 1.551 12.142C1.283 11.818 1.091 11.446 0.975 11.026L1.821 10.798C1.897 11.11 2.035 11.38 2.235 11.608C2.435 11.832 2.669 12.006 2.937 12.13C3.209 12.254 3.493 12.316 3.789 12.316C4.173 12.316 4.517 12.224 4.821 12.04C5.129 11.852 5.373 11.604 5.553 11.296C5.733 10.988 5.823 10.65 5.823 10.282C5.823 9.902 5.729 9.56 5.541 9.256C5.353 8.948 5.105 8.704 4.797 8.524C4.489 8.344 4.153 8.254 3.789 8.254C3.381 8.254 3.029 8.344 2.733 8.524C2.437 8.7 2.201 8.922 2.025 9.19L1.221 8.854L1.485 4.36H6.099V5.206H1.875L2.313 4.792L2.079 8.626L1.857 8.332C2.105 8.048 2.405 7.826 2.757 7.666C3.109 7.506 3.479 7.426 3.867 7.426C4.399 7.426 4.879 7.554 5.307 7.81C5.735 8.062 6.075 8.404 6.327 8.836C6.579 9.268 6.705 9.75 6.705 10.282C6.705 10.81 6.571 11.294 6.303 11.734C6.035 12.17 5.679 12.52 5.235 12.784C4.791 13.048 4.301 13.18 3.765 13.18ZM10.9608 13.18C10.4288 13.18 9.94878 13.056 9.52078 12.808C9.09678 12.56 8.76078 12.224 8.51278 11.8C8.26478 11.372 8.14078 10.892 8.14078 10.36V7C8.14078 6.468 8.26478 5.99 8.51278 5.566C8.76078 5.138 9.09678 4.8 9.52078 4.552C9.94878 4.304 10.4288 4.18 10.9608 4.18C11.4928 4.18 11.9708 4.304 12.3948 4.552C12.8228 4.8 13.1608 5.138 13.4088 5.566C13.6568 5.99 13.7808 6.468 13.7808 7V10.36C13.7808 10.892 13.6568 11.372 13.4088 11.8C13.1608 12.224 12.8228 12.56 12.3948 12.808C11.9708 13.056 11.4928 13.18 10.9608 13.18ZM10.9608 12.328C11.3168 12.328 11.6408 12.242 11.9328 12.07C12.2248 11.894 12.4568 11.66 12.6288 11.368C12.8008 11.076 12.8868 10.754 12.8868 10.402V6.958C12.8868 6.602 12.8008 6.278 12.6288 5.986C12.4568 5.694 12.2248 5.462 11.9328 5.29C11.6408 5.114 11.3168 5.026 10.9608 5.026C10.6048 5.026 10.2808 5.114 9.98878 5.29C9.69678 5.462 9.46478 5.694 9.29278 5.986C9.12078 6.278 9.03478 6.602 9.03478 6.958V10.402C9.03478 10.754 9.12078 11.076 9.29278 11.368C9.46478 11.66 9.69678 11.894 9.98878 12.07C10.2808 12.242 10.6048 12.328 10.9608 12.328Z" fill="#43454C"/>
<path d="M4.94283 67.8008V66.1268H0.898828V65.2868L3.79083 59.1608H4.78083L1.88883 65.2868H4.94283V62.7668H5.83083V65.2868H6.77283V66.1268H5.83083V67.8008H4.94283ZM11.037 67.9808C10.505 67.9808 10.025 67.8568 9.59695 67.6088C9.17295 67.3608 8.83695 67.0248 8.58895 66.6008C8.34095 66.1728 8.21695 65.6928 8.21695 65.1608V61.8008C8.21695 61.2688 8.34095 60.7908 8.58895 60.3668C8.83695 59.9388 9.17295 59.6008 9.59695 59.3528C10.025 59.1048 10.505 58.9808 11.037 58.9808C11.569 58.9808 12.047 59.1048 12.471 59.3528C12.899 59.6008 13.237 59.9388 13.485 60.3668C13.733 60.7908 13.857 61.2688 13.857 61.8008V65.1608C13.857 65.6928 13.733 66.1728 13.485 66.6008C13.237 67.0248 12.899 67.3608 12.471 67.6088C12.047 67.8568 11.569 67.9808 11.037 67.9808ZM11.037 67.1288C11.393 67.1288 11.717 67.0428 12.009 66.8708C12.301 66.6948 12.533 66.4608 12.705 66.1688C12.877 65.8768 12.963 65.5548 12.963 65.2028V61.7588C12.963 61.4028 12.877 61.0788 12.705 60.7868C12.533 60.4948 12.301 60.2628 12.009 60.0908C11.717 59.9148 11.393 59.8268 11.037 59.8268C10.681 59.8268 10.357 59.9148 10.065 60.0908C9.77295 60.2628 9.54095 60.4948 9.36895 60.7868C9.19695 61.0788 9.11095 61.4028 9.11095 61.7588V65.2028C9.11095 65.5548 9.19695 65.8768 9.36895 66.1688C9.54095 66.4608 9.77295 66.6948 10.065 66.8708C10.357 67.0428 10.681 67.1288 11.037 67.1288Z" fill="#43454C"/>
<path d="M4.18348 122.774C3.75548 122.774 3.36148 122.698 3.00148 122.546C2.64148 122.394 2.33148 122.178 2.07148 121.898C1.81148 121.614 1.62148 121.276 1.50148 120.884L2.34148 120.632C2.48548 121.06 2.72148 121.384 3.04948 121.604C3.38148 121.824 3.75548 121.93 4.17148 121.922C4.55548 121.914 4.88548 121.828 5.16148 121.664C5.44148 121.5 5.65548 121.272 5.80348 120.98C5.95148 120.688 6.02548 120.35 6.02548 119.966C6.02548 119.378 5.85348 118.906 5.50948 118.55C5.16948 118.19 4.71948 118.01 4.15948 118.01C4.00348 118.01 3.83948 118.032 3.66748 118.076C3.49548 118.116 3.33548 118.174 3.18748 118.25L2.74348 117.548L6.10348 114.446L6.24748 114.806H1.84348V113.96H6.83548V114.818L3.90748 117.614L3.89548 117.266C4.49548 117.19 5.02348 117.258 5.47948 117.47C5.93548 117.682 6.29148 118.006 6.54748 118.442C6.80748 118.874 6.93748 119.382 6.93748 119.966C6.93748 120.518 6.81748 121.006 6.57748 121.43C6.34148 121.85 6.01548 122.18 5.59948 122.42C5.18348 122.656 4.71148 122.774 4.18348 122.774ZM11.3143 122.78C10.7823 122.78 10.3023 122.656 9.8743 122.408C9.4503 122.16 9.1143 121.824 8.8663 121.4C8.6183 120.972 8.4943 120.492 8.4943 119.96V116.6C8.4943 116.068 8.6183 115.59 8.8663 115.166C9.1143 114.738 9.4503 114.4 9.8743 114.152C10.3023 113.904 10.7823 113.78 11.3143 113.78C11.8463 113.78 12.3243 113.904 12.7483 114.152C13.1763 114.4 13.5143 114.738 13.7623 115.166C14.0103 115.59 14.1343 116.068 14.1343 116.6V119.96C14.1343 120.492 14.0103 120.972 13.7623 121.4C13.5143 121.824 13.1763 122.16 12.7483 122.408C12.3243 122.656 11.8463 122.78 11.3143 122.78ZM11.3143 121.928C11.6703 121.928 11.9943 121.842 12.2863 121.67C12.5783 121.494 12.8103 121.26 12.9823 120.968C13.1543 120.676 13.2403 120.354 13.2403 120.002V116.558C13.2403 116.202 13.1543 115.878 12.9823 115.586C12.8103 115.294 12.5783 115.062 12.2863 114.89C11.9943 114.714 11.6703 114.626 11.3143 114.626C10.9583 114.626 10.6343 114.714 10.3423 114.89C10.0503 115.062 9.8183 115.294 9.6463 115.586C9.4743 115.878 9.3883 116.202 9.3883 116.558V120.002C9.3883 120.354 9.4743 120.676 9.6463 120.968C9.8183 121.26 10.0503 121.494 10.3423 121.67C10.6343 121.842 10.9583 121.928 11.3143 121.928Z" fill="#43454C"/>
<path d="M1.01602 177.394L1.02202 176.59L4.92802 173.062C5.26402 172.758 5.48602 172.47 5.59402 172.198C5.70602 171.922 5.76202 171.634 5.76202 171.334C5.76202 170.978 5.67802 170.656 5.51002 170.368C5.34202 170.08 5.11602 169.852 4.83202 169.684C4.54802 169.512 4.23002 169.426 3.87802 169.426C3.51002 169.426 3.18202 169.514 2.89402 169.69C2.60602 169.866 2.37802 170.098 2.21002 170.386C2.04602 170.674 1.96602 170.988 1.97002 171.328H1.07002C1.07002 170.804 1.19402 170.334 1.44202 169.918C1.69002 169.502 2.02602 169.176 2.45002 168.94C2.87402 168.7 3.35402 168.58 3.89002 168.58C4.41402 168.58 4.88402 168.704 5.30002 168.952C5.72002 169.196 6.05002 169.528 6.29002 169.948C6.53402 170.364 6.65602 170.828 6.65602 171.34C6.65602 171.7 6.61202 172.018 6.52402 172.294C6.44002 172.566 6.30602 172.82 6.12202 173.056C5.94202 173.288 5.71202 173.528 5.43202 173.776L1.96402 176.908L1.82602 176.548H6.65602V177.394H1.01602ZM10.9198 177.58C10.3878 177.58 9.90777 177.456 9.47977 177.208C9.05577 176.96 8.71977 176.624 8.47177 176.2C8.22377 175.772 8.09977 175.292 8.09977 174.76V171.4C8.09977 170.868 8.22377 170.39 8.47177 169.966C8.71977 169.538 9.05577 169.2 9.47977 168.952C9.90777 168.704 10.3878 168.58 10.9198 168.58C11.4518 168.58 11.9298 168.704 12.3538 168.952C12.7818 169.2 13.1198 169.538 13.3678 169.966C13.6158 170.39 13.7398 170.868 13.7398 171.4V174.76C13.7398 175.292 13.6158 175.772 13.3678 176.2C13.1198 176.624 12.7818 176.96 12.3538 177.208C11.9298 177.456 11.4518 177.58 10.9198 177.58ZM10.9198 176.728C11.2758 176.728 11.5998 176.642 11.8918 176.47C12.1838 176.294 12.4158 176.06 12.5878 175.768C12.7598 175.476 12.8458 175.154 12.8458 174.802V171.358C12.8458 171.002 12.7598 170.678 12.5878 170.386C12.4158 170.094 12.1838 169.862 11.8918 169.69C11.5998 169.514 11.2758 169.426 10.9198 169.426C10.5638 169.426 10.2398 169.514 9.94777 169.69C9.65577 169.862 9.42377 170.094 9.25177 170.386C9.07977 170.678 8.99377 171.002 8.99377 171.358V174.802C8.99377 175.154 9.07977 175.476 9.25177 175.768C9.42377 176.06 9.65577 176.294 9.94777 176.47C10.2398 176.642 10.5638 176.728 10.9198 176.728Z" fill="#43454C"/>
<path d="M5.346 232.199V224.543L3.72 225.521V224.531L5.346 223.559H6.24V232.199H5.346ZM11.3358 232.379C10.8038 232.379 10.3238 232.255 9.89578 232.007C9.47178 231.759 9.13578 231.423 8.88778 230.999C8.63978 230.571 8.51578 230.091 8.51578 229.559V226.199C8.51578 225.667 8.63978 225.189 8.88778 224.765C9.13578 224.337 9.47178 223.999 9.89578 223.751C10.3238 223.503 10.8038 223.379 11.3358 223.379C11.8678 223.379 12.3458 223.503 12.7698 223.751C13.1978 223.999 13.5358 224.337 13.7838 224.765C14.0318 225.189 14.1558 225.667 14.1558 226.199V229.559C14.1558 230.091 14.0318 230.571 13.7838 230.999C13.5358 231.423 13.1978 231.759 12.7698 232.007C12.3458 232.255 11.8678 232.379 11.3358 232.379ZM11.3358 231.527C11.6918 231.527 12.0158 231.441 12.3078 231.269C12.5998 231.093 12.8318 230.859 13.0038 230.567C13.1758 230.275 13.2618 229.953 13.2618 229.601V226.157C13.2618 225.801 13.1758 225.477 13.0038 225.185C12.8318 224.893 12.5998 224.661 12.3078 224.489C12.0158 224.313 11.6918 224.225 11.3358 224.225C10.9798 224.225 10.6558 224.313 10.3638 224.489C10.0718 224.661 9.83978 224.893 9.66778 225.185C9.49578 225.477 9.40978 225.801 9.40978 226.157V229.601C9.40978 229.953 9.49578 230.275 9.66778 230.567C9.83978 230.859 10.0718 231.093 10.3638 231.269C10.6558 231.441 10.9798 231.527 11.3358 231.527Z" fill="#43454C"/>
<path d="M10.9979 287.18C10.4659 287.18 9.98589 287.056 9.55789 286.808C9.13389 286.56 8.79789 286.224 8.54989 285.8C8.30189 285.372 8.17789 284.892 8.17789 284.36V281C8.17789 280.468 8.30189 279.99 8.54989 279.566C8.79789 279.138 9.13389 278.8 9.55789 278.552C9.98589 278.304 10.4659 278.18 10.9979 278.18C11.5299 278.18 12.0079 278.304 12.4319 278.552C12.8599 278.8 13.1979 279.138 13.4459 279.566C13.6939 279.99 13.8179 280.468 13.8179 281V284.36C13.8179 284.892 13.6939 285.372 13.4459 285.8C13.1979 286.224 12.8599 286.56 12.4319 286.808C12.0079 287.056 11.5299 287.18 10.9979 287.18ZM10.9979 286.328C11.3539 286.328 11.6779 286.242 11.9699 286.07C12.2619 285.894 12.4939 285.66 12.6659 285.368C12.8379 285.076 12.9239 284.754 12.9239 284.402V280.958C12.9239 280.602 12.8379 280.278 12.6659 279.986C12.4939 279.694 12.2619 279.462 11.9699 279.29C11.6779 279.114 11.3539 279.026 10.9979 279.026C10.6419 279.026 10.3179 279.114 10.0259 279.29C9.73389 279.462 9.50189 279.694 9.32989 279.986C9.15789 280.278 9.07189 280.602 9.07189 280.958V284.402C9.07189 284.754 9.15789 285.076 9.32989 285.368C9.50189 285.66 9.73389 285.894 10.0259 286.07C10.3179 286.242 10.6419 286.328 10.9979 286.328Z" fill="#43454C"/>
<path d="M31 7H1056" stroke="#E4E5E8"/>
<path d="M31 62.4004H1056" stroke="#E4E5E8"/>
<path d="M31 117.801H1056" stroke="#E4E5E8"/>
<path d="M31 173.199H1056" stroke="#E4E5E8"/>
<path d="M31 228.6H1056" stroke="#E4E5E8"/>
<path d="M31 284H1056" stroke="#E4E5E8"/>
<path d="M1056 138C1020.86 138 1032.78 142.994 993.461 142.994C914.171 142.994 911.952 138 816.597 138C763.755 138 754.657 143.834 702.829 142.994C657.247 142.256 675.352 142.994 594.974 142.994C499.842 142.994 513.465 150 369.222 150C291.622 150 367.283 150 253.296 150C175.763 150 138.855 150 31 150" stroke="#5D3FD3" stroke-width="2" stroke-linecap="round"/>
<path d="M31 242C54.5632 242 70.5978 239.746 90.7496 234.49C152.182 218.469 142.984 228.273 227.921 219.971C337.443 209.267 315.442 210.459 394.547 198.944C473.652 187.429 464.599 190.933 540.975 190.933C617.352 190.933 598.662 192.215 678.147 184.425C757.053 176.691 773.703 176.915 840.565 176.915C917.433 176.915 965.113 153.164 1056 158.891" stroke="#08A730" stroke-width="2" stroke-linecap="round"/>
<path d="M1056 268.41C1038.37 268.41 1036.72 268.41 997.25 268.41C917.647 268.41 930.682 255 834.951 255C781.901 255 753.773 268.962 701.741 268.052C655.98 267.251 674.157 250 593.463 250C497.956 250 515.365 276 370.553 276C292.648 276 334.689 257 220.254 257C142.416 257 139.279 276 31 276" stroke="#007AFF" stroke-width="2" stroke-linecap="round"/>
<g clip-path="url(#clip0_379_80941)">
<path d="M33.316 311.174C32.74 311.174 32.246 311.014 31.834 310.694C31.422 310.374 31.144 309.946 31 309.41L31.882 309.2C31.954 309.516 32.12 309.784 32.38 310.004C32.644 310.22 32.954 310.328 33.31 310.328C33.534 310.328 33.76 310.274 33.988 310.166C34.22 310.058 34.402 309.88 34.534 309.632C34.622 309.46 34.672 309.274 34.684 309.074C34.7 308.87 34.708 308.626 34.708 308.342V302.36H35.596V308.342C35.596 308.582 35.594 308.8 35.59 308.996C35.586 309.188 35.564 309.374 35.524 309.554C35.488 309.73 35.418 309.908 35.314 310.088C35.106 310.452 34.826 310.724 34.474 310.904C34.126 311.084 33.74 311.174 33.316 311.174ZM39.2604 311.18C38.7724 311.18 38.3624 311.092 38.0304 310.916C37.7024 310.74 37.4564 310.506 37.2924 310.214C37.1284 309.922 37.0464 309.604 37.0464 309.26C37.0464 308.908 37.1164 308.608 37.2564 308.36C37.4004 308.108 37.5944 307.902 37.8384 307.742C38.0864 307.582 38.3724 307.46 38.6964 307.376C39.0244 307.296 39.3864 307.226 39.7824 307.166C40.1824 307.102 40.5724 307.048 40.9524 307.004C41.3364 306.956 41.6724 306.91 41.9604 306.866L41.6484 307.058C41.6604 306.418 41.5364 305.944 41.2764 305.636C41.0164 305.328 40.5644 305.174 39.9204 305.174C39.4764 305.174 39.1004 305.274 38.7924 305.474C38.4884 305.674 38.2744 305.99 38.1504 306.422L37.2924 306.17C37.4404 305.59 37.7384 305.14 38.1864 304.82C38.6344 304.5 39.2164 304.34 39.9324 304.34C40.5244 304.34 41.0264 304.452 41.4384 304.676C41.8544 304.896 42.1484 305.216 42.3204 305.636C42.4004 305.824 42.4524 306.034 42.4764 306.266C42.5004 306.498 42.5124 306.734 42.5124 306.974V311H41.7264V309.374L41.9544 309.47C41.7344 310.026 41.3924 310.45 40.9284 310.742C40.4644 311.034 39.9084 311.18 39.2604 311.18ZM39.3624 310.418C39.7744 310.418 40.1344 310.344 40.4424 310.196C40.7504 310.048 40.9984 309.846 41.1864 309.59C41.3744 309.33 41.4964 309.038 41.5524 308.714C41.6004 308.506 41.6264 308.278 41.6304 308.03C41.6344 307.778 41.6364 307.59 41.6364 307.466L41.9724 307.64C41.6724 307.68 41.3464 307.72 40.9944 307.76C40.6464 307.8 40.3024 307.846 39.9624 307.898C39.6264 307.95 39.3224 308.012 39.0504 308.084C38.8664 308.136 38.6884 308.21 38.5164 308.306C38.3444 308.398 38.2024 308.522 38.0904 308.678C37.9824 308.834 37.9284 309.028 37.9284 309.26C37.9284 309.448 37.9744 309.63 38.0664 309.806C38.1624 309.982 38.3144 310.128 38.5224 310.244C38.7344 310.36 39.0144 310.418 39.3624 310.418ZM48.7544 311V307.694C48.7544 307.334 48.7204 307.004 48.6524 306.704C48.5844 306.4 48.4744 306.136 48.3224 305.912C48.1744 305.684 47.9804 305.508 47.7404 305.384C47.5044 305.26 47.2164 305.198 46.8764 305.198C46.5644 305.198 46.2884 305.252 46.0484 305.36C45.8124 305.468 45.6124 305.624 45.4484 305.828C45.2884 306.028 45.1664 306.272 45.0824 306.56C44.9984 306.848 44.9564 307.176 44.9564 307.544L44.3324 307.406C44.3324 306.742 44.4484 306.184 44.6804 305.732C44.9124 305.28 45.2324 304.938 45.6404 304.706C46.0484 304.474 46.5164 304.358 47.0444 304.358C47.4324 304.358 47.7704 304.418 48.0584 304.538C48.3504 304.658 48.5964 304.82 48.7964 305.024C49.0004 305.228 49.1644 305.462 49.2884 305.726C49.4124 305.986 49.5024 306.264 49.5584 306.56C49.6144 306.852 49.6424 307.144 49.6424 307.436V311H48.7544ZM44.0684 311V304.52H44.8664V306.116H44.9564V311H44.0684Z" fill="#43454C"/>
<path d="M122.299 311V302.36H127.261V303.242H123.181V306.242H126.541V307.118H123.181V311H122.299ZM130.912 311.18C130.28 311.18 129.732 311.04 129.268 310.76C128.808 310.48 128.45 310.086 128.194 309.578C127.938 309.07 127.81 308.474 127.81 307.79C127.81 307.082 127.936 306.47 128.188 305.954C128.44 305.438 128.794 305.04 129.25 304.76C129.71 304.48 130.252 304.34 130.876 304.34C131.516 304.34 132.062 304.488 132.514 304.784C132.966 305.076 133.308 305.496 133.54 306.044C133.772 306.592 133.878 307.246 133.858 308.006H132.958V307.694C132.942 306.854 132.76 306.22 132.412 305.792C132.068 305.364 131.564 305.15 130.9 305.15C130.204 305.15 129.67 305.376 129.298 305.828C128.93 306.28 128.746 306.924 128.746 307.76C128.746 308.576 128.93 309.21 129.298 309.662C129.67 310.11 130.196 310.334 130.876 310.334C131.34 310.334 131.744 310.228 132.088 310.016C132.436 309.8 132.71 309.49 132.91 309.086L133.732 309.404C133.476 309.968 133.098 310.406 132.598 310.718C132.102 311.026 131.54 311.18 130.912 311.18ZM128.434 308.006V307.268H133.384V308.006H128.434ZM138.1 311.18C137.504 311.18 137 311.03 136.588 310.73C136.176 310.426 135.864 310.016 135.652 309.5C135.44 308.98 135.334 308.398 135.334 307.754C135.334 307.098 135.44 306.514 135.652 306.002C135.868 305.486 136.184 305.08 136.6 304.784C137.016 304.488 137.528 304.34 138.136 304.34C138.728 304.34 139.236 304.49 139.66 304.79C140.084 305.09 140.408 305.498 140.632 306.014C140.86 306.53 140.974 307.11 140.974 307.754C140.974 308.402 140.86 308.984 140.632 309.5C140.404 310.016 140.076 310.426 139.648 310.73C139.22 311.03 138.704 311.18 138.1 311.18ZM135.184 311V302.36H136.072V306.122H135.976V311H135.184ZM138.01 310.358C138.462 310.358 138.838 310.244 139.138 310.016C139.438 309.788 139.662 309.478 139.81 309.086C139.962 308.69 140.038 308.246 140.038 307.754C140.038 307.266 139.964 306.826 139.816 306.434C139.668 306.042 139.442 305.732 139.138 305.504C138.838 305.276 138.456 305.162 137.992 305.162C137.54 305.162 137.164 305.272 136.864 305.492C136.568 305.712 136.346 306.018 136.198 306.41C136.05 306.798 135.976 307.246 135.976 307.754C135.976 308.254 136.05 308.702 136.198 309.098C136.346 309.49 136.57 309.798 136.87 310.022C137.17 310.246 137.55 310.358 138.01 310.358Z" fill="#43454C"/>
<path d="M213.207 311V302.36H214.017L217.413 309.626L220.791 302.36H221.613V310.994H220.773V304.328L217.695 311H217.125L214.053 304.328V311H213.207ZM225.151 311.18C224.663 311.18 224.253 311.092 223.921 310.916C223.593 310.74 223.347 310.506 223.183 310.214C223.019 309.922 222.937 309.604 222.937 309.26C222.937 308.908 223.007 308.608 223.147 308.36C223.291 308.108 223.485 307.902 223.729 307.742C223.977 307.582 224.263 307.46 224.587 307.376C224.915 307.296 225.277 307.226 225.673 307.166C226.073 307.102 226.463 307.048 226.843 307.004C227.227 306.956 227.563 306.91 227.851 306.866L227.539 307.058C227.551 306.418 227.427 305.944 227.167 305.636C226.907 305.328 226.455 305.174 225.811 305.174C225.367 305.174 224.991 305.274 224.683 305.474C224.379 305.674 224.165 305.99 224.041 306.422L223.183 306.17C223.331 305.59 223.629 305.14 224.077 304.82C224.525 304.5 225.107 304.34 225.823 304.34C226.415 304.34 226.917 304.452 227.329 304.676C227.745 304.896 228.039 305.216 228.211 305.636C228.291 305.824 228.343 306.034 228.367 306.266C228.391 306.498 228.403 306.734 228.403 306.974V311H227.617V309.374L227.845 309.47C227.625 310.026 227.283 310.45 226.819 310.742C226.355 311.034 225.799 311.18 225.151 311.18ZM225.253 310.418C225.665 310.418 226.025 310.344 226.333 310.196C226.641 310.048 226.889 309.846 227.077 309.59C227.265 309.33 227.387 309.038 227.443 308.714C227.491 308.506 227.517 308.278 227.521 308.03C227.525 307.778 227.527 307.59 227.527 307.466L227.863 307.64C227.563 307.68 227.237 307.72 226.885 307.76C226.537 307.8 226.193 307.846 225.853 307.898C225.517 307.95 225.213 308.012 224.941 308.084C224.757 308.136 224.579 308.21 224.407 308.306C224.235 308.398 224.093 308.522 223.981 308.678C223.873 308.834 223.819 309.028 223.819 309.26C223.819 309.448 223.865 309.63 223.957 309.806C224.053 309.982 224.205 310.128 224.413 310.244C224.625 310.36 224.905 310.418 225.253 310.418ZM229.965 311V304.52H230.757V306.08L230.601 305.876C230.673 305.684 230.767 305.508 230.883 305.348C230.999 305.184 231.125 305.05 231.261 304.946C231.429 304.798 231.625 304.686 231.849 304.61C232.073 304.53 232.299 304.484 232.527 304.472C232.755 304.456 232.963 304.472 233.151 304.52V305.348C232.915 305.288 232.657 305.274 232.377 305.306C232.097 305.338 231.839 305.45 231.603 305.642C231.387 305.81 231.225 306.012 231.117 306.248C231.009 306.48 230.937 306.728 230.901 306.992C230.865 307.252 230.847 307.51 230.847 307.766V311H229.965Z" fill="#43454C"/>
<path d="M305.088 311L308.064 302.36H309.234L312.21 311H311.292L308.466 302.852H308.814L306.006 311H305.088ZM306.414 308.906V308.078H310.878V308.906H306.414ZM316.203 311.18C315.607 311.18 315.103 311.03 314.691 310.73C314.279 310.426 313.967 310.016 313.755 309.5C313.543 308.98 313.437 308.398 313.437 307.754C313.437 307.098 313.543 306.514 313.755 306.002C313.971 305.486 314.287 305.08 314.703 304.784C315.119 304.488 315.631 304.34 316.239 304.34C316.831 304.34 317.339 304.49 317.763 304.79C318.187 305.09 318.511 305.498 318.735 306.014C318.963 306.53 319.077 307.11 319.077 307.754C319.077 308.402 318.963 308.984 318.735 309.5C318.507 310.016 318.179 310.426 317.751 310.73C317.323 311.03 316.807 311.18 316.203 311.18ZM313.287 313.88V304.52H314.079V309.398H314.175V313.88H313.287ZM316.113 310.358C316.565 310.358 316.941 310.244 317.241 310.016C317.541 309.788 317.765 309.478 317.913 309.086C318.065 308.69 318.141 308.246 318.141 307.754C318.141 307.266 318.067 306.826 317.919 306.434C317.771 306.042 317.545 305.732 317.241 305.504C316.941 305.276 316.559 305.162 316.095 305.162C315.643 305.162 315.267 305.272 314.967 305.492C314.671 305.712 314.449 306.018 314.301 306.41C314.153 306.798 314.079 307.246 314.079 307.754C314.079 308.254 314.153 308.702 314.301 309.098C314.449 309.49 314.673 309.798 314.973 310.022C315.273 310.246 315.653 310.358 316.113 310.358ZM320.395 311V304.52H321.187V306.08L321.031 305.876C321.103 305.684 321.197 305.508 321.313 305.348C321.429 305.184 321.555 305.05 321.691 304.946C321.859 304.798 322.055 304.686 322.279 304.61C322.503 304.53 322.729 304.484 322.957 304.472C323.185 304.456 323.393 304.472 323.581 304.52V305.348C323.345 305.288 323.087 305.274 322.807 305.306C322.527 305.338 322.269 305.45 322.033 305.642C321.817 305.81 321.655 306.012 321.547 306.248C321.439 306.48 321.367 306.728 321.331 306.992C321.295 307.252 321.277 307.51 321.277 307.766V311H320.395Z" fill="#43454C"/>
<path d="M395.797 311V302.36H396.607L400.003 309.626L403.381 302.36H404.203V310.994H403.363V304.328L400.285 311H399.715L396.643 304.328V311H395.797ZM407.741 311.18C407.253 311.18 406.843 311.092 406.511 310.916C406.183 310.74 405.937 310.506 405.773 310.214C405.609 309.922 405.527 309.604 405.527 309.26C405.527 308.908 405.597 308.608 405.737 308.36C405.881 308.108 406.075 307.902 406.319 307.742C406.567 307.582 406.853 307.46 407.177 307.376C407.505 307.296 407.867 307.226 408.263 307.166C408.663 307.102 409.053 307.048 409.433 307.004C409.817 306.956 410.153 306.91 410.441 306.866L410.129 307.058C410.141 306.418 410.017 305.944 409.757 305.636C409.497 305.328 409.045 305.174 408.401 305.174C407.957 305.174 407.581 305.274 407.273 305.474C406.969 305.674 406.755 305.99 406.631 306.422L405.773 306.17C405.921 305.59 406.219 305.14 406.667 304.82C407.115 304.5 407.697 304.34 408.413 304.34C409.005 304.34 409.507 304.452 409.919 304.676C410.335 304.896 410.629 305.216 410.801 305.636C410.881 305.824 410.933 306.034 410.957 306.266C410.981 306.498 410.993 306.734 410.993 306.974V311H410.207V309.374L410.435 309.47C410.215 310.026 409.873 310.45 409.409 310.742C408.945 311.034 408.389 311.18 407.741 311.18ZM407.843 310.418C408.255 310.418 408.615 310.344 408.923 310.196C409.231 310.048 409.479 309.846 409.667 309.59C409.855 309.33 409.977 309.038 410.033 308.714C410.081 308.506 410.107 308.278 410.111 308.03C410.115 307.778 410.117 307.59 410.117 307.466L410.453 307.64C410.153 307.68 409.827 307.72 409.475 307.76C409.127 307.8 408.783 307.846 408.443 307.898C408.107 307.95 407.803 308.012 407.531 308.084C407.347 308.136 407.169 308.21 406.997 308.306C406.825 308.398 406.683 308.522 406.571 308.678C406.463 308.834 406.409 309.028 406.409 309.26C406.409 309.448 406.455 309.63 406.547 309.806C406.643 309.982 406.795 310.128 407.003 310.244C407.215 310.36 407.495 310.418 407.843 310.418ZM413.116 313.88L414.37 310.478L414.388 311.486L411.55 304.52H412.486L414.814 310.346H414.43L416.578 304.52H417.478L413.998 313.88H413.116Z" fill="#43454C"/>
<path d="M490.681 311.174C490.105 311.174 489.611 311.014 489.199 310.694C488.787 310.374 488.509 309.946 488.365 309.41L489.247 309.2C489.319 309.516 489.485 309.784 489.745 310.004C490.009 310.22 490.319 310.328 490.675 310.328C490.899 310.328 491.125 310.274 491.353 310.166C491.585 310.058 491.767 309.88 491.899 309.632C491.987 309.46 492.037 309.274 492.049 309.074C492.065 308.87 492.073 308.626 492.073 308.342V302.36H492.961V308.342C492.961 308.582 492.959 308.8 492.955 308.996C492.951 309.188 492.929 309.374 492.889 309.554C492.853 309.73 492.783 309.908 492.679 310.088C492.471 310.452 492.191 310.724 491.839 310.904C491.491 311.084 491.105 311.174 490.681 311.174ZM497.25 311.162C496.862 311.162 496.522 311.102 496.23 310.982C495.942 310.862 495.696 310.7 495.492 310.496C495.292 310.292 495.13 310.06 495.006 309.8C494.882 309.536 494.792 309.258 494.736 308.966C494.68 308.67 494.652 308.376 494.652 308.084V304.52H495.54V307.826C495.54 308.182 495.574 308.512 495.642 308.816C495.71 309.12 495.818 309.386 495.966 309.614C496.118 309.838 496.312 310.012 496.548 310.136C496.788 310.26 497.078 310.322 497.418 310.322C497.73 310.322 498.004 310.268 498.24 310.16C498.48 310.052 498.68 309.898 498.84 309.698C499.004 309.494 499.128 309.248 499.212 308.96C499.296 308.668 499.338 308.34 499.338 307.976L499.962 308.114C499.962 308.778 499.846 309.336 499.614 309.788C499.382 310.24 499.062 310.582 498.654 310.814C498.246 311.046 497.778 311.162 497.25 311.162ZM499.428 311V309.404H499.338V304.52H500.22V311H499.428ZM506.577 311V307.694C506.577 307.334 506.543 307.004 506.475 306.704C506.407 306.4 506.297 306.136 506.145 305.912C505.997 305.684 505.803 305.508 505.563 305.384C505.327 305.26 505.039 305.198 504.699 305.198C504.387 305.198 504.111 305.252 503.871 305.36C503.635 305.468 503.435 305.624 503.271 305.828C503.111 306.028 502.989 306.272 502.905 306.56C502.821 306.848 502.779 307.176 502.779 307.544L502.155 307.406C502.155 306.742 502.271 306.184 502.503 305.732C502.735 305.28 503.055 304.938 503.463 304.706C503.871 304.474 504.339 304.358 504.867 304.358C505.255 304.358 505.593 304.418 505.881 304.538C506.173 304.658 506.419 304.82 506.619 305.024C506.823 305.228 506.987 305.462 507.111 305.726C507.235 305.986 507.325 306.264 507.381 306.56C507.437 306.852 507.465 307.144 507.465 307.436V311H506.577ZM501.891 311V304.52H502.689V306.116H502.779V311H501.891Z" fill="#43454C"/>
<path d="M581.296 311.174C580.72 311.174 580.226 311.014 579.814 310.694C579.402 310.374 579.124 309.946 578.98 309.41L579.862 309.2C579.934 309.516 580.1 309.784 580.36 310.004C580.624 310.22 580.934 310.328 581.29 310.328C581.514 310.328 581.74 310.274 581.968 310.166C582.2 310.058 582.382 309.88 582.514 309.632C582.602 309.46 582.652 309.274 582.664 309.074C582.68 308.87 582.688 308.626 582.688 308.342V302.36H583.576V308.342C583.576 308.582 583.574 308.8 583.57 308.996C583.566 309.188 583.544 309.374 583.504 309.554C583.468 309.73 583.398 309.908 583.294 310.088C583.086 310.452 582.806 310.724 582.454 310.904C582.106 311.084 581.72 311.174 581.296 311.174ZM587.865 311.162C587.477 311.162 587.137 311.102 586.845 310.982C586.557 310.862 586.311 310.7 586.107 310.496C585.907 310.292 585.745 310.06 585.621 309.8C585.497 309.536 585.407 309.258 585.351 308.966C585.295 308.67 585.267 308.376 585.267 308.084V304.52H586.155V307.826C586.155 308.182 586.189 308.512 586.257 308.816C586.325 309.12 586.433 309.386 586.581 309.614C586.733 309.838 586.927 310.012 587.163 310.136C587.403 310.26 587.693 310.322 588.033 310.322C588.345 310.322 588.619 310.268 588.855 310.16C589.095 310.052 589.295 309.898 589.455 309.698C589.619 309.494 589.743 309.248 589.827 308.96C589.911 308.668 589.953 308.34 589.953 307.976L590.577 308.114C590.577 308.778 590.461 309.336 590.229 309.788C589.997 310.24 589.677 310.582 589.269 310.814C588.861 311.046 588.393 311.162 587.865 311.162ZM590.043 311V309.404H589.953V304.52H590.835V311H590.043ZM592.632 311V302.18H593.514V311H592.632Z" fill="#43454C"/>
<path d="M665.506 311L668.482 302.36H669.652L672.628 311H671.71L668.884 302.852H669.232L666.424 311H665.506ZM666.832 308.906V308.078H671.296V308.906H666.832ZM676.189 311.162C675.801 311.162 675.461 311.102 675.169 310.982C674.881 310.862 674.635 310.7 674.431 310.496C674.231 310.292 674.069 310.06 673.945 309.8C673.821 309.536 673.731 309.258 673.675 308.966C673.619 308.67 673.591 308.376 673.591 308.084V304.52H674.479V307.826C674.479 308.182 674.513 308.512 674.581 308.816C674.649 309.12 674.757 309.386 674.905 309.614C675.057 309.838 675.251 310.012 675.487 310.136C675.727 310.26 676.017 310.322 676.357 310.322C676.669 310.322 676.943 310.268 677.179 310.16C677.419 310.052 677.619 309.898 677.779 309.698C677.943 309.494 678.067 309.248 678.151 308.96C678.235 308.668 678.277 308.34 678.277 307.976L678.901 308.114C678.901 308.778 678.785 309.336 678.553 309.788C678.321 310.24 678.001 310.582 677.593 310.814C677.185 311.046 676.717 311.162 676.189 311.162ZM678.367 311V309.404H678.277V304.52H679.159V311H678.367ZM683.41 314.06C683.078 314.06 682.75 314.01 682.426 313.91C682.106 313.814 681.81 313.66 681.538 313.448C681.266 313.24 681.038 312.968 680.854 312.632L681.652 312.188C681.832 312.548 682.084 312.806 682.408 312.962C682.736 313.122 683.07 313.202 683.41 313.202C683.878 313.202 684.256 313.114 684.544 312.938C684.836 312.766 685.048 312.51 685.18 312.17C685.312 311.83 685.376 311.406 685.372 310.898V309.17H685.474V304.52H686.26V310.91C686.26 311.094 686.254 311.27 686.242 311.438C686.234 311.61 686.216 311.778 686.188 311.942C686.112 312.426 685.954 312.824 685.714 313.136C685.478 313.448 685.166 313.68 684.778 313.832C684.394 313.984 683.938 314.06 683.41 314.06ZM683.35 311.18C682.746 311.18 682.23 311.03 681.802 310.73C681.374 310.426 681.046 310.016 680.818 309.5C680.59 308.984 680.476 308.402 680.476 307.754C680.476 307.11 680.588 306.53 680.812 306.014C681.04 305.498 681.366 305.09 681.79 304.79C682.214 304.49 682.722 304.34 683.314 304.34C683.922 304.34 684.434 304.488 684.85 304.784C685.266 305.08 685.58 305.486 685.792 306.002C686.008 306.514 686.116 307.098 686.116 307.754C686.116 308.398 686.01 308.98 685.798 309.5C685.586 310.016 685.274 310.426 684.862 310.73C684.45 311.03 683.946 311.18 683.35 311.18ZM683.44 310.358C683.9 310.358 684.28 310.246 684.58 310.022C684.88 309.798 685.104 309.49 685.252 309.098C685.4 308.702 685.474 308.254 685.474 307.754C685.474 307.246 685.4 306.798 685.252 306.41C685.104 306.018 684.88 305.712 684.58 305.492C684.284 305.272 683.91 305.162 683.458 305.162C682.994 305.162 682.61 305.276 682.306 305.504C682.002 305.732 681.776 306.042 681.628 306.434C681.484 306.826 681.412 307.266 681.412 307.754C681.412 308.246 681.486 308.69 681.634 309.086C681.786 309.478 682.012 309.788 682.312 310.016C682.612 310.244 682.988 310.358 683.44 310.358Z" fill="#43454C"/>
<path d="M761.807 311.18C761.203 311.18 760.659 311.08 760.175 310.88C759.695 310.676 759.297 310.388 758.981 310.016C758.669 309.644 758.465 309.202 758.369 308.69L759.269 308.54C759.413 309.1 759.717 309.54 760.181 309.86C760.645 310.176 761.199 310.334 761.843 310.334C762.267 310.334 762.647 310.268 762.983 310.136C763.319 310 763.583 309.808 763.775 309.56C763.967 309.312 764.063 309.018 764.063 308.678C764.063 308.454 764.023 308.264 763.943 308.108C763.863 307.948 763.757 307.816 763.625 307.712C763.493 307.608 763.349 307.522 763.193 307.454C763.037 307.382 762.885 307.324 762.737 307.28L760.547 306.626C760.283 306.55 760.039 306.454 759.815 306.338C759.591 306.218 759.395 306.076 759.227 305.912C759.063 305.744 758.935 305.548 758.843 305.324C758.751 305.1 758.705 304.844 758.705 304.556C758.705 304.068 758.833 303.646 759.089 303.29C759.345 302.934 759.695 302.66 760.139 302.468C760.583 302.276 761.089 302.182 761.657 302.186C762.233 302.186 762.747 302.288 763.199 302.492C763.655 302.696 764.031 302.988 764.327 303.368C764.623 303.744 764.819 304.19 764.915 304.706L763.991 304.874C763.931 304.498 763.793 304.172 763.577 303.896C763.361 303.62 763.085 303.408 762.749 303.26C762.417 303.108 762.051 303.03 761.651 303.026C761.263 303.026 760.917 303.092 760.613 303.224C760.313 303.352 760.075 303.528 759.899 303.752C759.723 303.976 759.635 304.232 759.635 304.52C759.635 304.812 759.715 305.046 759.875 305.222C760.039 305.398 760.239 305.536 760.475 305.636C760.715 305.736 760.947 305.818 761.171 305.882L762.863 306.38C763.039 306.428 763.245 306.498 763.481 306.59C763.721 306.678 763.953 306.806 764.177 306.974C764.405 307.138 764.593 307.354 764.741 307.622C764.889 307.89 764.963 308.23 764.963 308.642C764.963 309.042 764.883 309.4 764.723 309.716C764.567 310.032 764.345 310.298 764.057 310.514C763.773 310.73 763.439 310.894 763.055 311.006C762.675 311.122 762.259 311.18 761.807 311.18ZM768.943 311.18C768.311 311.18 767.763 311.04 767.299 310.76C766.839 310.48 766.481 310.086 766.225 309.578C765.969 309.07 765.841 308.474 765.841 307.79C765.841 307.082 765.967 306.47 766.219 305.954C766.471 305.438 766.825 305.04 767.281 304.76C767.741 304.48 768.283 304.34 768.907 304.34C769.547 304.34 770.093 304.488 770.545 304.784C770.997 305.076 771.339 305.496 771.571 306.044C771.803 306.592 771.909 307.246 771.889 308.006H770.989V307.694C770.973 306.854 770.791 306.22 770.443 305.792C770.099 305.364 769.595 305.15 768.931 305.15C768.235 305.15 767.701 305.376 767.329 305.828C766.961 306.28 766.777 306.924 766.777 307.76C766.777 308.576 766.961 309.21 767.329 309.662C767.701 310.11 768.227 310.334 768.907 310.334C769.371 310.334 769.775 310.228 770.119 310.016C770.467 309.8 770.741 309.49 770.941 309.086L771.763 309.404C771.507 309.968 771.129 310.406 770.629 310.718C770.133 311.026 769.571 311.18 768.943 311.18ZM766.465 308.006V307.268H771.415V308.006H766.465ZM775.955 311.18C775.359 311.18 774.855 311.03 774.443 310.73C774.031 310.426 773.719 310.016 773.507 309.5C773.295 308.98 773.189 308.398 773.189 307.754C773.189 307.098 773.295 306.514 773.507 306.002C773.723 305.486 774.039 305.08 774.455 304.784C774.871 304.488 775.383 304.34 775.991 304.34C776.583 304.34 777.091 304.49 777.515 304.79C777.939 305.09 778.263 305.498 778.487 306.014C778.715 306.53 778.829 307.11 778.829 307.754C778.829 308.402 778.715 308.984 778.487 309.5C778.259 310.016 777.931 310.426 777.503 310.73C777.075 311.03 776.559 311.18 775.955 311.18ZM773.039 313.88V304.52H773.831V309.398H773.927V313.88H773.039ZM775.865 310.358C776.317 310.358 776.693 310.244 776.993 310.016C777.293 309.788 777.517 309.478 777.665 309.086C777.817 308.69 777.893 308.246 777.893 307.754C777.893 307.266 777.819 306.826 777.671 306.434C777.523 306.042 777.297 305.732 776.993 305.504C776.693 305.276 776.311 305.162 775.847 305.162C775.395 305.162 775.019 305.272 774.719 305.492C774.423 305.712 774.201 306.018 774.053 306.41C773.905 306.798 773.831 307.246 773.831 307.754C773.831 308.254 773.905 308.702 774.053 309.098C774.201 309.49 774.425 309.798 774.725 310.022C775.025 310.246 775.405 310.358 775.865 310.358Z" fill="#43454C"/>
<path d="M854.861 311.18C854.001 311.18 853.275 310.99 852.683 310.61C852.091 310.226 851.643 309.696 851.339 309.02C851.035 308.344 850.883 307.564 850.883 306.68C850.883 305.796 851.035 305.016 851.339 304.34C851.643 303.664 852.091 303.136 852.683 302.756C853.275 302.372 854.001 302.18 854.861 302.18C855.725 302.18 856.451 302.372 857.039 302.756C857.631 303.136 858.079 303.664 858.383 304.34C858.691 305.016 858.845 305.796 858.845 306.68C858.845 307.564 858.691 308.344 858.383 309.02C858.079 309.696 857.631 310.226 857.039 310.61C856.451 310.99 855.725 311.18 854.861 311.18ZM854.861 310.334C855.537 310.334 856.101 310.18 856.553 309.872C857.005 309.564 857.343 309.136 857.567 308.588C857.795 308.036 857.909 307.4 857.909 306.68C857.909 305.96 857.795 305.326 857.567 304.778C857.343 304.23 857.005 303.802 856.553 303.494C856.101 303.186 855.537 303.03 854.861 303.026C854.185 303.026 853.623 303.18 853.175 303.488C852.727 303.796 852.389 304.226 852.161 304.778C851.937 305.326 851.823 305.96 851.819 306.68C851.815 307.4 851.925 308.034 852.149 308.582C852.377 309.126 852.717 309.554 853.169 309.866C853.621 310.174 854.185 310.33 854.861 310.334ZM862.735 311.18C862.083 311.18 861.531 311.034 861.079 310.742C860.627 310.45 860.283 310.048 860.047 309.536C859.815 309.02 859.695 308.428 859.687 307.76C859.695 307.08 859.819 306.484 860.059 305.972C860.299 305.456 860.645 305.056 861.097 304.772C861.549 304.484 862.097 304.34 862.741 304.34C863.397 304.34 863.967 304.5 864.451 304.82C864.939 305.14 865.273 305.578 865.453 306.134L864.589 306.41C864.437 306.022 864.195 305.722 863.863 305.51C863.535 305.294 863.159 305.186 862.735 305.186C862.259 305.186 861.865 305.296 861.553 305.516C861.241 305.732 861.009 306.034 860.857 306.422C860.705 306.81 860.627 307.256 860.623 307.76C860.631 308.536 860.811 309.16 861.163 309.632C861.515 310.1 862.039 310.334 862.735 310.334C863.175 310.334 863.549 310.234 863.857 310.034C864.169 309.83 864.405 309.534 864.565 309.146L865.453 309.41C865.213 309.986 864.861 310.426 864.397 310.73C863.933 311.03 863.379 311.18 862.735 311.18ZM870.22 311C869.856 311.076 869.496 311.106 869.14 311.09C868.788 311.074 868.472 310.998 868.192 310.862C867.916 310.726 867.706 310.514 867.562 310.226C867.446 309.986 867.382 309.744 867.37 309.5C867.362 309.252 867.358 308.97 867.358 308.654V302.72H868.234V308.618C868.234 308.89 868.236 309.118 868.24 309.302C868.248 309.482 868.29 309.642 868.366 309.782C868.51 310.05 868.738 310.21 869.05 310.262C869.366 310.314 869.756 310.302 870.22 310.226V311ZM865.972 305.276V304.52H870.22V305.276H865.972Z" fill="#43454C"/>
<path d="M942.797 311V302.36H943.685L948.443 309.44V302.36H949.331V311H948.443L943.685 303.914V311H942.797ZM953.718 311.18C953.074 311.18 952.524 311.034 952.068 310.742C951.612 310.45 951.262 310.046 951.018 309.53C950.774 309.014 950.652 308.422 950.652 307.754C950.652 307.074 950.776 306.478 951.024 305.966C951.272 305.454 951.624 305.056 952.08 304.772C952.54 304.484 953.086 304.34 953.718 304.34C954.366 304.34 954.918 304.486 955.374 304.778C955.834 305.066 956.184 305.468 956.424 305.984C956.668 306.496 956.79 307.086 956.79 307.754C956.79 308.434 956.668 309.032 956.424 309.548C956.18 310.06 955.828 310.46 955.368 310.748C954.908 311.036 954.358 311.18 953.718 311.18ZM953.718 310.334C954.438 310.334 954.974 310.096 955.326 309.62C955.678 309.14 955.854 308.518 955.854 307.754C955.854 306.97 955.676 306.346 955.32 305.882C954.968 305.418 954.434 305.186 953.718 305.186C953.234 305.186 952.834 305.296 952.518 305.516C952.206 305.732 951.972 306.034 951.816 306.422C951.664 306.806 951.588 307.25 951.588 307.754C951.588 308.534 951.768 309.16 952.128 309.632C952.488 310.1 953.018 310.334 953.718 310.334ZM959.631 311L957.279 304.52H958.173L960.087 309.848L961.989 304.52H962.895L960.543 311H959.631Z" fill="#43454C"/>
<path d="M1034.98 311V302.36H1037.6C1037.69 302.36 1037.85 302.362 1038.07 302.366C1038.29 302.37 1038.5 302.386 1038.71 302.414C1039.36 302.506 1039.91 302.75 1040.35 303.146C1040.79 303.542 1041.12 304.046 1041.34 304.658C1041.56 305.27 1041.67 305.944 1041.67 306.68C1041.67 307.416 1041.56 308.09 1041.34 308.702C1041.12 309.314 1040.79 309.818 1040.35 310.214C1039.91 310.61 1039.36 310.854 1038.71 310.946C1038.51 310.97 1038.29 310.986 1038.07 310.994C1037.84 310.998 1037.68 311 1037.6 311H1034.98ZM1035.89 310.154H1037.6C1037.76 310.154 1037.94 310.15 1038.13 310.142C1038.32 310.13 1038.48 310.11 1038.62 310.082C1039.12 309.994 1039.53 309.79 1039.84 309.47C1040.15 309.15 1040.38 308.75 1040.52 308.27C1040.66 307.786 1040.74 307.256 1040.74 306.68C1040.74 306.1 1040.66 305.568 1040.52 305.084C1040.38 304.6 1040.15 304.2 1039.84 303.884C1039.52 303.568 1039.12 303.366 1038.62 303.278C1038.48 303.25 1038.32 303.232 1038.12 303.224C1037.93 303.212 1037.75 303.206 1037.6 303.206H1035.89V310.154ZM1045.78 311.18C1045.15 311.18 1044.6 311.04 1044.14 310.76C1043.68 310.48 1043.32 310.086 1043.06 309.578C1042.81 309.07 1042.68 308.474 1042.68 307.79C1042.68 307.082 1042.81 306.47 1043.06 305.954C1043.31 305.438 1043.66 305.04 1044.12 304.76C1044.58 304.48 1045.12 304.34 1045.75 304.34C1046.39 304.34 1046.93 304.488 1047.38 304.784C1047.84 305.076 1048.18 305.496 1048.41 306.044C1048.64 306.592 1048.75 307.246 1048.73 308.006H1047.83V307.694C1047.81 306.854 1047.63 306.22 1047.28 305.792C1046.94 305.364 1046.43 305.15 1045.77 305.15C1045.07 305.15 1044.54 305.376 1044.17 305.828C1043.8 306.28 1043.62 306.924 1043.62 307.76C1043.62 308.576 1043.8 309.21 1044.17 309.662C1044.54 310.11 1045.07 310.334 1045.75 310.334C1046.21 310.334 1046.61 310.228 1046.96 310.016C1047.31 309.8 1047.58 309.49 1047.78 309.086L1048.6 309.404C1048.35 309.968 1047.97 310.406 1047.47 310.718C1046.97 311.026 1046.41 311.18 1045.78 311.18ZM1043.3 308.006V307.268H1048.25V308.006H1043.3ZM1052.75 311.18C1052.09 311.18 1051.54 311.034 1051.09 310.742C1050.64 310.45 1050.29 310.048 1050.06 309.536C1049.83 309.02 1049.71 308.428 1049.7 307.76C1049.71 307.08 1049.83 306.484 1050.07 305.972C1050.31 305.456 1050.66 305.056 1051.11 304.772C1051.56 304.484 1052.11 304.34 1052.75 304.34C1053.41 304.34 1053.98 304.5 1054.46 304.82C1054.95 305.14 1055.28 305.578 1055.46 306.134L1054.6 306.41C1054.45 306.022 1054.21 305.722 1053.87 305.51C1053.55 305.294 1053.17 305.186 1052.75 305.186C1052.27 305.186 1051.88 305.296 1051.56 305.516C1051.25 305.732 1051.02 306.034 1050.87 306.422C1050.72 306.81 1050.64 307.256 1050.63 307.76C1050.64 308.536 1050.82 309.16 1051.17 309.632C1051.53 310.1 1052.05 310.334 1052.75 310.334C1053.19 310.334 1053.56 310.234 1053.87 310.034C1054.18 309.83 1054.42 309.534 1054.58 309.146L1055.46 309.41C1055.22 309.986 1054.87 310.426 1054.41 310.73C1053.94 311.03 1053.39 311.18 1052.75 311.18Z" fill="#43454C"/>
</g>
<defs>
<clipPath id="clip0_379_80941">
<rect width="1025" height="16" fill="white" transform="translate(31 298)"/>
</clipPath>
</defs>
</svg>
