<svg width="1105" height="314" viewBox="0 0 1105 314" fill="none" xmlns="http://www.w3.org/2000/svg">
<path d="M3.765 13.18C3.317 13.18 2.903 13.088 2.523 12.904C2.143 12.72 1.819 12.466 1.551 12.142C1.283 11.818 1.091 11.446 0.975 11.026L1.821 10.798C1.897 11.11 2.035 11.38 2.235 11.608C2.435 11.832 2.669 12.006 2.937 12.13C3.209 12.254 3.493 12.316 3.789 12.316C4.173 12.316 4.517 12.224 4.821 12.04C5.129 11.852 5.373 11.604 5.553 11.296C5.733 10.988 5.823 10.65 5.823 10.282C5.823 9.902 5.729 9.56 5.541 9.256C5.353 8.948 5.105 8.704 4.797 8.524C4.489 8.344 4.153 8.254 3.789 8.254C3.381 8.254 3.029 8.344 2.733 8.524C2.437 8.7 2.201 8.922 2.025 9.19L1.221 8.854L1.485 4.36H6.099V5.206H1.875L2.313 4.792L2.079 8.626L1.857 8.332C2.105 8.048 2.405 7.826 2.757 7.666C3.109 7.506 3.479 7.426 3.867 7.426C4.399 7.426 4.879 7.554 5.307 7.81C5.735 8.062 6.075 8.404 6.327 8.836C6.579 9.268 6.705 9.75 6.705 10.282C6.705 10.81 6.571 11.294 6.303 11.734C6.035 12.17 5.679 12.52 5.235 12.784C4.791 13.048 4.301 13.18 3.765 13.18ZM10.9608 13.18C10.4288 13.18 9.94878 13.056 9.52078 12.808C9.09678 12.56 8.76078 12.224 8.51278 11.8C8.26478 11.372 8.14078 10.892 8.14078 10.36V7C8.14078 6.468 8.26478 5.99 8.51278 5.566C8.76078 5.138 9.09678 4.8 9.52078 4.552C9.94878 4.304 10.4288 4.18 10.9608 4.18C11.4928 4.18 11.9708 4.304 12.3948 4.552C12.8228 4.8 13.1608 5.138 13.4088 5.566C13.6568 5.99 13.7808 6.468 13.7808 7V10.36C13.7808 10.892 13.6568 11.372 13.4088 11.8C13.1608 12.224 12.8228 12.56 12.3948 12.808C11.9708 13.056 11.4928 13.18 10.9608 13.18ZM10.9608 12.328C11.3168 12.328 11.6408 12.242 11.9328 12.07C12.2248 11.894 12.4568 11.66 12.6288 11.368C12.8008 11.076 12.8868 10.754 12.8868 10.402V6.958C12.8868 6.602 12.8008 6.278 12.6288 5.986C12.4568 5.694 12.2248 5.462 11.9328 5.29C11.6408 5.114 11.3168 5.026 10.9608 5.026C10.6048 5.026 10.2808 5.114 9.98878 5.29C9.69678 5.462 9.46478 5.694 9.29278 5.986C9.12078 6.278 9.03478 6.602 9.03478 6.958V10.402C9.03478 10.754 9.12078 11.076 9.29278 11.368C9.46478 11.66 9.69678 11.894 9.98878 12.07C10.2808 12.242 10.6048 12.328 10.9608 12.328Z" fill="#43454C"/>
<path d="M4.94283 67.8008V66.1268H0.898828V65.2868L3.79083 59.1608H4.78083L1.88883 65.2868H4.94283V62.7668H5.83083V65.2868H6.77283V66.1268H5.83083V67.8008H4.94283ZM11.037 67.9808C10.505 67.9808 10.025 67.8568 9.59695 67.6088C9.17295 67.3608 8.83695 67.0248 8.58895 66.6008C8.34095 66.1728 8.21695 65.6928 8.21695 65.1608V61.8008C8.21695 61.2688 8.34095 60.7908 8.58895 60.3668C8.83695 59.9388 9.17295 59.6008 9.59695 59.3528C10.025 59.1048 10.505 58.9808 11.037 58.9808C11.569 58.9808 12.047 59.1048 12.471 59.3528C12.899 59.6008 13.237 59.9388 13.485 60.3668C13.733 60.7908 13.857 61.2688 13.857 61.8008V65.1608C13.857 65.6928 13.733 66.1728 13.485 66.6008C13.237 67.0248 12.899 67.3608 12.471 67.6088C12.047 67.8568 11.569 67.9808 11.037 67.9808ZM11.037 67.1288C11.393 67.1288 11.717 67.0428 12.009 66.8708C12.301 66.6948 12.533 66.4608 12.705 66.1688C12.877 65.8768 12.963 65.5548 12.963 65.2028V61.7588C12.963 61.4028 12.877 61.0788 12.705 60.7868C12.533 60.4948 12.301 60.2628 12.009 60.0908C11.717 59.9148 11.393 59.8268 11.037 59.8268C10.681 59.8268 10.357 59.9148 10.065 60.0908C9.77295 60.2628 9.54095 60.4948 9.36895 60.7868C9.19695 61.0788 9.11095 61.4028 9.11095 61.7588V65.2028C9.11095 65.5548 9.19695 65.8768 9.36895 66.1688C9.54095 66.4608 9.77295 66.6948 10.065 66.8708C10.357 67.0428 10.681 67.1288 11.037 67.1288Z" fill="#43454C"/>
<path d="M4.18348 122.774C3.75548 122.774 3.36148 122.698 3.00148 122.546C2.64148 122.394 2.33148 122.178 2.07148 121.898C1.81148 121.614 1.62148 121.276 1.50148 120.884L2.34148 120.632C2.48548 121.06 2.72148 121.384 3.04948 121.604C3.38148 121.824 3.75548 121.93 4.17148 121.922C4.55548 121.914 4.88548 121.828 5.16148 121.664C5.44148 121.5 5.65548 121.272 5.80348 120.98C5.95148 120.688 6.02548 120.35 6.02548 119.966C6.02548 119.378 5.85348 118.906 5.50948 118.55C5.16948 118.19 4.71948 118.01 4.15948 118.01C4.00348 118.01 3.83948 118.032 3.66748 118.076C3.49548 118.116 3.33548 118.174 3.18748 118.25L2.74348 117.548L6.10348 114.446L6.24748 114.806H1.84348V113.96H6.83548V114.818L3.90748 117.614L3.89548 117.266C4.49548 117.19 5.02348 117.258 5.47948 117.47C5.93548 117.682 6.29148 118.006 6.54748 118.442C6.80748 118.874 6.93748 119.382 6.93748 119.966C6.93748 120.518 6.81748 121.006 6.57748 121.43C6.34148 121.85 6.01548 122.18 5.59948 122.42C5.18348 122.656 4.71148 122.774 4.18348 122.774ZM11.3143 122.78C10.7823 122.78 10.3023 122.656 9.8743 122.408C9.4503 122.16 9.1143 121.824 8.8663 121.4C8.6183 120.972 8.4943 120.492 8.4943 119.96V116.6C8.4943 116.068 8.6183 115.59 8.8663 115.166C9.1143 114.738 9.4503 114.4 9.8743 114.152C10.3023 113.904 10.7823 113.78 11.3143 113.78C11.8463 113.78 12.3243 113.904 12.7483 114.152C13.1763 114.4 13.5143 114.738 13.7623 115.166C14.0103 115.59 14.1343 116.068 14.1343 116.6V119.96C14.1343 120.492 14.0103 120.972 13.7623 121.4C13.5143 121.824 13.1763 122.16 12.7483 122.408C12.3243 122.656 11.8463 122.78 11.3143 122.78ZM11.3143 121.928C11.6703 121.928 11.9943 121.842 12.2863 121.67C12.5783 121.494 12.8103 121.26 12.9823 120.968C13.1543 120.676 13.2403 120.354 13.2403 120.002V116.558C13.2403 116.202 13.1543 115.878 12.9823 115.586C12.8103 115.294 12.5783 115.062 12.2863 114.89C11.9943 114.714 11.6703 114.626 11.3143 114.626C10.9583 114.626 10.6343 114.714 10.3423 114.89C10.0503 115.062 9.8183 115.294 9.6463 115.586C9.4743 115.878 9.3883 116.202 9.3883 116.558V120.002C9.3883 120.354 9.4743 120.676 9.6463 120.968C9.8183 121.26 10.0503 121.494 10.3423 121.67C10.6343 121.842 10.9583 121.928 11.3143 121.928Z" fill="#43454C"/>
<path d="M1.01602 177.394L1.02202 176.59L4.92802 173.062C5.26402 172.758 5.48602 172.47 5.59402 172.198C5.70602 171.922 5.76202 171.634 5.76202 171.334C5.76202 170.978 5.67802 170.656 5.51002 170.368C5.34202 170.08 5.11602 169.852 4.83202 169.684C4.54802 169.512 4.23002 169.426 3.87802 169.426C3.51002 169.426 3.18202 169.514 2.89402 169.69C2.60602 169.866 2.37802 170.098 2.21002 170.386C2.04602 170.674 1.96602 170.988 1.97002 171.328H1.07002C1.07002 170.804 1.19402 170.334 1.44202 169.918C1.69002 169.502 2.02602 169.176 2.45002 168.94C2.87402 168.7 3.35402 168.58 3.89002 168.58C4.41402 168.58 4.88402 168.704 5.30002 168.952C5.72002 169.196 6.05002 169.528 6.29002 169.948C6.53402 170.364 6.65602 170.828 6.65602 171.34C6.65602 171.7 6.61202 172.018 6.52402 172.294C6.44002 172.566 6.30602 172.82 6.12202 173.056C5.94202 173.288 5.71202 173.528 5.43202 173.776L1.96402 176.908L1.82602 176.548H6.65602V177.394H1.01602ZM10.9198 177.58C10.3878 177.58 9.90777 177.456 9.47977 177.208C9.05577 176.96 8.71977 176.624 8.47177 176.2C8.22377 175.772 8.09977 175.292 8.09977 174.76V171.4C8.09977 170.868 8.22377 170.39 8.47177 169.966C8.71977 169.538 9.05577 169.2 9.47977 168.952C9.90777 168.704 10.3878 168.58 10.9198 168.58C11.4518 168.58 11.9298 168.704 12.3538 168.952C12.7818 169.2 13.1198 169.538 13.3678 169.966C13.6158 170.39 13.7398 170.868 13.7398 171.4V174.76C13.7398 175.292 13.6158 175.772 13.3678 176.2C13.1198 176.624 12.7818 176.96 12.3538 177.208C11.9298 177.456 11.4518 177.58 10.9198 177.58ZM10.9198 176.728C11.2758 176.728 11.5998 176.642 11.8918 176.47C12.1838 176.294 12.4158 176.06 12.5878 175.768C12.7598 175.476 12.8458 175.154 12.8458 174.802V171.358C12.8458 171.002 12.7598 170.678 12.5878 170.386C12.4158 170.094 12.1838 169.862 11.8918 169.69C11.5998 169.514 11.2758 169.426 10.9198 169.426C10.5638 169.426 10.2398 169.514 9.94777 169.69C9.65577 169.862 9.42377 170.094 9.25177 170.386C9.07977 170.678 8.99377 171.002 8.99377 171.358V174.802C8.99377 175.154 9.07977 175.476 9.25177 175.768C9.42377 176.06 9.65577 176.294 9.94777 176.47C10.2398 176.642 10.5638 176.728 10.9198 176.728Z" fill="#43454C"/>
<path d="M5.346 232.199V224.543L3.72 225.521V224.531L5.346 223.559H6.24V232.199H5.346ZM11.3358 232.379C10.8038 232.379 10.3238 232.255 9.89578 232.007C9.47178 231.759 9.13578 231.423 8.88778 230.999C8.63978 230.571 8.51578 230.091 8.51578 229.559V226.199C8.51578 225.667 8.63978 225.189 8.88778 224.765C9.13578 224.337 9.47178 223.999 9.89578 223.751C10.3238 223.503 10.8038 223.379 11.3358 223.379C11.8678 223.379 12.3458 223.503 12.7698 223.751C13.1978 223.999 13.5358 224.337 13.7838 224.765C14.0318 225.189 14.1558 225.667 14.1558 226.199V229.559C14.1558 230.091 14.0318 230.571 13.7838 230.999C13.5358 231.423 13.1978 231.759 12.7698 232.007C12.3458 232.255 11.8678 232.379 11.3358 232.379ZM11.3358 231.527C11.6918 231.527 12.0158 231.441 12.3078 231.269C12.5998 231.093 12.8318 230.859 13.0038 230.567C13.1758 230.275 13.2618 229.953 13.2618 229.601V226.157C13.2618 225.801 13.1758 225.477 13.0038 225.185C12.8318 224.893 12.5998 224.661 12.3078 224.489C12.0158 224.313 11.6918 224.225 11.3358 224.225C10.9798 224.225 10.6558 224.313 10.3638 224.489C10.0718 224.661 9.83978 224.893 9.66778 225.185C9.49578 225.477 9.40978 225.801 9.40978 226.157V229.601C9.40978 229.953 9.49578 230.275 9.66778 230.567C9.83978 230.859 10.0718 231.093 10.3638 231.269C10.6558 231.441 10.9798 231.527 11.3358 231.527Z" fill="#43454C"/>
<path d="M10.9979 287.18C10.4659 287.18 9.98589 287.056 9.55789 286.808C9.13389 286.56 8.79789 286.224 8.54989 285.8C8.30189 285.372 8.17789 284.892 8.17789 284.36V281C8.17789 280.468 8.30189 279.99 8.54989 279.566C8.79789 279.138 9.13389 278.8 9.55789 278.552C9.98589 278.304 10.4659 278.18 10.9979 278.18C11.5299 278.18 12.0079 278.304 12.4319 278.552C12.8599 278.8 13.1979 279.138 13.4459 279.566C13.6939 279.99 13.8179 280.468 13.8179 281V284.36C13.8179 284.892 13.6939 285.372 13.4459 285.8C13.1979 286.224 12.8599 286.56 12.4319 286.808C12.0079 287.056 11.5299 287.18 10.9979 287.18ZM10.9979 286.328C11.3539 286.328 11.6779 286.242 11.9699 286.07C12.2619 285.894 12.4939 285.66 12.6659 285.368C12.8379 285.076 12.9239 284.754 12.9239 284.402V280.958C12.9239 280.602 12.8379 280.278 12.6659 279.986C12.4939 279.694 12.2619 279.462 11.9699 279.29C11.6779 279.114 11.3539 279.026 10.9979 279.026C10.6419 279.026 10.3179 279.114 10.0259 279.29C9.73389 279.462 9.50189 279.694 9.32989 279.986C9.15789 280.278 9.07189 280.602 9.07189 280.958V284.402C9.07189 284.754 9.15789 285.076 9.32989 285.368C9.50189 285.66 9.73389 285.894 10.0259 286.07C10.3179 286.242 10.6419 286.328 10.9979 286.328Z" fill="#43454C"/>
<path d="M31 7H1104" stroke="#E4E5E8"/>
<path d="M31 62.4004H1104" stroke="#E4E5E8"/>
<path d="M31 117.801H1104" stroke="#E4E5E8"/>
<path d="M31 173.199H1104" stroke="#E4E5E8"/>
<path d="M31 228.6H1104" stroke="#E4E5E8"/>
<path d="M31 284H1104" stroke="#E4E5E8"/>
<path d="M31 276C55.6667 276 72.4522 273.746 93.5476 268.49C157.857 252.469 148.228 262.273 237.143 253.971C351.793 243.267 328.762 244.459 411.571 232.944C494.381 221.429 484.904 224.933 564.857 224.933C644.81 224.933 625.246 226.215 708.452 218.425C791.053 210.691 808.483 210.915 878.476 210.915C958.945 210.915 1008.86 187.164 1104 192.891" stroke="#007AFF" stroke-width="2" stroke-linecap="round"/>
<g clip-path="url(#clip0_397_97485)">
<path d="M33.316 311.174C32.74 311.174 32.246 311.014 31.834 310.694C31.422 310.374 31.144 309.946 31 309.41L31.882 309.2C31.954 309.516 32.12 309.784 32.38 310.004C32.644 310.22 32.954 310.328 33.31 310.328C33.534 310.328 33.76 310.274 33.988 310.166C34.22 310.058 34.402 309.88 34.534 309.632C34.622 309.46 34.672 309.274 34.684 309.074C34.7 308.87 34.708 308.626 34.708 308.342V302.36H35.596V308.342C35.596 308.582 35.594 308.8 35.59 308.996C35.586 309.188 35.564 309.374 35.524 309.554C35.488 309.73 35.418 309.908 35.314 310.088C35.106 310.452 34.826 310.724 34.474 310.904C34.126 311.084 33.74 311.174 33.316 311.174ZM39.2604 311.18C38.7724 311.18 38.3624 311.092 38.0304 310.916C37.7024 310.74 37.4564 310.506 37.2924 310.214C37.1284 309.922 37.0464 309.604 37.0464 309.26C37.0464 308.908 37.1164 308.608 37.2564 308.36C37.4004 308.108 37.5944 307.902 37.8384 307.742C38.0864 307.582 38.3724 307.46 38.6964 307.376C39.0244 307.296 39.3864 307.226 39.7824 307.166C40.1824 307.102 40.5724 307.048 40.9524 307.004C41.3364 306.956 41.6724 306.91 41.9604 306.866L41.6484 307.058C41.6604 306.418 41.5364 305.944 41.2764 305.636C41.0164 305.328 40.5644 305.174 39.9204 305.174C39.4764 305.174 39.1004 305.274 38.7924 305.474C38.4884 305.674 38.2744 305.99 38.1504 306.422L37.2924 306.17C37.4404 305.59 37.7384 305.14 38.1864 304.82C38.6344 304.5 39.2164 304.34 39.9324 304.34C40.5244 304.34 41.0264 304.452 41.4384 304.676C41.8544 304.896 42.1484 305.216 42.3204 305.636C42.4004 305.824 42.4524 306.034 42.4764 306.266C42.5004 306.498 42.5124 306.734 42.5124 306.974V311H41.7264V309.374L41.9544 309.47C41.7344 310.026 41.3924 310.45 40.9284 310.742C40.4644 311.034 39.9084 311.18 39.2604 311.18ZM39.3624 310.418C39.7744 310.418 40.1344 310.344 40.4424 310.196C40.7504 310.048 40.9984 309.846 41.1864 309.59C41.3744 309.33 41.4964 309.038 41.5524 308.714C41.6004 308.506 41.6264 308.278 41.6304 308.03C41.6344 307.778 41.6364 307.59 41.6364 307.466L41.9724 307.64C41.6724 307.68 41.3464 307.72 40.9944 307.76C40.6464 307.8 40.3024 307.846 39.9624 307.898C39.6264 307.95 39.3224 308.012 39.0504 308.084C38.8664 308.136 38.6884 308.21 38.5164 308.306C38.3444 308.398 38.2024 308.522 38.0904 308.678C37.9824 308.834 37.9284 309.028 37.9284 309.26C37.9284 309.448 37.9744 309.63 38.0664 309.806C38.1624 309.982 38.3144 310.128 38.5224 310.244C38.7344 310.36 39.0144 310.418 39.3624 310.418ZM48.7544 311V307.694C48.7544 307.334 48.7204 307.004 48.6524 306.704C48.5844 306.4 48.4744 306.136 48.3224 305.912C48.1744 305.684 47.9804 305.508 47.7404 305.384C47.5044 305.26 47.2164 305.198 46.8764 305.198C46.5644 305.198 46.2884 305.252 46.0484 305.36C45.8124 305.468 45.6124 305.624 45.4484 305.828C45.2884 306.028 45.1664 306.272 45.0824 306.56C44.9984 306.848 44.9564 307.176 44.9564 307.544L44.3324 307.406C44.3324 306.742 44.4484 306.184 44.6804 305.732C44.9124 305.28 45.2324 304.938 45.6404 304.706C46.0484 304.474 46.5164 304.358 47.0444 304.358C47.4324 304.358 47.7704 304.418 48.0584 304.538C48.3504 304.658 48.5964 304.82 48.7964 305.024C49.0004 305.228 49.1644 305.462 49.2884 305.726C49.4124 305.986 49.5024 306.264 49.5584 306.56C49.6144 306.852 49.6424 307.144 49.6424 307.436V311H48.7544ZM44.0684 311V304.52H44.8664V306.116H44.9564V311H44.0684Z" fill="#43454C"/>
<path d="M126.662 311V302.36H131.624V303.242H127.544V306.242H130.904V307.118H127.544V311H126.662ZM135.275 311.18C134.643 311.18 134.095 311.04 133.631 310.76C133.171 310.48 132.813 310.086 132.557 309.578C132.301 309.07 132.173 308.474 132.173 307.79C132.173 307.082 132.299 306.47 132.551 305.954C132.803 305.438 133.157 305.04 133.613 304.76C134.073 304.48 134.615 304.34 135.239 304.34C135.879 304.34 136.425 304.488 136.877 304.784C137.329 305.076 137.671 305.496 137.903 306.044C138.135 306.592 138.241 307.246 138.221 308.006H137.321V307.694C137.305 306.854 137.123 306.22 136.775 305.792C136.431 305.364 135.927 305.15 135.263 305.15C134.567 305.15 134.033 305.376 133.661 305.828C133.293 306.28 133.109 306.924 133.109 307.76C133.109 308.576 133.293 309.21 133.661 309.662C134.033 310.11 134.559 310.334 135.239 310.334C135.703 310.334 136.107 310.228 136.451 310.016C136.799 309.8 137.073 309.49 137.273 309.086L138.095 309.404C137.839 309.968 137.461 310.406 136.961 310.718C136.465 311.026 135.903 311.18 135.275 311.18ZM132.797 308.006V307.268H137.747V308.006H132.797ZM142.463 311.18C141.867 311.18 141.363 311.03 140.951 310.73C140.539 310.426 140.227 310.016 140.015 309.5C139.803 308.98 139.697 308.398 139.697 307.754C139.697 307.098 139.803 306.514 140.015 306.002C140.231 305.486 140.547 305.08 140.963 304.784C141.379 304.488 141.891 304.34 142.499 304.34C143.091 304.34 143.599 304.49 144.023 304.79C144.447 305.09 144.771 305.498 144.995 306.014C145.223 306.53 145.337 307.11 145.337 307.754C145.337 308.402 145.223 308.984 144.995 309.5C144.767 310.016 144.439 310.426 144.011 310.73C143.583 311.03 143.067 311.18 142.463 311.18ZM139.547 311V302.36H140.435V306.122H140.339V311H139.547ZM142.373 310.358C142.825 310.358 143.201 310.244 143.501 310.016C143.801 309.788 144.025 309.478 144.173 309.086C144.325 308.69 144.401 308.246 144.401 307.754C144.401 307.266 144.327 306.826 144.179 306.434C144.031 306.042 143.805 305.732 143.501 305.504C143.201 305.276 142.819 305.162 142.355 305.162C141.903 305.162 141.527 305.272 141.227 305.492C140.931 305.712 140.709 306.018 140.561 306.41C140.413 306.798 140.339 307.246 140.339 307.754C140.339 308.254 140.413 308.702 140.561 309.098C140.709 309.49 140.933 309.798 141.233 310.022C141.533 310.246 141.913 310.358 142.373 310.358Z" fill="#43454C"/>
<path d="M221.936 311V302.36H222.746L226.142 309.626L229.52 302.36H230.342V310.994H229.502V304.328L226.424 311H225.854L222.782 304.328V311H221.936ZM233.88 311.18C233.392 311.18 232.982 311.092 232.65 310.916C232.322 310.74 232.076 310.506 231.912 310.214C231.748 309.922 231.666 309.604 231.666 309.26C231.666 308.908 231.736 308.608 231.876 308.36C232.02 308.108 232.214 307.902 232.458 307.742C232.706 307.582 232.992 307.46 233.316 307.376C233.644 307.296 234.006 307.226 234.402 307.166C234.802 307.102 235.192 307.048 235.572 307.004C235.956 306.956 236.292 306.91 236.58 306.866L236.268 307.058C236.28 306.418 236.156 305.944 235.896 305.636C235.636 305.328 235.184 305.174 234.54 305.174C234.096 305.174 233.72 305.274 233.412 305.474C233.108 305.674 232.894 305.99 232.77 306.422L231.912 306.17C232.06 305.59 232.358 305.14 232.806 304.82C233.254 304.5 233.836 304.34 234.552 304.34C235.144 304.34 235.646 304.452 236.058 304.676C236.474 304.896 236.768 305.216 236.94 305.636C237.02 305.824 237.072 306.034 237.096 306.266C237.12 306.498 237.132 306.734 237.132 306.974V311H236.346V309.374L236.574 309.47C236.354 310.026 236.012 310.45 235.548 310.742C235.084 311.034 234.528 311.18 233.88 311.18ZM233.982 310.418C234.394 310.418 234.754 310.344 235.062 310.196C235.37 310.048 235.618 309.846 235.806 309.59C235.994 309.33 236.116 309.038 236.172 308.714C236.22 308.506 236.246 308.278 236.25 308.03C236.254 307.778 236.256 307.59 236.256 307.466L236.592 307.64C236.292 307.68 235.966 307.72 235.614 307.76C235.266 307.8 234.922 307.846 234.582 307.898C234.246 307.95 233.942 308.012 233.67 308.084C233.486 308.136 233.308 308.21 233.136 308.306C232.964 308.398 232.822 308.522 232.71 308.678C232.602 308.834 232.548 309.028 232.548 309.26C232.548 309.448 232.594 309.63 232.686 309.806C232.782 309.982 232.934 310.128 233.142 310.244C233.354 310.36 233.634 310.418 233.982 310.418ZM238.694 311V304.52H239.486V306.08L239.33 305.876C239.402 305.684 239.496 305.508 239.612 305.348C239.728 305.184 239.854 305.05 239.99 304.946C240.158 304.798 240.354 304.686 240.578 304.61C240.802 304.53 241.028 304.484 241.256 304.472C241.484 304.456 241.692 304.472 241.88 304.52V305.348C241.644 305.288 241.386 305.274 241.106 305.306C240.826 305.338 240.568 305.45 240.332 305.642C240.116 305.81 239.954 306.012 239.846 306.248C239.738 306.48 239.666 306.728 239.63 306.992C239.594 307.252 239.576 307.51 239.576 307.766V311H238.694Z" fill="#43454C"/>
<path d="M318.179 311L321.155 302.36H322.325L325.301 311H324.383L321.557 302.852H321.905L319.097 311H318.179ZM319.505 308.906V308.078H323.969V308.906H319.505ZM329.295 311.18C328.699 311.18 328.195 311.03 327.783 310.73C327.371 310.426 327.059 310.016 326.847 309.5C326.635 308.98 326.529 308.398 326.529 307.754C326.529 307.098 326.635 306.514 326.847 306.002C327.063 305.486 327.379 305.08 327.795 304.784C328.211 304.488 328.723 304.34 329.331 304.34C329.923 304.34 330.431 304.49 330.855 304.79C331.279 305.09 331.603 305.498 331.827 306.014C332.055 306.53 332.169 307.11 332.169 307.754C332.169 308.402 332.055 308.984 331.827 309.5C331.599 310.016 331.271 310.426 330.843 310.73C330.415 311.03 329.899 311.18 329.295 311.18ZM326.379 313.88V304.52H327.171V309.398H327.267V313.88H326.379ZM329.205 310.358C329.657 310.358 330.033 310.244 330.333 310.016C330.633 309.788 330.857 309.478 331.005 309.086C331.157 308.69 331.233 308.246 331.233 307.754C331.233 307.266 331.159 306.826 331.011 306.434C330.863 306.042 330.637 305.732 330.333 305.504C330.033 305.276 329.651 305.162 329.187 305.162C328.735 305.162 328.359 305.272 328.059 305.492C327.763 305.712 327.541 306.018 327.393 306.41C327.245 306.798 327.171 307.246 327.171 307.754C327.171 308.254 327.245 308.702 327.393 309.098C327.541 309.49 327.765 309.798 328.065 310.022C328.365 310.246 328.745 310.358 329.205 310.358ZM333.486 311V304.52H334.278V306.08L334.122 305.876C334.194 305.684 334.288 305.508 334.404 305.348C334.52 305.184 334.646 305.05 334.782 304.946C334.95 304.798 335.146 304.686 335.37 304.61C335.594 304.53 335.82 304.484 336.048 304.472C336.276 304.456 336.484 304.472 336.672 304.52V305.348C336.436 305.288 336.178 305.274 335.898 305.306C335.618 305.338 335.36 305.45 335.124 305.642C334.908 305.81 334.746 306.012 334.638 306.248C334.53 306.48 334.458 306.728 334.422 306.992C334.386 307.252 334.368 307.51 334.368 307.766V311H333.486Z" fill="#43454C"/>
<path d="M413.252 311V302.36H414.062L417.458 309.626L420.836 302.36H421.658V310.994H420.818V304.328L417.74 311H417.17L414.098 304.328V311H413.252ZM425.196 311.18C424.708 311.18 424.298 311.092 423.966 310.916C423.638 310.74 423.392 310.506 423.228 310.214C423.064 309.922 422.982 309.604 422.982 309.26C422.982 308.908 423.052 308.608 423.192 308.36C423.336 308.108 423.53 307.902 423.774 307.742C424.022 307.582 424.308 307.46 424.632 307.376C424.96 307.296 425.322 307.226 425.718 307.166C426.118 307.102 426.508 307.048 426.888 307.004C427.272 306.956 427.608 306.91 427.896 306.866L427.584 307.058C427.596 306.418 427.472 305.944 427.212 305.636C426.952 305.328 426.5 305.174 425.856 305.174C425.412 305.174 425.036 305.274 424.728 305.474C424.424 305.674 424.21 305.99 424.086 306.422L423.228 306.17C423.376 305.59 423.674 305.14 424.122 304.82C424.57 304.5 425.152 304.34 425.868 304.34C426.46 304.34 426.962 304.452 427.374 304.676C427.79 304.896 428.084 305.216 428.256 305.636C428.336 305.824 428.388 306.034 428.412 306.266C428.436 306.498 428.448 306.734 428.448 306.974V311H427.662V309.374L427.89 309.47C427.67 310.026 427.328 310.45 426.864 310.742C426.4 311.034 425.844 311.18 425.196 311.18ZM425.298 310.418C425.71 310.418 426.07 310.344 426.378 310.196C426.686 310.048 426.934 309.846 427.122 309.59C427.31 309.33 427.432 309.038 427.488 308.714C427.536 308.506 427.562 308.278 427.566 308.03C427.57 307.778 427.572 307.59 427.572 307.466L427.908 307.64C427.608 307.68 427.282 307.72 426.93 307.76C426.582 307.8 426.238 307.846 425.898 307.898C425.562 307.95 425.258 308.012 424.986 308.084C424.802 308.136 424.624 308.21 424.452 308.306C424.28 308.398 424.138 308.522 424.026 308.678C423.918 308.834 423.864 309.028 423.864 309.26C423.864 309.448 423.91 309.63 424.002 309.806C424.098 309.982 424.25 310.128 424.458 310.244C424.67 310.36 424.95 310.418 425.298 310.418ZM430.571 313.88L431.825 310.478L431.843 311.486L429.005 304.52H429.941L432.269 310.346H431.885L434.033 304.52H434.933L431.453 313.88H430.571Z" fill="#43454C"/>
<path d="M512.5 311.174C511.924 311.174 511.43 311.014 511.018 310.694C510.606 310.374 510.328 309.946 510.184 309.41L511.066 309.2C511.138 309.516 511.304 309.784 511.564 310.004C511.828 310.22 512.138 310.328 512.494 310.328C512.718 310.328 512.944 310.274 513.172 310.166C513.404 310.058 513.586 309.88 513.718 309.632C513.806 309.46 513.856 309.274 513.868 309.074C513.884 308.87 513.892 308.626 513.892 308.342V302.36H514.78V308.342C514.78 308.582 514.778 308.8 514.774 308.996C514.77 309.188 514.748 309.374 514.708 309.554C514.672 309.73 514.602 309.908 514.498 310.088C514.29 310.452 514.01 310.724 513.658 310.904C513.31 311.084 512.924 311.174 512.5 311.174ZM519.068 311.162C518.68 311.162 518.34 311.102 518.048 310.982C517.76 310.862 517.514 310.7 517.31 310.496C517.11 310.292 516.948 310.06 516.824 309.8C516.7 309.536 516.61 309.258 516.554 308.966C516.498 308.67 516.47 308.376 516.47 308.084V304.52H517.358V307.826C517.358 308.182 517.392 308.512 517.46 308.816C517.528 309.12 517.636 309.386 517.784 309.614C517.936 309.838 518.13 310.012 518.366 310.136C518.606 310.26 518.896 310.322 519.236 310.322C519.548 310.322 519.822 310.268 520.058 310.16C520.298 310.052 520.498 309.898 520.658 309.698C520.822 309.494 520.946 309.248 521.03 308.96C521.114 308.668 521.156 308.34 521.156 307.976L521.78 308.114C521.78 308.778 521.664 309.336 521.432 309.788C521.2 310.24 520.88 310.582 520.472 310.814C520.064 311.046 519.596 311.162 519.068 311.162ZM521.246 311V309.404H521.156V304.52H522.038V311H521.246ZM528.395 311V307.694C528.395 307.334 528.361 307.004 528.293 306.704C528.225 306.4 528.115 306.136 527.963 305.912C527.815 305.684 527.621 305.508 527.381 305.384C527.145 305.26 526.857 305.198 526.517 305.198C526.205 305.198 525.929 305.252 525.689 305.36C525.453 305.468 525.253 305.624 525.089 305.828C524.929 306.028 524.807 306.272 524.723 306.56C524.639 306.848 524.597 307.176 524.597 307.544L523.973 307.406C523.973 306.742 524.089 306.184 524.321 305.732C524.553 305.28 524.873 304.938 525.281 304.706C525.689 304.474 526.157 304.358 526.685 304.358C527.073 304.358 527.411 304.418 527.699 304.538C527.991 304.658 528.237 304.82 528.437 305.024C528.641 305.228 528.805 305.462 528.929 305.726C529.053 305.986 529.143 306.264 529.199 306.56C529.255 306.852 529.283 307.144 529.283 307.436V311H528.395ZM523.709 311V304.52H524.507V306.116H524.597V311H523.709Z" fill="#43454C"/>
<path d="M607.478 311.174C606.902 311.174 606.408 311.014 605.996 310.694C605.584 310.374 605.306 309.946 605.162 309.41L606.044 309.2C606.116 309.516 606.282 309.784 606.542 310.004C606.806 310.22 607.116 310.328 607.472 310.328C607.696 310.328 607.922 310.274 608.15 310.166C608.382 310.058 608.564 309.88 608.696 309.632C608.784 309.46 608.834 309.274 608.846 309.074C608.862 308.87 608.87 308.626 608.87 308.342V302.36H609.758V308.342C609.758 308.582 609.756 308.8 609.752 308.996C609.748 309.188 609.726 309.374 609.686 309.554C609.65 309.73 609.58 309.908 609.476 310.088C609.268 310.452 608.988 310.724 608.636 310.904C608.288 311.084 607.902 311.174 607.478 311.174ZM614.047 311.162C613.659 311.162 613.319 311.102 613.027 310.982C612.739 310.862 612.493 310.7 612.289 310.496C612.089 310.292 611.927 310.06 611.803 309.8C611.679 309.536 611.589 309.258 611.533 308.966C611.477 308.67 611.449 308.376 611.449 308.084V304.52H612.337V307.826C612.337 308.182 612.371 308.512 612.439 308.816C612.507 309.12 612.615 309.386 612.763 309.614C612.915 309.838 613.109 310.012 613.345 310.136C613.585 310.26 613.875 310.322 614.215 310.322C614.527 310.322 614.801 310.268 615.037 310.16C615.277 310.052 615.477 309.898 615.637 309.698C615.801 309.494 615.925 309.248 616.009 308.96C616.093 308.668 616.135 308.34 616.135 307.976L616.759 308.114C616.759 308.778 616.643 309.336 616.411 309.788C616.179 310.24 615.859 310.582 615.451 310.814C615.043 311.046 614.575 311.162 614.047 311.162ZM616.225 311V309.404H616.135V304.52H617.017V311H616.225ZM618.814 311V302.18H619.696V311H618.814Z" fill="#43454C"/>
<path d="M696.051 311L699.027 302.36H700.197L703.173 311H702.255L699.429 302.852H699.777L696.969 311H696.051ZM697.377 308.906V308.078H701.841V308.906H697.377ZM706.734 311.162C706.346 311.162 706.006 311.102 705.714 310.982C705.426 310.862 705.18 310.7 704.976 310.496C704.776 310.292 704.614 310.06 704.49 309.8C704.366 309.536 704.276 309.258 704.22 308.966C704.164 308.67 704.136 308.376 704.136 308.084V304.52H705.024V307.826C705.024 308.182 705.058 308.512 705.126 308.816C705.194 309.12 705.302 309.386 705.45 309.614C705.602 309.838 705.796 310.012 706.032 310.136C706.272 310.26 706.562 310.322 706.902 310.322C707.214 310.322 707.488 310.268 707.724 310.16C707.964 310.052 708.164 309.898 708.324 309.698C708.488 309.494 708.612 309.248 708.696 308.96C708.78 308.668 708.822 308.34 708.822 307.976L709.446 308.114C709.446 308.778 709.33 309.336 709.098 309.788C708.866 310.24 708.546 310.582 708.138 310.814C707.73 311.046 707.262 311.162 706.734 311.162ZM708.912 311V309.404H708.822V304.52H709.704V311H708.912ZM713.955 314.06C713.623 314.06 713.295 314.01 712.971 313.91C712.651 313.814 712.355 313.66 712.083 313.448C711.811 313.24 711.583 312.968 711.399 312.632L712.197 312.188C712.377 312.548 712.629 312.806 712.953 312.962C713.281 313.122 713.615 313.202 713.955 313.202C714.423 313.202 714.801 313.114 715.089 312.938C715.381 312.766 715.593 312.51 715.725 312.17C715.857 311.83 715.921 311.406 715.917 310.898V309.17H716.019V304.52H716.805V310.91C716.805 311.094 716.799 311.27 716.787 311.438C716.779 311.61 716.761 311.778 716.733 311.942C716.657 312.426 716.499 312.824 716.259 313.136C716.023 313.448 715.711 313.68 715.323 313.832C714.939 313.984 714.483 314.06 713.955 314.06ZM713.895 311.18C713.291 311.18 712.775 311.03 712.347 310.73C711.919 310.426 711.591 310.016 711.363 309.5C711.135 308.984 711.021 308.402 711.021 307.754C711.021 307.11 711.133 306.53 711.357 306.014C711.585 305.498 711.911 305.09 712.335 304.79C712.759 304.49 713.267 304.34 713.859 304.34C714.467 304.34 714.979 304.488 715.395 304.784C715.811 305.08 716.125 305.486 716.337 306.002C716.553 306.514 716.661 307.098 716.661 307.754C716.661 308.398 716.555 308.98 716.343 309.5C716.131 310.016 715.819 310.426 715.407 310.73C714.995 311.03 714.491 311.18 713.895 311.18ZM713.985 310.358C714.445 310.358 714.825 310.246 715.125 310.022C715.425 309.798 715.649 309.49 715.797 309.098C715.945 308.702 716.019 308.254 716.019 307.754C716.019 307.246 715.945 306.798 715.797 306.41C715.649 306.018 715.425 305.712 715.125 305.492C714.829 305.272 714.455 305.162 714.003 305.162C713.539 305.162 713.155 305.276 712.851 305.504C712.547 305.732 712.321 306.042 712.173 306.434C712.029 306.826 711.957 307.266 711.957 307.754C711.957 308.246 712.031 308.69 712.179 309.086C712.331 309.478 712.557 309.788 712.857 310.016C713.157 310.244 713.533 310.358 713.985 310.358Z" fill="#43454C"/>
<path d="M796.715 311.18C796.111 311.18 795.567 311.08 795.083 310.88C794.603 310.676 794.205 310.388 793.889 310.016C793.577 309.644 793.373 309.202 793.277 308.69L794.177 308.54C794.321 309.1 794.625 309.54 795.089 309.86C795.553 310.176 796.107 310.334 796.751 310.334C797.175 310.334 797.555 310.268 797.891 310.136C798.227 310 798.491 309.808 798.683 309.56C798.875 309.312 798.971 309.018 798.971 308.678C798.971 308.454 798.931 308.264 798.851 308.108C798.771 307.948 798.665 307.816 798.533 307.712C798.401 307.608 798.257 307.522 798.101 307.454C797.945 307.382 797.793 307.324 797.645 307.28L795.455 306.626C795.191 306.55 794.947 306.454 794.723 306.338C794.499 306.218 794.303 306.076 794.135 305.912C793.971 305.744 793.843 305.548 793.751 305.324C793.659 305.1 793.613 304.844 793.613 304.556C793.613 304.068 793.741 303.646 793.997 303.29C794.253 302.934 794.603 302.66 795.047 302.468C795.491 302.276 795.997 302.182 796.565 302.186C797.141 302.186 797.655 302.288 798.107 302.492C798.563 302.696 798.939 302.988 799.235 303.368C799.531 303.744 799.727 304.19 799.823 304.706L798.899 304.874C798.839 304.498 798.701 304.172 798.485 303.896C798.269 303.62 797.993 303.408 797.657 303.26C797.325 303.108 796.959 303.03 796.559 303.026C796.171 303.026 795.825 303.092 795.521 303.224C795.221 303.352 794.983 303.528 794.807 303.752C794.631 303.976 794.543 304.232 794.543 304.52C794.543 304.812 794.623 305.046 794.783 305.222C794.947 305.398 795.147 305.536 795.383 305.636C795.623 305.736 795.855 305.818 796.079 305.882L797.771 306.38C797.947 306.428 798.153 306.498 798.389 306.59C798.629 306.678 798.861 306.806 799.085 306.974C799.313 307.138 799.501 307.354 799.649 307.622C799.797 307.89 799.871 308.23 799.871 308.642C799.871 309.042 799.791 309.4 799.631 309.716C799.475 310.032 799.253 310.298 798.965 310.514C798.681 310.73 798.347 310.894 797.963 311.006C797.583 311.122 797.167 311.18 796.715 311.18ZM803.852 311.18C803.22 311.18 802.672 311.04 802.208 310.76C801.748 310.48 801.39 310.086 801.134 309.578C800.878 309.07 800.75 308.474 800.75 307.79C800.75 307.082 800.876 306.47 801.128 305.954C801.38 305.438 801.734 305.04 802.19 304.76C802.65 304.48 803.192 304.34 803.816 304.34C804.456 304.34 805.002 304.488 805.454 304.784C805.906 305.076 806.248 305.496 806.48 306.044C806.712 306.592 806.818 307.246 806.798 308.006H805.898V307.694C805.882 306.854 805.7 306.22 805.352 305.792C805.008 305.364 804.504 305.15 803.84 305.15C803.144 305.15 802.61 305.376 802.238 305.828C801.87 306.28 801.686 306.924 801.686 307.76C801.686 308.576 801.87 309.21 802.238 309.662C802.61 310.11 803.136 310.334 803.816 310.334C804.28 310.334 804.684 310.228 805.028 310.016C805.376 309.8 805.65 309.49 805.85 309.086L806.672 309.404C806.416 309.968 806.038 310.406 805.538 310.718C805.042 311.026 804.48 311.18 803.852 311.18ZM801.374 308.006V307.268H806.324V308.006H801.374ZM810.863 311.18C810.267 311.18 809.763 311.03 809.351 310.73C808.939 310.426 808.627 310.016 808.415 309.5C808.203 308.98 808.097 308.398 808.097 307.754C808.097 307.098 808.203 306.514 808.415 306.002C808.631 305.486 808.947 305.08 809.363 304.784C809.779 304.488 810.291 304.34 810.899 304.34C811.491 304.34 811.999 304.49 812.423 304.79C812.847 305.09 813.171 305.498 813.395 306.014C813.623 306.53 813.737 307.11 813.737 307.754C813.737 308.402 813.623 308.984 813.395 309.5C813.167 310.016 812.839 310.426 812.411 310.73C811.983 311.03 811.467 311.18 810.863 311.18ZM807.947 313.88V304.52H808.739V309.398H808.835V313.88H807.947ZM810.773 310.358C811.225 310.358 811.601 310.244 811.901 310.016C812.201 309.788 812.425 309.478 812.573 309.086C812.725 308.69 812.801 308.246 812.801 307.754C812.801 307.266 812.727 306.826 812.579 306.434C812.431 306.042 812.205 305.732 811.901 305.504C811.601 305.276 811.219 305.162 810.755 305.162C810.303 305.162 809.927 305.272 809.627 305.492C809.331 305.712 809.109 306.018 808.961 306.41C808.813 306.798 808.739 307.246 808.739 307.754C808.739 308.254 808.813 308.702 808.961 309.098C809.109 309.49 809.333 309.798 809.633 310.022C809.933 310.246 810.313 310.358 810.773 310.358Z" fill="#43454C"/>
<path d="M894.135 311.18C893.275 311.18 892.549 310.99 891.957 310.61C891.365 310.226 890.917 309.696 890.613 309.02C890.309 308.344 890.157 307.564 890.157 306.68C890.157 305.796 890.309 305.016 890.613 304.34C890.917 303.664 891.365 303.136 891.957 302.756C892.549 302.372 893.275 302.18 894.135 302.18C894.999 302.18 895.725 302.372 896.313 302.756C896.905 303.136 897.353 303.664 897.657 304.34C897.965 305.016 898.119 305.796 898.119 306.68C898.119 307.564 897.965 308.344 897.657 309.02C897.353 309.696 896.905 310.226 896.313 310.61C895.725 310.99 894.999 311.18 894.135 311.18ZM894.135 310.334C894.811 310.334 895.375 310.18 895.827 309.872C896.279 309.564 896.617 309.136 896.841 308.588C897.069 308.036 897.183 307.4 897.183 306.68C897.183 305.96 897.069 305.326 896.841 304.778C896.617 304.23 896.279 303.802 895.827 303.494C895.375 303.186 894.811 303.03 894.135 303.026C893.459 303.026 892.897 303.18 892.449 303.488C892.001 303.796 891.663 304.226 891.435 304.778C891.211 305.326 891.097 305.96 891.093 306.68C891.089 307.4 891.199 308.034 891.423 308.582C891.651 309.126 891.991 309.554 892.443 309.866C892.895 310.174 893.459 310.33 894.135 310.334ZM902.008 311.18C901.356 311.18 900.804 311.034 900.352 310.742C899.9 310.45 899.556 310.048 899.32 309.536C899.088 309.02 898.968 308.428 898.96 307.76C898.968 307.08 899.092 306.484 899.332 305.972C899.572 305.456 899.918 305.056 900.37 304.772C900.822 304.484 901.37 304.34 902.014 304.34C902.67 304.34 903.24 304.5 903.724 304.82C904.212 305.14 904.546 305.578 904.726 306.134L903.862 306.41C903.71 306.022 903.468 305.722 903.136 305.51C902.808 305.294 902.432 305.186 902.008 305.186C901.532 305.186 901.138 305.296 900.826 305.516C900.514 305.732 900.282 306.034 900.13 306.422C899.978 306.81 899.9 307.256 899.896 307.76C899.904 308.536 900.084 309.16 900.436 309.632C900.788 310.1 901.312 310.334 902.008 310.334C902.448 310.334 902.822 310.234 903.13 310.034C903.442 309.83 903.678 309.534 903.838 309.146L904.726 309.41C904.486 309.986 904.134 310.426 903.67 310.73C903.206 311.03 902.652 311.18 902.008 311.18ZM909.493 311C909.129 311.076 908.769 311.106 908.413 311.09C908.061 311.074 907.745 310.998 907.465 310.862C907.189 310.726 906.979 310.514 906.835 310.226C906.719 309.986 906.655 309.744 906.643 309.5C906.635 309.252 906.631 308.97 906.631 308.654V302.72H907.507V308.618C907.507 308.89 907.509 309.118 907.513 309.302C907.521 309.482 907.563 309.642 907.639 309.782C907.783 310.05 908.011 310.21 908.323 310.262C908.639 310.314 909.029 310.302 909.493 310.226V311ZM905.245 305.276V304.52H909.493V305.276H905.245Z" fill="#43454C"/>
<path d="M986.434 311V302.36H987.322L992.08 309.44V302.36H992.968V311H992.08L987.322 303.914V311H986.434ZM997.355 311.18C996.711 311.18 996.161 311.034 995.705 310.742C995.249 310.45 994.899 310.046 994.655 309.53C994.411 309.014 994.289 308.422 994.289 307.754C994.289 307.074 994.413 306.478 994.661 305.966C994.909 305.454 995.261 305.056 995.717 304.772C996.177 304.484 996.723 304.34 997.355 304.34C998.003 304.34 998.555 304.486 999.011 304.778C999.471 305.066 999.821 305.468 1000.06 305.984C1000.3 306.496 1000.43 307.086 1000.43 307.754C1000.43 308.434 1000.3 309.032 1000.06 309.548C999.817 310.06 999.465 310.46 999.005 310.748C998.545 311.036 997.995 311.18 997.355 311.18ZM997.355 310.334C998.075 310.334 998.611 310.096 998.963 309.62C999.315 309.14 999.491 308.518 999.491 307.754C999.491 306.97 999.313 306.346 998.957 305.882C998.605 305.418 998.071 305.186 997.355 305.186C996.871 305.186 996.471 305.296 996.155 305.516C995.843 305.732 995.609 306.034 995.453 306.422C995.301 306.806 995.225 307.25 995.225 307.754C995.225 308.534 995.405 309.16 995.765 309.632C996.125 310.1 996.655 310.334 997.355 310.334ZM1003.27 311L1000.92 304.52H1001.81L1003.72 309.848L1005.63 304.52H1006.53L1004.18 311H1003.27Z" fill="#43454C"/>
<path d="M1082.98 311V302.36H1085.6C1085.69 302.36 1085.85 302.362 1086.07 302.366C1086.29 302.37 1086.5 302.386 1086.71 302.414C1087.36 302.506 1087.91 302.75 1088.35 303.146C1088.79 303.542 1089.12 304.046 1089.34 304.658C1089.56 305.27 1089.67 305.944 1089.67 306.68C1089.67 307.416 1089.56 308.09 1089.34 308.702C1089.12 309.314 1088.79 309.818 1088.35 310.214C1087.91 310.61 1087.36 310.854 1086.71 310.946C1086.51 310.97 1086.29 310.986 1086.07 310.994C1085.84 310.998 1085.68 311 1085.6 311H1082.98ZM1083.89 310.154H1085.6C1085.76 310.154 1085.94 310.15 1086.13 310.142C1086.32 310.13 1086.48 310.11 1086.62 310.082C1087.12 309.994 1087.53 309.79 1087.84 309.47C1088.15 309.15 1088.38 308.75 1088.52 308.27C1088.66 307.786 1088.74 307.256 1088.74 306.68C1088.74 306.1 1088.66 305.568 1088.52 305.084C1088.38 304.6 1088.15 304.2 1087.84 303.884C1087.52 303.568 1087.12 303.366 1086.62 303.278C1086.48 303.25 1086.32 303.232 1086.12 303.224C1085.93 303.212 1085.75 303.206 1085.6 303.206H1083.89V310.154ZM1093.78 311.18C1093.15 311.18 1092.6 311.04 1092.14 310.76C1091.68 310.48 1091.32 310.086 1091.06 309.578C1090.81 309.07 1090.68 308.474 1090.68 307.79C1090.68 307.082 1090.81 306.47 1091.06 305.954C1091.31 305.438 1091.66 305.04 1092.12 304.76C1092.58 304.48 1093.12 304.34 1093.75 304.34C1094.39 304.34 1094.93 304.488 1095.38 304.784C1095.84 305.076 1096.18 305.496 1096.41 306.044C1096.64 306.592 1096.75 307.246 1096.73 308.006H1095.83V307.694C1095.81 306.854 1095.63 306.22 1095.28 305.792C1094.94 305.364 1094.43 305.15 1093.77 305.15C1093.07 305.15 1092.54 305.376 1092.17 305.828C1091.8 306.28 1091.62 306.924 1091.62 307.76C1091.62 308.576 1091.8 309.21 1092.17 309.662C1092.54 310.11 1093.07 310.334 1093.75 310.334C1094.21 310.334 1094.61 310.228 1094.96 310.016C1095.31 309.8 1095.58 309.49 1095.78 309.086L1096.6 309.404C1096.35 309.968 1095.97 310.406 1095.47 310.718C1094.97 311.026 1094.41 311.18 1093.78 311.18ZM1091.3 308.006V307.268H1096.25V308.006H1091.3ZM1100.75 311.18C1100.09 311.18 1099.54 311.034 1099.09 310.742C1098.64 310.45 1098.29 310.048 1098.06 309.536C1097.83 309.02 1097.71 308.428 1097.7 307.76C1097.71 307.08 1097.83 306.484 1098.07 305.972C1098.31 305.456 1098.66 305.056 1099.11 304.772C1099.56 304.484 1100.11 304.34 1100.75 304.34C1101.41 304.34 1101.98 304.5 1102.46 304.82C1102.95 305.14 1103.28 305.578 1103.46 306.134L1102.6 306.41C1102.45 306.022 1102.21 305.722 1101.87 305.51C1101.55 305.294 1101.17 305.186 1100.75 305.186C1100.27 305.186 1099.88 305.296 1099.56 305.516C1099.25 305.732 1099.02 306.034 1098.87 306.422C1098.72 306.81 1098.64 307.256 1098.63 307.76C1098.64 308.536 1098.82 309.16 1099.17 309.632C1099.53 310.1 1100.05 310.334 1100.75 310.334C1101.19 310.334 1101.56 310.234 1101.87 310.034C1102.18 309.83 1102.42 309.534 1102.58 309.146L1103.46 309.41C1103.22 309.986 1102.87 310.426 1102.41 310.73C1101.94 311.03 1101.39 311.18 1100.75 311.18Z" fill="#43454C"/>
</g>
<defs>
<clipPath id="clip0_397_97485">
<rect width="1073" height="16" fill="white" transform="translate(31 298)"/>
</clipPath>
</defs>
</svg>
