<svg width="308" height="38" viewBox="0 0 308 38" fill="none" xmlns="http://www.w3.org/2000/svg">
<g clip-path="url(#clip0_1116_3761)">
<rect width="308" height="38" rx="19" fill="#08A730"/>
<rect x="155" width="45" height="38" fill="#5AC8FA"/>
<rect x="-103" width="258" height="40" fill="#007AFF"/>
<path d="M72.04 25L71.08 24.04L78.766 16.36L79.726 17.326L72.04 25ZM77.926 25.18C77.53 25.18 77.168 25.084 76.84 24.892C76.516 24.696 76.256 24.436 76.06 24.112C75.864 23.784 75.766 23.42 75.766 23.02C75.766 22.628 75.866 22.268 76.066 21.94C76.266 21.612 76.53 21.35 76.858 21.154C77.186 20.958 77.542 20.86 77.926 20.86C78.322 20.86 78.684 20.958 79.012 21.154C79.34 21.346 79.6 21.606 79.792 21.934C79.988 22.258 80.086 22.62 80.086 23.02C80.086 23.42 79.988 23.784 79.792 24.112C79.6 24.436 79.34 24.696 79.012 24.892C78.684 25.084 78.322 25.18 77.926 25.18ZM77.926 23.944C78.09 23.944 78.242 23.902 78.382 23.818C78.526 23.734 78.64 23.622 78.724 23.482C78.808 23.342 78.85 23.188 78.85 23.02C78.85 22.852 78.808 22.698 78.724 22.558C78.64 22.418 78.526 22.306 78.382 22.222C78.242 22.138 78.09 22.096 77.926 22.096C77.758 22.096 77.604 22.138 77.464 22.222C77.324 22.306 77.21 22.418 77.122 22.558C77.038 22.698 76.996 22.852 76.996 23.02C76.996 23.188 77.038 23.342 77.122 23.482C77.21 23.622 77.324 23.734 77.464 23.818C77.604 23.902 77.758 23.944 77.926 23.944ZM72.88 20.5C72.484 20.5 72.122 20.404 71.794 20.212C71.466 20.016 71.204 19.756 71.008 19.432C70.816 19.104 70.72 18.74 70.72 18.34C70.72 17.948 70.82 17.588 71.02 17.26C71.22 16.932 71.484 16.67 71.812 16.474C72.14 16.278 72.496 16.18 72.88 16.18C73.276 16.18 73.636 16.278 73.96 16.474C74.288 16.666 74.55 16.926 74.746 17.254C74.942 17.578 75.04 17.94 75.04 18.34C75.04 18.74 74.942 19.104 74.746 19.432C74.55 19.756 74.288 20.016 73.96 20.212C73.636 20.404 73.276 20.5 72.88 20.5ZM72.88 19.264C73.048 19.264 73.202 19.222 73.342 19.138C73.482 19.054 73.594 18.942 73.678 18.802C73.762 18.662 73.804 18.508 73.804 18.34C73.804 18.172 73.762 18.018 73.678 17.878C73.594 17.738 73.482 17.626 73.342 17.542C73.202 17.458 73.048 17.416 72.88 17.416C72.712 17.416 72.558 17.458 72.418 17.542C72.278 17.626 72.166 17.738 72.082 17.878C71.998 18.018 71.956 18.172 71.956 18.34C71.956 18.508 71.998 18.662 72.082 18.802C72.166 18.942 72.278 19.054 72.418 19.138C72.558 19.222 72.712 19.264 72.88 19.264ZM85.5927 25V23.572H81.7647V22.222L84.5307 16.36H86.1807L83.4147 22.222H85.5927V19.972H87.0567V22.222H87.8667V23.572H87.0567V25H85.5927ZM92.4915 25.18C91.9195 25.18 91.4115 25.064 90.9675 24.832C90.5235 24.6 90.1755 24.278 89.9235 23.866C89.6715 23.454 89.5455 22.982 89.5455 22.45C89.5455 21.974 89.6555 21.532 89.8755 21.124C90.0955 20.716 90.4175 20.39 90.8415 20.146L90.8115 20.608C90.4795 20.356 90.2215 20.066 90.0375 19.738C89.8575 19.406 89.7675 19.034 89.7675 18.622C89.7675 18.126 89.8835 17.696 90.1155 17.332C90.3515 16.968 90.6735 16.686 91.0815 16.486C91.4895 16.282 91.9595 16.18 92.4915 16.18C93.0235 16.18 93.4935 16.282 93.9015 16.486C94.3135 16.686 94.6355 16.968 94.8675 17.332C95.1035 17.696 95.2215 18.126 95.2215 18.622C95.2215 19.034 95.1335 19.404 94.9575 19.732C94.7855 20.06 94.5235 20.356 94.1715 20.62L94.1655 20.152C94.5815 20.388 94.8995 20.712 95.1195 21.124C95.3435 21.532 95.4555 21.974 95.4555 22.45C95.4555 22.982 95.3275 23.454 95.0715 23.866C94.8195 24.278 94.4695 24.6 94.0215 24.832C93.5775 25.064 93.0675 25.18 92.4915 25.18ZM92.4915 23.818C92.9155 23.818 93.2595 23.702 93.5235 23.47C93.7915 23.238 93.9255 22.898 93.9255 22.45C93.9255 22.002 93.7935 21.662 93.5295 21.43C93.2655 21.194 92.9195 21.076 92.4915 21.076C92.0675 21.076 91.7255 21.194 91.4655 21.43C91.2055 21.662 91.0755 22.002 91.0755 22.45C91.0755 22.898 91.2055 23.238 91.4655 23.47C91.7255 23.702 92.0675 23.818 92.4915 23.818ZM92.4915 19.702C92.8475 19.702 93.1355 19.614 93.3555 19.438C93.5795 19.258 93.6915 18.986 93.6915 18.622C93.6915 18.258 93.5795 17.988 93.3555 17.812C93.1355 17.632 92.8475 17.542 92.4915 17.542C92.1395 17.542 91.8515 17.632 91.6275 17.812C91.4075 17.988 91.2975 18.258 91.2975 18.622C91.2975 18.986 91.4075 19.258 91.6275 19.438C91.8515 19.614 92.1395 19.702 92.4915 19.702Z" fill="#E6EDFF"/>
<path d="M168.04 25L167.08 24.04L174.766 16.36L175.726 17.326L168.04 25ZM173.926 25.18C173.53 25.18 173.168 25.084 172.84 24.892C172.516 24.696 172.256 24.436 172.06 24.112C171.864 23.784 171.766 23.42 171.766 23.02C171.766 22.628 171.866 22.268 172.066 21.94C172.266 21.612 172.53 21.35 172.858 21.154C173.186 20.958 173.542 20.86 173.926 20.86C174.322 20.86 174.684 20.958 175.012 21.154C175.34 21.346 175.6 21.606 175.792 21.934C175.988 22.258 176.086 22.62 176.086 23.02C176.086 23.42 175.988 23.784 175.792 24.112C175.6 24.436 175.34 24.696 175.012 24.892C174.684 25.084 174.322 25.18 173.926 25.18ZM173.926 23.944C174.09 23.944 174.242 23.902 174.382 23.818C174.526 23.734 174.64 23.622 174.724 23.482C174.808 23.342 174.85 23.188 174.85 23.02C174.85 22.852 174.808 22.698 174.724 22.558C174.64 22.418 174.526 22.306 174.382 22.222C174.242 22.138 174.09 22.096 173.926 22.096C173.758 22.096 173.604 22.138 173.464 22.222C173.324 22.306 173.21 22.418 173.122 22.558C173.038 22.698 172.996 22.852 172.996 23.02C172.996 23.188 173.038 23.342 173.122 23.482C173.21 23.622 173.324 23.734 173.464 23.818C173.604 23.902 173.758 23.944 173.926 23.944ZM168.88 20.5C168.484 20.5 168.122 20.404 167.794 20.212C167.466 20.016 167.204 19.756 167.008 19.432C166.816 19.104 166.72 18.74 166.72 18.34C166.72 17.948 166.82 17.588 167.02 17.26C167.22 16.932 167.484 16.67 167.812 16.474C168.14 16.278 168.496 16.18 168.88 16.18C169.276 16.18 169.636 16.278 169.96 16.474C170.288 16.666 170.55 16.926 170.746 17.254C170.942 17.578 171.04 17.94 171.04 18.34C171.04 18.74 170.942 19.104 170.746 19.432C170.55 19.756 170.288 20.016 169.96 20.212C169.636 20.404 169.276 20.5 168.88 20.5ZM168.88 19.264C169.048 19.264 169.202 19.222 169.342 19.138C169.482 19.054 169.594 18.942 169.678 18.802C169.762 18.662 169.804 18.508 169.804 18.34C169.804 18.172 169.762 18.018 169.678 17.878C169.594 17.738 169.482 17.626 169.342 17.542C169.202 17.458 169.048 17.416 168.88 17.416C168.712 17.416 168.558 17.458 168.418 17.542C168.278 17.626 168.166 17.738 168.082 17.878C167.998 18.018 167.956 18.172 167.956 18.34C167.956 18.508 167.998 18.662 168.082 18.802C168.166 18.942 168.278 19.054 168.418 19.138C168.558 19.222 168.712 19.264 168.88 19.264ZM177.765 24.988V23.728L181.461 20.434C181.749 20.178 181.949 19.936 182.061 19.708C182.173 19.48 182.229 19.26 182.229 19.048C182.229 18.76 182.167 18.504 182.043 18.28C181.919 18.052 181.747 17.872 181.527 17.74C181.311 17.608 181.061 17.542 180.777 17.542C180.477 17.542 180.211 17.612 179.979 17.752C179.751 17.888 179.573 18.07 179.445 18.298C179.317 18.526 179.257 18.772 179.265 19.036H177.777C177.777 18.46 177.905 17.958 178.161 17.53C178.421 17.102 178.777 16.77 179.229 16.534C179.685 16.298 180.211 16.18 180.807 16.18C181.359 16.18 181.855 16.304 182.295 16.552C182.735 16.796 183.081 17.136 183.333 17.572C183.585 18.004 183.711 18.502 183.711 19.066C183.711 19.478 183.655 19.824 183.543 20.104C183.431 20.384 183.263 20.642 183.039 20.878C182.819 21.114 182.545 21.376 182.217 21.664L179.595 23.986L179.463 23.626H183.711V24.988H177.765ZM187.013 25V17.938L185.393 18.928V17.332L187.013 16.36H188.489V25H187.013Z" fill="#E6EDFF"/>
<path d="M238.04 25L237.08 24.04L244.766 16.36L245.726 17.326L238.04 25ZM243.926 25.18C243.53 25.18 243.168 25.084 242.84 24.892C242.516 24.696 242.256 24.436 242.06 24.112C241.864 23.784 241.766 23.42 241.766 23.02C241.766 22.628 241.866 22.268 242.066 21.94C242.266 21.612 242.53 21.35 242.858 21.154C243.186 20.958 243.542 20.86 243.926 20.86C244.322 20.86 244.684 20.958 245.012 21.154C245.34 21.346 245.6 21.606 245.792 21.934C245.988 22.258 246.086 22.62 246.086 23.02C246.086 23.42 245.988 23.784 245.792 24.112C245.6 24.436 245.34 24.696 245.012 24.892C244.684 25.084 244.322 25.18 243.926 25.18ZM243.926 23.944C244.09 23.944 244.242 23.902 244.382 23.818C244.526 23.734 244.64 23.622 244.724 23.482C244.808 23.342 244.85 23.188 244.85 23.02C244.85 22.852 244.808 22.698 244.724 22.558C244.64 22.418 244.526 22.306 244.382 22.222C244.242 22.138 244.09 22.096 243.926 22.096C243.758 22.096 243.604 22.138 243.464 22.222C243.324 22.306 243.21 22.418 243.122 22.558C243.038 22.698 242.996 22.852 242.996 23.02C242.996 23.188 243.038 23.342 243.122 23.482C243.21 23.622 243.324 23.734 243.464 23.818C243.604 23.902 243.758 23.944 243.926 23.944ZM238.88 20.5C238.484 20.5 238.122 20.404 237.794 20.212C237.466 20.016 237.204 19.756 237.008 19.432C236.816 19.104 236.72 18.74 236.72 18.34C236.72 17.948 236.82 17.588 237.02 17.26C237.22 16.932 237.484 16.67 237.812 16.474C238.14 16.278 238.496 16.18 238.88 16.18C239.276 16.18 239.636 16.278 239.96 16.474C240.288 16.666 240.55 16.926 240.746 17.254C240.942 17.578 241.04 17.94 241.04 18.34C241.04 18.74 240.942 19.104 240.746 19.432C240.55 19.756 240.288 20.016 239.96 20.212C239.636 20.404 239.276 20.5 238.88 20.5ZM238.88 19.264C239.048 19.264 239.202 19.222 239.342 19.138C239.482 19.054 239.594 18.942 239.678 18.802C239.762 18.662 239.804 18.508 239.804 18.34C239.804 18.172 239.762 18.018 239.678 17.878C239.594 17.738 239.482 17.626 239.342 17.542C239.202 17.458 239.048 17.416 238.88 17.416C238.712 17.416 238.558 17.458 238.418 17.542C238.278 17.626 238.166 17.738 238.082 17.878C237.998 18.018 237.956 18.172 237.956 18.34C237.956 18.508 237.998 18.662 238.082 18.802C238.166 18.942 238.278 19.054 238.418 19.138C238.558 19.222 238.712 19.264 238.88 19.264ZM250.477 25.162C250.045 25.162 249.637 25.078 249.253 24.91C248.869 24.742 248.535 24.504 248.251 24.196C247.971 23.888 247.769 23.524 247.645 23.104L249.043 22.726C249.143 23.07 249.325 23.336 249.589 23.524C249.857 23.708 250.151 23.798 250.471 23.794C250.755 23.794 251.009 23.728 251.233 23.596C251.457 23.464 251.633 23.286 251.761 23.062C251.889 22.834 251.953 22.58 251.953 22.3C251.953 21.872 251.815 21.514 251.539 21.226C251.263 20.938 250.907 20.794 250.471 20.794C250.339 20.794 250.209 20.812 250.081 20.848C249.957 20.884 249.837 20.934 249.721 20.998L249.061 19.858L251.965 17.374L252.091 17.722H247.981V16.36H253.279V17.728L250.945 19.972L250.933 19.546C251.457 19.582 251.903 19.728 252.271 19.984C252.643 20.24 252.927 20.57 253.123 20.974C253.323 21.378 253.423 21.82 253.423 22.3C253.423 22.844 253.289 23.332 253.021 23.764C252.757 24.196 252.401 24.538 251.953 24.79C251.509 25.038 251.017 25.162 250.477 25.162ZM256.837 25V17.938L255.217 18.928V17.332L256.837 16.36H258.313V25H256.837Z" fill="white"/>
</g>
<defs>
<clipPath id="clip0_1116_3761">
<rect width="308" height="38" rx="19" fill="white"/>
</clipPath>
</defs>
</svg>
