<svg width="308" height="39" viewBox="0 0 308 39" fill="none" xmlns="http://www.w3.org/2000/svg">
<g clip-path="url(#clip0_57_35168)">
<rect y="0.825684" width="308" height="38" rx="19" fill="#FF3B30"/>
<rect x="155" y="0.825684" width="45" height="38" fill="#007AFF"/>
<rect x="-103" y="0.825684" width="258" height="40" fill="#08A730"/>
<path d="M72.04 25.8257L71.08 24.8657L78.766 17.1857L79.726 18.1517L72.04 25.8257ZM77.926 26.0057C77.53 26.0057 77.168 25.9097 76.84 25.7177C76.516 25.5217 76.256 25.2617 76.06 24.9377C75.864 24.6097 75.766 24.2457 75.766 23.8457C75.766 23.4537 75.866 23.0937 76.066 22.7657C76.266 22.4377 76.53 22.1757 76.858 21.9797C77.186 21.7837 77.542 21.6857 77.926 21.6857C78.322 21.6857 78.684 21.7837 79.012 21.9797C79.34 22.1717 79.6 22.4317 79.792 22.7597C79.988 23.0837 80.086 23.4457 80.086 23.8457C80.086 24.2457 79.988 24.6097 79.792 24.9377C79.6 25.2617 79.34 25.5217 79.012 25.7177C78.684 25.9097 78.322 26.0057 77.926 26.0057ZM77.926 24.7697C78.09 24.7697 78.242 24.7277 78.382 24.6437C78.526 24.5597 78.64 24.4477 78.724 24.3077C78.808 24.1677 78.85 24.0137 78.85 23.8457C78.85 23.6777 78.808 23.5237 78.724 23.3837C78.64 23.2437 78.526 23.1317 78.382 23.0477C78.242 22.9637 78.09 22.9217 77.926 22.9217C77.758 22.9217 77.604 22.9637 77.464 23.0477C77.324 23.1317 77.21 23.2437 77.122 23.3837C77.038 23.5237 76.996 23.6777 76.996 23.8457C76.996 24.0137 77.038 24.1677 77.122 24.3077C77.21 24.4477 77.324 24.5597 77.464 24.6437C77.604 24.7277 77.758 24.7697 77.926 24.7697ZM72.88 21.3257C72.484 21.3257 72.122 21.2297 71.794 21.0377C71.466 20.8417 71.204 20.5817 71.008 20.2577C70.816 19.9297 70.72 19.5657 70.72 19.1657C70.72 18.7737 70.82 18.4137 71.02 18.0857C71.22 17.7577 71.484 17.4957 71.812 17.2997C72.14 17.1037 72.496 17.0057 72.88 17.0057C73.276 17.0057 73.636 17.1037 73.96 17.2997C74.288 17.4917 74.55 17.7517 74.746 18.0797C74.942 18.4037 75.04 18.7657 75.04 19.1657C75.04 19.5657 74.942 19.9297 74.746 20.2577C74.55 20.5817 74.288 20.8417 73.96 21.0377C73.636 21.2297 73.276 21.3257 72.88 21.3257ZM72.88 20.0897C73.048 20.0897 73.202 20.0477 73.342 19.9637C73.482 19.8797 73.594 19.7677 73.678 19.6277C73.762 19.4877 73.804 19.3337 73.804 19.1657C73.804 18.9977 73.762 18.8437 73.678 18.7037C73.594 18.5637 73.482 18.4517 73.342 18.3677C73.202 18.2837 73.048 18.2417 72.88 18.2417C72.712 18.2417 72.558 18.2837 72.418 18.3677C72.278 18.4517 72.166 18.5637 72.082 18.7037C71.998 18.8437 71.956 18.9977 71.956 19.1657C71.956 19.3337 71.998 19.4877 72.082 19.6277C72.166 19.7677 72.278 19.8797 72.418 19.9637C72.558 20.0477 72.712 20.0897 72.88 20.0897ZM85.5927 25.8257V24.3977H81.7647V23.0477L84.5307 17.1857H86.1807L83.4147 23.0477H85.5927V20.7977H87.0567V23.0477H87.8667V24.3977H87.0567V25.8257H85.5927ZM92.4915 26.0057C91.9195 26.0057 91.4115 25.8897 90.9675 25.6577C90.5235 25.4257 90.1755 25.1037 89.9235 24.6917C89.6715 24.2797 89.5455 23.8077 89.5455 23.2757C89.5455 22.7997 89.6555 22.3577 89.8755 21.9497C90.0955 21.5417 90.4175 21.2157 90.8415 20.9717L90.8115 21.4337C90.4795 21.1817 90.2215 20.8917 90.0375 20.5637C89.8575 20.2317 89.7675 19.8597 89.7675 19.4477C89.7675 18.9517 89.8835 18.5217 90.1155 18.1577C90.3515 17.7937 90.6735 17.5117 91.0815 17.3117C91.4895 17.1077 91.9595 17.0057 92.4915 17.0057C93.0235 17.0057 93.4935 17.1077 93.9015 17.3117C94.3135 17.5117 94.6355 17.7937 94.8675 18.1577C95.1035 18.5217 95.2215 18.9517 95.2215 19.4477C95.2215 19.8597 95.1335 20.2297 94.9575 20.5577C94.7855 20.8857 94.5235 21.1817 94.1715 21.4457L94.1655 20.9777C94.5815 21.2137 94.8995 21.5377 95.1195 21.9497C95.3435 22.3577 95.4555 22.7997 95.4555 23.2757C95.4555 23.8077 95.3275 24.2797 95.0715 24.6917C94.8195 25.1037 94.4695 25.4257 94.0215 25.6577C93.5775 25.8897 93.0675 26.0057 92.4915 26.0057ZM92.4915 24.6437C92.9155 24.6437 93.2595 24.5277 93.5235 24.2957C93.7915 24.0637 93.9255 23.7237 93.9255 23.2757C93.9255 22.8277 93.7935 22.4877 93.5295 22.2557C93.2655 22.0197 92.9195 21.9017 92.4915 21.9017C92.0675 21.9017 91.7255 22.0197 91.4655 22.2557C91.2055 22.4877 91.0755 22.8277 91.0755 23.2757C91.0755 23.7237 91.2055 24.0637 91.4655 24.2957C91.7255 24.5277 92.0675 24.6437 92.4915 24.6437ZM92.4915 20.5277C92.8475 20.5277 93.1355 20.4397 93.3555 20.2637C93.5795 20.0837 93.6915 19.8117 93.6915 19.4477C93.6915 19.0837 93.5795 18.8137 93.3555 18.6377C93.1355 18.4577 92.8475 18.3677 92.4915 18.3677C92.1395 18.3677 91.8515 18.4577 91.6275 18.6377C91.4075 18.8137 91.2975 19.0837 91.2975 19.4477C91.2975 19.8117 91.4075 20.0837 91.6275 20.2637C91.8515 20.4397 92.1395 20.5277 92.4915 20.5277Z" fill="white"/>
<path d="M168.04 25.8257L167.08 24.8657L174.766 17.1857L175.726 18.1517L168.04 25.8257ZM173.926 26.0057C173.53 26.0057 173.168 25.9097 172.84 25.7177C172.516 25.5217 172.256 25.2617 172.06 24.9377C171.864 24.6097 171.766 24.2457 171.766 23.8457C171.766 23.4537 171.866 23.0937 172.066 22.7657C172.266 22.4377 172.53 22.1757 172.858 21.9797C173.186 21.7837 173.542 21.6857 173.926 21.6857C174.322 21.6857 174.684 21.7837 175.012 21.9797C175.34 22.1717 175.6 22.4317 175.792 22.7597C175.988 23.0837 176.086 23.4457 176.086 23.8457C176.086 24.2457 175.988 24.6097 175.792 24.9377C175.6 25.2617 175.34 25.5217 175.012 25.7177C174.684 25.9097 174.322 26.0057 173.926 26.0057ZM173.926 24.7697C174.09 24.7697 174.242 24.7277 174.382 24.6437C174.526 24.5597 174.64 24.4477 174.724 24.3077C174.808 24.1677 174.85 24.0137 174.85 23.8457C174.85 23.6777 174.808 23.5237 174.724 23.3837C174.64 23.2437 174.526 23.1317 174.382 23.0477C174.242 22.9637 174.09 22.9217 173.926 22.9217C173.758 22.9217 173.604 22.9637 173.464 23.0477C173.324 23.1317 173.21 23.2437 173.122 23.3837C173.038 23.5237 172.996 23.6777 172.996 23.8457C172.996 24.0137 173.038 24.1677 173.122 24.3077C173.21 24.4477 173.324 24.5597 173.464 24.6437C173.604 24.7277 173.758 24.7697 173.926 24.7697ZM168.88 21.3257C168.484 21.3257 168.122 21.2297 167.794 21.0377C167.466 20.8417 167.204 20.5817 167.008 20.2577C166.816 19.9297 166.72 19.5657 166.72 19.1657C166.72 18.7737 166.82 18.4137 167.02 18.0857C167.22 17.7577 167.484 17.4957 167.812 17.2997C168.14 17.1037 168.496 17.0057 168.88 17.0057C169.276 17.0057 169.636 17.1037 169.96 17.2997C170.288 17.4917 170.55 17.7517 170.746 18.0797C170.942 18.4037 171.04 18.7657 171.04 19.1657C171.04 19.5657 170.942 19.9297 170.746 20.2577C170.55 20.5817 170.288 20.8417 169.96 21.0377C169.636 21.2297 169.276 21.3257 168.88 21.3257ZM168.88 20.0897C169.048 20.0897 169.202 20.0477 169.342 19.9637C169.482 19.8797 169.594 19.7677 169.678 19.6277C169.762 19.4877 169.804 19.3337 169.804 19.1657C169.804 18.9977 169.762 18.8437 169.678 18.7037C169.594 18.5637 169.482 18.4517 169.342 18.3677C169.202 18.2837 169.048 18.2417 168.88 18.2417C168.712 18.2417 168.558 18.2837 168.418 18.3677C168.278 18.4517 168.166 18.5637 168.082 18.7037C167.998 18.8437 167.956 18.9977 167.956 19.1657C167.956 19.3337 167.998 19.4877 168.082 19.6277C168.166 19.7677 168.278 19.8797 168.418 19.9637C168.558 20.0477 168.712 20.0897 168.88 20.0897ZM177.765 25.8137V24.5537L181.461 21.2597C181.749 21.0037 181.949 20.7617 182.061 20.5337C182.173 20.3057 182.229 20.0857 182.229 19.8737C182.229 19.5857 182.167 19.3297 182.043 19.1057C181.919 18.8777 181.747 18.6977 181.527 18.5657C181.311 18.4337 181.061 18.3677 180.777 18.3677C180.477 18.3677 180.211 18.4377 179.979 18.5777C179.751 18.7137 179.573 18.8957 179.445 19.1237C179.317 19.3517 179.257 19.5977 179.265 19.8617H177.777C177.777 19.2857 177.905 18.7837 178.161 18.3557C178.421 17.9277 178.777 17.5957 179.229 17.3597C179.685 17.1237 180.211 17.0057 180.807 17.0057C181.359 17.0057 181.855 17.1297 182.295 17.3777C182.735 17.6217 183.081 17.9617 183.333 18.3977C183.585 18.8297 183.711 19.3277 183.711 19.8917C183.711 20.3037 183.655 20.6497 183.543 20.9297C183.431 21.2097 183.263 21.4677 183.039 21.7037C182.819 21.9397 182.545 22.2017 182.217 22.4897L179.595 24.8117L179.463 24.4517H183.711V25.8137H177.765ZM187.013 25.8257V18.7637L185.393 19.7537V18.1577L187.013 17.1857H188.489V25.8257H187.013Z" fill="white"/>
<path d="M238.04 25.8257L237.08 24.8657L244.766 17.1857L245.726 18.1517L238.04 25.8257ZM243.926 26.0057C243.53 26.0057 243.168 25.9097 242.84 25.7177C242.516 25.5217 242.256 25.2617 242.06 24.9377C241.864 24.6097 241.766 24.2457 241.766 23.8457C241.766 23.4537 241.866 23.0937 242.066 22.7657C242.266 22.4377 242.53 22.1757 242.858 21.9797C243.186 21.7837 243.542 21.6857 243.926 21.6857C244.322 21.6857 244.684 21.7837 245.012 21.9797C245.34 22.1717 245.6 22.4317 245.792 22.7597C245.988 23.0837 246.086 23.4457 246.086 23.8457C246.086 24.2457 245.988 24.6097 245.792 24.9377C245.6 25.2617 245.34 25.5217 245.012 25.7177C244.684 25.9097 244.322 26.0057 243.926 26.0057ZM243.926 24.7697C244.09 24.7697 244.242 24.7277 244.382 24.6437C244.526 24.5597 244.64 24.4477 244.724 24.3077C244.808 24.1677 244.85 24.0137 244.85 23.8457C244.85 23.6777 244.808 23.5237 244.724 23.3837C244.64 23.2437 244.526 23.1317 244.382 23.0477C244.242 22.9637 244.09 22.9217 243.926 22.9217C243.758 22.9217 243.604 22.9637 243.464 23.0477C243.324 23.1317 243.21 23.2437 243.122 23.3837C243.038 23.5237 242.996 23.6777 242.996 23.8457C242.996 24.0137 243.038 24.1677 243.122 24.3077C243.21 24.4477 243.324 24.5597 243.464 24.6437C243.604 24.7277 243.758 24.7697 243.926 24.7697ZM238.88 21.3257C238.484 21.3257 238.122 21.2297 237.794 21.0377C237.466 20.8417 237.204 20.5817 237.008 20.2577C236.816 19.9297 236.72 19.5657 236.72 19.1657C236.72 18.7737 236.82 18.4137 237.02 18.0857C237.22 17.7577 237.484 17.4957 237.812 17.2997C238.14 17.1037 238.496 17.0057 238.88 17.0057C239.276 17.0057 239.636 17.1037 239.96 17.2997C240.288 17.4917 240.55 17.7517 240.746 18.0797C240.942 18.4037 241.04 18.7657 241.04 19.1657C241.04 19.5657 240.942 19.9297 240.746 20.2577C240.55 20.5817 240.288 20.8417 239.96 21.0377C239.636 21.2297 239.276 21.3257 238.88 21.3257ZM238.88 20.0897C239.048 20.0897 239.202 20.0477 239.342 19.9637C239.482 19.8797 239.594 19.7677 239.678 19.6277C239.762 19.4877 239.804 19.3337 239.804 19.1657C239.804 18.9977 239.762 18.8437 239.678 18.7037C239.594 18.5637 239.482 18.4517 239.342 18.3677C239.202 18.2837 239.048 18.2417 238.88 18.2417C238.712 18.2417 238.558 18.2837 238.418 18.3677C238.278 18.4517 238.166 18.5637 238.082 18.7037C237.998 18.8437 237.956 18.9977 237.956 19.1657C237.956 19.3337 237.998 19.4877 238.082 19.6277C238.166 19.7677 238.278 19.8797 238.418 19.9637C238.558 20.0477 238.712 20.0897 238.88 20.0897ZM250.477 25.9877C250.045 25.9877 249.637 25.9037 249.253 25.7357C248.869 25.5677 248.535 25.3297 248.251 25.0217C247.971 24.7137 247.769 24.3497 247.645 23.9297L249.043 23.5517C249.143 23.8957 249.325 24.1617 249.589 24.3497C249.857 24.5337 250.151 24.6237 250.471 24.6197C250.755 24.6197 251.009 24.5537 251.233 24.4217C251.457 24.2897 251.633 24.1117 251.761 23.8877C251.889 23.6597 251.953 23.4057 251.953 23.1257C251.953 22.6977 251.815 22.3397 251.539 22.0517C251.263 21.7637 250.907 21.6197 250.471 21.6197C250.339 21.6197 250.209 21.6377 250.081 21.6737C249.957 21.7097 249.837 21.7597 249.721 21.8237L249.061 20.6837L251.965 18.1997L252.091 18.5477H247.981V17.1857H253.279V18.5537L250.945 20.7977L250.933 20.3717C251.457 20.4077 251.903 20.5537 252.271 20.8097C252.643 21.0657 252.927 21.3957 253.123 21.7997C253.323 22.2037 253.423 22.6457 253.423 23.1257C253.423 23.6697 253.289 24.1577 253.021 24.5897C252.757 25.0217 252.401 25.3637 251.953 25.6157C251.509 25.8637 251.017 25.9877 250.477 25.9877ZM256.837 25.8257V18.7637L255.217 19.7537V18.1577L256.837 17.1857H258.313V25.8257H256.837Z" fill="white"/>
</g>
<defs>
<clipPath id="clip0_57_35168">
<rect y="0.825684" width="308" height="38" rx="19" fill="white"/>
</clipPath>
</defs>
</svg>
