<svg width="24" height="24" viewBox="0 0 24 24" fill="none" xmlns="http://www.w3.org/2000/svg">
<g clip-path="url(#clip0_1121_1577)">
<path d="M12.4885 18.5276C12.185 18.3577 11.8151 18.3577 11.5116 18.5276L6.83874 21.1432C6.09414 21.56 5.20319 20.9127 5.36946 20.0758L6.41296 14.8232C6.48073 14.4821 6.3664 14.1302 6.11105 13.8941L2.17884 10.2581C1.55231 9.67871 1.89259 8.6313 2.73998 8.5308L8.05822 7.90006C8.40356 7.8591 8.70282 7.64168 8.84849 7.3259L11.092 2.46254C11.4494 1.68772 12.5506 1.68772 12.9081 2.46254L15.1516 7.3259C15.2973 7.64168 15.5965 7.8591 15.9418 7.90006L21.2601 8.5308C22.1075 8.6313 22.4478 9.67871 21.8212 10.2581L17.889 13.8941C17.6337 14.1302 17.5193 14.4821 17.5871 14.8232L18.6306 20.0758C18.7969 20.9127 17.9059 21.56 17.1613 21.1432L12.4885 18.5276Z" fill="#FFC700"/>
</g>
<defs>
<clipPath id="clip0_1121_1577">
<rect width="24" height="24" fill="white" transform="translate(0 -0.00585938)"/>
</clipPath>
</defs>
</svg>
