<svg width="208" height="208" viewBox="0 0 208 208" fill="none" xmlns="http://www.w3.org/2000/svg">
<path d="M119.062 23.59C119.062 36.3474 119.062 49.1047 119.062 61.8447C119.062 65.4847 119.062 69.1074 119.062 72.7474C119.062 73.0767 119.582 73.0767 119.582 72.7474C119.582 59.99 119.582 47.2327 119.582 34.4927C119.582 30.8527 119.582 27.23 119.582 23.59C119.582 23.2607 119.062 23.2607 119.062 23.59Z" fill="#DFE6E9"/>
<path d="M119.062 23.4001C132.773 23.6255 146.484 24.0068 160.194 24.5441C160.524 24.5615 160.524 24.0415 160.194 24.0241C146.484 23.4868 132.773 23.1055 119.062 22.8801C118.733 22.8801 118.733 23.4001 119.062 23.4001Z" fill="#DFE6E9"/>
<path d="M119.496 73.0596C132.34 73.9956 145.097 75.7983 157.837 77.6183C158.167 77.6703 158.305 77.1676 157.976 77.1156C145.184 75.2956 132.375 73.4929 119.496 72.5396C119.167 72.5223 119.167 73.0423 119.496 73.0596Z" fill="#DFE6E9"/>
<path d="M159.935 24.6478C159.935 38.4624 159.935 52.2598 159.935 66.0744C159.935 69.9918 159.935 73.8918 159.935 77.8091C159.935 78.1384 160.455 78.1384 160.455 77.8091C160.455 63.9944 160.455 50.1971 160.455 36.3824C160.455 32.4651 160.455 28.5651 160.455 24.6478C160.455 24.3184 159.935 24.3184 159.935 24.6478Z" fill="#DFE6E9"/>
<path d="M157.525 77.5835C158.374 77.7049 159.224 77.8609 160.056 78.0169C160.385 78.0862 160.524 77.5835 160.194 77.5142C159.345 77.3409 158.513 77.2022 157.664 77.0809C157.334 77.0462 157.196 77.5315 157.525 77.5835Z" fill="#DFE6E9"/>
<path d="M119.565 46.3142C126.533 46.4009 133.467 47.0942 140.365 48.0475C143.745 48.5155 147.125 49.0355 150.488 49.5555C153.712 50.0582 156.988 50.7862 160.264 50.5088C160.593 50.4742 160.593 49.9542 160.264 49.9888C156.867 50.2662 153.452 49.4862 150.124 48.9662C146.692 48.4288 143.26 47.9088 139.828 47.4408C133.103 46.5395 126.36 45.8635 119.565 45.7769C119.219 45.7769 119.219 46.2969 119.565 46.3142Z" fill="#DFE6E9"/>
<path d="M122.252 46.5053C122.547 54.288 122.859 62.0706 123.153 69.8533C123.171 70.1826 123.691 70.1826 123.673 69.8533C123.379 62.0706 123.067 54.288 122.772 46.5053C122.755 46.176 122.235 46.176 122.252 46.5053Z" fill="#DFE6E9"/>
<path d="M123.777 70.1481C135.598 71.5868 147.437 72.8348 159.276 74.0655C159.605 74.1002 159.605 73.5802 159.276 73.5455C147.437 72.2975 135.598 71.0495 123.777 69.6281C123.447 69.5935 123.447 70.1135 123.777 70.1481Z" fill="#DFE6E9"/>
<path d="M119.825 72.6093C121.125 71.8639 122.408 71.1186 123.708 70.356C124.002 70.1826 123.742 69.732 123.448 69.9053C122.148 70.6506 120.865 71.396 119.565 72.1586C119.271 72.3319 119.531 72.7826 119.825 72.6093Z" fill="#DFE6E9"/>
<path d="M123.309 43.4715C133.848 44.2862 144.404 45.0835 154.943 45.8981C155.272 45.9155 155.272 45.3955 154.943 45.3781C144.404 44.5635 133.848 43.7662 123.309 42.9515C122.98 42.9168 122.98 43.4368 123.309 43.4715Z" fill="#DFE6E9"/>
<path d="M122.096 39.7623C133.571 39.8143 145.045 40.1436 156.52 40.7503C156.849 40.7676 156.849 40.2476 156.52 40.2303C145.063 39.6236 133.588 39.277 122.096 39.2423C121.749 39.2423 121.749 39.7623 122.096 39.7623Z" fill="#DFE6E9"/>
<path d="M124.141 34.4067C132.045 34.424 139.949 34.4414 147.853 34.4587C148.182 34.4587 148.182 33.9387 147.853 33.9387C139.949 33.9214 132.045 33.9041 124.141 33.8867C123.794 33.8867 123.794 34.4067 124.141 34.4067Z" fill="#DFE6E9"/>
<path d="M122.339 29.2412C133.103 29.1025 143.849 29.3972 154.596 30.1079C154.925 30.1252 154.925 29.6052 154.596 29.5879C143.867 28.8772 133.103 28.5826 122.339 28.7212C121.992 28.7212 121.992 29.2412 122.339 29.2412Z" fill="#DFE6E9"/>
<path d="M149.032 72.0019C148.807 71.4992 148.876 71.2219 149.24 71.1352C149.379 71.0832 149.517 71.0312 149.656 71.0139C149.829 70.9792 150.003 70.9446 150.159 70.9099C150.471 70.8232 150.765 70.6846 150.991 70.4419C151.407 70.0086 151.511 69.4539 151.407 68.8819C151.389 68.7779 151.268 68.6739 151.164 68.6912C149.725 68.8126 149.847 66.5592 151.32 67.0099C151.58 67.0966 151.736 66.7499 151.58 66.5766C150.436 65.3459 148.235 62.3472 149.743 60.7006C150.141 60.2672 150.852 59.9899 151.389 60.3366C151.719 60.5446 151.927 60.9432 152.1 61.2899C152.343 61.7232 152.551 62.2086 152.967 62.4859C153.903 63.1099 154.856 62.2432 155.012 61.3072C155.151 60.4406 154.735 59.5739 154.735 58.7072C154.735 58.1005 154.856 57.4245 155.307 56.9739C155.775 56.5059 156.572 56.3499 157.127 56.8005C157.317 56.9565 157.647 56.8179 157.56 56.5405C157.387 55.9685 157.317 55.3619 157.647 54.8245C158.028 54.2352 158.947 54.0099 159.328 54.7379C159.484 55.0325 159.935 54.7725 159.779 54.4779C159.38 53.7325 158.409 53.5592 157.699 53.9925C156.797 54.5472 156.78 55.7605 157.057 56.6619C157.196 56.5752 157.352 56.4885 157.491 56.4019C156.121 55.2579 154.475 56.5579 154.249 58.0659C154.18 58.5165 154.215 58.9672 154.284 59.4179C154.388 60.1285 154.769 61.0819 154.301 61.7406C153.331 63.1099 152.551 60.8739 152.1 60.3192C151.112 59.0885 149.327 59.7299 148.876 61.1339C148.217 63.1619 149.881 65.5366 151.181 66.9232C151.268 66.7846 151.355 66.6286 151.441 66.4899C150.627 66.2299 149.639 66.6979 149.5 67.5992C149.379 68.5352 150.263 69.2459 151.129 69.1766C151.043 69.1072 150.956 69.0552 150.887 68.9859C151.233 70.8406 148.616 70.0259 148.165 71.3952C147.94 72.0886 148.616 72.7126 149.275 72.4179C149.604 72.2966 149.344 71.8459 149.032 72.0019Z" fill="#DFE6E9"/>
<path d="M148.096 84.69C148.096 90.0113 148.096 95.3327 148.096 100.637C148.096 100.966 148.616 100.966 148.616 100.637C148.616 95.3153 148.616 89.994 148.616 84.69C148.616 84.3607 148.096 84.3607 148.096 84.69Z" fill="#DFE6E9"/>
<path d="M148.408 84.6732C154.942 86.1291 161.46 87.5851 167.994 89.0238C168.324 89.0931 168.462 88.5905 168.133 88.5211C161.598 87.0651 155.081 85.6092 148.546 84.1705C148.217 84.1012 148.078 84.6038 148.408 84.6732Z" fill="#DFE6E9"/>
<path d="M148.633 101.088C154.336 102.943 160.056 104.745 165.793 106.496C166.122 106.6 166.244 106.097 165.932 105.993C160.194 104.243 154.474 102.44 148.772 100.585C148.46 100.481 148.321 100.984 148.633 101.088Z" fill="#DFE6E9"/>
<path d="M167.908 88.7981C167.908 94.7261 167.908 100.654 167.908 106.565C167.908 106.894 168.428 106.894 168.428 106.565C168.428 100.637 168.428 94.7088 168.428 88.7981C168.428 88.4514 167.908 88.4514 167.908 88.7981Z" fill="#DFE6E9"/>
<path d="M165.481 106.513C166.4 106.634 167.318 106.773 168.22 106.894C168.549 106.946 168.688 106.443 168.358 106.391C167.44 106.27 166.521 106.131 165.62 106.01C165.29 105.975 165.152 106.478 165.481 106.513Z" fill="#DFE6E9"/>
<path d="M149.899 86.7355C149.639 90.8782 149.587 95.0209 149.725 99.1635C149.743 99.4929 150.263 99.4929 150.245 99.1635C150.107 95.0209 150.159 90.8782 150.419 86.7355C150.436 86.4062 149.916 86.4062 149.899 86.7355Z" fill="#DFE6E9"/>
<path d="M149.933 99.8916C155.324 101.33 160.922 102.474 166.036 104.728C166.348 104.866 166.608 104.416 166.296 104.277C161.13 102.006 155.497 100.828 150.054 99.3889C149.76 99.3022 149.621 99.8049 149.933 99.8916Z" fill="#DFE6E9"/>
<path d="M150.002 86.7358C155.601 87.6892 161.182 88.7465 166.746 89.8732C167.076 89.9425 167.214 89.4398 166.885 89.3705C161.321 88.2265 155.74 87.1865 150.141 86.2331C149.812 86.1811 149.673 86.6838 150.002 86.7358Z" fill="#DFE6E9"/>
<path d="M166.486 89.4744C166.088 94.3971 165.915 99.3371 165.932 104.277C165.932 104.606 166.452 104.606 166.452 104.277C166.417 99.3371 166.608 94.3971 167.006 89.4744C167.024 89.1451 166.504 89.1451 166.486 89.4744Z" fill="#DFE6E9"/>
<path d="M150.297 93.0623C152.29 94.033 154.37 94.8303 156.502 95.4543C156.832 95.541 156.97 95.0383 156.641 94.9516C154.544 94.345 152.516 93.5823 150.557 92.6116C150.262 92.473 150.002 92.9236 150.297 93.0623Z" fill="#DFE6E9"/>
<path d="M158.062 88.1744C157.23 90.5144 156.554 92.9064 156.017 95.3504C155.948 95.6797 156.45 95.8184 156.52 95.489C157.057 93.0624 157.733 90.6704 158.565 88.313C158.669 87.9837 158.166 87.8624 158.062 88.1744Z" fill="#DFE6E9"/>
<path d="M157.508 91.1554C159.068 90.8608 160.299 92.5594 160.559 93.8941C160.836 95.3155 160.195 96.6155 159.155 97.5861C158.045 98.6088 156.503 98.9208 155.151 98.1408C153.764 97.3435 153.331 95.5235 153.937 94.1194C154.076 93.8074 153.625 93.5474 153.487 93.8594C152.828 95.3848 153.14 97.2568 154.475 98.3141C155.913 99.4582 157.924 99.3195 159.293 98.1581C160.732 96.9448 161.529 95.1595 160.94 93.3221C160.472 91.8314 159.051 90.3581 157.369 90.6701C157.04 90.7221 157.179 91.2248 157.508 91.1554Z" fill="#DFE6E9"/>
<path d="M160.524 99.9438C161.183 100.36 161.772 100.828 162.292 101.382C162.517 101.625 162.899 101.261 162.656 101.018C162.101 100.429 161.46 99.9264 160.784 99.4931C160.507 99.3198 160.247 99.7704 160.524 99.9438Z" fill="#DFE6E9"/>
<path d="M162.188 97.3263C162.76 97.465 163.314 97.5864 163.886 97.725C164.216 97.7944 164.354 97.2917 164.025 97.2223C163.453 97.0837 162.898 96.9623 162.326 96.8236C161.997 96.7543 161.858 97.2397 162.188 97.3263Z" fill="#DFE6E9"/>
<path d="M161.685 91.745C162.395 91.7103 163.019 91.4676 163.574 91.0343C163.834 90.8263 163.47 90.4623 163.21 90.6703C162.777 91.0169 162.239 91.2076 161.685 91.2423C161.338 91.2423 161.338 91.7623 161.685 91.745Z" fill="#DFE6E9"/>
<path d="M158.375 86.0943C158.357 85.7129 158.305 85.1583 158.704 84.9503C159.085 84.7423 159.189 85.1236 159.172 85.4009C159.155 85.9036 158.999 86.3889 159.172 86.8743C159.293 87.1863 159.796 87.0476 159.675 86.7356C159.415 86.0596 160.073 84.9849 159.311 84.4996C158.947 84.2569 158.479 84.3956 158.184 84.6903C157.82 85.0716 157.82 85.6089 157.837 86.0943C157.855 86.4236 158.375 86.4236 158.375 86.0943Z" fill="#DFE6E9"/>
<path d="M40.4731 5.18236C40.4731 14.7677 40.4731 24.3357 40.4731 33.921C40.4731 34.2504 40.9931 34.2504 40.9931 33.921C40.9931 24.3357 40.9931 14.7677 40.9931 5.18236C40.9931 4.8357 40.4731 4.8357 40.4731 5.18236Z" fill="#DFE6E9"/>
<path d="M40.3692 34.077C34.0772 37.2663 28.9811 42.5183 25.9998 48.9143C25.8611 49.209 26.3118 49.4863 26.4505 49.1743C29.3971 42.865 34.4238 37.6823 40.6292 34.5276C40.9238 34.389 40.6638 33.9383 40.3692 34.077Z" fill="#DFE6E9"/>
<path d="M40.6986 34.3888C46.8172 36.9368 51.7573 41.9808 54.1839 48.1342C54.3053 48.4462 54.8079 48.3075 54.6866 47.9955C52.1733 41.6342 47.1466 36.5035 40.8372 33.8862C40.5252 33.7648 40.3866 34.2675 40.6986 34.3888Z" fill="#DFE6E9"/>
<path d="M27.3515 49.4868C35.7061 45.6907 45.0661 47.1121 53.7848 48.5508C54.1141 48.6028 54.2528 48.1001 53.9235 48.0481C45.0315 46.5921 35.5848 45.1881 27.0741 49.0361C26.7968 49.1748 27.0568 49.6254 27.3515 49.4868Z" fill="#DFE6E9"/>
<path d="M37.5439 47.268C37.0412 48.36 36.8332 49.6773 37.3706 50.804C37.9599 52.052 39.4159 52.6066 40.7332 52.6413C41.9639 52.676 43.2639 52.156 43.8879 51.0293C44.4599 49.972 44.3906 48.6893 43.5586 47.788C43.3332 47.5453 42.9692 47.9093 43.1946 48.152C43.9052 48.9146 43.8879 50.0933 43.3159 50.9426C42.7092 51.8613 41.5306 52.1733 40.4732 52.0866C39.3812 52 38.2372 51.4973 37.8039 50.44C37.4052 49.4866 37.5786 48.412 37.9946 47.4933C38.1332 47.216 37.6826 46.956 37.5439 47.268Z" fill="#DFE6E9"/>
<path d="M15.0798 63.6998C18.4425 61.5505 21.8225 59.4012 25.1851 57.2692C25.4625 57.0959 25.2025 56.6452 24.9251 56.8185C21.5625 58.9679 18.1825 61.1172 14.8198 63.2492C14.5251 63.4398 14.7851 63.8905 15.0798 63.6998Z" fill="#DFE6E9"/>
<path d="M16.9172 73.9787C19.7772 71.3614 22.4985 68.6054 25.0812 65.7107C25.3065 65.468 24.9425 65.0867 24.7172 65.3467C22.1345 68.2414 19.4132 70.9974 16.5532 73.6147C16.3105 73.8401 16.6745 74.2041 16.9172 73.9787Z" fill="#DFE6E9"/>
<path d="M30.5585 72.3141C27.9585 79.0048 25.5318 85.7821 23.2958 92.6115C23.1918 92.9235 23.6945 93.0621 23.7985 92.7501C26.0345 85.9208 28.4611 79.1608 31.0611 72.4528C31.1825 72.1408 30.6798 72.0194 30.5585 72.3141Z" fill="#DFE6E9"/>
<path d="M41.3571 67.5822C43.3851 72.9382 45.4305 78.2943 47.4585 83.6329C47.5798 83.9449 48.0825 83.8063 47.9612 83.4943C45.9332 78.1383 43.8878 72.7822 41.8598 67.4436C41.7385 67.1316 41.2358 67.2702 41.3571 67.5822Z" fill="#DFE6E9"/>
<path d="M50.9079 60.1466C53.9412 62.6946 56.7839 65.4679 59.4185 68.4319C59.6439 68.6746 60.0079 68.3106 59.7825 68.0679C57.1479 65.1039 54.3052 62.3479 51.2719 59.7826C51.0292 59.5572 50.6652 59.9212 50.9079 60.1466Z" fill="#DFE6E9"/>
<path d="M55.5703 53.0393C57.9276 54.2006 60.3023 55.3446 62.6596 56.506C62.9543 56.6447 63.2316 56.2113 62.9196 56.0553C60.5623 54.894 58.1876 53.75 55.8303 52.5886C55.5356 52.45 55.2756 52.8833 55.5703 53.0393Z" fill="#DFE6E9"/>
<path d="M40.8199 134.593C44.6505 131.3 49.5905 129.982 54.3919 128.769C56.8359 128.145 59.2625 127.521 61.6545 126.689C64.4105 125.736 67.0972 124.574 69.7665 123.413C70.0785 123.274 69.8012 122.841 69.5065 122.962C66.6639 124.193 63.8212 125.424 60.8919 126.412C58.4479 127.226 55.9519 127.833 53.4559 128.474C48.8452 129.67 44.1479 131.057 40.4732 134.229C40.1959 134.437 40.5599 134.801 40.8199 134.593Z" fill="#DFE6E9"/>
<path d="M73.9786 45.5519C85.2799 46.2452 96.5119 47.7358 107.623 49.9892C107.952 50.0585 108.091 49.5558 107.761 49.4865C96.6159 47.2158 85.3319 45.7252 73.9959 45.0145C73.6319 45.0145 73.6319 45.5345 73.9786 45.5519Z" fill="#DFE6E9"/>
<path d="M73.9957 45.1534C74.1171 44.4254 74.1517 43.6801 74.0997 42.9521C74.0824 42.6227 73.5624 42.6227 73.5797 42.9521C73.6317 43.6454 73.6144 44.3387 73.493 45.0321C73.441 45.3441 73.9437 45.4827 73.9957 45.1534Z" fill="#DFE6E9"/>
<path d="M73.9438 43.4548C85.2451 44.6161 96.5984 45.6387 107.726 48.0307C108.056 48.1001 108.194 47.5974 107.865 47.5281C96.6851 45.1361 85.2971 44.0961 73.9438 42.9348C73.6144 42.9001 73.6144 43.4201 73.9438 43.4548Z" fill="#DFE6E9"/>
<path d="M107.501 47.6834C107.432 48.3421 107.484 49.0007 107.605 49.6594C107.675 49.9887 108.177 49.8501 108.108 49.5207C107.987 48.9141 107.969 48.3074 108.021 47.6834C108.056 47.3541 107.536 47.3541 107.501 47.6834Z" fill="#DFE6E9"/>
<path d="M74.8105 37.4915C74.5852 39.5021 74.8105 41.4781 75.5039 43.3848C75.6252 43.6968 76.1279 43.5581 76.0065 43.2461C75.3305 41.3915 75.1052 39.4675 75.3305 37.4915C75.3652 37.1448 74.8452 37.1621 74.8105 37.4915Z" fill="#DFE6E9"/>
<path d="M74.7237 37.5438C76.8904 38.1331 79.109 38.3931 81.345 38.2891C81.6744 38.2718 81.6744 37.7518 81.345 37.7691C79.1437 37.8558 76.977 37.6131 74.8624 37.0411C74.533 36.9545 74.3944 37.4571 74.7237 37.5438Z" fill="#DFE6E9"/>
<path d="M80.9119 38.2717C81.1892 40.0397 80.9639 41.8077 80.2186 43.437C80.0799 43.7317 80.5306 44.009 80.6692 43.697C81.4665 41.929 81.7092 40.057 81.4145 38.133C81.3625 37.8037 80.8599 37.9423 80.9119 38.2717Z" fill="#DFE6E9"/>
<path d="M76.7171 37.3357C75.3651 35.5503 74.8625 33.3144 75.3478 31.1304C75.2091 31.165 75.0531 31.1997 74.9145 31.2517C76.6998 32.985 77.8264 35.2557 78.1211 37.7343C78.1558 38.0637 78.6758 38.0637 78.6411 37.7343C78.3464 35.117 77.1851 32.725 75.2785 30.8877C75.1398 30.749 74.8798 30.801 74.8451 31.009C74.3425 33.3317 74.8451 35.7237 76.2665 37.613C76.4571 37.8557 76.9078 37.5957 76.7171 37.3357Z" fill="#DFE6E9"/>
<path d="M78.0694 35.2902C78.3121 34.0595 78.6934 32.8809 79.2654 31.7715C79.5254 31.2515 79.8374 30.7489 80.1841 30.2635C80.4268 29.9342 80.4268 29.7262 80.5828 30.1075C80.6868 30.3675 80.7215 30.8529 80.7561 31.1129C81.0161 33.5049 80.3054 35.9315 78.8148 37.8209C78.6068 38.0809 78.9708 38.4449 79.1788 38.1849C80.9641 35.9142 81.8655 32.6902 81.0508 29.8475C80.6694 28.5128 79.7681 29.9342 79.4041 30.4889C78.5028 31.9102 77.8961 33.5049 77.5668 35.1515C77.5148 35.4809 78.0174 35.6195 78.0694 35.2902Z" fill="#DFE6E9"/>
<path d="M85.8345 44.5462C85.9039 44.3036 85.9039 44.1302 85.8865 43.8703C85.8692 43.6623 85.6785 43.2289 85.7479 43.0556C86.0079 42.3449 87.6372 42.8649 88.1225 42.9169C89.8385 43.1249 91.5372 43.3503 93.2359 43.5929C96.5292 44.0609 99.8052 44.5982 103.064 45.1702C102.995 45.0836 102.943 44.9969 102.873 44.9276C102.925 45.2916 102.96 45.6556 103.012 46.0196C103.047 46.3489 103.567 46.3489 103.532 46.0196C103.48 45.6556 103.445 45.2916 103.393 44.9276C103.376 44.8236 103.324 44.7022 103.203 44.6849C99.3719 43.9916 95.5412 43.3849 91.6932 42.8649C89.9252 42.6223 88.0879 42.2409 86.3025 42.1889C85.9039 42.1716 85.5052 42.2409 85.2972 42.6396C85.0199 43.1943 85.4705 43.8183 85.3319 44.3902C85.2452 44.7369 85.7479 44.8756 85.8345 44.5462Z" fill="#DFE6E9"/>
<path d="M91.173 42.605C90.5143 41.5997 91.901 41.0623 92.6636 41.0623C93.3916 41.0623 94.1197 41.2357 94.8477 41.3397C96.165 41.5303 97.4997 41.721 98.817 41.929C100.117 42.1197 101.434 42.345 102.734 42.5877C103.324 42.709 103.913 42.8303 104.52 42.969C105.04 43.0903 107.154 43.3503 106.704 44.321C106.565 44.6157 107.016 44.893 107.154 44.581C107.882 43.0037 105.508 42.657 104.502 42.4317C102.405 41.9637 100.29 41.617 98.1583 41.305C97.101 41.149 96.061 40.993 95.0036 40.8543C94.0676 40.7157 93.045 40.4383 92.0916 40.5943C91.0343 40.7503 90.081 41.8597 90.757 42.8823C90.913 43.1423 91.3636 42.8823 91.173 42.605Z" fill="#DFE6E9"/>
<path d="M103.081 45.153C104.295 45.465 105.525 45.5344 106.773 45.3264C107.103 45.2744 106.964 44.7717 106.635 44.8237C105.491 44.997 104.347 44.945 103.22 44.6503C102.891 44.581 102.752 45.0837 103.081 45.153Z" fill="#DFE6E9"/>
<path d="M26.2599 49.5037C29.8479 49.9197 33.4533 50.145 37.0759 50.1797C37.4053 50.1797 37.4053 49.6597 37.0759 49.6597C33.4533 49.625 29.8479 49.3824 26.2599 48.9837C25.9306 48.949 25.9306 49.469 26.2599 49.5037Z" fill="#DFE6E9"/>
<path d="M44.3039 49.9545C47.6839 49.9545 50.9945 49.5385 54.3052 48.8798C54.6345 48.8105 54.4959 48.3078 54.1665 48.3772C50.9079 49.0358 47.6492 49.4345 44.3039 49.4345C43.9746 49.4345 43.9746 49.9545 44.3039 49.9545Z" fill="#DFE6E9"/>
<path d="M31.7892 61.3081C30.0559 64.3934 28.3225 67.4787 26.5892 70.564C26.4332 70.8587 26.8665 71.1187 27.0399 70.824C28.7732 67.7387 30.5065 64.6534 32.2399 61.5681C32.3959 61.2734 31.9452 61.0134 31.7892 61.3081Z" fill="#DFE6E9"/>
<path d="M43.4892 58.1183C44.6159 59.9036 45.6385 61.7236 46.5745 63.6129C46.7305 63.9076 47.1812 63.6476 47.0252 63.3529C46.0892 61.4809 45.0492 59.6436 43.9398 57.8583C43.7665 57.5636 43.3158 57.8236 43.4892 58.1183Z" fill="#DFE6E9"/>
<path d="M51.2024 54.4092C52.5197 55.1719 53.8197 55.9172 55.137 56.6799C55.4317 56.8532 55.6917 56.4025 55.397 56.2292C54.0797 55.4665 52.7797 54.7212 51.4624 53.9585C51.1677 53.7852 50.9077 54.2359 51.2024 54.4092Z" fill="#DFE6E9"/>
<path d="M85.7657 164.302C98.6097 160.818 111.263 156.693 123.691 151.944C129.827 149.604 135.894 147.108 141.891 144.456C144.942 143.121 147.958 141.734 150.974 140.313C153.938 138.926 156.85 137.418 159.848 136.136C163.28 134.662 166.955 133.501 170.734 133.744C174.53 133.986 177.962 135.772 181.272 137.505C181.567 137.661 181.827 137.21 181.532 137.054C178.759 135.598 175.916 134.108 172.814 133.484C169.798 132.894 166.73 133.258 163.8 134.125C160.68 135.044 157.751 136.482 154.839 137.886C151.806 139.36 148.738 140.798 145.67 142.185C133.224 147.836 120.502 152.828 107.554 157.161C100.308 159.588 93.011 161.789 85.6443 163.782C85.2977 163.886 85.4363 164.389 85.7657 164.302Z" fill="#2D3436"/>
<path d="M172.155 138.545C174.599 139.031 176.904 138.095 179.314 137.835C182.07 137.54 184.756 138.337 187.322 139.256C192.279 141.024 197.028 143.312 201.5 146.068C201.795 146.241 202.055 145.791 201.76 145.617C197.34 142.896 192.643 140.625 187.755 138.857C185.363 137.991 182.85 137.193 180.267 137.245C177.58 137.315 174.98 138.563 172.294 138.043C171.964 137.973 171.826 138.476 172.155 138.545Z" fill="#2D3436"/>
<path d="M69.1255 177.337C67.2362 180.353 66.5602 183.872 66.1615 187.356C65.6935 191.429 65.3295 195.52 64.9309 199.593C64.8962 199.923 65.4162 199.923 65.4509 199.593C65.8322 195.711 66.1962 191.828 66.6122 187.945C67.0109 184.357 67.6175 180.717 69.5762 177.597C69.7496 177.32 69.3162 177.06 69.1255 177.337Z" fill="#2D3436"/>
<path d="M81.3973 184.86C78.312 190.008 77.896 196.109 77.9133 201.968C77.9133 202.297 78.4333 202.297 78.4333 201.968C78.416 196.196 78.7973 190.181 81.848 185.12C82.0213 184.825 81.5707 184.565 81.3973 184.86Z" fill="#2D3436"/>
<path d="M55.1375 182.988C58.1535 179.678 61.6375 176.419 65.4682 174.079C69.4549 171.652 74.0655 171.219 78.6069 170.889C78.9362 170.872 78.9362 170.352 78.6069 170.369C74.0829 170.716 69.4549 171.132 65.4682 173.472C63.5269 174.616 61.7935 176.055 60.0949 177.494C58.2229 179.088 56.4375 180.787 54.7735 182.607C54.5482 182.867 54.9122 183.231 55.1375 182.988Z" fill="#2D3436"/>
<path d="M134.039 128.422C143.642 130.173 153.192 132.201 162.674 134.506C163.003 134.593 163.142 134.09 162.812 134.004C153.331 131.698 143.78 129.67 134.178 127.92C133.848 127.868 133.71 128.37 134.039 128.422Z" fill="#2D3436"/>
<path d="M88.8511 92.5425C89.1284 93.7038 89.5097 95.6105 89.5097 97.9852C89.5097 104.711 86.4937 110.864 85.5751 112.719C84.9857 113.897 83.8071 116.151 83.0444 119.479C82.7844 120.571 82.6457 121.489 82.5764 122.113C83.2697 122.183 84.3271 122.304 85.5751 122.495C88.3831 122.911 89.5617 123.275 91.2084 123.535C92.6297 123.743 94.6577 123.899 97.2231 123.621C97.1537 124.263 97.0324 125.216 96.8417 126.343C96.3911 129.151 96.1657 130.537 95.6284 131.595C94.7964 133.224 93.8777 133.692 94.1204 134.403C94.2937 134.923 94.9524 135.165 96.5644 135.529C99.2164 136.136 100.638 136.205 102.007 136.465C103.532 136.76 103.584 137.003 106.895 138.251C109.755 139.325 111.402 139.949 113.464 140.417C114.123 140.573 117.572 141.336 122.096 141.163C124.627 141.076 125.546 140.764 127.92 140.972C129.914 141.145 131.526 141.579 132.618 141.908C132.774 140.937 132.999 139.481 133.172 137.679C133.554 133.831 133.259 133.189 133.831 131.3C134.264 129.827 134.49 130.069 136.171 126.516C137.263 124.193 137.818 123.032 138.234 121.628C138.476 120.779 139.187 118.248 139.083 114.868C138.979 111.401 138.182 112.06 137.87 108.299C137.835 107.813 137.766 106.756 137.176 106.531C136.743 106.357 136.223 106.721 135.616 107.12C133.952 108.212 132.566 108.923 132.254 109.079C131.387 109.495 129.983 109.807 127.712 109.131C127.955 108.351 128.267 107.276 128.596 105.959C129.168 103.619 129.411 101.955 129.671 100.1C129.671 100.1 130.26 95.9745 129.48 93.5652C129.324 93.0972 129.099 92.7332 128.752 92.5945C128.406 92.4558 128.076 92.5945 127.73 92.6985C127.227 92.8545 126.516 92.9932 125.528 92.9932C125.39 92.7505 125.164 92.3865 124.852 92.0225C124.454 91.5545 123.656 90.7745 122.114 90.1678C120.207 89.4052 118.075 89.2838 116.012 89.2838C112.511 89.2838 112.251 89.6652 108.854 89.6825C107.068 89.6825 105.56 89.6998 103.532 89.3878C99.9964 88.8678 99.7364 88.1052 97.7777 88.3132C96.4084 88.4518 95.1431 89.1105 92.6124 90.4105C91.0177 91.2252 89.7524 91.9878 88.8511 92.5425Z" fill="white"/>
<path d="M107.796 105.005C111.904 104.416 115.631 106.756 119.375 108.021C123.206 109.304 127.279 109.772 131.318 109.442C131.647 109.408 131.647 108.888 131.318 108.922C127.002 109.269 122.668 108.697 118.612 107.206C115.059 105.889 111.558 103.948 107.658 104.52C107.328 104.554 107.467 105.04 107.796 105.005Z" fill="#2D3436"/>
<path d="M109.218 105.543C107.814 104.953 106.358 102.717 104.676 103.896C103.914 104.416 103.602 105.387 103.342 106.219C102.926 107.536 102.614 108.888 102.267 110.24C101.574 113.048 100.499 115.613 99.2683 118.231C98.1417 120.588 97.2057 122.928 96.7203 125.51C96.2697 127.92 96.0443 130.468 94.7963 132.634C94.4497 133.258 93.4443 134.177 94.207 134.87C94.935 135.546 96.3737 135.91 97.2923 136.153C98.5057 136.482 99.7363 136.552 101.002 136.604C102.544 136.656 103.862 137.037 105.248 137.644C107.762 138.718 110.258 139.845 112.892 140.59C116.012 141.474 118.994 141.492 122.218 141.284C125.667 141.058 129.047 141.318 132.392 142.202C132.531 142.237 132.652 142.15 132.704 142.029C133.97 138.822 133.034 135.321 133.935 132.045C134.836 128.769 137.159 126.117 138.182 122.876C139.187 119.756 139.36 116.393 138.979 113.152C138.806 111.592 138.494 110.049 138.078 108.541C137.87 107.761 137.679 105.872 136.448 106.323C135.703 106.6 134.975 107.189 134.316 107.64C133.588 108.125 132.86 108.628 132.098 109.079C130.486 110.067 128.77 110.847 126.846 110.829C126.516 110.829 126.516 111.349 126.846 111.349C129.636 111.367 131.976 109.807 134.212 108.316C134.784 107.935 135.356 107.536 135.963 107.189C136.032 107.137 136.31 106.929 136.431 106.912C137.28 106.773 137.003 107.068 137.194 107.397C137.402 107.744 137.471 108.299 137.575 108.68C138.008 110.24 138.32 111.835 138.494 113.464C138.823 116.619 138.632 119.86 137.627 122.893C136.639 125.892 134.576 128.37 133.588 131.352C132.444 134.784 133.536 138.528 132.184 141.908C132.288 141.856 132.392 141.786 132.496 141.734C130 141.076 127.452 140.729 124.87 140.712C122.183 140.694 119.496 141.162 116.81 140.885C114.192 140.608 111.662 139.793 109.218 138.822C106.982 137.938 104.694 136.552 102.284 136.222C101.054 136.049 99.7883 136.153 98.5577 135.945C97.431 135.754 95.8363 135.46 94.935 134.766C94.5363 134.454 94.467 134.229 94.675 133.761C94.779 133.518 95.0043 133.293 95.1257 133.068C95.3683 132.652 95.5763 132.236 95.7497 131.785C96.1657 130.762 96.4257 129.688 96.651 128.596C97.1017 126.325 97.379 124.055 98.1937 121.871C99.0603 119.548 100.291 117.364 101.244 115.076C102.354 112.424 102.822 109.599 103.654 106.843C104.018 105.647 104.642 103.515 106.323 104.277C107.276 104.711 107.935 105.612 108.906 106.028C109.27 106.115 109.53 105.664 109.218 105.543Z" fill="#2D3436"/>
<path d="M116.567 111.124C118.924 111.956 121.368 112.181 123.847 111.817C124.176 111.765 124.037 111.263 123.708 111.315C121.333 111.661 118.976 111.419 116.705 110.621C116.376 110.5 116.255 111.003 116.567 111.124Z" fill="#2D3436"/>
<path d="M128.25 109.512C130.001 109.616 131.717 109.408 133.381 108.87C133.693 108.766 133.554 108.264 133.242 108.368C131.613 108.888 129.966 109.096 128.25 108.974C127.903 108.974 127.921 109.494 128.25 109.512Z" fill="#2D3436"/>
<path d="M89.4055 92.6638C90.8615 91.7798 92.3002 90.8958 93.7562 90.0291C95.1428 89.1971 96.4948 88.5558 98.1588 88.6078C99.8922 88.6771 101.591 89.2491 103.29 89.5611C104.798 89.8211 106.34 89.9771 107.866 90.0291C113.447 90.1851 120.9 87.8105 125.112 92.8198C125.32 93.0798 125.702 92.6985 125.476 92.4558C121.212 87.3945 113.846 89.6131 108.195 89.5265C106.375 89.4918 104.555 89.3011 102.752 88.9545C101.123 88.6251 99.4935 88.0878 97.8295 88.1051C96.3215 88.1225 95.0215 88.6945 93.7388 89.4398C92.1962 90.3411 90.6708 91.2945 89.1455 92.2305C88.8508 92.3865 89.1108 92.8371 89.4055 92.6638Z" fill="#2D3436"/>
<path d="M118.127 93.8081C120.207 94.0508 122.287 93.9988 124.349 93.6348C125.303 93.4614 126.239 93.1321 127.192 92.9934C127.712 92.9241 128.336 92.8721 128.804 93.1494C129.445 93.5134 129.497 94.3281 129.515 94.9868C129.584 99.6148 128.856 104.295 127.556 108.732C127.469 109.061 127.972 109.2 128.059 108.871C128.787 106.392 129.324 103.861 129.653 101.313C129.827 99.9961 129.931 98.6614 130 97.3268C130.052 96.2174 130.243 94.8828 129.913 93.8081C129.376 92.0054 127.279 92.4214 125.909 92.7681C123.344 93.4268 120.744 93.6174 118.127 93.3054C117.797 93.2361 117.797 93.7561 118.127 93.8081Z" fill="#2D3436"/>
<path d="M88.5736 92.4208C88.6256 95.3155 89.6136 98.1062 89.423 101.036C89.2496 103.618 88.3829 106.079 87.3776 108.437C85.4709 112.909 82.9403 117.19 82.3509 122.095C82.3336 122.234 82.4896 122.355 82.6109 122.355C83.9283 122.321 85.1589 122.667 86.4243 122.979C87.6203 123.274 88.8163 123.517 90.047 123.69C92.4736 124.019 94.935 124.071 97.379 123.863C97.7083 123.829 97.7083 123.309 97.379 123.343C94.8136 123.569 92.2136 123.499 89.6656 123.118C87.3256 122.754 85.0203 121.801 82.6283 121.853C82.7149 121.939 82.8016 122.026 82.8883 122.113C83.5123 117.017 86.2856 112.597 88.1923 107.917C89.0936 105.715 89.8043 103.427 89.9776 101.053C90.1683 98.1408 89.1803 95.3502 89.1283 92.4382C89.0936 92.0742 88.5736 92.0742 88.5736 92.4208Z" fill="#2D3436"/>
<path opacity="0.13" d="M112.598 104.953C113.534 105.074 116.914 105.542 119.34 103.999C121.282 102.769 122.703 100.169 122.703 97.7767C122.703 96.1473 122.027 94.674 122.876 93.894C123.102 93.686 123.24 93.7207 124.263 93.4607C126.759 92.8367 127.088 92.3513 127.972 92.594C129.012 92.8713 129.55 93.7727 129.619 93.894C130.191 94.882 129.931 95.974 129.792 96.65C128.822 101.33 129.74 101.469 128.319 106.755C128.042 107.761 127.799 108.575 127.626 109.095C128.354 109.182 129.324 109.234 130.468 109.095C131.456 108.974 132.843 108.801 134.264 107.969C135.686 107.137 136.119 106.235 136.76 106.409C137.332 106.565 137.558 107.397 137.714 107.969C138.788 112.094 138.754 114.105 138.754 114.105C138.667 118.681 138.632 120.986 138.32 122.13C136.968 127.157 134.472 126.602 133.831 130.849C133.432 133.501 134.212 134.957 133.311 138.787C132.999 140.087 132.635 141.127 132.358 141.803C131.144 141.457 129.22 141.006 126.828 140.85C123.31 140.625 121.958 141.249 118.543 141.197C115.562 141.162 110.57 140.607 110.431 139.377C110.206 137.609 120.467 136.707 121.143 132.547C121.594 129.791 117.468 128.422 115.614 123.742C113.811 119.218 115.267 114.382 116.74 111.054C118.838 111.262 120.935 111.453 123.05 111.661C112.58 106.461 110.57 105.057 110.708 104.745C110.76 104.623 111.402 104.779 112.598 104.953Z" fill="#636E72"/>
<path opacity="0.16" d="M137.124 106.687C136.57 106.721 136.812 109.807 135.738 114.972C135.599 115.631 134.49 120.9 132.028 126.117C130.468 129.428 127.227 135.113 120.71 140.712C124.627 141.197 128.544 141.683 132.462 142.185C132.704 141.371 133.068 140.088 133.328 138.476C133.952 134.715 133.38 133.588 134.022 131.057C134.628 128.665 135.356 128.752 136.778 125.528C136.968 125.095 138.372 121.888 138.858 118.196C139.62 112.285 137.887 106.635 137.124 106.687Z" fill="#636E72"/>
<path opacity="0.18" d="M129.532 99.2506C129.186 99.1466 128.562 101.816 126.43 103.913C124.055 106.253 120.762 106.912 117.971 107.016C119.618 107.692 121.75 108.385 124.28 108.749C125.598 108.94 126.811 109.009 127.903 109.009C129.654 101.348 129.827 99.3373 129.532 99.2506Z" fill="#636E72"/>
<path d="M38.3586 171.012C38.8439 174.305 39.3292 177.581 39.7972 180.874C32.5172 190.46 29.3452 195.712 30.2986 196.613C31.3212 197.584 37.1452 193.51 47.7706 184.393C47.4066 178.725 47.0426 173.074 46.6786 167.406C43.9052 168.602 41.1319 169.816 38.3586 171.012Z" fill="#2D3436"/>
<path d="M67.0797 126.621C63.249 127.869 55.6224 130.798 48.0304 137.211C44.8237 139.915 41.565 142.706 38.8957 147.525C36.6077 151.65 35.9317 155.151 34.9264 160.629C34.1637 164.789 33.3664 170.751 33.4704 178.083C35.7584 177.91 38.185 177.667 40.7504 177.286C43.9917 176.818 46.9904 176.229 49.7464 175.57C49.7117 171.947 50.0237 167.423 51.2024 162.345C51.9824 158.999 52.9704 156.087 53.9757 153.609C61.169 146.953 67.8424 143.833 72.765 142.238C78.7104 140.297 83.633 140.071 87.4464 135.617C89.717 132.982 92.1784 128.163 90.497 125.425C87.169 120.051 69.6277 125.789 67.0797 126.621Z" fill="white" stroke="#636E72" stroke-miterlimit="10"/>
<path opacity="0.14" d="M88.4174 123.934C87.3601 124.142 87.6548 126.898 86.7361 129.376C85.0721 133.814 80.1148 135.772 76.1281 137.35C52.6761 146.675 50.0934 148.512 48.0654 151.338C46.1414 154.024 45.3094 156.884 43.6628 162.604C41.9814 168.411 41.3747 173.455 41.1321 177.061C44.0094 176.593 46.8867 176.125 49.7641 175.657C49.7467 173.75 49.8334 171.705 50.0414 169.555C50.6828 163.125 52.2774 157.682 53.9761 153.418C55.0681 152.516 56.5934 151.303 58.4828 149.951C62.3308 147.195 65.1041 145.202 68.9001 143.659C71.8641 142.446 72.1068 142.879 79.5081 140.383C81.5534 139.69 82.6628 139.274 84.0148 138.407C87.1348 136.414 88.6774 133.848 89.3708 132.687C90.5321 130.711 91.3814 129.272 91.0521 127.435C90.7401 125.563 89.3361 123.743 88.4174 123.934Z" fill="#636E72"/>
<path opacity="0.16" d="M63.3706 146.086C57.0439 147.248 53.6639 150.108 52.1039 151.72C49.1572 154.77 47.9439 158.584 45.6212 166.072C44.2866 170.388 43.4372 174.028 42.8999 176.576C45.0666 176.298 47.2159 176.021 49.3826 175.726C49.4519 172.069 49.8332 168.984 50.2319 166.626C50.4746 165.136 50.8906 162.744 51.8266 159.676C52.5892 157.18 53.4386 155.082 54.1666 153.488C57.2346 151.026 60.3026 148.548 63.3706 146.086Z" fill="#636E72"/>
<path d="M41.6693 141.995C42.3453 141.302 43.3853 140.383 44.8413 139.742C48.724 138.043 52.728 139.465 55.1373 140.297C60.528 142.169 66.248 143.139 71.4133 145.531C79.2306 149.154 89.492 153.921 100.221 155.827C112.251 157.959 114.816 154.718 131.092 157.145C137.089 158.029 141.943 159.242 145.115 160.143C143.728 162.934 142.289 163.818 141.18 164.078C140.435 164.251 140.053 164.095 139.499 164.459C138.112 165.361 138.84 167.406 137.817 168.949C136.812 170.457 134.871 170.318 132.773 170.821C128.509 171.826 128.093 174.339 123.24 177.563C120.883 179.123 116.445 182.053 111.453 181.862C106.097 181.654 105.421 178.066 99.476 176.055C92.0573 173.559 89.804 178.083 79.8373 177.373C77.74 177.217 67.4093 176.489 60.1986 169.33C55.276 164.459 56.1773 160.906 50.6653 155.307C46.4533 151.026 41.7386 148.807 38.4973 147.629C38.896 146.797 39.3466 145.947 39.832 145.063C40.4386 143.954 41.0627 142.949 41.6693 141.995Z" fill="white" stroke="#636E72" stroke-miterlimit="10"/>
<path d="M43.8012 141.961C46.2105 142.03 48.5505 142.567 50.7519 143.555C50.9772 143.659 51.1852 143.33 50.9426 143.226C48.6719 142.203 46.2799 141.649 43.8012 141.562C43.5412 141.562 43.5412 141.961 43.8012 141.961Z" fill="#2D3436"/>
<path d="M49.5387 151.789C53.6294 154.129 55.796 158.497 58.6387 162.067C61.6547 165.846 65.5374 168.879 69.9227 170.925C70.1481 171.029 70.3387 170.699 70.1134 170.595C65.5374 168.446 61.516 165.239 58.448 161.201C55.8134 157.734 53.6467 153.695 49.7467 151.459C49.5214 151.321 49.3134 151.667 49.5387 151.789Z" fill="#2D3436"/>
<path d="M124.124 163.887C129.012 163.939 133.9 163.662 138.753 163.073C138.996 163.038 138.996 162.657 138.753 162.674C133.9 163.263 129.012 163.541 124.124 163.489C123.864 163.506 123.864 163.887 124.124 163.887Z" fill="#2D3436"/>
<path d="M122.651 170.353C124.453 171.011 126.291 171.566 128.145 171.982C128.388 172.034 128.492 171.67 128.249 171.601C126.377 171.167 124.54 170.63 122.755 169.971C122.512 169.885 122.408 170.266 122.651 170.353Z" fill="#2D3436"/>
<path d="M61.8627 158.375C66.144 162.171 71.3266 165.187 76.8733 166.695C79.664 167.441 82.5066 167.562 85.332 166.955C88.3133 166.314 91.0866 165.031 93.7386 163.541C93.9639 163.419 93.7559 163.073 93.5479 163.211C91.0173 164.633 88.3653 165.863 85.54 166.522C82.576 167.215 79.612 167.077 76.6826 166.245C71.3093 164.719 66.3173 161.807 62.14 158.115C61.9493 157.925 61.672 158.202 61.8627 158.375Z" fill="#2D3436"/>
<path d="M86.008 156.087C87.152 156.313 88.192 156.815 89.024 157.647C89.9253 158.549 90.8787 160.646 89.1107 161.235C88.868 161.322 88.972 161.686 89.2147 161.617C90.5667 161.166 90.7573 159.641 90.1507 158.497C89.3533 156.989 87.724 156.035 86.112 155.723C85.8693 155.671 85.7653 156.053 86.008 156.087Z" fill="#2D3436"/>
<path d="M91.9358 166.244C95.6625 163.835 100.134 163.367 104.45 162.968C104.693 162.951 104.693 162.552 104.45 162.57C100.065 162.968 95.5238 163.454 91.7452 165.898C91.5372 166.036 91.7278 166.383 91.9358 166.244Z" fill="#2D3436"/>
<path d="M55.6402 142.965C59.4709 143.988 62.4869 146.605 65.6762 148.807C68.9869 151.095 72.6095 152.897 76.4229 154.163C76.6655 154.249 76.7695 153.868 76.5269 153.781C72.5402 152.464 68.8135 150.557 65.3989 148.131C62.3482 145.981 59.4015 143.555 55.7269 142.567C55.5015 142.532 55.3975 142.896 55.6402 142.965Z" fill="#2D3436"/>
<path opacity="0.13" d="M51.428 139.066C56.3333 141.354 59.852 143.764 62.1573 145.549C64.6186 147.456 65.416 148.444 68.0853 150.108C69.524 151.009 72.5053 152.864 76.7346 154.181C81.9346 155.81 84.188 155.1 86.1813 157.388C86.4413 157.682 87.932 159.381 87.7066 161.461C87.4293 164.061 84.6386 166.401 80.6693 166.99C81.796 167.008 83.0613 166.938 84.4306 166.748C87.672 166.297 90.2893 165.292 92.196 164.356C91.5893 165.066 90.9653 165.881 91.156 166.124C91.416 166.453 93.0973 165.5 94.276 164.928C96.4426 163.87 97.8813 163.732 102.995 162.934C114.279 161.184 115.371 160.681 118.924 161.01C121.663 161.27 124.852 161.946 124.852 162.536C124.835 163.142 121.316 163.368 121.333 163.662C121.368 164.026 127.608 165.725 133.813 163.506C135.217 163.004 138.736 161.548 139.967 162.865C140.313 163.229 140.487 163.836 141.093 163.992C141.821 164.182 142.584 163.541 143.087 163.108C143.624 162.657 144.491 161.773 145.08 160.23C144.751 160.126 144.283 159.988 143.728 159.832C142.549 159.502 139.048 158.532 133.969 157.665C132.392 157.405 129.445 156.902 125.961 156.625C118.664 156.036 116.74 156.954 110.119 156.781C108.42 156.729 103.307 156.538 97.0666 155.186C91.5026 153.973 87.4986 152.378 80.8253 149.657C75.0186 147.3 74.36 146.71 70.0266 144.942C65.78 143.192 59.54 140.921 51.428 139.066Z" fill="#636E72"/>
<path opacity="0.18" d="M101.851 176.679C103.671 175.917 105.837 175.189 108.333 174.686C109.373 174.478 110.361 174.322 111.297 174.201C111.02 174.859 110.725 175.518 110.413 176.194C109.616 177.945 108.784 179.557 107.935 181.082C105.907 179.626 103.879 178.153 101.851 176.679Z" fill="#636E72"/>
<path opacity="0.15" d="M133.207 166.765C128.804 167.77 125.545 167.476 125.528 167.718C125.511 167.926 127.712 168.325 137.453 169.244C137.748 168.568 138.06 167.822 138.337 167.008C138.597 166.245 138.805 165.517 138.979 164.841C137.627 165.447 135.668 166.21 133.207 166.765Z" fill="#636E72"/>
<path opacity="0.22" d="M86.1642 155.966C86.0948 156.105 87.7935 156.486 88.6428 157.959C89.2668 159.051 89.2148 160.317 88.9548 161.409C89.1282 161.339 90.1335 160.923 90.3935 159.97C90.6535 158.982 89.9255 158.133 89.5095 157.647C88.2268 156.122 86.2335 155.81 86.1642 155.966Z" fill="#636E72"/>
<path opacity="0.15" d="M110.482 156.607C116.48 156.018 124.124 155.879 132.808 157.335C137.245 158.08 141.249 159.103 144.733 160.212C144.594 160.698 144.282 161.512 143.606 162.292C143.606 162.292 142.913 163.09 141.838 163.644C139.186 165.014 135.044 163.644 134.801 163.558C135.945 163.402 137.21 163.142 138.562 162.76C139.342 162.535 140.053 162.292 140.729 162.032C138.441 161.079 135.928 160.178 133.206 159.398C124.557 156.884 116.688 156.399 110.482 156.607Z" fill="#636E72"/>
<path d="M120.467 162.101C120.657 161.876 120.935 161.893 121.663 161.755C122.529 161.581 123.205 161.356 123.673 161.183C126.291 160.455 128.197 159.484 129.497 158.704C132.271 157.023 133.519 155.428 135.183 155.792C136.24 156.035 137.211 157.023 137.124 157.855C137.055 158.565 136.257 159.033 132.271 160.541C126.083 162.881 126.655 162.257 124.8 163.228C123.101 164.129 122.148 164.892 121.281 164.511C120.432 164.095 119.999 162.639 120.467 162.101Z" fill="#2D3436"/>
<path d="M153.14 148.148C150.592 150.158 150.644 153.434 150.644 153.712C150.679 154.786 150.956 155.636 151.164 156.138C148.096 157.698 147.593 158.34 147.68 158.634C147.923 159.397 152.481 159.518 154.579 156.953C155.064 156.364 155.255 155.774 155.619 154.63C156.347 152.36 157.335 147.784 155.913 147.038C155.099 146.622 153.764 147.662 153.14 148.148Z" fill="#2D3436"/>
<path d="M134.784 157.335C135.165 156.555 136.101 156.381 137.835 155.983C139.741 155.549 142.965 154.804 144.768 154.128C146.848 153.331 148.079 152.221 150.193 150.315C154.423 146.501 154.613 144.144 156.52 144.057C158.895 143.953 161.859 147.437 161.564 150.54C161.339 152.967 159.207 154.336 155.237 156.867C154.319 157.456 150.349 159.917 144.231 161.252C140.591 162.049 138.008 162.587 136.205 161.079C135.079 160.143 134.264 158.409 134.784 157.335Z" fill="#2D3436"/>
<path d="M157.63 149.205C155.082 151.216 155.134 154.492 155.134 154.769C155.168 155.844 155.446 156.693 155.654 157.196C152.586 158.756 152.083 159.397 152.17 159.692C152.412 160.455 156.971 160.576 159.068 158.011C159.554 157.421 159.744 156.832 160.108 155.688C160.836 153.417 161.824 148.841 160.403 148.096C159.571 147.663 158.236 148.72 157.63 149.205Z" fill="#2D3436"/>
<path d="M154.665 145.739C154.977 145.444 155.393 145.028 155.844 144.491C156.121 144.161 157.161 142.913 158.288 140.504C158.929 139.152 159.432 138.077 159.779 136.483C160.108 134.94 160.385 133.571 159.709 132.392C159.155 131.421 158.513 130.901 158.513 130.901C157.941 130.451 157.456 130.277 157.473 130C157.508 129.757 157.941 129.549 158.34 129.549C159.553 129.532 160.455 131.664 160.611 132.011C161.408 133.9 161.113 135.703 160.975 136.327C160.888 136.691 160.888 136.587 160.229 138.563C159.588 140.504 159.605 140.539 159.328 141.319C158.392 143.953 157.872 145.409 156.659 145.86C156.312 145.999 155.653 146.12 154.665 145.739Z" fill="#2D3436"/>
<path d="M131.075 160.281C130.468 159.987 128.804 159.189 128.717 157.976C128.7 157.768 128.891 157.023 129.255 155.549C129.411 154.925 129.428 154.891 129.497 154.579C129.723 153.556 129.653 153.348 129.861 152.88C129.948 152.689 130.329 151.805 130.832 151.788C131.283 151.771 131.785 152.481 131.976 153.539C132.843 153.521 133.952 153.504 134.819 153.487C135.755 153.469 136.864 153.452 137.783 153.435C137.956 153.157 138.251 152.759 138.684 152.343C139.1 151.944 139.395 151.667 139.655 151.736C140.001 151.823 140.071 152.533 140.192 153.435C140.625 156.572 141.007 156.832 140.677 157.681C140.331 158.548 139.637 158.999 138.857 159.501C138.701 159.623 134.767 162.067 131.075 160.281Z" fill="#2D3436"/>
<path d="M130.537 156.173C131.144 156.052 131.664 156.416 132.132 156.763C132.201 156.815 132.271 156.693 132.201 156.659C131.699 156.277 131.161 155.931 130.503 156.052C130.433 156.052 130.468 156.191 130.537 156.173Z" fill="white"/>
<path d="M134.68 156.763C135.235 156.347 135.859 156.087 136.535 156C136.622 155.983 136.622 155.861 136.535 155.861C135.824 155.948 135.183 156.208 134.611 156.641C134.559 156.693 134.611 156.815 134.68 156.763Z" fill="white"/>
<path d="M131.664 154.89C131.838 154.752 132.046 154.7 132.271 154.752C132.358 154.769 132.392 154.648 132.306 154.63C132.046 154.561 131.785 154.63 131.577 154.804C131.508 154.856 131.595 154.942 131.664 154.89Z" fill="white"/>
<path d="M134.645 154.804C134.836 154.734 135.027 154.752 135.2 154.873C135.269 154.925 135.339 154.804 135.269 154.769C135.079 154.648 134.836 154.613 134.628 154.7C134.524 154.717 134.559 154.838 134.645 154.804Z" fill="white"/>
<path d="M133.241 157.508C133.259 157.49 133.276 157.473 133.293 157.438C133.259 157.421 133.241 157.404 133.207 157.386C133.224 157.473 133.207 157.56 133.155 157.629C133.172 157.612 133.207 157.612 133.224 157.595C133.172 157.525 133.172 157.456 133.207 157.404C133.172 157.421 133.137 157.421 133.103 157.438C133.103 157.508 133.103 157.577 133.12 157.647C133.155 157.664 133.189 157.681 133.224 157.699C133.224 157.647 133.224 157.577 133.241 157.508C133.189 157.508 133.155 157.508 133.103 157.508C133.137 157.699 133.12 157.907 133.016 158.08C132.981 158.149 132.895 158.271 132.808 158.323C132.531 158.461 132.531 158.097 132.531 157.976C132.531 157.889 132.392 157.889 132.392 157.976C132.392 158.132 132.409 158.305 132.531 158.427C132.652 158.531 132.791 158.513 132.912 158.409C133.189 158.201 133.276 157.82 133.207 157.49C133.189 157.421 133.085 157.438 133.085 157.508C133.085 157.577 133.085 157.647 133.085 157.716C133.085 157.768 133.155 157.803 133.189 157.768C133.293 157.647 133.293 157.49 133.172 157.386C133.137 157.352 133.085 157.369 133.068 157.421C133.016 157.56 132.999 157.716 133.172 157.768C133.207 157.785 133.224 157.768 133.241 157.733C133.328 157.629 133.345 157.508 133.311 157.386C133.293 157.352 133.259 157.334 133.224 157.334C133.12 157.369 133.085 157.421 133.068 157.525C133.103 157.595 133.241 157.595 133.241 157.508Z" fill="white"/>
<path d="M133.19 157.56C133.051 157.872 133.103 158.375 133.45 158.548C133.831 158.739 133.987 158.253 134.022 157.976C134.022 157.889 133.9 157.889 133.883 157.976C133.866 158.097 133.866 158.219 133.796 158.323C133.675 158.513 133.467 158.461 133.346 158.305C133.19 158.097 133.19 157.837 133.294 157.595C133.346 157.525 133.224 157.491 133.19 157.56Z" fill="white"/>
<path d="M131.751 157.179C131.352 156.971 130.971 156.746 130.607 156.503C130.538 156.451 130.468 156.572 130.538 156.607C130.902 156.85 131.283 157.075 131.682 157.283C131.768 157.335 131.838 157.214 131.751 157.179Z" fill="white"/>
<path d="M131.612 157.594C131.231 157.542 130.849 157.542 130.45 157.594C130.364 157.612 130.364 157.733 130.45 157.733C130.832 157.681 131.213 157.681 131.612 157.733C131.699 157.733 131.699 157.594 131.612 157.594Z" fill="white"/>
<path d="M131.595 157.803C131.231 157.924 130.902 158.15 130.659 158.444C130.607 158.514 130.694 158.6 130.746 158.531C130.971 158.236 131.283 158.028 131.63 157.924C131.716 157.89 131.682 157.768 131.595 157.803Z" fill="white"/>
<path d="M134.576 157.699C135.113 157.335 135.72 157.127 136.361 157.092C136.448 157.092 136.448 156.954 136.361 156.954C135.685 157.006 135.061 157.214 134.507 157.578C134.437 157.63 134.507 157.751 134.576 157.699Z" fill="white"/>
<path d="M134.819 158.011C135.321 157.855 135.824 157.907 136.275 158.15C136.344 158.184 136.413 158.08 136.344 158.046C135.859 157.786 135.321 157.734 134.784 157.89C134.697 157.907 134.732 158.028 134.819 158.011Z" fill="white"/>
<path d="M135.027 158.323C135.442 158.41 135.789 158.618 136.066 158.93C136.118 158.999 136.205 158.895 136.153 158.843C135.858 158.514 135.494 158.288 135.061 158.202C134.975 158.167 134.94 158.306 135.027 158.323Z" fill="white"/>
<path d="M139.325 152.602C139.1 152.949 138.944 153.33 138.875 153.729C138.875 153.781 138.909 153.816 138.961 153.816C139.031 153.798 139.031 153.781 139.1 153.746C139.065 153.764 139.447 153.486 139.325 153.746C139.291 153.798 139.36 153.868 139.412 153.833C139.481 153.833 139.551 153.85 139.62 153.85C139.568 153.92 139.655 154.006 139.707 153.937C139.759 153.868 139.776 153.781 139.707 153.712C139.603 153.608 139.464 153.66 139.343 153.729C139.377 153.764 139.395 153.781 139.429 153.816C139.481 153.712 139.533 153.573 139.395 153.486C139.204 153.365 139.065 153.642 138.927 153.694C138.961 153.729 138.979 153.746 139.013 153.781C139.083 153.382 139.239 153.018 139.447 152.689C139.481 152.602 139.377 152.533 139.325 152.602Z" fill="white"/>
<path d="M130.728 152.672C130.815 152.967 130.849 153.262 130.832 153.556C130.884 153.556 130.919 153.556 130.971 153.556C130.971 153.348 130.728 153.192 130.572 153.383C130.537 153.418 130.537 153.47 130.503 153.487C130.468 153.522 130.416 153.539 130.364 153.574C130.26 153.678 130.243 153.799 130.277 153.92C130.295 154.007 130.416 153.972 130.399 153.886C130.381 153.73 130.433 153.626 130.589 153.591C130.624 153.591 130.641 153.556 130.641 153.522C130.711 153.522 130.763 153.522 130.832 153.522C130.832 153.608 130.953 153.608 130.971 153.522C131.005 153.21 130.971 152.898 130.867 152.603C130.832 152.551 130.711 152.586 130.728 152.672Z" fill="white"/>
<path d="M124.246 164.667C124.436 164.441 124.714 164.459 125.442 164.32C126.308 164.147 126.984 163.921 127.452 163.748C130.07 163.02 131.976 162.049 133.276 161.27C136.049 159.588 137.297 157.994 138.961 158.358C140.019 158.6 140.989 159.588 140.903 160.42C140.833 161.131 140.036 161.599 136.049 163.107C129.862 165.447 130.434 164.823 128.579 165.793C126.88 166.695 125.927 167.457 125.06 167.076C124.194 166.677 123.778 165.221 124.246 164.667Z" fill="#2D3436"/>
<path d="M75.2959 89.4053C74.0132 88.7293 72.3492 89.4746 71.4306 89.8906C69.8012 90.6186 67.9639 92.1093 65.8666 97.0146C64.6879 99.7533 63.1972 104.121 62.7292 109.945C60.8919 110.743 58.2919 111.609 55.1199 111.765C51.6879 111.921 49.9025 111.141 48.9492 112.251C47.7532 113.637 48.7759 116.965 50.6479 118.907C52.7452 121.091 55.6225 121.229 57.5465 121.316C58.9505 121.385 64.0639 121.455 68.6746 117.936C73.1292 114.521 74.3252 109.876 75.6946 104.641C76.0412 103.151 79.0052 91.3466 75.2959 89.4053Z" fill="white" stroke="#636E72" stroke-miterlimit="10"/>
<path opacity="0.12" d="M73.8746 89.2148C72.3666 89.7522 73.2159 94.0855 72.8346 98.9735C72.7479 100.014 72.1413 107.276 69.0733 111.644C64.1333 118.664 52.6933 118.266 50.0239 118.127C50.3359 118.664 50.8906 119.444 51.8093 120.103C52.8493 120.831 53.9759 121.108 55.4666 121.23C57.0266 121.351 59.5053 121.559 62.7813 120.571C64.4799 120.051 68.7959 118.751 71.6906 114.747C72.4879 113.655 72.9386 112.58 73.8573 110.431C74.3426 109.287 75.5039 106.392 76.3879 102.18C76.3879 102.18 76.9773 99.3548 76.9426 92.4215C76.9426 91.6415 76.7693 90.9655 76.2839 90.3588C75.7293 89.5962 74.5853 88.9548 73.8746 89.2148Z" fill="#636E72"/>
<path opacity="0.25" d="M75.8504 101.885C75.6597 101.833 75.1397 104.624 72.7477 108.923C71.1877 111.748 69.1251 115.336 65.3291 118.023C61.4464 120.761 57.7891 121.108 57.8237 121.212C57.8584 121.351 65.2597 121.108 70.3037 116.237C75.937 110.795 76.1797 101.972 75.8504 101.885Z" fill="#636E72"/>
<path d="M75.5214 86.4071C73.112 88.0711 71.6907 89.9084 71.0147 90.7924C67.0107 96.0617 66.5427 101.799 66.3867 104.312C66.0227 109.894 67.548 111.09 67.756 119.826C67.8254 122.72 67.7214 125.095 67.6347 126.586C69.7494 128.128 74.2907 131.023 80.7734 131.838C88.7294 132.843 94.848 130.139 97.1707 128.96C98.5227 127.695 100.377 125.771 102.093 123.102C103.861 120.363 105.092 117.434 106.756 110.622C107.744 106.566 108.888 101.175 109.772 94.6577C108.385 92.6644 103.497 86.2164 94.536 83.9111C92.924 83.4951 83.3214 81.0337 75.5214 86.4071Z" fill="#B2BEC3"/>
<path opacity="0.09" d="M93.3573 83.6687C93.9293 85.4367 94.588 88.0194 94.796 91.174C95.16 96.426 94.12 101.037 91.9013 106.895C88.088 117.001 82.784 125.511 78.5374 131.474C80.1494 131.751 82.004 131.942 84.0494 131.925C89.6307 131.89 94.12 130.347 97.0667 129.03C98.0893 128.042 99.5107 126.534 100.949 124.506C101.573 123.639 103.463 120.883 105.196 116.203C108.351 107.71 109.391 97.1713 109.616 94.606C108.229 92.5434 105.473 89.094 100.845 86.4767C98.02 84.8647 95.3507 84.0847 93.3573 83.6687Z" fill="#636E72"/>
<path opacity="0.14" d="M109.166 97.5867C106.722 104.208 104.191 109.477 102.215 113.221C100.066 117.295 98.8349 119.583 96.7029 122.165C92.3869 127.383 87.2042 130.364 83.1482 132.097C84.8642 132.063 86.8922 131.889 89.1109 131.473C92.2135 130.867 94.7962 129.931 96.7896 129.029C98.0202 128.059 99.7016 126.568 101.314 124.419C103.394 121.628 104.572 118.768 106.098 112.944C107.138 108.992 108.299 103.809 109.166 97.5867Z" fill="#636E72"/>
<path d="M68.5706 155.411C66.9412 158.306 65.3119 161.2 63.6826 164.095C52.0519 167.215 46.3319 169.434 46.5399 170.734C46.7479 172.138 53.8546 172.484 67.8252 171.756C70.9972 167.059 74.1692 162.344 77.3586 157.647C74.4292 156.902 71.4999 156.156 68.5706 155.411Z" fill="#2D3436"/>
<path d="M99.2852 125.442C103.74 128.077 104.433 135.79 102.371 141.146C99.0425 149.743 88.9719 151.286 88.5386 151.338C92.4906 146.797 94.4492 144.526 94.4492 144.509C94.4319 144.491 88.3132 151.442 76.0933 165.343C74.8973 165.187 69.9226 164.425 66.4039 160.057C64.3586 157.526 63.6999 154.874 63.4746 153.453C70.7719 145.029 78.0519 136.622 85.3492 128.198C89.6132 124.177 95.4026 123.154 99.2852 125.442Z" fill="white" stroke="#636E72" stroke-miterlimit="10"/>
<path opacity="0.16" d="M99.6145 125.893C99.7532 128.146 99.6665 131.544 98.1759 135.166C96.2692 139.829 93.0105 142.533 90.7745 144.336C84.2919 149.57 76.8905 155.446 68.4666 161.79C69.0732 162.362 69.8359 162.986 70.7892 163.558C72.7826 164.772 74.6892 165.24 75.9892 165.43C80.1839 160.716 84.3785 156.001 88.5732 151.286C89.7692 151.113 91.4505 150.749 93.3225 149.969C95.0905 149.224 98.2105 147.854 100.62 144.561C102.7 141.684 103.151 138.824 103.376 137.264C103.636 135.426 103.983 133.104 102.943 130.417C102.024 128.094 100.499 126.621 99.6145 125.893Z" fill="#636E72"/>
<path opacity="0.19" d="M102.925 131.734C102.544 134.022 101.729 137.194 99.8397 140.574C96.2343 146.953 90.9303 150.125 88.469 151.408C90.4103 151.096 94.4663 150.16 98.0717 146.884C99.0943 145.948 101.14 144.058 102.388 140.817C103.913 136.778 103.272 133.19 102.925 131.734Z" fill="#636E72"/>
<path opacity="0.12" d="M94.2065 144.439C93.7385 143.971 86.2678 150.523 71.7771 164.095C73.1464 164.581 74.4984 165.049 75.8678 165.534C88.5385 151.927 94.6572 144.89 94.2065 144.439Z" fill="#636E72"/>
<path d="M46.7998 97.656C46.9731 97.656 47.1638 97.656 47.3371 97.656C47.3891 97.4653 47.4411 97.2573 47.4931 97.0667C47.7011 97.5 48.0478 98.2107 48.4811 99.0947C50.3878 102.96 50.7691 103.601 51.1158 104.763C51.3931 105.716 51.7225 107.085 51.8265 108.836C52.1558 108.611 52.6411 108.299 53.2651 107.952C56.6278 106.115 59.4358 106.097 61.9665 105.647C63.8558 105.3 66.5078 104.537 69.6104 102.683C69.4198 102.943 69.2291 103.22 69.0384 103.48C69.3331 103.584 69.6451 103.705 69.9398 103.809C70.1131 104.035 70.3385 104.399 70.5291 104.867C71.5345 107.345 70.0438 110.067 68.6051 112.563C62.7291 122.893 62.1225 123.431 61.0651 123.951C60.6318 124.176 56.2638 126.308 53.1611 124.332C52.5198 123.933 51.3585 122.98 49.8678 116.237C48.8451 111.644 48.7238 109.079 47.7531 103.047C47.3891 100.759 47.0425 98.8867 46.7998 97.656Z" fill="white" stroke="#636E72" stroke-miterlimit="10"/>
<path d="M47.7877 98.6095C49.261 101.764 50.717 104.971 51.1677 108.437C51.185 108.524 51.3064 108.524 51.3064 108.437C50.8557 104.936 49.3997 101.712 47.909 98.5402C47.857 98.4709 47.753 98.5402 47.7877 98.6095Z" fill="#2D3436"/>
<path d="M47.2331 98.0542C48.0997 99.8916 48.8104 101.781 49.3997 103.722C49.4171 103.809 49.5557 103.774 49.5211 103.688C48.9317 101.729 48.2037 99.8396 47.337 97.9849C47.3024 97.9156 47.1984 97.9849 47.2331 98.0542Z" fill="#2D3436"/>
<path d="M49.6078 103.619C50.1798 105.179 50.5612 106.791 50.7865 108.437C50.8038 108.524 50.9252 108.524 50.9252 108.437C50.6998 106.773 50.3185 105.161 49.7465 103.584C49.7118 103.515 49.5731 103.549 49.6078 103.619Z" fill="#2D3436"/>
<path d="M48.0998 101.157C48.8971 103.116 49.5905 105.127 50.1625 107.172C50.1798 107.259 50.3184 107.224 50.2838 107.137C49.7118 105.092 49.0184 103.081 48.2211 101.123C48.2038 101.036 48.0651 101.071 48.0998 101.157Z" fill="#2D3436"/>
<path d="M52.1386 109.269C54.3052 107.83 56.7319 106.894 59.3146 106.53C59.4012 106.513 59.3666 106.392 59.2799 106.409C56.6799 106.773 54.2532 107.709 52.0692 109.148C51.9999 109.2 52.0692 109.321 52.1386 109.269Z" fill="#2D3436"/>
<path d="M53.213 109.061C55.4663 107.692 58.0143 107.172 60.545 106.6C63.2317 105.993 65.849 105.179 68.397 104.139C68.4663 104.104 68.4317 103.983 68.3623 104.017C65.7277 105.109 63.0063 105.924 60.2157 106.548C57.7717 107.103 55.3103 107.64 53.1437 108.957C53.0917 108.992 53.1437 109.096 53.213 109.061Z" fill="#2D3436"/>
<path d="M52.797 109.668C55.4664 108.403 58.1877 107.623 61.0477 106.929C63.8557 106.236 66.577 105.161 69.3157 104.225C69.4024 104.191 69.3677 104.069 69.281 104.104C66.4557 105.075 63.6304 106.201 60.7184 106.877C57.9624 107.536 55.3104 108.351 52.7277 109.564C52.6584 109.599 52.7277 109.703 52.797 109.668Z" fill="#2D3436"/>
<path d="M46.7131 97.6211C47.9784 101.625 49.2611 105.612 50.5264 109.616C51.1504 109.824 51.7744 110.032 52.3984 110.24C58.3264 108.281 64.2371 106.34 70.1651 104.381C70.3731 104.554 70.5811 104.728 70.7891 104.918C71.4651 113.152 72.1584 121.368 72.8344 129.601C72.5918 129.757 72.3664 129.896 72.1238 130.052C66.1091 130.97 60.1118 131.889 54.0971 132.808C53.2304 132.6 52.3811 132.392 51.5144 132.184C50.7518 128.804 49.9718 125.441 49.2091 122.061C48.0824 114.07 46.9558 106.08 45.8291 98.0891C46.1238 97.9158 46.4184 97.7771 46.7131 97.6211Z" fill="white" stroke="#636E72" stroke-miterlimit="10"/>
<path d="M50.2319 109.72C50.5093 117.225 51.0466 124.748 51.4626 132.253C51.4799 132.496 51.8613 132.496 51.8613 132.253C51.4453 124.748 50.9079 117.243 50.6306 109.72C50.6133 109.477 50.2319 109.477 50.2319 109.72Z" fill="#2D3436"/>
<path d="M52.0346 110.205C52.2773 112.338 52.3813 114.47 52.3813 116.619C52.3813 116.862 52.7626 116.862 52.7799 116.619C52.7799 114.47 52.6759 112.338 52.4333 110.205C52.3986 109.945 51.9999 109.945 52.0346 110.205Z" fill="#2D3436"/>
<path d="M56.7666 110.795C56.8706 112.095 56.9573 113.395 57.0613 114.695C60.8919 113.534 64.7226 112.355 68.5359 111.194C68.4146 109.842 68.2932 108.49 68.1892 107.138C64.3759 108.368 60.5799 109.582 56.7666 110.795Z" fill="#08A730"/>
<path opacity="0.16" d="M62.8157 106.982C62.8851 108.715 62.8331 112.598 60.6144 116.775C58.2571 121.212 54.8077 123.5 53.3171 124.367C53.2477 122.946 53.1611 121.524 53.0917 120.12C52.5024 121.108 51.9304 122.096 51.3411 123.084C51.4624 126.17 51.6011 129.255 51.7224 132.358C52.5544 132.531 53.3864 132.704 54.2357 132.895C60.0771 131.959 65.9357 131.023 71.7771 130.087C72.0891 129.966 72.3837 129.827 72.6957 129.706C72.0371 121.368 71.3784 113.048 70.7197 104.711C68.0851 105.474 65.4504 106.219 62.8157 106.982Z" fill="#636E72"/>
<path opacity="0.1" d="M52.1213 110.361C52 110.361 51.8613 113.568 51.948 117.052C52.052 122.009 52.52 124.176 52.3813 128.908C52.3293 130.45 52.2426 131.716 52.1733 132.53C52.8146 132.617 53.4733 132.704 54.1146 132.79C53.9933 131.941 53.82 130.71 53.6466 129.237C52.2946 118.213 52.312 110.361 52.1213 110.361Z" fill="#636E72"/>
<path d="M46.8169 109.669C46.6263 109.738 46.6436 110.085 46.4876 111.697C46.3836 112.789 46.3489 112.806 46.3836 113.066C46.4703 113.794 46.7303 113.933 46.8169 114.765C46.8689 115.302 46.7649 115.371 46.8516 115.822C46.9556 116.377 47.1983 116.793 47.3889 117.053C47.3889 117.226 47.4236 117.521 47.5623 117.815C47.8396 118.353 48.4809 118.821 48.8276 118.647C49.0183 118.561 49.0703 118.197 49.1569 117.486C49.2436 116.827 49.1916 116.793 49.2609 116.03C49.3303 115.406 49.3823 115.285 49.3303 114.973C49.2783 114.591 49.1396 114.47 49.0009 114.071C48.8103 113.517 48.8969 113.309 48.7756 112.737C48.6023 111.783 48.1516 111.107 47.9089 110.743C47.6663 110.345 47.1289 109.565 46.8169 109.669Z" fill="white"/>
<path d="M46.6803 109.495C45.7443 111.523 46.6803 113.794 48.795 114.539C49.0376 114.626 49.1416 114.244 48.899 114.158C47.027 113.499 46.195 111.488 47.027 109.686C47.131 109.478 46.7843 109.27 46.6803 109.495Z" fill="#2D3436"/>
<path d="M46.7474 109.825C47.9954 110.986 48.7235 112.511 48.8275 114.21C48.8448 114.453 49.2261 114.453 49.2261 114.21C49.1221 112.407 48.3594 110.778 47.0248 109.547C46.8341 109.374 46.5568 109.651 46.7474 109.825Z" fill="#2D3436"/>
<path d="M46.245 111.922C45.7943 113.95 46.9903 115.874 49.053 116.307C49.2957 116.359 49.3997 115.978 49.157 115.926C47.3197 115.544 46.2103 113.863 46.6263 112.008C46.661 111.783 46.297 111.679 46.245 111.922Z" fill="#2D3436"/>
<path d="M46.6089 114.487C46.2449 116.029 47.1809 117.503 48.7409 117.797C48.9836 117.849 49.0876 117.468 48.8449 117.416C47.4929 117.173 46.6609 115.943 46.9729 114.591C47.0423 114.348 46.6783 114.244 46.6089 114.487Z" fill="#2D3436"/>
<path d="M47.1117 116.949C47.0424 117.694 47.4758 118.439 48.1691 118.717C48.4638 118.838 48.8451 118.855 49.0704 118.595C49.3131 118.318 49.2091 117.902 49.0704 117.607C48.9837 117.382 48.6024 117.486 48.6891 117.711C48.7758 117.902 48.9491 118.283 48.6717 118.405C48.4637 118.491 48.1344 118.283 47.9784 118.162C47.6144 117.867 47.4411 117.417 47.4931 116.949C47.5277 116.706 47.1464 116.706 47.1117 116.949Z" fill="#2D3436"/>
<path d="M48.8971 117.763C49.2784 117.763 49.4345 117.381 49.4865 117.052C49.5558 116.653 49.4865 116.237 49.2784 115.891C49.1571 115.665 48.8104 115.873 48.9491 116.081C49.0704 116.289 49.1398 116.515 49.1398 116.74C49.1398 116.861 49.1051 117.364 48.8971 117.364C48.6544 117.381 48.6544 117.763 48.8971 117.763Z" fill="#2D3436"/>
<path d="M49.3825 116.169C49.6252 115.943 49.6252 115.51 49.5732 115.198C49.5212 114.799 49.3478 114.453 49.0705 114.158C48.8972 113.967 48.6198 114.245 48.7932 114.435C48.9665 114.626 49.1052 114.851 49.1572 115.129C49.1918 115.319 49.2438 115.735 49.0878 115.891C48.9318 116.082 49.2092 116.359 49.3825 116.169Z" fill="#2D3436"/>
<path d="M104.745 91.7286C100.308 91.7979 97.4308 98.5926 96.5641 100.638C95.3161 103.602 95.5414 104.833 93.7388 112.511C93.1148 115.215 92.5254 117.399 92.1441 118.803C90.5321 119.583 87.3775 120.814 83.3908 120.467C81.0161 120.259 78.3295 120.017 76.4055 118.058C74.5335 116.151 74.7241 114.019 72.7481 113.361C71.4655 112.927 69.9228 113.326 69.7321 113.915C69.6108 114.331 70.1828 114.661 70.9108 116.065C71.1708 116.585 71.3615 117.018 71.4655 117.347C69.1428 117.971 67.2015 118.214 65.7628 118.318C62.2788 118.561 59.9561 118.11 59.2628 119.341C58.9855 119.826 58.8815 120.779 59.3495 121.438C59.5921 121.785 59.9215 121.958 60.1295 122.045C60.0948 122.097 59.5921 122.738 59.8521 123.535C60.0948 124.281 60.7708 124.541 60.8401 124.558C60.8055 124.645 60.5108 125.355 60.9268 126.066C61.3255 126.742 62.0361 126.881 62.1228 126.881C62.0535 127.123 61.9841 127.539 62.1575 127.938C62.4175 128.562 63.0935 128.839 63.6828 129.03C66.8548 130.018 69.4721 129.602 69.4721 129.602C72.4361 129.134 74.6375 127.799 75.9201 126.846C77.2721 128.077 80.0455 130.261 84.1708 131.335C85.6441 131.717 90.2201 132.861 95.2468 130.971C100.585 128.978 103.272 124.766 105.595 121.126C108.091 117.209 109.009 113.898 110.223 109.547C111.939 103.377 112.771 100.222 111.228 96.9632C110.188 94.6406 107.675 91.6766 104.745 91.7286Z" fill="white" stroke="#636E72" stroke-miterlimit="10"/>
<path d="M59.8869 122.062C62.1576 122.807 64.5322 122.894 66.8375 122.339C67.0802 122.287 66.9762 121.906 66.7335 121.958C64.4802 122.495 62.1922 122.408 59.9909 121.68C59.7482 121.611 59.6442 121.975 59.8869 122.062Z" fill="#2D3436"/>
<path d="M60.8227 124.679C63.0413 125.234 65.312 125.251 67.548 124.766C67.7906 124.714 67.6866 124.333 67.444 124.385C65.2773 124.853 63.076 124.818 60.9267 124.298C60.684 124.229 60.58 124.61 60.8227 124.679Z" fill="#2D3436"/>
<path d="M61.8974 126.95C63.8907 127.557 65.9361 127.661 67.9641 127.245C68.2067 127.193 68.1027 126.812 67.8601 126.864C65.8841 127.262 63.9081 127.158 62.0014 126.569C61.7587 126.5 61.6547 126.881 61.8974 126.95Z" fill="#2D3436"/>
<path opacity="0.12" d="M108.767 93.3062C108.628 96.4955 108.125 101.279 106.392 106.809C104.381 113.222 102.249 120.017 95.8188 124.246C94.2068 125.303 89.9948 128.042 84.2228 127.557C79.9068 127.193 76.8041 125.217 75.3828 124.159C72.5921 125.477 70.1828 125.997 68.5881 126.205C66.5428 126.482 65.1041 126.395 64.7228 126.361C63.0761 126.239 61.7414 125.893 60.7708 125.563C61.1694 126.014 61.5681 126.465 61.9494 126.898C61.8974 127.227 61.8801 127.765 62.1921 128.233C62.5388 128.77 63.1454 128.978 64.2374 129.186C65.7281 129.463 66.4734 129.602 67.7908 129.585C68.9868 129.55 70.6681 129.498 72.6788 128.718C73.5108 128.389 74.6374 127.851 75.8334 126.898C76.5788 127.522 77.6881 128.371 79.1441 129.186C80.8254 130.139 84.3094 132.063 89.0934 132.029C90.4628 132.011 93.6348 131.959 97.0668 130.139C99.2681 128.961 100.603 127.574 101.955 126.118C104.797 123.067 106.253 120.173 107.397 117.833C109.217 114.123 109.945 111.298 111.02 107.017C112.32 101.938 112.199 100.395 111.973 99.2861C111.436 96.4955 109.876 94.4848 108.767 93.3062Z" fill="#636E72"/>
<path opacity="0.2" d="M111.453 103.723C109.807 109.443 107.779 113.915 106.184 116.983C102.267 124.558 99.528 126.464 98.5747 127.088C95.316 129.203 92.1093 129.619 90.7573 129.775C82.4547 130.676 76.18 126.17 75.92 126.69C75.712 127.106 79.508 130.278 84.76 131.422C86.32 131.768 90.9827 132.722 96.044 130.468C99.788 128.804 101.868 126.222 103.463 124.228C105.751 121.386 106.825 118.838 108.039 115.856C109.217 113.048 110.621 108.94 111.453 103.723Z" fill="#636E72"/>
<path opacity="0.12" d="M62.2786 127.955C63.4919 128.337 64.9999 128.666 66.7852 128.753C71.0493 128.943 74.3599 127.522 76.0933 126.621C75.4519 127.227 72.5226 129.862 68.1199 129.775C65.2772 129.723 63.1972 128.562 62.2786 127.955Z" fill="#636E72"/>
<path d="M74.7064 63.1803C74.1344 64.1509 73.9958 65.9536 73.7184 69.5589C73.4238 73.4589 73.6318 75.2269 73.4931 78.1216C73.3891 80.3923 73.0771 83.6336 72.1584 87.5683C73.7184 90.5323 75.5904 91.6589 76.6131 92.1269C81.7785 94.519 88.2438 90.7403 92.5251 88.2269C94.6224 86.9963 96.2171 85.8003 97.2051 85.0029C96.7891 84.1709 96.2171 82.9229 95.7665 81.3283C95.0211 78.7629 95.0905 77.2203 94.8825 74.3256C94.3798 67.4789 94.3625 65.9536 93.3225 63.8736C92.8025 62.8336 92.3691 61.9323 91.4678 61.0829C87.1518 57.0443 77.4971 58.5003 74.7064 63.1803Z" fill="white" stroke="#636E72" stroke-miterlimit="10"/>
<path d="M73.372 74.7067C72.6613 75.6947 71.3266 77.8267 70.8933 80.8773C70.72 82.16 70.564 84.6213 71.5866 87.4467C72.0373 88.6773 73.1293 91.5027 76.0586 93.496C77.7227 94.64 79.3693 95.056 80.3573 95.2467C79.768 94.6053 79.196 93.964 78.6067 93.3227C79.2307 93.6693 80.7213 94.38 82.7147 94.2933C83.3213 94.2587 85.28 94.1027 87.1 92.716C88.4347 91.6933 88.9893 90.532 89.908 88.5213C91.1214 85.8867 91.9707 83.9973 91.9187 81.5187C91.8494 78.2947 90.3067 77.532 90.8614 74.516C90.9827 73.84 91.364 71.76 92.612 71.448C93.2014 71.3094 93.8427 71.604 94.1894 71.968C94.9347 72.748 94.8654 74.3427 93.756 75.6427C94.2934 75.5213 95.524 75.1227 96.3907 73.9787C97.708 72.2107 97.3787 69.6627 96.1307 68.2067C95.8187 67.8427 95.2467 67.1667 94.38 67.0627C93.2187 66.924 92.248 67.9294 90.532 69.9573C86.944 74.204 86.996 74.9493 85.1933 76.2667C83.0267 77.844 81.068 78.1387 80.496 78.2253C79.5253 78.3467 78.0693 78.52 76.4747 77.792C74.568 76.8907 73.6666 75.296 73.372 74.7067Z" fill="#2D3436"/>
<path d="M78.6588 69.8188C78.2081 72.0721 77.9481 74.3948 77.9654 76.7001C77.9654 77.2028 77.9654 77.9655 78.5894 78.1215C79.2481 78.2775 80.2188 77.4628 80.7041 77.1335C80.9814 76.9428 80.7214 76.4921 80.4441 76.6828C80.0108 76.9775 78.5721 78.0348 78.4854 77.0295C78.4334 76.2841 78.5027 75.4868 78.5374 74.7415C78.6241 73.1295 78.8494 71.5348 79.1614 69.9575C79.2308 69.6455 78.7281 69.5068 78.6588 69.8188Z" fill="#2D3436"/>
<path d="M75.9717 71.76C75.7117 71.344 75.6944 70.8414 75.9544 70.4254C75.7984 70.408 75.6424 70.3907 75.4864 70.356C75.6771 70.8414 75.7637 71.3614 75.6944 71.8814C75.8157 71.8294 75.9544 71.7774 76.0757 71.7254C76.0237 71.6907 75.9717 71.6734 75.9197 71.6387C75.6251 71.4827 75.3651 71.9334 75.6597 72.0894C75.7117 72.124 75.7637 72.1414 75.8157 72.1761C75.9544 72.2454 76.1797 72.1934 76.1971 72.0201C76.2837 71.396 76.2317 70.7894 75.9891 70.2174C75.9024 70.0094 75.6424 69.9574 75.5211 70.148C75.1744 70.72 75.1744 71.4307 75.5384 72.0027C75.6944 72.3147 76.1451 72.0547 75.9717 71.76Z" fill="#2D3436"/>
<path d="M83.4252 71.6045C83.3212 71.4138 83.2519 71.2232 83.2519 70.9978C83.2519 70.8938 83.2692 70.8071 83.2866 70.7031C83.3039 70.6512 83.3212 70.5992 83.3386 70.5472C83.4079 70.4432 83.3559 70.4258 83.1826 70.4778C83.1653 70.4952 83.3039 71.0325 83.3039 71.0845C83.3212 71.3272 83.2866 71.5698 83.2346 71.8125C83.3733 71.7778 83.5293 71.7431 83.6679 71.6911C83.5466 71.5871 83.4772 71.4831 83.4772 71.3098C83.4599 70.9805 82.9399 70.9805 82.9572 71.3098C82.9746 71.6045 83.0786 71.8645 83.3039 72.0551C83.4426 72.1765 83.6853 72.1418 83.7373 71.9338C83.8239 71.5178 83.8413 71.0845 83.7719 70.6685C83.7199 70.3912 83.6159 69.9405 83.2519 69.9752C82.9052 70.0098 82.8012 70.4778 82.7666 70.7552C82.7146 71.1365 82.8012 71.5005 82.9919 71.8471C83.1479 72.1591 83.5986 71.8991 83.4252 71.6045Z" fill="#2D3436"/>
<path d="M82.9572 70.6686C82.9919 70.9806 83.0092 71.2926 83.0439 71.6046C83.0786 71.934 83.5986 71.934 83.5639 71.6046C83.5292 71.2926 83.5119 70.9806 83.4772 70.6686C83.4426 70.3393 82.9226 70.3393 82.9572 70.6686Z" fill="#2D3436"/>
<path d="M82.9225 71.379C82.8705 71.6043 82.8532 71.8643 83.0265 72.0203C83.1998 72.1763 83.4772 72.211 83.6332 72.0203C83.7198 71.9163 83.7372 71.7603 83.6332 71.6563C83.5465 71.5696 83.3558 71.5523 83.2692 71.6563C83.2345 71.7083 83.3038 71.639 83.3385 71.6216C83.3558 71.6216 83.3905 71.6216 83.3732 71.6216C83.3558 71.6216 83.4078 71.639 83.3732 71.6216C83.3905 71.639 83.3905 71.6563 83.4078 71.6736C83.4252 71.691 83.4078 71.639 83.4078 71.6563C83.4078 71.6736 83.4078 71.6216 83.4078 71.6043C83.4078 71.639 83.4078 71.587 83.4078 71.587C83.4078 71.5523 83.4252 71.535 83.4252 71.5003C83.4598 71.3616 83.3905 71.2056 83.2518 71.1883C83.1132 71.171 82.9572 71.2403 82.9225 71.379Z" fill="#2D3436"/>
<path d="M75.4 70.2699C75.2614 70.7899 75.2614 71.3445 75.452 71.8645C75.556 72.1765 76.0587 72.0378 75.9547 71.7258C75.7987 71.2925 75.7814 70.8592 75.9027 70.4085C75.9894 70.0965 75.4867 69.9579 75.4 70.2699Z" fill="#2D3436"/>
<path d="M75.8676 71.1706C75.8156 70.9626 75.8329 70.7372 75.8849 70.5292C75.7116 70.4772 75.5556 70.4426 75.3823 70.3906C75.313 70.7199 75.3129 71.0319 75.3649 71.3612C75.3823 71.4999 75.5556 71.5692 75.6769 71.5345C75.8156 71.4999 75.8849 71.3612 75.8503 71.2226C75.8156 70.9972 75.8156 70.7546 75.8676 70.5292C75.9369 70.1999 75.4516 70.0613 75.3649 70.3906C75.2956 70.7026 75.2956 70.9972 75.3476 71.3092C75.4343 71.6385 75.9196 71.4999 75.8676 71.1706Z" fill="#2D3436"/>
<path d="M74.7415 69.2821C75.0188 68.4674 76.0068 68.3114 76.5615 68.9528C76.7348 69.1434 76.9948 68.8661 76.8388 68.6754C76.0761 67.8088 74.7414 68.1034 74.3774 69.1781C74.2734 69.4208 74.6548 69.5248 74.7415 69.2821Z" fill="#2D3436"/>
<path d="M82.0908 69.2817C82.7148 68.2763 84.1881 68.935 84.5521 69.8017C84.6388 70.027 85.0201 69.923 84.9335 69.6977C84.4481 68.5017 82.5761 67.791 81.7615 69.0737C81.6228 69.299 81.9694 69.4897 82.0908 69.2817Z" fill="#2D3436"/>
<path d="M67.6346 64.2894C77.1679 65.5548 86.6839 66.8028 96.2173 68.0681C97.2053 68.2068 97.2053 66.6294 96.2173 66.5081C86.6839 65.2428 77.1679 63.9948 67.6346 62.7294C66.6466 62.5908 66.6466 64.1508 67.6346 64.2894Z" fill="#2D3436"/>
<path d="M74.2905 63.631C74.5159 62.487 75.0532 60.6151 76.4052 58.7084C76.9425 57.9457 77.8785 56.6111 79.4905 55.6577C82.5412 53.8377 87.2212 54.0111 90.6012 56.2991C93.9118 58.535 95.5412 62.487 94.7958 66.4217C87.9665 65.4857 81.1198 64.567 74.2905 63.631Z" fill="#08A730"/>
<path d="M83.6333 54.5658C86.3026 55.1031 88.296 57.2698 88.5386 59.8178C88.7466 61.9151 87.724 64.0125 85.904 65.2605C88.9026 65.6418 91.884 66.0405 94.8826 66.4218C95.0386 65.6938 95.1946 64.6018 95.004 63.3191C94.588 60.4071 92.8373 58.5698 92.0573 57.7725C91.4506 57.1658 89.232 54.9644 85.748 54.5658C84.8986 54.4618 84.1533 54.5138 83.6333 54.5658Z" fill="#2D3436"/>
<path opacity="0.24" d="M85.384 66.6467C85.6613 67.6174 85.9386 68.9174 85.9213 70.4601C85.8866 73.4587 84.8293 75.7467 84.1533 76.9254C84.7253 76.6481 85.54 76.1801 86.32 75.4001C86.8746 74.8454 87.0826 74.4467 87.672 73.5801C87.672 73.5801 88.66 72.1241 90.1333 70.3561C90.7053 69.6627 91.5546 68.6921 92.7333 67.6001C90.272 67.2707 87.828 66.9587 85.384 66.6467Z" fill="#636E72"/>
<path opacity="0.22" d="M92.4213 71.4136C91.9706 71.587 91.7106 71.9336 91.5373 72.1763C91.3293 72.471 91.1039 72.887 90.9479 73.9963C90.8093 74.9496 90.6706 75.8163 90.8613 76.9256C90.9999 77.7576 91.1733 77.775 91.4506 78.7976C91.5719 79.231 91.9533 80.6523 91.8666 82.3163C91.8146 83.5816 91.5199 84.4656 91.1039 85.7136C90.7226 86.8403 90.0986 88.3829 89.0586 90.1336C90.9653 89.0589 92.9066 87.8803 94.8653 86.6149C95.6799 86.0949 96.4599 85.5749 97.2399 85.0376C96.8066 84.2923 96.3733 83.4256 96.0093 82.455C94.9346 79.6123 94.7786 77.0123 94.8653 75.1923C94.5359 75.331 94.2066 75.4696 93.8946 75.6083C94.9173 73.9963 94.8653 72.3323 94.1026 71.7083C93.7559 71.3963 93.0453 71.171 92.4213 71.4136Z" fill="#636E72"/>
<path opacity="0.21" d="M94.4665 72.3497C94.3105 72.9911 94.0851 73.7364 93.7038 74.5511C93.4265 75.1404 93.1318 75.6431 92.8545 76.0764C93.3745 76.6311 94.2238 77.7231 94.5878 79.3004C94.9865 80.9991 94.6225 82.3684 94.2065 83.8764C93.9118 84.9858 93.3225 86.6324 92.1611 88.4178C93.7905 87.3084 95.4198 86.2164 97.0491 85.1071C96.4251 83.7204 95.7665 81.9004 95.3505 79.6818C95.0385 77.9831 94.9518 76.4404 94.9691 75.1751C94.5531 75.3311 94.1545 75.4871 93.7385 75.6431C93.9291 75.4524 94.3971 74.9324 94.5878 74.1177C94.7785 73.2857 94.5531 72.5924 94.4665 72.3497Z" fill="#636E72"/>
<path opacity="0.19" d="M85.2625 66.5776C87.3251 67.3056 89.4051 68.0336 91.4678 68.7616C91.9358 68.3803 92.4038 67.9816 92.8891 67.6003C90.3411 67.2536 87.8104 66.907 85.2625 66.5776Z" fill="#636E72"/>
</svg>
