<svg width="20" height="20" viewBox="0 0 20 20" fill="none" xmlns="http://www.w3.org/2000/svg">
<path d="M17.7645 5.95084L17.3532 5.237C17.0421 4.69714 16.8865 4.42721 16.6219 4.31958C16.3573 4.21194 16.0579 4.29687 15.4593 4.46674L14.4425 4.75316C14.0603 4.84129 13.6593 4.79129 13.3104 4.612L13.0297 4.45002C12.7304 4.25837 12.5003 3.97579 12.3729 3.64363L12.0946 2.81247C11.9116 2.26246 11.8201 1.98745 11.6023 1.83015C11.3845 1.67285 11.0951 1.67285 10.5165 1.67285H9.58753C9.0089 1.67285 8.71958 1.67285 8.50177 1.83015C8.28396 1.98745 8.19247 2.26246 8.00949 2.81247L7.73119 3.64363C7.60379 3.97579 7.37363 4.25837 7.07439 4.45002L6.79366 4.612C6.4447 4.79129 6.04374 4.84129 5.66157 4.75316L4.64471 4.46674C4.0461 4.29687 3.74679 4.21194 3.48214 4.31958C3.2175 4.42721 3.06196 4.69714 2.75088 5.237L2.33956 5.95084C2.04797 6.45688 1.90217 6.7099 1.93047 6.97925C1.95876 7.2486 2.15394 7.46566 2.5443 7.89977L3.4035 8.86036C3.6135 9.12621 3.76259 9.58952 3.76259 10.006C3.76259 10.4229 3.61355 10.886 3.40352 11.1519L2.54431 12.1125C2.15395 12.5466 1.95877 12.7637 1.93047 13.0331C1.90217 13.3024 2.04797 13.5554 2.33956 14.0615L2.75087 14.7753C3.06194 15.3151 3.2175 15.5851 3.48214 15.6927C3.7468 15.8004 4.04611 15.7154 4.64472 15.5455L5.66154 15.2591C6.04377 15.171 6.44481 15.221 6.79381 15.4003L7.0745 15.5623C7.37367 15.754 7.60379 16.0365 7.73117 16.3687L8.00949 17.1999C8.19247 17.7499 8.28396 18.0249 8.50177 18.1822C8.71958 18.3395 9.0089 18.3395 9.58753 18.3395H10.5165C11.0951 18.3395 11.3845 18.3395 11.6023 18.1822C11.8201 18.0249 11.9116 17.7499 12.0946 17.1999L12.3729 16.3687C12.5003 16.0365 12.7304 15.754 13.0295 15.5623L13.3102 15.4003C13.6592 15.221 14.0603 15.171 14.4425 15.2591L15.4593 15.5455C16.0579 15.7154 16.3572 15.8004 16.6219 15.6927C16.8865 15.5851 17.0421 15.3151 17.3532 14.7753L17.3532 14.7753L17.7645 14.0615C18.0561 13.5554 18.2019 13.3024 18.1736 13.0331C18.1453 12.7637 17.9501 12.5466 17.5597 12.1125L16.7005 11.1519C16.4905 10.886 16.3415 10.4229 16.3415 10.006C16.3415 9.58952 16.4905 9.12621 16.7005 8.86036L17.5597 7.89977C17.9501 7.46566 18.1453 7.2486 18.1736 6.97925C18.2019 6.7099 18.0561 6.45688 17.7645 5.95084Z" stroke="#43454C" stroke-linecap="round"/>
<path d="M12.9329 9.99967C12.9329 11.6105 11.6271 12.9163 10.0163 12.9163C8.40545 12.9163 7.09961 11.6105 7.09961 9.99967C7.09961 8.38884 8.40545 7.08301 10.0163 7.08301C11.6271 7.08301 12.9329 8.38884 12.9329 9.99967Z" stroke="#43454C"/>
</svg>
