<svg width="20" height="20" viewBox="0 0 20 20" fill="none" xmlns="http://www.w3.org/2000/svg">
<path d="M11.6667 14.9998C11.6667 14.9998 12.5001 14.9998 13.3334 16.6665C13.3334 16.6665 15.9805 12.4998 18.3334 11.6665" stroke="#43454C" stroke-linecap="round" stroke-linejoin="round"/>
<path d="M10.8334 18.3332H5.49247C4.20466 18.3332 3.18034 17.7065 2.26063 16.8303C0.377885 15.0366 3.46908 13.6032 4.64806 12.9012C7.29667 11.3241 10.6275 11.2579 13.3334 12.7025" stroke="#43454C" stroke-linecap="round" stroke-linejoin="round"/>
<path d="M13.75 5.4165C13.75 7.48757 12.0711 9.1665 10 9.1665C7.92893 9.1665 6.25 7.48757 6.25 5.4165C6.25 3.34544 7.92893 1.6665 10 1.6665C12.0711 1.6665 13.75 3.34544 13.75 5.4165Z" stroke="#43454C"/>
</svg>
