<svg width="25" height="24" viewBox="0 0 25 24" fill="none" xmlns="http://www.w3.org/2000/svg">
<g clip-path="url(#clip0_1121_632)">
<path d="M12.5 14V16C10.9087 16 9.38258 16.6321 8.25736 17.7574C7.13214 18.8826 6.5 20.4087 6.5 22H4.5C4.5 19.8783 5.34285 17.8434 6.84315 16.3431C8.34344 14.8429 10.3783 14 12.5 14ZM12.5 13C9.185 13 6.5 10.315 6.5 7C6.5 3.685 9.185 1 12.5 1C15.815 1 18.5 3.685 18.5 7C18.5 10.315 15.815 13 12.5 13ZM12.5 11C14.71 11 16.5 9.21 16.5 7C16.5 4.79 14.71 3 12.5 3C10.29 3 8.5 4.79 8.5 7C8.5 9.21 10.29 11 12.5 11ZM15.095 18.812C14.9682 18.2784 14.9682 17.7226 15.095 17.189L14.103 16.616L15.103 14.884L16.095 15.457C16.4932 15.0799 16.9745 14.8017 17.5 14.645V13.5H19.5V14.645C20.032 14.803 20.512 15.085 20.905 15.457L21.897 14.884L22.897 16.616L21.905 17.189C22.0316 17.7222 22.0316 18.2778 21.905 18.811L22.897 19.384L21.897 21.116L20.905 20.543C20.5068 20.9201 20.0255 21.1983 19.5 21.355V22.5H17.5V21.355C16.9745 21.1983 16.4932 20.9201 16.095 20.543L15.103 21.116L14.103 19.384L15.095 18.812ZM18.5 19.5C18.8978 19.5 19.2794 19.342 19.5607 19.0607C19.842 18.7794 20 18.3978 20 18C20 17.6022 19.842 17.2206 19.5607 16.9393C19.2794 16.658 18.8978 16.5 18.5 16.5C18.1022 16.5 17.7206 16.658 17.4393 16.9393C17.158 17.2206 17 17.6022 17 18C17 18.3978 17.158 18.7794 17.4393 19.0607C17.7206 19.342 18.1022 19.5 18.5 19.5Z" fill="#03053D"/>
</g>
<defs>
<clipPath id="clip0_1121_632">
<rect width="24" height="24" fill="white" transform="translate(0.5)"/>
</clipPath>
</defs>
</svg>
