<svg width="20" height="20" viewBox="0 0 20 20" fill="none" xmlns="http://www.w3.org/2000/svg">
<path d="M10.4167 18.3332H5.49247C4.20466 18.3332 3.18034 17.7065 2.26063 16.8303C0.377885 15.0366 3.46908 13.6032 4.64806 12.9012C6.52258 11.785 8.73883 11.4256 10.8334 11.823" stroke="#43454C" stroke-linecap="round" stroke-linejoin="round"/>
<path d="M12.9167 5.4165C12.9167 7.48757 11.2378 9.1665 9.16675 9.1665C7.09568 9.1665 5.41675 7.48757 5.41675 5.4165C5.41675 3.34544 7.09568 1.6665 9.16675 1.6665C11.2378 1.6665 12.9167 3.34544 12.9167 5.4165Z" stroke="#43454C"/>
<path d="M15.576 12.1479L16.1626 13.3308C16.2426 13.4955 16.4559 13.6534 16.6358 13.6836L17.6991 13.8618C18.379 13.976 18.539 14.4734 18.049 14.964L17.2224 15.7974C17.0825 15.9386 17.0058 16.2108 17.0491 16.4057L17.2858 17.4373C17.4724 18.2539 17.0425 18.5698 16.3259 18.143L15.3293 17.5482C15.1493 17.4407 14.8527 17.4407 14.6694 17.5482L13.6728 18.143C12.9596 18.5698 12.5263 18.2506 12.7129 17.4373L12.9496 16.4057C12.9929 16.2108 12.9163 15.9386 12.7763 15.7974L11.9497 14.964C11.4631 14.4734 11.6197 13.976 12.2997 13.8618L13.3629 13.6836C13.5395 13.6534 13.7528 13.4955 13.8328 13.3308L14.4194 12.1479C14.7394 11.506 15.2593 11.506 15.576 12.1479Z" stroke="#43454C" stroke-linecap="round" stroke-linejoin="round"/>
</svg>
