<svg width="20" height="20" viewBox="0 0 20 20" fill="none" xmlns="http://www.w3.org/2000/svg">
<path d="M15.5135 16.6665H15.922C16.8802 16.6665 17.6423 16.2299 18.3267 15.6195C20.0651 14.0687 15.9785 12.4998 14.5834 12.4998M12.9167 4.22381C13.106 4.18628 13.3025 4.1665 13.504 4.1665C15.0206 4.1665 16.2501 5.28579 16.2501 6.6665C16.2501 8.04722 15.0206 9.1665 13.504 9.1665C13.3025 9.1665 13.106 9.14673 12.9167 9.1092" stroke="#43454C" stroke-linecap="round"/>
<path d="M3.73443 13.4258C2.75195 13.9523 0.175948 15.0274 1.7449 16.3727C2.51133 17.0298 3.36492 17.4998 4.4381 17.4998H10.5619C11.6351 17.4998 12.4887 17.0298 13.2551 16.3727C14.8241 15.0274 12.2481 13.9523 11.2656 13.4258C8.96167 12.1912 6.03832 12.1912 3.73443 13.4258Z" stroke="#43454C"/>
<path d="M10.8333 6.24984C10.8333 8.09079 9.34095 9.58317 7.5 9.58317C5.65905 9.58317 4.16667 8.09079 4.16667 6.24984C4.16667 4.40889 5.65905 2.9165 7.5 2.9165C9.34095 2.9165 10.8333 4.40889 10.8333 6.24984Z" stroke="#43454C"/>
</svg>
