<svg width="20" height="20" viewBox="0 0 20 20" fill="none" xmlns="http://www.w3.org/2000/svg">
<path d="M2.08325 10.0002C2.08325 6.26821 2.08325 4.40223 3.24262 3.24287C4.40199 2.0835 6.26797 2.0835 9.99992 2.0835C13.7319 2.0835 15.5978 2.0835 16.7572 3.24287C17.9166 4.40223 17.9166 6.26821 17.9166 10.0002C17.9166 13.7321 17.9166 15.5981 16.7572 16.7575C15.5978 17.9168 13.7319 17.9168 9.99992 17.9168C6.26797 17.9168 4.40199 17.9168 3.24262 16.7575C2.08325 15.5981 2.08325 13.7321 2.08325 10.0002Z" stroke="#43454C"/>
<path d="M6.25 14.1668C8.19308 12.1317 11.786 12.0359 13.75 14.1668M12.0792 7.91683C12.0792 9.06742 11.1452 10.0002 9.99294 10.0002C8.84071 10.0002 7.90664 9.06742 7.90664 7.91683C7.90664 6.76624 8.84071 5.8335 9.99294 5.8335C11.1452 5.8335 12.0792 6.76624 12.0792 7.91683Z" stroke="#43454C" stroke-linecap="round"/>
</svg>
