<svg width="240" height="62" viewBox="0 0 240 62" fill="none" xmlns="http://www.w3.org/2000/svg">
<path d="M51.3074 40.5147C51.3074 36.8691 51.8542 33.6923 52.9479 30.9841C54.0937 28.2239 55.5779 25.9324 57.4007 24.1096C59.2235 22.2868 61.3067 20.9067 63.6503 19.9693C66.0459 19.0319 68.4937 18.5631 70.9935 18.5631C76.8264 18.5631 81.4355 20.3599 84.8206 23.9534C88.2058 27.4948 89.8984 32.7288 89.8984 39.6554C89.8984 40.3324 89.8724 41.0876 89.8203 41.9208C89.7682 42.702 89.7161 43.4051 89.664 44.0301H63.2597C63.5201 46.4257 64.6398 48.3266 66.6188 49.7328C68.5978 51.1389 71.2539 51.842 74.587 51.842C76.7223 51.842 78.8054 51.6597 80.8365 51.2952C82.9197 50.8785 84.6123 50.3838 85.9143 49.8109L87.4767 59.2634C86.8517 59.5758 86.0185 59.8883 84.9769 60.2008C83.9353 60.5133 82.7635 60.7737 81.4615 60.982C80.2116 61.2424 78.8575 61.4507 77.3993 61.6069C75.9411 61.7632 74.4828 61.8413 73.0246 61.8413C69.327 61.8413 66.098 61.2945 63.3378 60.2008C60.6297 59.1071 58.3642 57.6229 56.5414 55.748C54.7707 53.821 53.4427 51.5556 52.5573 48.9516C51.724 46.3476 51.3074 43.5353 51.3074 40.5147ZM78.6492 36.0619C78.5971 35.0724 78.4148 34.1089 78.1024 33.1715C77.842 32.234 77.3993 31.4008 76.7743 30.6716C76.2015 29.9425 75.4463 29.3436 74.5089 28.8749C73.6235 28.4062 72.5038 28.1718 71.1497 28.1718C69.8477 28.1718 68.728 28.4062 67.7906 28.8749C66.8532 29.2915 66.072 29.8644 65.447 30.5935C64.8221 31.3226 64.3273 32.182 63.9627 33.1715C63.6503 34.1089 63.4159 35.0724 63.2597 36.0619H78.6492Z" fill="url(#paint0_linear_1116_3329)"/>
<path d="M123.645 29.9686C122.603 29.7082 121.379 29.4478 119.973 29.1874C118.567 28.8749 117.057 28.7187 115.442 28.7187C114.713 28.7187 113.828 28.7968 112.786 28.953C111.797 29.0572 111.042 29.1874 110.521 29.3436V60.7476H98.8809V21.8442C100.964 21.115 103.412 20.438 106.224 19.813C109.089 19.136 112.265 18.7975 115.755 18.7975C116.38 18.7975 117.135 18.8496 118.02 18.9537C118.906 19.0058 119.791 19.11 120.676 19.2662C121.562 19.3704 122.447 19.5266 123.332 19.7349C124.218 19.8912 124.973 20.0995 125.598 20.3599L123.645 29.9686Z" fill="url(#paint1_linear_1116_3329)"/>
<path d="M143.477 60.7476H131.838V19.6568H143.477V60.7476ZM144.571 7.78266C144.571 9.91792 143.868 11.6105 142.462 12.8604C141.108 14.0582 139.493 14.6572 137.618 14.6572C135.744 14.6572 134.103 14.0582 132.697 12.8604C131.343 11.6105 130.666 9.91792 130.666 7.78266C130.666 5.64739 131.343 3.98084 132.697 2.78301C134.103 1.5331 135.744 0.908147 137.618 0.908147C139.493 0.908147 141.108 1.5331 142.462 2.78301C143.868 3.98084 144.571 5.64739 144.571 7.78266Z" fill="url(#paint2_linear_1116_3329)"/>
<path d="M164.34 39.8897C164.34 43.4832 165.147 46.3737 166.762 48.561C168.376 50.7483 170.772 51.842 173.949 51.842C174.99 51.842 175.954 51.816 176.839 51.7639C177.725 51.6597 178.454 51.5556 179.027 51.4514V30.2811C178.297 29.8123 177.334 29.4217 176.136 29.1093C174.99 28.7968 173.819 28.6405 172.621 28.6405C167.1 28.6405 164.34 32.3903 164.34 39.8897ZM190.666 59.4196C189.625 59.7321 188.427 60.0446 187.073 60.357C185.719 60.6174 184.287 60.8518 182.776 61.0601C181.318 61.2684 179.808 61.4247 178.245 61.5288C176.735 61.6851 175.277 61.7632 173.871 61.7632C170.486 61.7632 167.465 61.2684 164.809 60.2789C162.153 59.2894 159.913 57.8832 158.091 56.0605C156.268 54.1856 154.862 51.9462 153.872 49.3422C152.935 46.6861 152.466 43.7176 152.466 40.4366C152.466 37.1035 152.883 34.1089 153.716 31.4528C154.549 28.7447 155.747 26.4532 157.309 24.5783C158.872 22.7035 160.773 21.2713 163.012 20.2818C165.304 19.2923 167.908 18.7975 170.824 18.7975C172.438 18.7975 173.871 18.9537 175.121 19.2662C176.423 19.5787 177.725 20.0214 179.027 20.5942V2.00182L190.666 0.126953V59.4196Z" fill="url(#paint3_linear_1116_3329)"/>
<path d="M240 40.1241C240 43.353 239.531 46.3216 238.594 49.0297C237.656 51.6858 236.302 53.9773 234.532 55.9042C232.761 57.7791 230.626 59.2373 228.126 60.2789C225.678 61.3205 222.918 61.8413 219.845 61.8413C216.825 61.8413 214.064 61.3205 211.565 60.2789C209.117 59.2373 207.008 57.7791 205.237 55.9042C203.466 53.9773 202.086 51.6858 201.097 49.0297C200.107 46.3216 199.612 43.353 199.612 40.1241C199.612 36.8952 200.107 33.9527 201.097 31.2966C202.138 28.6405 203.544 26.3751 205.315 24.5002C207.138 22.6253 209.273 21.1671 211.721 20.1255C214.221 19.0839 216.929 18.5631 219.845 18.5631C222.814 18.5631 225.522 19.0839 227.97 20.1255C230.469 21.1671 232.605 22.6253 234.375 24.5002C236.146 26.3751 237.526 28.6405 238.516 31.2966C239.505 33.9527 240 36.8952 240 40.1241ZM228.126 40.1241C228.126 36.5306 227.397 33.7183 225.939 31.6872C224.532 29.604 222.501 28.5624 219.845 28.5624C217.189 28.5624 215.132 29.604 213.674 31.6872C212.215 33.7183 211.486 36.5306 211.486 40.1241C211.486 43.7176 212.215 46.582 213.674 48.7172C215.132 50.8004 217.189 51.842 219.845 51.842C222.501 51.842 224.532 50.8004 225.939 48.7172C227.397 46.582 228.126 43.7176 228.126 40.1241Z" fill="url(#paint4_linear_1116_3329)"/>
<path d="M25.4874 61.8729L0 47.4307L6.42234 36.0967L20.5844 44.1479L43.0378 4.47583L54.3718 10.8982L25.4874 61.8729Z" fill="url(#paint5_linear_1116_3329)"/>
<defs>
<linearGradient id="paint0_linear_1116_3329" x1="120" y1="0.126953" x2="120" y2="61.8729" gradientUnits="userSpaceOnUse">
<stop stop-color="#06BA4C"/>
<stop offset="1" stop-color="#039E40"/>
</linearGradient>
<linearGradient id="paint1_linear_1116_3329" x1="120" y1="0.126953" x2="120" y2="61.8729" gradientUnits="userSpaceOnUse">
<stop stop-color="#06BA4C"/>
<stop offset="1" stop-color="#039E40"/>
</linearGradient>
<linearGradient id="paint2_linear_1116_3329" x1="120" y1="0.126953" x2="120" y2="61.8729" gradientUnits="userSpaceOnUse">
<stop stop-color="#06BA4C"/>
<stop offset="1" stop-color="#039E40"/>
</linearGradient>
<linearGradient id="paint3_linear_1116_3329" x1="120" y1="0.126953" x2="120" y2="61.8729" gradientUnits="userSpaceOnUse">
<stop stop-color="#06BA4C"/>
<stop offset="1" stop-color="#039E40"/>
</linearGradient>
<linearGradient id="paint4_linear_1116_3329" x1="120" y1="0.126953" x2="120" y2="61.8729" gradientUnits="userSpaceOnUse">
<stop stop-color="#06BA4C"/>
<stop offset="1" stop-color="#039E40"/>
</linearGradient>
<linearGradient id="paint5_linear_1116_3329" x1="120" y1="0.126953" x2="120" y2="61.8729" gradientUnits="userSpaceOnUse">
<stop stop-color="#06BA4C"/>
<stop offset="1" stop-color="#039E40"/>
</linearGradient>
</defs>
</svg>
